<svg width="32" height="33" viewBox="0 0 32 33" fill="none" xmlns="http://www.w3.org/2000/svg">
<path d="M11.6593 18.5382C11.6593 18.1374 11.3344 17.8125 10.933 17.8125H8.3986C7.99791 17.8125 7.67261 18.1374 7.67261 18.5382V21.0722C7.67261 21.4736 7.99791 21.7985 8.3986 21.7985H10.933C11.3344 21.7985 11.6593 21.4736 11.6593 21.0722V18.5382Z" fill="#74ACDA"/>
<path d="M17.9938 18.5382C17.9938 18.1374 17.6686 17.8125 17.2681 17.8125H14.7331C14.3323 17.8125 14.0071 18.1374 14.0071 18.5382V21.0722C14.0071 21.4736 14.3323 21.7985 14.7331 21.7985H17.2681C17.6686 21.7985 17.9938 21.4736 17.9938 21.0722V18.5382Z" fill="#74ACDA"/>
<path d="M24.3285 18.5382C24.3285 18.1374 24.0033 17.8125 23.6025 17.8125H21.0678C20.6668 17.8125 20.3416 18.1374 20.3416 18.5382V21.0722C20.3416 21.4736 20.6668 21.7985 21.0678 21.7985H23.6025C24.0033 21.7985 24.3285 21.4736 24.3285 21.0722V18.5382Z" fill="#74ACDA"/>
<path d="M11.6593 24.8727C11.6593 24.471 11.3344 24.1465 10.933 24.1465H8.3986C7.99791 24.1465 7.67261 24.4711 7.67261 24.8727V27.4065C7.67261 27.8076 7.99791 28.1324 8.3986 28.1324H10.933C11.3344 28.1324 11.6593 27.8076 11.6593 27.4065V24.8727Z" fill="#74ACDA"/>
<path d="M17.9938 24.8727C17.9938 24.471 17.6686 24.1465 17.2681 24.1465H14.7331C14.3323 24.1465 14.0071 24.4711 14.0071 24.8727V27.4065C14.0071 27.8076 14.3323 28.1324 14.7331 28.1324H17.2681C17.6686 28.1324 17.9938 27.8076 17.9938 27.4065V24.8727Z" fill="#74ACDA"/>
<path d="M24.3285 24.8727C24.3285 24.471 24.0034 24.1465 23.6029 24.1465H21.0678C20.6668 24.1465 20.3416 24.4711 20.3416 24.8727V27.4065C20.3416 27.8076 20.6668 28.1324 21.0678 28.1324H23.6029C24.0034 28.1324 24.3285 27.8076 24.3285 27.4065V24.8727Z" fill="#74ACDA"/>
<path d="M28.8605 4.44674V8.31746C28.8605 10.0671 27.4409 11.4771 25.6917 11.4771H23.6928C21.9432 11.4771 20.505 10.0671 20.505 8.31746V4.43262H11.4957V8.31746C11.4957 10.0671 10.0575 11.4771 8.30835 11.4771H6.30908C4.5598 11.4771 3.14054 10.0671 3.14054 8.31746V4.44674C1.61152 4.49279 0.355225 5.7578 0.355225 7.3127V29.998C0.355225 31.5824 1.63939 32.8835 3.22347 32.8835H28.7773C30.3591 32.8835 31.6455 31.5795 31.6455 29.998V7.3127C31.6455 5.7578 30.3892 4.49279 28.8605 4.44674ZM27.932 28.5855C27.932 29.2701 27.3769 29.8255 26.6919 29.8255H5.25407C4.56946 29.8255 4.01408 29.2701 4.01408 28.5855V16.8676C4.01408 16.1828 4.56912 15.6272 5.25407 15.6272H26.6919C27.3769 15.6272 27.932 16.1828 27.932 16.8676V28.5855Z" fill="#74ACDA"/>
<path d="M6.302 9.40214H8.27913C8.87927 9.40214 9.36589 8.9163 9.36589 8.31616V1.97013C9.36589 1.37 8.87927 0.883789 8.27913 0.883789H6.302C5.70187 0.883789 5.21533 1.37 5.21533 1.97013V8.31616C5.21533 8.9163 5.70187 9.40214 6.302 9.40214Z" fill="#74ACDA"/>
<path d="M23.6675 9.40214H25.6446C26.2444 9.40214 26.731 8.9163 26.731 8.31616V1.97013C26.731 1.37 26.2444 0.883789 25.6446 0.883789H23.6675C23.0673 0.883789 22.5808 1.37 22.5808 1.97013V8.31616C22.5808 8.9163 23.0673 9.40214 23.6675 9.40214Z" fill="#74ACDA"/>
</svg>
