<svg width="33" height="33" viewBox="0 0 33 33" fill="none" xmlns="http://www.w3.org/2000/svg">
<path d="M32.2126 16.286C32.2126 25.1224 25.049 32.2861 16.2125 32.2861C7.37602 32.2861 0.212646 25.1224 0.212646 16.286C0.212646 7.4495 7.37602 0.286133 16.2125 0.286133C25.049 0.286133 32.2126 7.4495 32.2126 16.286Z" fill="#74ACDA"/>
<path d="M26.6639 9.9107L25.1488 8.39508C24.4168 7.66388 23.1628 7.66388 22.4311 8.39508L13.748 17.0387L9.99397 13.255C9.26277 12.5238 8.00805 12.5238 7.27685 13.255L5.76123 14.7706C5.02979 15.5025 5.02979 16.7564 5.76123 17.4879L12.3979 24.1768C13.1296 24.9085 14.3836 24.9085 15.1152 24.1768L16.6307 22.6617C16.7035 22.5887 16.7634 22.5074 16.8218 22.4254L26.6639 12.628C27.3956 11.8966 27.3956 10.6421 26.6639 9.9107Z" fill="white"/>
</svg>
