<svg width="48" height="49" viewBox="0 0 48 49" fill="none" xmlns="http://www.w3.org/2000/svg">
<path d="M33.8515 14.7248C34.5931 15.4806 34.4153 16.9637 33.4811 18.0757L17.6588 33.8679C16.7395 34.8022 15.0495 34.995 14.3079 34.0607C13.3886 33.3042 13.5663 31.8218 14.6934 30.7098L30.3221 15.0953C31.4348 13.9833 32.9323 13.8056 33.8515 14.7248ZM43.7272 4.6857C39.4271 0.415567 33.4811 -0.518709 30.3221 2.63956L21.9446 11.0028C19.8984 13.049 20.0911 17.1414 21.3957 20.3004C22.3151 19.3661 23.442 18.0757 24.554 16.771C24.7467 16.0294 24.554 14.7247 25.1028 14.1759L33.4811 5.81257C35.3345 3.94417 38.8932 4.50791 41.4883 6.91031C44.0832 9.51964 44.6464 13.2417 42.793 15.0953L34.4154 23.4585C33.8515 23.844 32.5468 23.4584 31.8052 23.6511C30.5005 24.7631 29.1952 25.8901 28.276 26.8094C31.4348 28.1147 35.3345 28.4851 37.3808 26.439L45.7734 18.0757C48.9323 15.0953 47.998 8.9565 43.7272 4.6857ZM23.0566 34.8022L14.6934 42.9722C12.8248 45.019 9.10349 44.2776 6.68615 41.8752C4.07615 39.2652 3.51297 35.558 5.38151 33.6902L13.7591 25.327C14.3079 24.7631 16.1764 24.9415 16.9179 24.7631C18.2226 23.4584 19.5272 22.5392 20.4615 21.605C17.0956 20.3003 12.6471 20.3003 10.6008 22.3464L2.20829 30.7098C-0.935578 33.6902 -0.0163644 39.8288 4.26884 44.0991C8.5547 48.3699 14.6934 49.3043 17.8522 46.146L26.052 37.7827C28.276 35.7364 27.9055 31.6434 26.6008 28.4851C25.6666 29.4194 24.7467 30.5314 23.442 31.8218C23.2493 32.756 23.6198 34.0607 23.0566 34.8022Z" fill="white"/>
</svg>
