<svg width="143" height="144" viewBox="0 0 143 144" fill="none" xmlns="http://www.w3.org/2000/svg">
<g filter="url(#filter0_d_350_1914)">
<path d="M112.164 7.82031H38.3021C23.381 7.82031 11.2852 19.9162 11.2852 34.8372V108.803C11.2852 123.724 23.381 135.82 38.3021 135.82H112.164C127.085 135.82 139.181 123.724 139.181 108.803V34.8372C139.181 19.9162 127.085 7.82031 112.164 7.82031Z" fill="url(#paint0_linear_350_1914)"/>
</g>
<path d="M112.164 13.2236H38.3022C26.3656 13.2236 16.689 22.9002 16.689 34.8369V108.803C16.689 120.74 26.3656 130.416 38.3022 130.416H112.164C124.101 130.416 133.778 120.74 133.778 108.803V34.8369C133.778 22.9002 124.101 13.2236 112.164 13.2236Z" fill="white"/>
<path d="M112.164 13.2236H38.3022C26.3656 13.2236 16.689 22.9002 16.689 34.8369V55.5401C16.689 67.4768 26.3656 77.1534 38.3022 77.1534H112.164C124.101 77.1534 133.778 67.4768 133.778 55.5401V34.8369C133.778 22.9002 124.101 13.2236 112.164 13.2236Z" fill="white"/>
<path d="M127.529 71.4778C127.601 100.339 104.031 124.191 75.3584 124.274C47.1012 124.355 23.0023 100.638 22.9377 72.6843C22.8692 43.076 45.9779 19.4487 75.0844 19.3674C104.43 19.2854 127.456 42.1642 127.529 71.4778ZM64.0644 96.7088L64.1005 96.7481C64.1159 97.8213 65.8871 98.5298 64.7446 99.8436C64.489 100.465 63.5571 101.014 64.5379 101.768C64.6739 102.134 64.7188 102.74 64.9592 102.831C69.7458 104.647 69.5383 108.966 70.1418 112.918C70.4642 115.03 71.0604 117.1 71.3797 119.212C71.5619 120.417 72.0876 120.804 73.2103 120.563C74.0273 120.594 74.8722 120.501 75.6564 120.677C78.5109 121.319 79.4266 119.459 79.9062 117.309C80.5045 114.626 80.9438 111.899 81.296 109.172C81.6211 106.654 82.1842 104.543 84.8819 103.352C86.6266 102.582 88.4344 101.472 89.3834 99.15C86.5953 99.1051 84.5423 100.738 82.1636 101.058C77.3625 101.704 72.5416 102.77 67.9748 100.079C68.8399 99.8084 69.8359 99.7237 70.541 99.2269C71.7921 98.3453 72.1638 97.3145 70.2052 96.7339C69.2017 95.9023 68.7416 94.7701 68.9669 93.5527C69.3511 91.4772 68.4289 90.4742 66.539 90.0613C67.7433 89.7912 69.5899 90.6096 69.6395 88.1129C67.7575 88.1129 65.9376 88.1129 64.1177 88.1131C63.7118 88.1132 63.3044 88.0921 62.9005 88.121C62.4172 88.1555 61.8955 88.0153 61.5062 88.4909C60.4614 89.7669 61.5793 94.6549 63.1698 95.7034C63.2437 95.8905 63.3456 96.0609 63.4755 96.2146C63.6718 96.3793 63.868 96.5441 64.0644 96.7088ZM111.622 100.29C115.516 100.187 113.367 97.2146 113.816 95.5184C113.972 94.9279 114.343 93.7609 113.006 93.6562C111.623 93.548 112.113 94.638 111.987 95.3381C111.862 96.0286 111.698 96.712 111.551 97.3985C109.407 99.5411 107.313 101.829 103.762 99.7724C106.327 102.042 109.032 102.149 111.622 100.29ZM106.194 97.9783C108.11 97.7955 109.114 96.5838 109.346 94.8302C109.508 93.6025 108.581 92.7079 107.598 92.179C106.183 91.4181 104.849 91.6827 103.872 93.0785C102.039 95.6226 102.852 97.3401 106.194 97.9783ZM47.4595 92.6933C46.1092 91.6932 44.7607 91.322 43.3645 92.6331C42.47 93.4731 42.0971 94.4688 42.487 95.6391C43.0916 97.4545 44.4299 98.1196 46.2777 97.8811C49.0685 96.5029 49.4331 94.9023 47.4595 92.6933ZM54.2717 99.2091L54.3087 99.174C53.8965 99.3792 53.4843 99.5844 53.0721 99.7896C52.6358 99.8652 52.1994 99.9408 51.7631 100.016C51.8949 100.206 52.0267 100.395 52.1584 100.585C48.0798 104.45 43.1873 103.871 37.6843 102.79C41.0518 106.718 44.1949 109.921 48.2134 112.161C48.9555 112.721 49.4984 113.628 50.8009 113.699C50.6252 112.723 50.543 111.916 50.3298 111.145C49.6423 108.661 49.5494 106.656 52.3362 105.054C54.9348 103.559 55.8796 100.697 56.0898 97.7213C56.106 97.4923 56.3046 96.774 55.581 97.0919C55.3469 97.1948 55.2338 97.5726 55.0653 97.8246C54.585 98.1626 54.2988 98.6117 54.2717 99.2091ZM55.3616 116.277C58.248 117.275 58.8843 116.96 58.4393 114.191C57.9951 111.428 58.0664 108.754 58.4497 106.017C58.6651 104.478 58.5501 102.89 57.8604 101.24C56.4589 102.547 56.7998 104.575 55.3092 105.514C52.409 108.076 52.438 114.038 55.3616 116.277ZM40.7591 100.516C41.842 102.613 43.3405 101.45 44.8616 101.002C43.6105 100.91 43.6755 99.3633 42.575 99.2094C39.8986 97.9477 38.6179 95.0244 39.7494 92.7593C41.6029 89.0489 44.9288 88.3492 49.6564 90.6937C50.4013 89.6044 50.5845 88.4778 49.9217 87.2787C50.3408 85.7639 49.9704 85.0172 48.1925 85.0894C45.3476 85.2049 42.4914 85.2065 39.6464 85.0938C38.0385 85.0301 37.5071 85.5801 37.5462 87.1679C37.6339 90.7243 37.5588 94.2846 37.5847 97.843C37.5917 98.8013 37.3129 100.034 38.9743 99.9279C39.4344 100.532 40.1544 100.349 40.7591 100.516ZM98.4789 101.123C97.6567 100.085 96.8346 99.0469 95.6711 97.5782C95.669 100.738 96.4409 103.231 98.5738 104.471C101.914 106.412 102.172 108.86 100.981 112.02C100.859 112.344 100.964 112.753 100.964 113.207C102.176 112.965 102.899 112.287 103.566 111.524C107.272 109.529 110.046 106.534 112.932 103.127C108.576 103.877 103.759 103.209 98.4789 101.123ZM85.0527 76.3379C85.031 76.5792 85.0093 76.8205 84.9876 77.0617C84.9928 82.6781 84.9687 88.2949 85.0325 93.9106C85.043 94.8282 84.466 96.1219 85.7751 96.5919C86.9034 96.9969 87.9276 96.5022 88.8336 95.6833C91.2094 93.5359 94.1894 92.0735 96.0421 89.3305C97.8404 90.0415 96.5685 92.1494 97.8794 93.3002C97.8794 87.5445 97.8484 81.9582 97.9029 76.3727C97.9154 75.0943 97.5926 74.5692 96.2106 74.6079C93.0609 74.696 89.9047 74.698 86.7556 74.5969C85.3783 74.5527 84.9311 75.0834 85.0527 76.3379ZM72.7371 89.3126C70.6281 90.3019 70.5079 92.1897 71.0815 93.956C71.6687 95.764 72.647 97.5757 75.139 97.2941C76.1573 96.6217 77.528 97.0772 78.5043 96.1521C80.2764 94.4729 80.7492 92.5604 79.5286 90.442C78.1044 87.9704 75.9357 87.6645 72.7371 89.3126ZM63.3112 118.888C64.6353 118.94 65.4867 120.335 66.9828 120.068C67.9969 119.887 69.2741 120.099 69.0242 118.573C68.4117 114.834 67.8146 111.075 66.831 107.426C66.501 106.202 65.022 105.286 63.4567 105.188C62.9958 104.351 62.6198 103.407 61.2694 103.34C61.2694 107.972 61.3131 112.41 61.2456 116.846C61.2222 118.382 61.6406 119.196 63.3112 118.888ZM66.2978 80.6447C66.4823 79.3506 65.9975 78.8378 64.6218 78.8774C61.558 78.9656 58.4855 79.0056 55.4253 78.8693C53.583 78.7872 53.2121 79.5445 53.2489 81.1937C53.3431 85.4135 53.2803 89.6367 53.2803 94.3425C54.78 92.5781 54.2865 90.6025 55.2681 89.1959C56.5468 89.5625 56.278 92.1663 57.9566 91.4602C59.1156 90.9726 58.5726 89.2442 58.4711 88.1207C58.1288 84.3315 61.1235 84.6161 63.1537 84.6329C66.3448 84.6593 67.1255 83.455 66.2978 80.6447ZM96.0579 105.291C95.1065 103.579 94.1552 101.868 93.1393 100.04C91.083 102.223 89.2666 104.394 86.5167 105.48C85.5476 105.862 85.0613 106.848 85.065 107.983C85.0777 111.84 85.0699 115.697 85.0699 119.451C89.0839 118.952 92.6578 117.68 96.1561 116.166C98.7321 113.958 98.6752 107.657 96.0579 105.291ZM80.1104 86.8308C80.707 87.2403 80.9427 88.1543 82.0358 88.2274C82.0358 81.6837 82.0116 75.274 82.0552 68.8648C82.0644 67.4989 81.7465 66.8135 80.1891 66.8607C77.1329 66.9533 74.0715 66.8767 71.0123 66.8642C69.9217 66.8597 68.8737 66.8871 69.1472 68.4631C69.1211 73.0352 69.1506 77.6088 69.0396 82.1788C68.9992 83.8462 69.493 84.6133 71.251 84.5541C74.4109 84.4476 77.3833 85.1939 80.1104 86.8308ZM62.5181 25.2905C49.6734 28.5497 40.3357 36.4052 33.4289 47.4477C32.6978 48.6166 32.8069 49.4483 34.1758 50.1271C39.2054 52.6211 44.2312 54.9856 50.0371 52.7693C61.0764 51.0924 69.4006 39.5199 67.669 28.2568C66.9794 23.7712 66.8121 23.6749 62.5181 25.2905ZM41.0041 75.9319C41.0361 76.1164 41.0682 76.3008 41.1003 76.4852C37.1686 76.8588 33.2423 77.32 29.3026 77.5652C27.5979 77.6712 26.9132 78.1669 27.2828 79.9252C28.4154 85.3143 29.9715 90.5483 32.7239 95.362C33.0971 96.0146 33.3021 96.9223 34.5221 96.7995C34.5221 92.5954 34.614 88.4161 34.4816 84.244C34.4197 82.2935 34.9115 81.5214 37.0068 81.627C40.3759 81.7969 43.772 81.494 47.1342 81.7223C49.7715 81.9014 50.6936 80.938 50.2654 78.4498C49.8833 76.2301 50.8992 75.7028 52.9827 75.7895C56.7634 75.947 60.5568 75.7713 64.342 75.8594C65.8078 75.8936 66.3399 75.4554 66.2787 73.9597C66.1742 71.4069 66.3821 68.8371 66.199 66.2931C66.0382 64.0582 66.9344 63.5298 69.0059 63.6205C72.4792 63.7726 75.9644 63.6609 79.4446 63.654C84.8718 63.6432 84.9688 63.6399 85.0269 68.8907C85.0475 70.7453 85.7347 71.1025 87.3724 71.0601C91.0549 70.9648 94.7457 71.1303 98.4248 70.9829C100.394 70.904 101.081 71.4368 101.021 73.5041C100.874 78.6137 101.006 83.7308 100.956 88.8441C100.939 90.5958 101.455 91.2055 103.053 90.1386C104.522 89.1586 106.127 89.115 107.776 89.3712C109.083 89.5742 110.034 90.6223 111.472 90.7099C116.853 91.0379 116.847 91.103 116.97 96.3593C116.973 96.4987 117.149 96.634 117.388 96.9799C122.238 88.7761 124.526 80.0793 124.331 70.6867C124.3 69.1994 123.544 69.1401 122.418 69.047C118.009 68.6823 113.606 68.2319 109.2 67.8134C111.769 67.1755 114.3 66.8883 116.839 66.7051C124.628 66.1429 124.579 66.1721 122.498 58.5432C121.968 56.6032 121.108 55.6729 118.98 55.6317C114.588 55.5468 110.201 55.2121 105.812 54.9782C104.972 54.9335 103.979 55.178 103.707 53.8484C107.519 53.5874 111.285 53.2866 115.057 53.0813C120.793 52.7691 120.8 52.7909 118.004 47.9664C117.543 47.1718 116.948 46.4442 116.567 45.616C115.408 43.0977 113.508 42.1332 110.734 42.1188C106.957 42.0992 103.183 41.6983 99.407 41.4826C98.5913 41.436 97.7543 41.5089 97.564 40.3795C102.101 40.0566 106.635 39.7338 111.308 39.4013C102.813 27.9392 82.4359 20.8069 69.8848 23.9289C70.0538 24.8223 70.2371 25.7132 70.3894 26.6094C72.0147 36.1735 69.1809 44.2592 61.8322 50.5005C54.2211 56.9647 45.5198 57.755 36.1884 54.6857C34.3728 54.0885 32.7287 51.3328 30.9275 52.9269C29.5168 54.1753 29.2549 56.7483 28.5599 58.7595C28.315 59.4681 28.2994 60.2558 28.1682 61.0756C33.6561 62.0166 39.1362 61.5954 44.4416 62.6941C44.3615 63.1493 44.3509 63.3214 44.3283 63.323C40.8721 63.5626 37.3783 63.5589 33.971 64.0996C31.7306 64.4551 28.6383 62.7761 27.3794 65.4846C26.3973 67.5974 26.5715 70.2672 26.5928 72.7386C26.6052 74.1894 27.0782 74.6491 28.5067 74.754C32.6788 75.0603 36.8391 75.5277 41.0041 75.9319ZM47.5188 99.9258C48.9228 100.615 49.8403 100.466 50.3902 99.3407C50.5226 99.07 50.305 98.2998 50.1823 98.2843C49.0323 98.1397 48.444 99.0165 47.5188 99.9258Z" fill="#545758"/>
<path d="M50.0369 52.7689C44.231 54.9852 39.2052 52.6207 34.1756 50.1268C32.8067 49.448 32.6976 48.6163 33.4287 47.4474C40.3355 36.4048 49.6732 28.5493 62.517 25.2907C63.5768 25.1482 63.8699 25.7373 64.0812 26.6752C65.9803 35.1072 62.5217 43.826 55.4898 49.2102C53.7346 50.5541 51.3128 50.7829 50.0369 52.7689Z" fill="#F8C822"/>
<path d="M67.9744 100.08C72.5415 102.77 77.3623 101.704 82.1635 101.058C84.5422 100.738 86.5951 99.1055 89.3832 99.1503C88.4342 101.472 86.6265 102.582 84.8818 103.353C82.184 104.543 81.6209 106.654 81.2958 109.172C80.9437 111.9 80.5043 114.626 79.906 117.309C79.4265 119.46 78.5107 121.32 75.6563 120.678C74.8721 120.501 74.0272 120.594 73.2103 120.563C72.8045 116.014 72.3847 111.466 72.0034 106.914C71.9184 105.899 72.0846 104.516 70.9103 104.341C68.537 103.988 66.8769 102.064 64.5378 101.768C63.557 101.014 64.4889 100.465 64.7444 99.8441C65.3551 99.7945 65.9659 99.7448 66.5767 99.6952C67.04 99.8154 67.5035 99.9356 67.9669 100.056L67.9744 100.08Z" fill="#F8C822"/>
<path d="M96.0424 89.3307C94.1897 92.0737 91.2097 93.5361 88.8339 95.6835C87.9279 96.5024 86.9036 96.9971 85.7753 96.592C84.4663 96.1221 85.0433 94.8284 85.0328 93.9108C84.969 88.2951 84.9931 82.6783 84.9879 77.062C88.4286 76.6668 91.9291 77.5588 95.3428 76.582C96.4664 77.143 95.8961 78.1759 95.9199 78.9691C96.0233 82.4211 96.0121 85.8765 96.0424 89.3307Z" fill="#386C95"/>
<path d="M80.1101 86.8305C77.383 85.1936 74.4107 84.4473 71.2508 84.5538C69.4928 84.613 68.9989 83.8459 69.0394 82.1785C69.1503 77.6085 69.1208 73.0349 69.1464 68.4619C72.0008 68.5049 74.8595 68.6551 77.7093 68.5543C79.5332 68.4898 80.2354 68.99 80.1885 70.9278C80.0601 76.2263 80.123 81.5293 80.1101 86.8305Z" fill="#386C95"/>
<path d="M96.156 116.166C92.6578 117.68 89.0838 118.952 85.0698 119.45C85.0698 115.697 85.0776 111.84 85.065 107.983C85.0612 106.847 85.5475 105.862 86.5166 105.479C89.2665 104.393 91.0828 102.223 93.1392 100.04C94.1551 101.868 95.1065 103.579 96.0578 105.291C95.9179 108.917 95.7216 112.545 96.156 116.166Z" fill="#386C95"/>
<path d="M66.2977 80.6445C67.1254 83.4548 66.3447 84.659 63.1536 84.6326C61.1234 84.6158 58.1287 84.3313 58.4709 88.1206C58.5724 89.2441 59.1154 90.9725 57.9564 91.46C56.2777 92.1662 56.5467 89.5623 55.2681 89.1958C55.3209 87.066 55.4764 84.9321 55.3925 82.8076C55.3295 81.2113 55.8512 80.6927 57.4626 80.7391C60.4042 80.8238 63.3523 80.6882 66.2977 80.6445Z" fill="#386C95"/>
<path d="M63.4568 105.188C65.0221 105.286 66.5011 106.201 66.8311 107.426C67.8147 111.075 68.4118 114.834 69.0243 118.573C69.2742 120.099 67.997 119.887 66.9829 120.068C65.4868 120.335 64.6354 118.94 63.312 118.888C63.3608 114.321 63.4088 109.755 63.4568 105.188Z" fill="#386C95"/>
<path d="M48.2136 112.161C44.1952 109.921 41.052 106.718 37.6846 102.79C43.1875 103.871 48.08 104.45 52.158 100.584C52.6129 100.492 53.0034 100.325 53.0723 99.7894C53.4846 99.5842 53.8968 99.379 54.309 99.1738C54.684 101.281 53.2066 102.683 51.7695 103.191C46.9398 104.901 46.7989 108.148 48.2136 112.161Z" fill="#F8C822"/>
<path d="M72.7369 89.3124C75.9355 87.6642 78.1042 87.9702 79.5284 90.4417C80.749 92.5601 80.2762 94.4727 78.5041 96.1518C77.5278 97.0769 76.1572 96.6215 75.1388 97.2939C72.8887 95.0689 71.9933 92.4368 72.7369 89.3124Z" fill="#F8C822"/>
<path d="M98.4789 101.123C103.758 103.209 108.576 103.877 112.932 103.127C110.046 106.535 107.272 109.529 103.565 111.524C103.217 110.477 103.651 109.509 103.958 108.567C104.56 106.724 104.546 105.588 102.222 104.793C100.703 104.274 98.4146 103.65 98.4789 101.123Z" fill="#F8C822"/>
<path d="M38.9741 99.9284C38.984 96.5951 39.1225 93.2554 38.9582 89.9307C38.8499 87.7394 39.6677 87.1466 41.7331 87.2616C44.4541 87.4131 47.1904 87.2875 49.9208 87.2801C50.5843 88.4783 50.4011 89.6049 49.6562 90.6942C44.9285 88.3497 41.6026 89.0494 39.7492 92.7598C38.6177 95.0249 39.8984 97.9482 42.575 99.2095C42.5883 100.503 41.5989 100.406 40.7589 100.516C40.1542 100.35 39.4342 100.533 38.9741 99.9284Z" fill="#386C95"/>
<path d="M66.5388 90.0617C68.4287 90.4746 69.351 91.4775 68.9668 93.5531C68.7415 94.7705 69.2016 95.9027 70.2053 96.7341C70.2718 98.0758 69.2526 97.9714 68.3989 98.0876C67.9877 98.0469 67.5765 98.0062 67.1653 97.9655C66.7612 96.0069 65.219 96.9103 64.1004 96.7485C64.1004 96.7485 64.0642 96.7091 64.0646 96.7092C63.8684 96.5446 63.6719 96.3798 63.4753 96.2149C63.3454 96.0613 63.2435 95.8908 63.1708 95.7037C63.2064 94.8136 63.3873 93.8999 63.2483 93.0377C62.8029 90.2747 63.9854 89.4454 66.5388 90.0617Z" fill="#386C95"/>
<path d="M55.3091 105.514C56.7997 104.575 56.4588 102.547 57.8604 101.24C58.55 102.89 58.665 104.478 58.4496 106.017C58.0663 108.754 57.9951 111.428 58.4392 114.191C58.8843 116.96 58.2479 117.274 55.3617 116.277C55.3443 112.69 55.3266 109.102 55.3091 105.514Z" fill="#386C95"/>
<path d="M46.2775 97.8812C44.4297 98.1197 43.0914 97.4546 42.4867 95.6392C42.0969 94.4689 42.4698 93.4732 43.3643 92.6332C44.7604 91.3221 46.109 91.6932 47.4604 92.6928C47.6957 94.5652 46.6459 96.1456 46.2775 97.8812Z" fill="#F8C822"/>
<path d="M103.872 93.0785C104.849 91.6826 106.183 91.418 107.598 92.179C108.582 92.7078 109.508 93.6025 109.346 94.8302C109.115 96.5837 108.111 97.7954 106.193 97.9783C104.751 96.6609 104.223 94.9112 103.872 93.0785Z" fill="#F8C822"/>
<path d="M111.551 97.3984C111.574 98.362 111.598 99.3255 111.621 100.289C109.032 102.149 106.327 102.042 103.762 99.7724C107.313 101.829 109.408 99.5411 111.551 97.3984Z" fill="#386C95"/>
<path d="M64.1006 96.7485C65.2192 96.9103 66.7615 96.007 67.1656 97.9654C66.9694 98.5419 66.7731 99.1185 66.5769 99.6952C65.9661 99.7448 65.3553 99.7945 64.7446 99.8441C65.8872 98.5302 64.116 97.8217 64.1006 96.7485Z" fill="#5B5C5D"/>
<path d="M68.3992 98.0869C69.2529 97.9708 70.2722 98.0751 70.2057 96.7334C72.1641 97.3142 71.7923 98.3449 70.5412 99.2265C69.8361 99.7233 68.8401 99.8081 67.9749 100.079C67.9747 100.079 67.9672 100.055 67.9716 100.053C68.117 99.3966 68.2581 98.7417 68.3992 98.0869Z" fill="#5B5C5D"/>
<path d="M85.0524 76.3379C88.4826 76.4192 91.9128 76.5006 95.3426 76.5819C91.9285 77.5586 88.428 76.6666 84.9873 77.0618C85.009 76.8205 85.0307 76.5792 85.0524 76.3379Z" fill="#5B5C5D"/>
<path d="M40.7593 100.515C41.5992 100.405 42.5886 100.503 42.5754 99.209C43.6757 99.3632 43.6106 100.91 44.8617 101.002C43.3406 101.45 41.8422 102.613 40.7593 100.515Z" fill="#5B5C5D"/>
<path d="M47.5186 99.9258C48.4439 99.0165 49.0322 98.1397 50.1821 98.2843C50.3049 98.2997 50.5225 99.07 50.3901 99.3408C49.8401 100.466 48.9226 100.615 47.5186 99.9258Z" fill="#5B5C5D"/>
<path d="M55.0654 97.8242C55.4932 98.6818 55.2581 99.1601 54.272 99.2087C54.299 98.6114 54.5851 98.1623 55.0654 97.8242Z" fill="#F8C822"/>
<path d="M53.0722 99.79C53.0032 100.326 52.6127 100.493 52.1579 100.585C52.0267 100.396 51.895 100.206 51.7632 100.017C52.1995 99.9412 52.6359 99.8656 53.0722 99.79Z" fill="#5B5C5D"/>
<path d="M68.3988 98.0871C68.2577 98.7419 68.1166 99.3968 67.9712 100.053C67.5035 99.935 67.04 99.8148 66.5767 99.6946C66.7729 99.1179 66.9692 98.5413 67.1654 97.9648C67.5765 98.0057 67.9877 98.0464 68.3988 98.0871Z" fill="#545758"/>
<defs>
<filter id="filter0_d_350_1914" x="0.239036" y="0.456233" width="142.624" height="142.728" filterUnits="userSpaceOnUse" color-interpolation-filters="sRGB">
<feFlood flood-opacity="0" result="BackgroundImageFix"/>
<feColorMatrix in="SourceAlpha" type="matrix" values="0 0 0 0 0 0 0 0 0 0 0 0 0 0 0 0 0 0 127 0" result="hardAlpha"/>
<feOffset dx="-3.68204"/>
<feGaussianBlur stdDeviation="3.68204"/>
<feColorMatrix type="matrix" values="0 0 0 0 0.00392157 0 0 0 0 0.00392157 0 0 0 0 0.00392157 0 0 0 0.5 0"/>
<feBlend mode="normal" in2="BackgroundImageFix" result="effect1_dropShadow_350_1914"/>
<feBlend mode="normal" in="SourceGraphic" in2="effect1_dropShadow_350_1914" result="shape"/>
</filter>
<linearGradient id="paint0_linear_350_1914" x1="131.271" y1="15.7828" x2="19.1956" y2="127.858" gradientUnits="userSpaceOnUse">
<stop stop-color="#19212C"/>
<stop offset="0.03404" stop-color="#212934"/>
<stop offset="0.08955" stop-color="#39424C"/>
<stop offset="0.15922" stop-color="#606973"/>
<stop offset="0.2" stop-color="#7A848D"/>
<stop offset="0.24156" stop-color="#828C94"/>
<stop offset="0.30933" stop-color="#9BA3A9"/>
<stop offset="0.3949" stop-color="#C2C7CB"/>
<stop offset="0.49406" stop-color="#F9FAFA"/>
<stop offset="0.5" stop-color="#FDFEFE"/>
<stop offset="0.52388" stop-color="#CFD1D4"/>
<stop offset="0.55084" stop-color="#A3A7AC"/>
<stop offset="0.57911" stop-color="#7D8289"/>
<stop offset="0.6083" stop-color="#5E656D"/>
<stop offset="0.63875" stop-color="#474E57"/>
<stop offset="0.67098" stop-color="#363D48"/>
<stop offset="0.70618" stop-color="#2C343E"/>
<stop offset="0.75" stop-color="#29313C"/>
<stop offset="0.81273" stop-color="#2B333E"/>
<stop offset="0.85773" stop-color="#343D47"/>
<stop offset="0.8972" stop-color="#444C57"/>
<stop offset="0.93348" stop-color="#59636C"/>
<stop offset="0.96726" stop-color="#757F88"/>
<stop offset="0.99933" stop-color="#97A2AA"/>
<stop offset="1" stop-color="#98A3AB"/>
</linearGradient>
</defs>
</svg>
