<svg width="105" height="106" viewBox="0 0 105 106" fill="none" xmlns="http://www.w3.org/2000/svg">
<path d="M104.914 52.4778C104.986 81.3391 81.4161 105.191 52.7436 105.274C24.4865 105.355 0.387586 81.6379 0.322906 53.6843C0.254439 24.076 23.3632 0.448714 52.4696 0.367407C81.8156 0.285434 104.841 23.1642 104.914 52.4778ZM41.4497 77.7088L41.4857 77.7481C41.5012 78.8213 43.2724 79.5298 42.13 80.8436C41.8744 81.465 40.9424 82.0139 41.9232 82.768C42.0591 83.1342 42.1041 83.7399 42.3445 83.8311C47.1311 85.6473 46.9236 89.966 47.527 93.9183C47.8494 96.0299 48.4457 98.1 48.765 100.212C48.9472 101.417 49.4729 101.804 50.5955 101.563C51.4126 101.594 52.2575 101.501 53.0417 101.677C55.8961 102.319 56.8118 100.459 57.2914 98.3088C57.8897 95.6258 58.3291 92.8995 58.6812 90.1718C59.0063 87.6537 59.5694 85.5431 62.2672 84.3522C64.0119 83.582 65.8196 82.4716 66.7686 80.15C63.9805 80.1051 61.9277 81.738 59.549 82.058C54.7478 82.704 49.9269 83.7696 45.3601 81.0788C46.2251 80.8084 47.2211 80.7237 47.9263 80.2269C49.1774 79.3453 49.5491 78.3145 47.5904 77.7339C46.5869 76.9023 46.1269 75.7701 46.3522 74.5527C46.7364 72.4772 45.8141 71.4742 43.9242 71.0613C45.1285 70.7912 46.9752 71.6096 47.0248 69.1129C45.1428 69.1129 43.3228 69.1129 41.5029 69.1131C41.0971 69.1132 40.6896 69.0921 40.2858 69.121C39.8024 69.1555 39.2808 69.0153 38.8914 69.4909C37.8466 70.7669 38.9646 75.6549 40.5552 76.7034C40.629 76.8905 40.7309 77.0609 40.8607 77.2146C41.0571 77.3793 41.2534 77.5441 41.4497 77.7088ZM89.0069 81.2898C92.9011 81.1874 90.7526 78.2146 91.2011 76.5184C91.3572 75.9279 91.7287 74.7609 90.391 74.6562C89.0082 74.548 89.4986 75.638 89.3719 76.3381C89.2471 77.0286 89.0829 77.712 88.936 78.3985C86.7926 80.5411 84.698 82.829 81.1469 80.7724C83.7122 83.0422 86.417 83.1492 89.0069 81.2898ZM83.5788 78.9783C85.4957 78.7955 86.4997 77.5838 86.7314 75.8302C86.8936 74.6025 85.9667 73.7079 84.9834 73.179C83.5686 72.4181 82.2345 72.6827 81.2572 74.0785C79.4238 76.6226 80.2376 78.3401 83.5788 78.9783ZM24.8448 73.6933C23.4945 72.6932 22.1459 72.322 20.7497 73.6331C19.8553 74.4731 19.4824 75.4688 19.8722 76.6391C20.4769 78.4545 21.8153 79.1196 23.6631 78.8811C26.4539 77.5029 26.8185 75.9023 24.8448 73.6933ZM31.6571 80.2091L31.694 80.174C31.2818 80.3792 30.8696 80.5844 30.4573 80.7896C30.021 80.8652 29.5847 80.9408 29.1483 81.0164C29.2801 81.2058 29.4119 81.3953 29.5437 81.5848C25.4651 85.4501 20.5725 84.871 15.0696 83.7902C18.437 87.7183 21.5802 90.9208 25.5986 93.1612C26.3407 93.7214 26.8836 94.6278 28.1861 94.699C28.0104 93.7227 27.9284 92.916 27.7152 92.1455C27.0276 89.6609 26.9347 87.6564 29.7214 86.0538C32.32 84.5593 33.2649 81.6971 33.4751 78.7213C33.4912 78.4923 33.6899 77.774 32.9664 78.0919C32.7323 78.1948 32.6191 78.5726 32.4506 78.8246C31.9703 79.1626 31.6842 79.6117 31.6571 80.2091ZM32.7468 97.2775C35.6332 98.2746 36.2697 97.9604 35.8246 95.1911C35.3805 92.4278 35.4517 89.7544 35.835 87.0167C36.0504 85.4777 35.9354 83.8902 35.2457 82.2404C33.8441 83.5467 34.1851 85.5751 32.6944 86.5144C29.7942 89.0759 29.8233 95.0385 32.7468 97.2775ZM18.1444 81.5155C19.2273 83.6129 20.7257 82.4503 22.2468 82.0023C20.9957 81.9098 21.0608 80.3633 19.9603 80.2094C17.2838 78.9477 16.0031 76.0244 17.1347 73.7593C18.9881 70.0489 22.314 69.3492 27.0417 71.6937C27.7866 70.6044 27.9698 69.4778 27.307 68.2787C27.7261 66.7639 27.3558 66.0172 25.5779 66.0894C22.7329 66.2049 19.8767 66.2065 17.0316 66.0938C15.4237 66.0301 14.8923 66.5801 14.9315 68.1679C15.0192 71.7243 14.944 75.2846 14.97 78.843C14.9769 79.8013 14.6983 81.0338 16.3596 80.9279C16.8197 81.5325 17.5396 81.3493 18.1444 81.5155ZM75.8643 82.1227C75.0421 81.0848 74.2199 80.0469 73.0563 78.5782C73.0542 81.7379 73.8261 84.2311 75.9591 85.4705C79.2995 87.4116 79.5578 89.86 78.366 93.0199C78.2438 93.3438 78.3495 93.7534 78.3495 94.2072C79.5615 93.9647 80.2839 93.2867 80.9508 92.5241C84.6571 90.529 87.4311 87.5344 90.3177 84.1267C85.9616 84.8769 81.1439 84.2089 75.8643 82.1227ZM62.438 57.3379C62.4163 57.5792 62.3946 57.8205 62.3729 58.0617C62.378 63.6781 62.3539 69.2949 62.4178 74.9106C62.4282 75.8282 61.8514 77.1219 63.1604 77.5919C64.2887 77.9969 65.313 77.5022 66.2189 76.6833C68.5947 74.5359 71.5747 73.0735 73.4274 70.3305C75.2256 71.0415 73.9538 73.1494 75.2647 74.3002C75.2647 68.5445 75.2336 62.9582 75.2882 57.3727C75.3006 56.0943 74.9779 55.5692 73.5959 55.6079C70.4462 55.696 67.29 55.698 64.1409 55.5969C62.7637 55.5527 62.3164 56.0834 62.438 57.3379ZM50.1224 70.3126C48.0134 71.3019 47.8932 73.1897 48.4669 74.956C49.054 76.764 50.0324 78.5757 52.5243 78.2941C53.5427 77.6217 54.9133 78.0772 55.8896 77.1521C57.6617 75.4729 58.1345 73.5604 56.9139 71.442C55.4897 68.9704 53.321 68.6645 50.1224 70.3126ZM40.6964 99.8882C42.0206 99.9403 42.872 101.335 44.3681 101.068C45.3822 100.887 46.6593 101.099 46.4094 99.5732C45.797 95.8345 45.1999 92.0746 44.2163 88.4256C43.8863 87.2015 42.4073 86.2859 40.842 86.1885C40.3811 85.3506 40.005 84.4065 38.6547 84.3404C38.6547 88.9725 38.6983 93.4102 38.6309 97.8462C38.6075 99.3816 39.0259 100.196 40.6964 99.8882ZM43.6832 61.6447C43.8677 60.3506 43.3828 59.8378 42.0072 59.8774C38.9433 59.9656 35.8708 60.0056 32.8105 59.8693C30.9683 59.7872 30.5974 60.5445 30.6342 62.1937C30.7283 66.4135 30.6656 70.6367 30.6656 75.3425C32.1652 73.5781 31.6718 71.6025 32.6535 70.1959C33.9322 70.5625 33.6632 73.1663 35.3419 72.4602C36.5008 71.9726 35.9578 70.2442 35.8564 69.1207C35.5141 65.3315 38.5088 65.6161 40.539 65.6329C43.7301 65.6593 44.5108 64.455 43.6832 61.6447ZM73.4433 86.2909C72.4919 84.5794 71.5405 82.8679 70.5246 81.0403C68.4682 83.2229 66.6518 85.3937 63.9019 86.4796C62.9328 86.8623 62.4465 87.8476 62.4503 88.9831C62.4629 92.8402 62.4552 96.6973 62.4552 100.451C66.4692 99.9518 70.0431 98.6801 73.5413 97.1662C76.1174 94.9577 76.0605 88.6571 73.4433 86.2909ZM57.4957 67.8308C58.0923 68.2403 58.3279 69.1543 59.4211 69.2274C59.4211 62.6837 59.397 56.274 59.4405 49.8648C59.4498 48.4989 59.1318 47.8135 57.5744 47.8607C54.5182 47.9533 51.4568 47.8767 48.3975 47.8642C47.307 47.8597 46.2589 47.8871 46.5325 49.4631C46.5064 54.0352 46.5359 58.6088 46.425 63.1788C46.3845 64.8462 46.8784 65.6133 48.6364 65.5541C51.7963 65.4476 54.7685 66.1939 57.4957 67.8308ZM39.9034 6.2905C27.0587 9.54966 17.721 17.4052 10.8142 28.4477C10.0831 29.6166 10.1921 30.4483 11.561 31.1271C16.5907 33.6211 21.6166 35.9856 27.4224 33.7693C38.4618 32.0924 46.7858 20.5199 45.0543 9.25681C44.3646 4.77124 44.1974 4.67494 39.9034 6.2905ZM18.3893 56.9319C18.4214 57.1164 18.4534 57.3008 18.4855 57.4852C14.5538 57.8588 10.6276 58.32 6.6879 58.5652C4.98322 58.6712 4.29849 59.1669 4.66804 60.9252C5.80061 66.3143 7.35672 71.5483 10.1091 76.362C10.4823 77.0146 10.6875 77.9223 11.9075 77.7995C11.9075 73.5954 11.9993 69.4161 11.8669 65.244C11.8049 63.2935 12.2967 62.5214 14.3921 62.627C17.7612 62.7969 21.1573 62.494 24.5194 62.7223C27.1568 62.9014 28.0789 61.938 27.6507 59.4498C27.2686 57.2301 28.2845 56.7028 30.3679 56.7895C34.1486 56.947 37.942 56.7713 41.7273 56.8594C43.193 56.8936 43.7253 56.4554 43.6641 54.9597C43.5596 52.4069 43.7674 49.8371 43.5844 47.2931C43.4235 45.0582 44.3197 44.5298 46.3911 44.6205C49.8645 44.7726 53.3496 44.6609 56.8298 44.654C62.2571 44.6432 62.3541 44.6399 62.4122 49.8907C62.4327 51.7453 63.12 52.1025 64.7576 52.0601C68.4402 51.9648 72.131 52.1303 75.8101 51.9829C77.7797 51.904 78.4661 52.4368 78.4065 54.5041C78.2593 59.6137 78.391 64.7308 78.3414 69.8441C78.3244 71.5958 78.8402 72.2055 80.4386 71.1386C81.9068 70.1586 83.5124 70.115 85.1616 70.3712C86.4685 70.5742 87.4189 71.6223 88.8574 71.7099C94.2385 72.0379 94.2324 72.103 94.3552 77.3593C94.3585 77.4987 94.5339 77.634 94.7737 77.9799C99.6235 69.7761 101.911 61.0793 101.716 51.6867C101.685 50.1994 100.93 50.1401 99.8038 50.047C95.3939 49.6823 90.9911 49.2319 86.5857 48.8134C89.1539 48.1755 91.6852 47.8883 94.2242 47.7051C102.013 47.1429 101.964 47.1721 99.8828 39.5432C99.3536 37.6032 98.4933 36.6729 96.3655 36.6317C91.9736 36.5468 87.5865 36.2121 83.1976 35.9782C82.3573 35.9335 81.3645 36.178 81.0919 34.8484C84.9041 34.5874 88.6705 34.2866 92.4421 34.0813C98.1781 33.7691 98.1857 33.7909 95.3888 28.9664C94.9282 28.1718 94.3337 27.4442 93.9525 26.616C92.7935 24.0977 90.8929 23.1332 88.1194 23.1188C84.3428 23.0992 80.5687 22.6983 76.7922 22.4826C75.9766 22.436 75.1396 22.5089 74.9493 21.3795C79.4866 21.0566 84.0207 20.7338 88.6934 20.4013C80.1984 8.93916 59.8212 1.80692 47.2701 4.92893C47.439 5.82225 47.6223 6.7132 47.7747 7.60935C49.4 17.1735 46.5661 25.2592 39.2174 31.5005C31.6064 37.9647 22.9051 38.755 13.5736 35.6857C11.7581 35.0885 10.114 32.3328 8.31281 33.9269C6.90217 35.1753 6.64019 37.7483 5.94514 39.7595C5.70026 40.4681 5.68466 41.2558 5.55346 42.0756C11.0413 43.0166 16.5215 42.5954 21.827 43.6941C21.7469 44.1493 21.7361 44.3214 21.7135 44.323C18.2573 44.5626 14.7636 44.5589 11.3564 45.0996C9.11598 45.4551 6.02357 43.7761 4.76464 46.4846C3.78257 48.5974 3.95679 51.2672 3.97802 53.7386C3.9905 55.1894 4.46344 55.6491 5.89192 55.754C10.0641 56.0603 14.2244 56.5277 18.3893 56.9319ZM24.904 80.9258C26.308 81.6146 27.2256 81.4655 27.7755 80.3407C27.9079 80.07 27.6903 79.2998 27.5675 79.2843C26.4176 79.1397 25.8293 80.0165 24.904 80.9258Z" fill="#545758"/>
<path d="M27.4227 33.7689C21.6168 35.9852 16.5909 33.6207 11.5613 31.1268C10.1923 30.448 10.0833 29.6163 10.8144 28.4474C17.7212 17.4048 27.0589 9.5493 39.9027 6.29074C40.9625 6.14815 41.2557 6.73732 41.4669 7.67518C43.366 16.1072 39.9075 24.826 32.8755 30.2102C31.1203 31.5541 28.6985 31.7829 27.4227 33.7689Z" fill="#F8C822"/>
<path d="M45.3596 81.0795C49.9267 83.77 54.7477 82.7044 59.5488 82.0584C61.9275 81.7384 63.9804 80.1055 66.7685 80.1503C65.8195 82.472 64.0118 83.5824 62.2671 84.3526C59.5693 85.5435 59.0062 87.6542 58.6811 90.1722C58.3289 92.8999 57.8896 95.6262 57.2913 98.3093C56.8117 100.46 55.8961 102.32 53.0416 101.678C52.2574 101.501 51.4124 101.594 50.5955 101.563C50.1898 97.014 49.77 92.4658 49.3888 87.9143C49.3038 86.8994 49.4698 85.5159 48.2956 85.3411C45.9222 84.9877 44.2622 83.0643 41.923 82.7684C40.9422 82.0143 41.8742 81.4654 42.1297 80.8441C42.7404 80.7945 43.3512 80.7448 43.962 80.6952C44.4254 80.8154 44.8888 80.9356 45.3522 81.0558L45.3596 81.0795Z" fill="#F8C822"/>
<path d="M73.4272 70.3307C71.5745 73.0737 68.5945 74.5361 66.2187 76.6835C65.3127 77.5024 64.2884 77.9971 63.1601 77.592C61.8511 77.1221 62.428 75.8284 62.4176 74.9108C62.3537 69.2951 62.3778 63.6783 62.3726 58.062C65.8134 57.6668 69.3139 58.5588 72.7276 57.582C73.8512 58.143 73.2808 59.1759 73.3046 59.9691C73.4081 63.4211 73.3968 66.8765 73.4272 70.3307Z" fill="#386C95"/>
<path d="M57.4959 67.8305C54.7688 66.1936 51.7964 65.4473 48.6365 65.5538C46.8785 65.613 46.3847 64.8459 46.4251 63.1785C46.5361 58.6085 46.5066 54.0349 46.5322 49.4619C49.3866 49.5049 52.2452 49.6551 55.095 49.5543C56.919 49.4898 57.6211 49.99 57.5742 51.9278C57.4458 57.2263 57.5088 62.5293 57.4959 67.8305Z" fill="#386C95"/>
<path d="M73.5413 97.166C70.043 98.6799 66.4691 99.9515 62.4551 100.45C62.4551 96.697 62.4629 92.84 62.4502 88.983C62.4465 87.8475 62.9328 86.8621 63.9019 86.4794C66.6518 85.3935 68.4682 83.2227 70.5245 81.04C71.5404 82.8676 72.4918 84.5792 73.4431 86.2907C73.3031 89.9174 73.1069 93.5445 73.5413 97.166Z" fill="#386C95"/>
<path d="M43.683 61.6445C44.5107 64.4548 43.7299 65.659 40.5388 65.6326C38.5086 65.6158 35.5139 65.3313 35.8562 69.1206C35.9577 70.2441 36.5007 71.9725 35.3417 72.46C33.6631 73.1662 33.9319 70.5623 32.6533 70.1958C32.7061 68.066 32.8618 65.9321 32.7778 63.8076C32.7148 62.2113 33.2366 61.6927 34.8479 61.7391C37.7896 61.8238 40.7376 61.6882 43.683 61.6445Z" fill="#386C95"/>
<path d="M40.8421 86.1885C42.4074 86.286 43.8863 87.2015 44.2163 88.4255C45.1999 92.0746 45.7971 95.8345 46.4095 99.5732C46.6595 101.099 45.3823 100.887 44.3682 101.068C42.872 101.335 42.0207 99.9403 40.6973 99.8875C40.746 95.3207 40.7941 90.7546 40.8421 86.1885Z" fill="#386C95"/>
<path d="M25.5984 93.161C21.58 90.9206 18.4368 87.7181 15.0693 83.79C20.5723 84.8708 25.4648 85.4498 29.5429 81.5844C29.9977 81.4922 30.3881 81.3255 30.4571 80.7894C30.8693 80.5842 31.2815 80.379 31.6938 80.1738C32.0688 82.2809 30.5914 83.6826 29.1542 84.1913C24.3246 85.9011 24.1837 89.1485 25.5984 93.161Z" fill="#F8C822"/>
<path d="M50.1226 70.3124C53.3212 68.6642 55.49 68.9702 56.9141 71.4417C58.1348 73.5601 57.6619 75.4727 55.8899 77.1518C54.9136 78.0769 53.5429 77.6215 52.5245 78.2939C50.2744 76.0689 49.3791 73.4368 50.1226 70.3124Z" fill="#F8C822"/>
<path d="M75.8641 82.123C81.1437 84.2092 85.9615 84.8773 90.3176 84.127C87.431 87.5347 84.657 90.5293 80.9506 92.5244C80.6025 91.4772 81.0361 90.5085 81.3435 89.5672C81.9456 87.7238 81.9311 86.5876 79.6077 85.7933C78.0887 85.274 75.7998 84.6499 75.8641 82.123Z" fill="#F8C822"/>
<path d="M16.3594 80.9284C16.3692 77.5951 16.5077 74.2554 16.3434 70.9307C16.2351 68.7394 17.0529 68.1466 19.1184 68.2616C21.8393 68.4131 24.5758 68.2875 27.3061 68.2801C27.9696 69.4783 27.7864 70.6049 27.0415 71.6942C22.3139 69.3497 18.988 70.0494 17.1345 73.7598C16.003 76.0249 17.2837 78.9482 19.9604 80.2095C19.9736 81.5031 18.9842 81.4059 18.1442 81.516C17.5395 81.3498 16.8195 81.533 16.3594 80.9284Z" fill="#386C95"/>
<path d="M43.9241 71.0617C45.814 71.4746 46.7362 72.4775 46.3521 74.5531C46.1268 75.7705 46.5868 76.9027 47.5906 77.7341C47.6571 79.0758 46.6379 78.9714 45.7842 79.0876C45.373 79.0469 44.9618 79.0062 44.5506 78.9655C44.1466 77.0069 42.6042 77.9103 41.4856 77.7485C41.4856 77.7485 41.4495 77.7091 41.45 77.7092C41.2537 77.5446 41.0572 77.3798 40.8606 77.2149C40.7307 77.0613 40.6289 76.8908 40.5562 76.7037C40.5917 75.8136 40.7725 74.8999 40.6336 74.0377C40.1882 71.2747 41.3707 70.4454 43.9241 71.0617Z" fill="#386C95"/>
<path d="M32.6943 86.5142C34.185 85.5749 33.8441 83.5465 35.2456 82.2402C35.9353 83.89 36.0502 85.4775 35.8348 87.0165C35.4515 89.7542 35.3803 92.4276 35.8245 95.191C36.2695 97.9603 35.6331 98.2744 32.7468 97.2773C32.7294 93.6896 32.7119 90.1019 32.6943 86.5142Z" fill="#386C95"/>
<path d="M23.6633 78.8812C21.8155 79.1197 20.4771 78.4546 19.8725 76.6392C19.4826 75.4689 19.8555 74.4732 20.75 73.6332C22.1462 72.3221 23.4948 72.6932 24.8461 73.6928C25.0814 75.5652 24.0318 77.1456 23.6633 78.8812Z" fill="#F8C822"/>
<path d="M81.2573 74.0785C82.2347 72.6826 83.5687 72.418 84.9836 73.179C85.9668 73.7078 86.8937 74.6025 86.7315 75.8302C86.4998 77.5837 85.4958 78.7954 83.5782 78.9783C82.1358 77.6609 81.6087 75.9112 81.2573 74.0785Z" fill="#F8C822"/>
<path d="M88.9361 78.3984C88.9594 79.362 88.9827 80.3255 89.0065 81.2894C86.4171 83.1491 83.7123 83.0422 81.147 80.7724C84.6981 82.8289 86.7927 80.5411 88.9361 78.3984Z" fill="#386C95"/>
<path d="M41.4858 77.7485C42.6045 77.9103 44.1467 77.007 44.5509 78.9654C44.3546 79.5419 44.1584 80.1185 43.9622 80.6952C43.3513 80.7448 42.7405 80.7945 42.1298 80.8441C43.2724 79.5302 41.5013 78.8217 41.4858 77.7485Z" fill="#5B5C5D"/>
<path d="M45.7845 79.0869C46.6382 78.9708 47.6573 79.0751 47.5909 77.7334C49.5492 78.3142 49.1775 79.3449 47.9264 80.2265C47.2213 80.7233 46.2253 80.8081 45.3601 81.0786C45.3599 81.0788 45.3525 81.055 45.3568 81.0532C45.5023 80.3966 45.6433 79.7417 45.7845 79.0869Z" fill="#5B5C5D"/>
<path d="M62.4382 57.3379C65.8684 57.4192 69.2986 57.5006 72.7284 57.5819C69.3143 58.5586 65.8138 57.6666 62.373 58.0618C62.3948 57.8205 62.4164 57.5792 62.4382 57.3379Z" fill="#5B5C5D"/>
<path d="M18.1445 81.5154C18.9845 81.4052 19.974 81.5026 19.9607 80.209C21.061 80.3632 20.9959 81.9097 22.247 82.0022C20.7259 82.4501 19.2274 83.6128 18.1445 81.5154Z" fill="#5B5C5D"/>
<path d="M24.9043 80.9258C25.8295 80.0165 26.4179 79.1397 27.5678 79.2843C27.6905 79.2997 27.9081 80.07 27.7757 80.3408C27.2258 81.4655 26.3083 81.6146 24.9043 80.9258Z" fill="#5B5C5D"/>
<path d="M32.4508 78.8242C32.8785 79.6818 32.6433 80.1601 31.6572 80.2087C31.6843 79.6114 31.9705 79.1623 32.4508 78.8242Z" fill="#F8C822"/>
<path d="M30.4574 80.79C30.3885 81.3261 29.998 81.4928 29.5432 81.585C29.4121 81.3957 29.2802 81.2063 29.1484 81.0168C29.5848 80.9412 30.0211 80.8656 30.4574 80.79Z" fill="#5B5C5D"/>
<path d="M45.7841 79.0871C45.643 79.7419 45.5019 80.3968 45.3564 81.0534C44.8887 80.935 44.4253 80.8148 43.9619 80.6946C44.1582 80.1179 44.3544 79.5413 44.5506 78.9648C44.9617 79.0057 45.3729 79.0464 45.7841 79.0871Z" fill="#545758"/>
</svg>
