<svg width="48" height="48" viewBox="0 0 48 48" fill="none" xmlns="http://www.w3.org/2000/svg">
<path d="M40.8404 0.192383H37.7166V11.0536C37.7166 12.5748 36.4884 13.8009 34.969 13.8009H13.2533C11.7354 13.8009 10.5025 12.5748 10.5025 11.0536V0.192383H7.38029C3.68493 0.192383 0.689209 3.19128 0.689209 6.88835V40.3517C0.689209 44.0488 3.68493 47.0444 7.38029 47.0444H40.8404C44.5392 47.0444 47.5364 44.0488 47.5364 40.3517V6.88835C47.5364 3.19128 44.5392 0.192383 40.8404 0.192383ZM39.5891 37.0179C39.5891 40.1486 37.05 42.6909 33.9161 42.6943L14.3046 42.6909C11.1724 42.6909 8.63322 40.1486 8.63322 37.0179V26.2766C8.63322 23.1494 11.1724 20.6035 14.3046 20.6035H33.9161C37.05 20.6035 39.5891 23.1494 39.5891 26.2766V37.0179ZM37.5798 26.2766V37.0179C37.5764 39.0439 35.9403 40.6782 33.9161 40.6833H14.3046C12.2819 40.6782 10.6425 39.0439 10.6392 37.0179V26.2766C10.6425 24.2558 12.2819 22.6212 14.3046 22.6179H33.9161C35.9404 22.6212 37.5764 24.2558 37.5798 26.2766ZM34.7442 11.2186C34.7442 11.9084 34.1843 12.463 33.4945 12.463H28.6313C27.943 12.463 27.3834 11.9083 27.3834 11.2186V2.40324C27.3834 1.71007 27.943 1.15031 28.6313 1.15031H33.4945C34.1843 1.15031 34.7442 1.71005 34.7442 2.40324V11.2186Z" fill="white"/>
</svg>
