<svg width="33" height="36" viewBox="0 0 33 36" fill="none" xmlns="http://www.w3.org/2000/svg">
<path d="M21.9869 4.79824C17.1043 -0.491342 9.15651 -0.491342 4.27381 4.79824C-0.604941 10.0892 -0.604941 18.6921 4.27381 23.9831C8.6247 28.6909 15.3938 29.1953 20.2711 25.5165C20.3756 26.0425 20.6125 26.5469 20.9895 26.9554L28.0946 34.6583C29.1343 35.7775 30.8078 35.7775 31.837 34.6583C32.8754 33.5391 32.8754 31.7247 31.837 30.6055L24.7306 22.9025C24.3536 22.4941 23.8892 22.2419 23.4037 22.1301C26.7982 16.8391 26.3325 9.50598 21.9869 4.79824ZM19.7394 21.554C16.0962 25.4993 10.1645 25.4993 6.52128 21.554C2.87816 17.6015 2.87816 11.1798 6.52128 7.22732C10.1645 3.28201 16.0962 3.28201 19.7394 7.22732C23.3825 11.1799 23.3825 17.6015 19.7394 21.554Z" fill="#74ACDA"/>
</svg>
