<svg width="77" height="77" viewBox="0 0 77 77" fill="none" xmlns="http://www.w3.org/2000/svg">
<path d="M0 38.4699C0 34.9817 0.46852 31.6014 1.40181 28.3345C2.33717 25.0696 3.64209 22.0094 5.31847 19.1582C6.99484 16.3068 9.00255 13.708 11.336 11.3543C13.6713 9.00441 16.2646 6.99128 19.1179 5.31472C21.9729 3.64023 25.0256 2.33343 28.276 1.40181C31.5264 0.466641 34.9011 0 38.3931 0C41.8888 0 45.258 0.466655 48.5103 1.40181C51.7605 2.33343 54.8132 3.64565 57.6684 5.34039C60.5215 7.03512 63.1222 9.05558 65.4759 11.4055C67.8276 13.7592 69.8426 16.3579 71.5209 19.2094C73.1954 22.0608 74.5022 25.1135 75.4357 28.3602C76.3727 31.6106 76.8375 34.9817 76.8375 38.4699C76.8375 41.9967 76.3727 45.3843 75.4357 48.6329C74.5022 51.8833 73.1954 54.9322 71.5209 57.7837C69.8427 60.637 67.8277 63.2247 65.4759 65.5619C63.1222 67.8953 60.5215 69.9011 57.6684 71.5758C54.8132 73.2522 51.7605 74.5479 48.5103 75.4649C45.258 76.38 41.8888 76.8375 38.3931 76.8375C34.9011 76.8375 31.5264 76.3708 28.276 75.4392C25.0256 74.504 21.9729 73.201 19.1179 71.5228C16.2646 69.8499 13.6713 67.8331 11.336 65.4831C9.00253 63.1332 6.99483 60.5417 5.31847 57.7068C3.64209 54.8719 2.33717 51.8319 1.40181 48.5817C0.46852 45.3332 0 41.9638 0 38.4699ZM3.5304 38.4187C3.5304 41.5996 3.94401 44.6651 4.77311 47.6209C5.60389 50.5784 6.78081 53.3492 8.30164 55.9444C9.82433 58.5359 11.6489 60.8858 13.7775 62.9942C15.9024 65.1025 18.254 66.918 20.8308 68.439C23.4077 69.9598 26.175 71.1346 29.1325 71.9637C32.09 72.7928 35.161 73.2083 38.3419 73.2083C41.5228 73.2083 44.5937 72.7928 47.5512 71.9637C50.5089 71.1346 53.2832 69.9598 55.8785 68.439C58.47 66.9179 60.8345 65.0952 62.9612 62.9685C65.0879 60.8437 66.9107 58.4938 68.4334 55.9188C69.956 53.3419 71.1384 50.5784 71.9876 47.6209C72.8331 44.6651 73.2576 41.5996 73.2576 38.4187C73.2576 35.2397 72.8331 32.1724 71.9876 29.2166C71.1384 26.2591 69.956 23.4883 68.4334 20.8949C66.9107 18.3016 65.0769 15.9425 62.9338 13.8176C60.7906 11.6911 58.4207 9.87005 55.8255 8.34736C53.2321 6.82841 50.4575 5.64231 47.4981 4.79691C44.5425 3.9532 41.4898 3.52666 38.3419 3.52666C33.5688 3.52666 29.0703 4.45095 24.8536 6.29936C20.6333 8.15152 16.9401 10.6551 13.7776 13.8176C10.6113 16.9801 8.11127 20.679 6.27747 24.9122C4.44555 29.1471 3.5304 33.6494 3.5304 38.4187ZM32.791 21.3104H44.6193L32.167 33.9586H59.1471V42.7233H32.167L44.6193 55.4264H32.791L16.5519 38.4187V38.2613L32.791 21.3104Z" fill="#74ACDA"/>
</svg>
