<svg width="129" height="129" viewBox="0 0 129 129" fill="none" xmlns="http://www.w3.org/2000/svg">
<path d="M107.61 0.672714H22.2787C10.4969 0.672714 0.945801 10.2238 0.945801 22.0056V107.337C0.945801 119.119 10.4969 128.67 22.2787 128.67H107.61C119.392 128.67 128.943 119.119 128.943 107.337V22.0056C128.943 10.2238 119.392 0.672714 107.61 0.672714Z" fill="url(#paint0_linear_4_6756)"/>
<path d="M107.61 2.00602C118.637 2.00602 127.61 10.9792 127.61 22.0056V107.337C127.61 118.363 118.637 127.337 107.61 127.337H22.2787C11.2522 127.337 2.27911 118.363 2.27911 107.337V22.0056C2.27911 10.9792 11.2522 2.00602 22.2787 2.00602H107.61ZM107.61 0.672714H22.2787C10.5456 0.672714 0.945801 10.2725 0.945801 22.0056V107.337C0.945801 119.07 10.5456 128.67 22.2787 128.67H107.61C119.343 128.67 128.943 119.07 128.943 107.337V22.0056C128.943 10.2725 119.343 0.672714 107.61 0.672714Z" fill="url(#paint1_linear_4_6756)"/>
<path d="M79.3973 103.91H74.2774C71.4908 103.91 69.2375 101.644 69.2375 98.8706V70.0045C69.2375 69.1246 68.5175 68.4046 67.6375 68.3912L62.2643 68.3512C61.771 68.3646 61.4243 68.5112 61.1176 68.8179C60.811 69.1246 60.6377 69.5245 60.6377 69.9645V98.8572C60.6377 101.644 58.371 103.897 55.5978 103.897H50.4779C47.6913 103.897 45.438 101.631 45.438 98.8572V58.4181C45.438 57.5248 44.718 56.8048 43.8247 56.8048H38.9581C38.0648 56.8048 37.3448 57.5248 37.3448 58.4181V79.111C37.3448 81.8976 35.0782 84.1509 32.3049 84.1509H23.8518C22.9052 84.1509 22.1318 83.3776 22.1318 82.4309C22.1318 81.4843 22.9052 80.711 23.8518 80.711H32.3049C33.1983 80.711 33.9182 79.991 33.9182 79.0977V58.4048C33.9182 55.6182 36.1849 53.3649 38.9581 53.3649H43.8247C46.6113 53.3649 48.8646 55.6315 48.8646 58.4048V98.8439C48.8646 99.7372 49.5846 100.457 50.4779 100.457H55.5978C56.4911 100.457 57.2111 99.7372 57.2111 98.8439V69.9512C57.2111 68.5912 57.7444 67.3246 58.7044 66.3779C59.6644 65.418 60.9043 64.898 62.291 64.9113L67.6642 64.9513C70.4241 64.978 72.6774 67.2313 72.6774 69.9912V98.8572C72.6774 99.7506 73.3974 100.471 74.2907 100.471H79.4106C80.3039 100.471 81.0239 99.7506 81.0239 98.8572V46.4717C81.0239 43.6851 83.2905 41.4318 86.0638 41.4318H91.1837C93.9703 41.4318 96.2236 43.6984 96.2236 46.4717V69.3379C96.2236 70.2312 96.9435 70.9512 97.8369 70.9512H106.277C107.223 70.9512 107.997 71.7245 107.997 72.6711C107.997 73.6178 107.223 74.3911 106.277 74.3911H97.8369C95.0502 74.3911 92.797 72.1245 92.797 69.3512V46.485C92.797 45.5917 92.077 44.8718 91.1837 44.8718H86.0638C85.1705 44.8718 84.4505 45.5917 84.4505 46.485V98.8706C84.4505 101.657 82.1839 103.91 79.4106 103.91" fill="white"/>
<path d="M47.2911 43.1518C47.2911 46.4184 44.6512 49.0583 41.3846 49.0583C38.118 49.0583 35.478 46.4184 35.478 43.1518C35.478 39.8852 38.118 37.2453 41.3846 37.2453C44.6512 37.2453 47.2911 39.8852 47.2911 43.1518Z" fill="white"/>
<path d="M70.9708 54.4849C70.9708 57.7515 68.3308 60.3914 65.0643 60.3914C61.7977 60.3914 59.1577 57.7515 59.1577 54.4849C59.1577 51.2183 61.7977 48.5783 65.0643 48.5783C68.3308 48.5783 70.9708 51.2183 70.9708 54.4849Z" fill="white"/>
<path d="M94.5836 31.3387C94.5836 34.6053 91.9436 37.2453 88.677 37.2453C85.4105 37.2453 82.7705 34.6053 82.7705 31.3387C82.7705 28.0721 85.4105 25.4322 88.677 25.4322C91.9436 25.4322 94.5836 28.0721 94.5836 31.3387Z" fill="white"/>
<defs>
<linearGradient id="paint0_linear_4_6756" x1="64.9444" y1="-61.9926" x2="64.9444" y2="-61.9926" gradientUnits="userSpaceOnUse">
<stop stop-color="#25509A"/>
<stop offset="1" stop-color="#74ACDA"/>
</linearGradient>
<linearGradient id="paint1_linear_4_6756" x1="7.21233" y1="122.403" x2="122.676" y2="6.93924" gradientUnits="userSpaceOnUse">
<stop stop-color="#25509A"/>
<stop offset="1" stop-color="#74ACDA"/>
</linearGradient>
</defs>
</svg>
