<svg width="78" height="77" viewBox="0 0 78 77" fill="none" xmlns="http://www.w3.org/2000/svg">
<path d="M77.7946 38.4965C77.7946 41.9847 77.326 45.365 76.3927 48.6319C75.4574 51.8967 74.1524 54.9569 72.4761 57.8082C70.7997 60.6596 68.7921 63.2584 66.4587 65.612C64.1234 67.962 61.5299 69.9751 58.6766 71.6517C55.8216 73.3261 52.769 74.633 49.5186 75.5646C46.2681 76.4997 42.8935 76.9664 39.4015 76.9664C35.9058 76.9664 32.5365 76.4997 29.2842 75.5646C26.034 74.633 22.9813 73.3207 20.1261 71.626C17.273 69.9313 14.6724 67.9108 12.3187 65.5609C9.9669 63.2072 7.95185 60.6084 6.2736 57.757C4.59911 54.9056 3.29237 51.8529 2.35889 48.6062C1.42185 45.3558 0.957031 41.9847 0.957031 38.4965C0.957031 34.9696 1.42185 31.582 2.35889 28.3335C3.29237 25.0831 4.59911 22.0341 6.2736 19.1827C7.95184 16.3294 9.96688 13.7417 12.3187 11.4045C14.6724 9.07109 17.273 7.06526 20.1261 5.39058C22.9813 3.71421 26.034 2.41848 29.2842 1.50148C32.5365 0.58636 35.9058 0.128906 39.4015 0.128906C42.8935 0.128906 46.2681 0.595561 49.5186 1.52716C52.769 2.46233 55.8216 3.76537 58.6766 5.44362C61.5299 7.11644 64.1234 9.13332 66.4587 11.4832C68.7921 13.8332 70.7997 16.4246 72.4761 19.2596C74.1524 22.0945 75.4574 25.1344 76.3927 28.3847C77.326 31.6332 77.7946 35.0026 77.7946 38.4965ZM74.2642 38.5476C74.2642 35.3668 73.8506 32.3013 73.0215 29.3455C72.1907 26.388 71.0137 23.6172 69.4928 21.0219C67.9701 18.4305 66.1457 16.0805 64.0171 13.9722C61.8922 11.8639 59.5406 10.0484 56.9637 8.52742C54.3868 7.00661 51.6196 5.83174 48.6621 5.00265C45.7046 4.17356 42.6335 3.75808 39.4526 3.75808C36.2718 3.75808 33.2008 4.17356 30.2433 5.00265C27.2856 5.83174 24.5112 7.00661 21.916 8.52742C19.3245 10.0484 16.9601 11.8712 14.8333 13.9979C12.7066 16.1227 10.8839 18.4726 9.36117 21.0476C7.83847 23.6245 6.65611 26.388 5.80697 29.3455C4.96138 32.3013 4.53695 35.3668 4.53695 38.5476C4.53695 41.7267 4.96138 44.794 5.80697 47.7498C6.65611 50.7073 7.83847 53.4781 9.36117 56.0715C10.8839 58.6648 12.7176 61.0239 14.8607 63.1488C17.0039 65.2753 19.3738 67.0963 21.9691 68.619C24.5624 70.138 27.337 71.3241 30.2964 72.1695C33.252 73.0132 36.3047 73.4397 39.4526 73.4397C44.2257 73.4397 48.7242 72.5154 52.9409 70.667C57.1612 68.8149 60.8544 66.3113 64.0169 63.1488C67.1832 59.9862 69.6833 56.2874 71.5171 52.0542C73.349 47.8193 74.2642 43.317 74.2642 38.5476ZM45.0034 55.656H33.1751L45.6276 43.0078H18.6475V34.243H45.6276L33.1751 21.5399H45.0034L61.2427 38.5476V38.7051L45.0034 55.656Z" fill="#74ACDA"/>
</svg>
