<svg width="33" height="33" viewBox="0 0 33 33" fill="none" xmlns="http://www.w3.org/2000/svg">
<path d="M32.0999 16.4715C32.0999 25.308 24.9362 32.4717 16.0997 32.4717C7.26327 32.4717 0.0999756 25.308 0.0999756 16.4715C0.0999756 7.63505 7.26327 0.47168 16.0997 0.47168C24.9362 0.47168 32.0999 7.63505 32.0999 16.4715Z" fill="#74ACDA"/>
<path d="M26.5512 10.0963L25.036 8.58063C24.3041 7.84943 23.0503 7.84943 22.3186 8.58063L13.6355 17.2242L9.88126 13.4405C9.15006 12.7093 7.8955 12.7093 7.1643 13.4405L5.64868 14.9561C4.91724 15.688 4.91724 16.942 5.64868 17.6734L12.2854 24.3624C13.0171 25.0941 14.271 25.0941 15.0027 24.3624L16.518 22.8472C16.5907 22.7742 16.6509 22.6929 16.7092 22.6109L26.5512 12.8135C27.2829 12.0821 27.2829 10.8277 26.5512 10.0963Z" fill="white"/>
</svg>
