<svg width="158" height="158" viewBox="0 0 158 158" fill="none" xmlns="http://www.w3.org/2000/svg">
<path d="M139.198 -0.00878906H19.1983C8.88897 -0.00878906 0.531616 8.34856 0.531616 18.6579V138.658C0.531616 148.967 8.88897 157.325 19.1983 157.325H139.198C149.508 157.325 157.865 148.967 157.865 138.658V18.6579C157.865 8.34856 149.508 -0.00878906 139.198 -0.00878906Z" fill="#9F9FA3"/>
<path d="M79.1982 82.0458C61.1838 82.0458 46.5278 67.3899 46.5278 49.3754C46.5278 31.361 61.1838 16.7051 79.1982 16.7051C97.2127 16.7051 111.869 31.361 111.869 49.3754C111.869 67.3899 97.2127 82.0458 79.1982 82.0458Z" fill="white"/>
<path d="M130.019 140.61H28.3777C26.373 140.61 24.7477 138.985 24.7477 136.98C24.7477 124.356 29.6493 112.426 38.5499 103.389C47.4943 94.3071 59.352 89.3057 71.9381 89.3057H86.4583C99.0446 89.3057 110.902 94.3071 119.846 103.389C128.747 112.426 133.649 124.356 133.649 136.98C133.649 138.985 132.023 140.61 130.019 140.61Z" fill="white"/>
</svg>
