<svg width="80" height="81" viewBox="0 0 80 81" fill="none" xmlns="http://www.w3.org/2000/svg">
<path d="M78.8088 5.4909C78.6076 5.25201 78.3196 5.1028 78.0083 5.07625L60.5976 3.58921L60.2823 1.08001C60.2011 0.434494 59.6105 -0.0230368 58.9666 0.0581632L42.8156 2.0888C42.752 2.07231 42.6868 2.05974 42.6191 2.05393L20.4197 0.157752C19.7804 0.101526 19.2001 0.593123 19.1457 1.2311L18.8148 5.1061L1.61966 7.26788C0.983405 7.34783 0.517862 7.94685 0.597808 8.58357L9.37483 78.3972C9.41472 78.7155 9.34639 79.0215 9.47659 79.3295C9.6591 79.7609 10.0935 80.0488 10.562 80.0488H68.3603C69.011 80.0488 69.5383 79.5216 69.5383 78.8709V77.3367L71.8198 77.5316C72.459 77.587 73.0393 77.0965 73.0937 76.4582L79.0816 6.35032C79.1083 6.03902 79.0103 5.72994 78.8088 5.4909ZM58.6936 7.32977H20.0138L58.0917 2.5427L58.6936 7.32977ZM21.3928 2.60538L31.7021 3.48586L21.2049 4.80564L21.3928 2.60538ZM3.08235 9.45841L9.3841 8.66619V59.5837L3.08235 9.45841ZM70.8466 75.084L69.5383 74.9723V40.5481C69.5383 39.8974 69.0111 39.3701 68.3604 39.3701C67.7097 39.3701 67.1824 39.8974 67.1824 40.5481V77.6929H11.74V9.68567H67.1824V35.051C67.1824 35.7017 67.7097 36.2289 68.3604 36.2289C69.0111 36.2289 69.5383 35.7017 69.5383 35.051V8.50771C69.5383 7.857 69.0111 7.32975 68.3604 7.32975H61.0681L60.8983 5.97935L76.634 7.32346L70.8466 75.084Z" fill="white"/>
<path d="M62.0781 13.6123H55.7957C55.4018 13.6123 55.0339 13.8091 54.8156 14.1369L52.1494 18.1363C49.2796 16.0805 45.766 14.8688 41.9744 14.8688C41.3237 14.8688 40.7964 15.396 40.7964 16.0468V32.3811C40.7964 33.0318 41.3237 33.559 41.9744 33.559H58.3087C58.9594 33.559 59.4866 33.0318 59.4866 32.3811C59.4866 27.366 57.3669 22.8371 53.9773 19.6416L56.4261 15.9682H62.0781C62.7288 15.9682 63.2561 15.441 63.2561 14.7903C63.2561 14.1396 62.7288 13.6123 62.0781 13.6123ZM57.0855 31.2031H43.1523V17.2699C46.0091 17.4906 48.6446 18.5093 50.8407 20.0991L49.7897 21.6758C49.4614 22.168 49.5577 22.8497 50.0111 23.2305C50.542 23.6764 51.3656 23.5588 51.7498 22.9827L52.6493 21.6334C55.1539 24.1212 56.7974 27.475 57.0855 31.2031Z" fill="white"/>
<path d="M62.078 52.5631H51.4226L49.545 49.5592C52.5865 46.4076 54.4606 42.1221 54.4606 37.4068C54.4606 36.7561 53.9333 36.2288 53.2826 36.2288H38.1263V21.0725C38.1263 20.4218 37.5989 19.8945 36.9483 19.8945C27.2921 19.8945 19.436 27.7505 19.436 37.4068C19.436 47.063 27.2921 54.9191 36.9483 54.9191C41.03 54.9191 44.7897 53.5152 47.7708 51.1655L49.7708 54.3654C49.9861 54.7098 50.3635 54.9191 50.7697 54.9191H62.078C62.7287 54.9191 63.256 54.3918 63.256 53.7411C63.256 53.0904 62.7287 52.5631 62.078 52.5631ZM36.9483 52.5631C28.5911 52.5631 21.792 45.764 21.792 37.4068C21.792 29.4459 27.9615 22.8988 35.7704 22.2957V37.4068C35.7704 38.0575 36.2978 38.5848 36.9484 38.5848H52.0595C51.7964 41.9911 50.402 45.0854 48.2529 47.4917L45.4863 43.0649C45.1416 42.5129 44.4145 42.3454 43.8631 42.6902C43.3113 43.0349 43.1436 43.7618 43.4884 44.3134L46.514 49.1543C43.9031 51.2842 40.5723 52.5631 36.9483 52.5631Z" fill="white"/>
<path d="M16.8445 61.2016H26.8964C27.5469 61.2016 28.0743 60.6744 28.0743 60.0237C28.0743 59.373 27.5469 58.8457 26.8964 58.8457H16.8445C16.1939 58.8457 15.6665 59.373 15.6665 60.0237C15.6665 60.6744 16.1939 61.2016 16.8445 61.2016Z" fill="white"/>
<path d="M41.974 58.8457H31.9221C31.2716 58.8457 30.7441 59.373 30.7441 60.0237C30.7441 60.6744 31.2716 61.2016 31.9221 61.2016H41.974C42.6247 61.2016 43.1519 60.6744 43.1519 60.0237C43.1519 59.373 42.6247 58.8457 41.974 58.8457Z" fill="white"/>
<path d="M16.8445 67.4838H33.1788C33.8293 67.4838 34.3567 66.9566 34.3567 66.3059C34.3567 65.6552 33.8293 65.1279 33.1788 65.1279H16.8445C16.1939 65.1279 15.6665 65.6552 15.6665 66.3059C15.6665 66.9566 16.1939 67.4838 16.8445 67.4838Z" fill="white"/>
<path d="M41.9743 65.1279H38.2048C37.5543 65.1279 37.0269 65.6552 37.0269 66.3059C37.0269 66.9566 37.5543 67.4838 38.2048 67.4838H41.9743C42.625 67.4838 43.1522 66.9566 43.1522 66.3059C43.1522 65.6552 42.625 65.1279 41.9743 65.1279Z" fill="white"/>
<path d="M21.8704 71.4102H16.8445C16.1939 71.4102 15.6665 71.9374 15.6665 72.5881C15.6665 73.2388 16.1939 73.7661 16.8445 73.7661H21.8704C22.521 73.7661 23.0484 73.2388 23.0484 72.5881C23.0484 71.9374 22.521 71.4102 21.8704 71.4102Z" fill="white"/>
<path d="M41.9741 71.4102H26.8962C26.2457 71.4102 25.7183 71.9374 25.7183 72.5881C25.7183 73.2388 26.2457 73.7661 26.8962 73.7661H41.9741C42.6248 73.7661 43.152 73.2388 43.152 72.5881C43.152 71.9374 42.6248 71.4102 41.9741 71.4102Z" fill="white"/>
</svg>
