<svg width="86" height="81" viewBox="0 0 86 81" fill="none" xmlns="http://www.w3.org/2000/svg">
<path d="M5.73486 75.1515C5.73486 78.0993 8.13259 80.4917 11.075 80.4917H37.7759V43.1104H5.73486V75.1515Z" fill="white"/>
<path d="M80.4972 21.7492H63.6009C64.8131 20.9214 65.8545 20.099 66.5807 19.3621C70.8903 15.0312 70.8903 7.98216 66.5807 3.65127C62.394 -0.567479 55.0993 -0.556799 50.918 3.65127C48.6003 5.97425 42.4592 15.4317 43.3083 21.7492H42.9237C43.7674 15.4317 37.6263 5.97425 35.314 3.65127C31.1273 -0.556799 23.8326 -0.556799 19.6512 3.65127C15.347 7.98216 15.347 15.0312 19.6458 19.3621C20.3774 20.099 21.4188 20.9214 22.631 21.7492H5.7347C2.79226 21.7492 0.394531 24.1469 0.394531 27.0894V35.0996C0.394531 36.5735 1.59072 37.7697 3.06462 37.7697H37.7757V27.0894H48.4562V37.7697H83.1673C84.6412 37.7697 85.8374 36.5735 85.8374 35.0996V27.0894C85.8374 24.1469 83.445 21.7492 80.4972 21.7492ZM23.4373 15.5973C21.1998 13.3437 21.1998 9.66967 23.4373 7.41612C24.5214 6.32672 25.9579 5.72862 27.4852 5.72862C29.0071 5.72862 30.4438 6.32673 31.5278 7.41612C35.1271 11.0368 38.705 20.286 37.4608 21.573C37.4608 21.573 37.2365 21.7492 36.4728 21.7492C32.7827 21.7492 25.739 17.9149 23.4373 15.5973ZM54.7041 7.41612C56.8562 5.24267 60.6211 5.23199 62.7946 7.41612C65.0375 9.66968 65.0375 13.3437 62.7946 15.5973C60.493 17.9149 53.4493 21.7492 49.7539 21.7492C48.9956 21.7492 48.7712 21.5783 48.7712 21.5729C47.5269 20.2859 51.1048 11.0368 54.7041 7.41612Z" fill="white"/>
<path d="M48.4561 80.4917H75.1569C78.1047 80.4917 80.4971 78.0993 80.4971 75.1515V43.1104H48.4561V80.4917Z" fill="white"/>
</svg>
