<svg width="84" height="81" viewBox="0 0 84 81" fill="none" xmlns="http://www.w3.org/2000/svg">
<path d="M27.721 76.245C27.721 78.5798 26.0006 80.4913 23.8993 80.4913H8.10246C6.00022 80.4913 4.28076 78.5798 4.28076 76.245V56.9943C4.28076 54.6596 6.0002 52.748 8.10246 52.748H23.8993C26.0006 52.748 27.721 54.6596 27.721 56.9943V76.245Z" fill="white"/>
<path d="M55.8101 76.2451C55.8101 78.5798 54.0896 80.4914 51.9884 80.4914H36.1918C34.0905 80.4914 32.3701 78.5798 32.3701 76.2451V46.8029C32.3701 44.4685 34.0905 42.5566 36.1918 42.5566H51.9884C54.0896 42.5566 55.8101 44.4685 55.8101 46.8029V76.2451Z" fill="white"/>
<path d="M83.8989 76.2453C83.8989 78.5801 82.1798 80.4916 80.0772 80.4916H64.2806C62.1793 80.4916 60.459 78.5801 60.459 76.2453V35.4797C60.459 33.1453 62.1793 31.2334 64.2806 31.2334H80.0772C82.1798 31.2334 83.8989 33.1453 83.8989 35.4797V76.2453Z" fill="white"/>
<path d="M80.5939 0.570357L63.4272 5.21051C62.0651 5.57675 61.7615 6.7781 62.753 7.87826L66.4154 11.8539C66.7227 12.2435 66.3581 12.7619 66.0695 12.9802C63.7631 14.7304 60.102 17.2973 55.0424 20.2304C27.4971 36.1983 4.7909 35.2195 4.44885 35.2015C2.62623 35.0992 1.06756 36.6583 0.974237 38.6877C0.87965 40.7167 2.28418 42.4474 4.1103 42.5526C4.2447 42.5593 4.79087 42.5869 5.70902 42.5869C11.5957 42.5869 32.7442 41.4591 58.1064 26.7559C64.1077 23.2768 68.2676 20.2771 70.696 18.3766C71.0396 18.1087 71.6377 17.6455 72.1903 18.2704L76.1973 22.7212C77.1874 23.8228 78.2635 23.4842 78.5871 21.9693L82.4807 2.65886C82.8043 1.14399 81.9547 0.204117 80.5939 0.570357Z" fill="white"/>
</svg>
