<svg width="88" height="76" viewBox="0 0 88 76" fill="none" xmlns="http://www.w3.org/2000/svg">
<path d="M87.747 21.1063L20.6773 0.26435C19.2602 -0.176063 17.7551 0.615767 17.3147 2.03262L8.17088 31.4571C7.95936 32.1375 8.02688 32.8739 8.35857 33.5047C8.69027 34.1353 9.25873 34.6083 9.93913 34.8198L57.373 49.5598L87.747 21.1063Z" fill="#D7D8D9"/>
<path d="M86.0073 31.3216L85.026 31.0166L67.3418 47.5827L79.7556 51.4403C80.0162 51.5213 80.2848 51.5614 80.5528 51.5614C80.9844 51.5614 81.4141 51.4573 81.8031 51.2526C82.4337 50.9209 82.9067 50.3524 83.1182 49.672L87.7755 34.6844C88.2158 33.2675 87.4242 31.762 86.0073 31.3216Z" fill="#D7D8D9"/>
<path d="M30.2152 46.7471L29.6022 48.7201C29.1619 50.1369 29.9536 51.6425 31.3704 52.0827L46.7322 56.8564C46.9928 56.9374 47.2615 56.9775 47.5294 56.9775C47.961 56.9775 48.3907 56.8734 48.7797 56.6687C49.4103 56.337 49.8833 55.7685 50.0948 55.0881L50.7079 53.115L30.2152 46.7471Z" fill="#D7D8D9"/>
<path d="M35.2671 58.9206L35.0764 59.6078H15.9112C15.363 54.093 10.6972 49.7715 5.04054 49.7715H3.00828C1.52461 49.7715 0.321777 50.9743 0.321777 52.458V72.42C0.321777 73.9036 1.52461 75.1065 3.00828 75.1065H5.04071C10.7957 75.1065 15.5222 70.6327 15.9334 64.9808H37.1187C38.3256 64.9808 39.3843 64.176 39.7072 63.0131L40.4005 60.5159L35.2671 58.9206Z" fill="#D7D8D9"/>
</svg>
