<svg width="81" height="81" viewBox="0 0 81 81" fill="none" xmlns="http://www.w3.org/2000/svg">
<path d="M15.1514 22.6972H18.2764V25.8222C18.2764 27.117 19.3253 28.166 20.6201 28.166C21.9149 28.166 22.9639 27.117 22.9639 25.8222V22.6972H26.0889C27.3837 22.6972 28.4326 21.6483 28.4326 20.3535C28.4326 19.0587 27.3837 18.0097 26.0889 18.0097H22.9639V14.8847C22.9639 13.59 21.9149 12.541 20.6201 12.541C19.3253 12.541 18.2764 13.59 18.2764 14.8847V18.0097H15.1514C13.8566 18.0097 12.8076 19.0587 12.8076 20.3535C12.8076 21.6483 13.8566 22.6972 15.1514 22.6972Z" fill="white"/>
<path d="M51.5576 22.6973H60.9326C62.2274 22.6973 63.2764 21.6483 63.2764 20.3535C63.2764 19.0587 62.2274 18.0098 60.9326 18.0098H51.5576C50.2628 18.0098 49.2139 19.0587 49.2139 20.3535C49.2139 21.6483 50.2628 22.6973 51.5576 22.6973Z" fill="white"/>
<path d="M61.7139 57.541H50.7764C49.4816 57.541 48.4326 58.59 48.4326 59.8848C48.4326 61.1796 49.4816 62.2285 50.7764 62.2285H61.7139C63.0087 62.2285 64.0576 61.1796 64.0576 59.8848C64.0576 58.59 63.0087 57.541 61.7139 57.541Z" fill="white"/>
<path d="M61.7139 49.7285H50.7764C49.4816 49.7285 48.4326 50.7775 48.4326 52.0723C48.4326 53.3671 49.4816 54.416 50.7764 54.416H61.7139C63.0087 54.416 64.0576 53.3671 64.0576 52.0723C64.0576 50.7775 63.0087 49.7285 61.7139 49.7285Z" fill="white"/>
<path d="M26.1833 50.4154C25.2685 49.4998 23.7843 49.4998 22.8687 50.4154L20.6202 52.664L18.3708 50.4146C17.456 49.4998 15.9718 49.4998 15.0562 50.4146C14.1414 51.3302 14.1414 52.8144 15.0562 53.7292L17.3056 55.9785L15.0562 58.2279C14.1414 59.1427 14.1414 60.6269 15.0562 61.5425C15.5143 61.9998 16.1141 62.2285 16.7139 62.2285C17.3137 62.2285 17.9135 61.9998 18.3708 61.5417L20.6202 59.2931L22.8695 61.5425C23.3268 61.9998 23.9266 62.2285 24.5264 62.2285C25.1262 62.2285 25.726 61.9998 26.1833 61.5417C27.0989 60.6269 27.0989 59.1427 26.1833 58.2271L23.9348 55.9785L26.1841 53.7292C27.0989 52.8144 27.0989 51.3302 26.1833 50.4154Z" fill="white"/>
<path d="M76.4014 42.5671V7.22852C76.4014 3.35164 73.247 0.197266 69.3701 0.197266H7.49512C3.61824 0.197266 0.463867 3.35164 0.463867 7.22852V69.1035C0.463867 72.9804 3.61824 76.1348 7.49512 76.1348H42.8337C46.6764 78.6998 51.2891 80.1973 56.2451 80.1973C69.5997 80.1973 80.4639 69.3331 80.4639 55.9785C80.4639 51.0225 78.9664 46.4098 76.4014 42.5671ZM71.7139 7.22852V37.3579C67.5155 33.8643 62.1216 31.7598 56.2451 31.7598C50.3687 31.7598 44.9747 33.8644 40.7764 37.3579V4.88477H69.3701C70.6624 4.88477 71.7139 5.93622 71.7139 7.22852ZM7.49512 4.88477H36.0889V35.8223H5.15137V7.22852C5.15137 5.93622 6.20282 4.88477 7.49512 4.88477ZM5.15137 69.1035V40.5098H36.0889V42.5671C33.5239 46.4098 32.0264 51.0225 32.0264 55.9785C32.0264 61.855 34.131 67.2489 37.6245 71.4473H7.49512C6.20282 71.4473 5.15137 70.3958 5.15137 69.1035ZM56.2451 75.5098C45.4753 75.5098 36.7139 66.7483 36.7139 55.9785C36.7139 45.2087 45.4753 36.4473 56.2451 36.4473C67.0149 36.4473 75.7764 45.2087 75.7764 55.9785C75.7764 66.7483 67.0149 75.5098 56.2451 75.5098Z" fill="white"/>
</svg>
