<svg width="81" height="81" viewBox="0 0 81 81" fill="none" xmlns="http://www.w3.org/2000/svg">
<path d="M80.8056 60.6769C80.8056 51.4814 74.3999 43.7844 65.806 41.8008C64.3989 41.4773 62.9372 41.3008 61.4333 41.3008C61.0114 41.3008 60.5966 41.3187 60.1817 41.343C50.7909 41.9445 43.2228 49.2259 42.1821 58.4886C42.1024 59.2058 42.0571 59.9347 42.0571 60.6769C42.0571 62.0684 42.2064 63.4262 42.4876 64.7387C44.3548 73.4881 52.1253 80.0492 61.4333 80.0492C72.1327 80.0492 80.8056 71.3764 80.8056 60.6769ZM61.4333 73.4881C54.3558 73.4881 48.6182 67.7505 48.6182 60.6769C48.6182 53.5995 54.3558 47.8619 61.4333 47.8619C68.5068 47.8619 74.2445 53.5995 74.2445 60.6769C74.2445 67.7505 68.5068 73.4881 61.4333 73.4881Z" fill="white"/>
<path d="M63.9327 51.9229H59.5561V58.7988H52.6802V63.1754H63.9327V51.9229Z" fill="white"/>
<path d="M15.1795 0.0488281C13.974 0.0488281 12.9951 1.03163 12.9951 2.23712V12.549C12.9951 13.7545 13.974 14.7374 15.1795 14.7374H17.0569C18.2624 14.7374 19.2452 13.7545 19.2452 12.549V2.23712C19.2452 1.03163 18.2624 0.0488281 17.0569 0.0488281H15.1795Z" fill="white"/>
<path d="M49.555 0.0488281C48.3495 0.0488281 47.3706 1.03163 47.3706 2.23712V12.549C47.3706 13.7545 48.3495 14.7374 49.555 14.7374H51.4324C52.6379 14.7374 53.6207 13.7545 53.6207 12.549V2.23712C53.6207 1.03163 52.6379 0.0488281 51.4324 0.0488281H49.555Z" fill="white"/>
<path d="M5.80412 64.7381H36.7438C36.4383 63.2208 36.2766 61.6552 36.2766 60.0505C36.2766 59.5254 36.3016 59.0035 36.3352 58.4879H10.1808C8.10888 58.4879 6.42993 56.809 6.42993 54.737V24.738H60.1818V36.3312C60.5967 36.3101 61.0115 36.2976 61.4333 36.2976C62.9256 36.2976 64.3873 36.4445 65.8061 36.7101V12.2378C65.8061 9.47521 63.5693 7.23535 60.8075 7.23535H56.7458V12.5487C56.7458 15.4785 54.3621 17.8621 51.4324 17.8621H49.555C46.6284 17.8621 44.2455 15.4784 44.2455 12.5487V7.23535H22.3701V12.5487C22.3701 15.4785 19.9865 17.8621 17.0567 17.8621H15.1794C12.2528 17.8621 9.86987 15.4784 9.86987 12.5487V7.23535H5.80412C3.04546 7.23535 0.805664 9.47521 0.805664 12.2378V59.7356C0.805664 62.4981 3.04546 64.7381 5.80412 64.7381Z" fill="white"/>
<path d="M23.3858 34.114C23.3858 36.8508 21.1646 39.0727 18.424 39.0727C15.6833 39.0727 13.4614 36.8508 13.4614 34.114C13.4614 31.3733 15.6833 29.1514 18.424 29.1514C21.1647 29.1514 23.3858 31.3733 23.3858 34.114Z" fill="white"/>
<path d="M38.2665 34.114C38.2665 36.8508 36.0446 39.0727 33.3079 39.0727C30.5672 39.0727 28.3452 36.8508 28.3452 34.114C28.3452 31.3733 30.5672 29.1514 33.3079 29.1514C36.0446 29.1514 38.2665 31.3733 38.2665 34.114Z" fill="white"/>
<path d="M53.1503 34.114C53.1503 36.8508 50.9283 39.0727 48.1877 39.0727C45.4478 39.0727 43.229 36.8508 43.229 34.114C43.229 31.3733 45.4478 29.1514 48.1877 29.1514C50.9284 29.1514 53.1503 31.3733 53.1503 34.114Z" fill="white"/>
<path d="M38.2665 49.113C38.2665 51.8537 36.0446 54.0748 33.3079 54.0748C30.5672 54.0748 28.3452 51.8537 28.3452 49.113C28.3452 46.3723 30.5672 44.1504 33.3079 44.1504C36.0446 44.1504 38.2665 46.3723 38.2665 49.113Z" fill="white"/>
<path d="M23.3858 49.113C23.3858 51.8537 21.1646 54.0748 18.424 54.0748C15.6833 54.0748 13.4614 51.8537 13.4614 49.113C13.4614 46.3723 15.6833 44.1504 18.424 44.1504C21.1647 44.1504 23.3858 46.3723 23.3858 49.113Z" fill="white"/>
</svg>
