<svg width="75" height="76" viewBox="0 0 75 76" fill="none" xmlns="http://www.w3.org/2000/svg">
<path d="M63.0249 19.488C64.3129 19.488 65.3582 20.5332 65.3582 21.8212V24.1544H72.3577C73.6456 24.1544 74.6909 25.1996 74.6909 26.4875V40.4867C74.6909 41.7746 73.6456 42.8199 72.3577 42.8199H65.3582V45.153C65.3582 46.441 64.3129 47.4862 63.0249 47.4862H61.611L52.2316 72.4886C51.6577 73.9865 50.3744 75.0738 48.7972 75.3912C48.4845 75.4565 48.1719 75.4891 47.8639 75.4891C46.618 75.4891 45.4327 74.9945 44.5834 74.1079L38.9791 68.5503C37.5466 67.1177 37.2059 64.8825 38.1205 63.1512L45.9507 47.4862H39.7537C38.9511 47.5236 38.1578 47.6495 37.3599 47.7242V19.25C38.1671 19.3247 38.9651 19.4506 39.7771 19.488L63.0249 19.488Z" fill="#25509A"/>
<path d="M0.411458 1.95152C0.458125 1.87218 0.500117 1.80686 0.560771 1.7322C0.817424 1.40556 1.13941 1.13958 1.53605 0.985575C1.55005 0.980909 1.55938 0.962247 1.57338 0.957581C1.62005 0.943581 1.66205 0.966901 1.7087 0.952901C1.91869 0.892235 2.12868 0.822266 2.362 0.822266C2.52065 0.822266 2.66065 0.882922 2.81464 0.915588C2.9033 0.934255 2.98728 0.938919 3.07595 0.966919C3.47725 1.09757 3.82256 1.32157 4.09788 1.62956C4.11655 1.64822 4.14454 1.65288 4.16321 1.67155C11.4381 10.505 21.5828 16.4126 32.6934 18.5778V48.4006C21.5828 50.5658 11.4381 56.4688 4.16321 65.3022C4.14454 65.3256 4.11187 65.3349 4.08854 65.3629C3.92522 65.5449 3.72458 65.6896 3.50993 65.8109C3.43993 65.8529 3.38393 65.9135 3.31394 65.9462C3.01996 66.0722 2.70265 66.1515 2.362 66.1515C2.09601 66.1515 1.83469 66.1049 1.57338 66.0162C1.55938 66.0115 1.55005 65.9929 1.53605 65.9882C1.13941 65.8342 0.817411 65.5729 0.560771 65.2416C0.504771 65.1669 0.462778 65.1016 0.411458 65.0223C0.187472 64.663 0.0288086 64.2663 0.0288086 63.8183V3.15548C0.0288086 2.7075 0.187472 2.31082 0.411458 1.95152Z" fill="#25509A"/>
</svg>
