<svg width="81" height="81" viewBox="0 0 81 81" fill="none" xmlns="http://www.w3.org/2000/svg">
<path d="M80.5726 36.4104L77.4743 23.4052L66.091 24.6234C64.941 22.6868 63.6102 20.9202 62.1136 19.339L66.3208 9.13322L54.925 2.11422L47.8171 10.9404C45.3523 10.2948 42.8151 9.97223 40.2497 9.95603L35.7964 0.0488281L22.8555 3.51782L24.3761 14.482C22.5891 15.5874 20.9512 16.846 19.491 18.2252L9.66455 14.1834L2.6416 25.5672L11.0967 32.3924C10.4795 34.716 10.1166 37.1282 10.064 39.5568L0.430664 43.5502L3.53711 56.5716L14.2873 55.4182C15.5297 57.572 16.9864 59.5246 18.6724 61.243L14.7111 70.8358L26.1027 77.8464L32.9362 69.3834C35.2556 69.9564 37.6155 70.279 40.0277 70.3032L44.0739 80.0488L57.095 76.9508L55.9175 65.89C57.9303 64.6636 59.7859 63.26 61.3831 61.6788L71.363 65.7852L78.382 54.3934L69.5518 47.2774C70.0842 45.1076 70.3827 42.8808 70.4149 40.6378L80.5726 36.4104ZM49.0518 56.6202C39.8664 61.3236 28.5837 57.7092 23.8883 48.5122C19.1727 39.3146 22.8031 28.0602 31.9881 23.3404C41.1773 18.6372 52.4481 22.2754 57.1517 31.4568C61.8673 40.646 58.2448 51.9006 49.0518 56.6202Z" fill="white"/>
<path d="M46.6068 36.9187C48.3332 40.2831 47.0061 44.4217 43.6461 46.1405C40.2817 47.8667 36.143 46.5359 34.4164 43.1713C32.6896 39.7909 34.021 35.6845 37.3814 33.9417C40.7656 32.2233 44.9042 33.5465 46.6068 36.9187Z" fill="white"/>
</svg>
