<svg width="342" height="95" viewBox="0 0 342 95" fill="none" xmlns="http://www.w3.org/2000/svg">
<path d="M114.686 49.2319C114.686 49.6313 114.618 49.8801 114.494 49.9787C114.364 50.0823 114.1 50.129 113.7 50.129H110.449C110.138 50.129 109.894 50.0719 109.723 49.9579C109.552 49.8438 109.469 49.6002 109.469 49.2319V27.8484C109.469 26.8477 109.589 25.8884 109.832 24.9602C110.076 24.0322 110.496 23.2129 111.092 22.5025C111.694 21.7869 112.477 21.2165 113.446 20.7914C114.416 20.361 115.629 20.1484 117.081 20.1484H128.841C129.24 20.1484 129.489 20.2262 129.593 20.3818C129.691 20.5373 129.738 20.7914 129.738 21.1336V23.7832C129.738 24.1514 129.686 24.4107 129.572 24.5506C129.453 24.6958 129.214 24.7684 128.841 24.7684H117.636C116.552 24.7684 115.79 25.0017 115.349 25.4736C114.909 25.9454 114.686 26.6351 114.686 27.5476L114.686 49.2319Z" fill="#27519B"/>
<path d="M149.972 29.6004C149.972 29.1131 149.89 28.5894 149.734 28.019C149.578 27.4486 149.309 26.9249 148.925 26.4582C148.536 25.9864 148.002 25.5923 147.318 25.2812C146.633 24.9649 145.762 24.8094 144.709 24.8094H138.378V34.3034H144.798C146.592 34.3034 147.903 33.8627 148.728 32.976C149.558 32.0945 149.972 30.9694 149.972 29.6004ZM138.337 49.2314C138.337 49.6307 138.275 49.8795 138.145 49.9781C138.015 50.0818 137.751 50.1285 137.352 50.1285H134.147C133.831 50.1285 133.587 50.0714 133.421 49.9574C133.245 49.8433 133.162 49.5996 133.162 49.2314V22.5435C133.162 21.7449 133.333 21.1382 133.675 20.7235C134.018 20.3138 134.645 20.1064 135.558 20.1064H145.736C147.162 20.1064 148.469 20.3242 149.651 20.7701C150.833 21.2109 151.844 21.8383 152.684 22.6471C153.524 23.4612 154.183 24.4309 154.654 25.556C155.126 26.6864 155.36 27.9153 155.36 29.2582C155.36 30.0256 155.235 30.9486 154.997 32.0167C154.753 33.0849 154.271 34.1219 153.545 35.1175C152.814 36.1182 151.797 36.9634 150.486 37.6634C149.174 38.3634 147.447 38.7108 145.311 38.7108H138.337L138.337 49.2314Z" fill="#27519B"/>
<path d="M165.965 39.1373H174.178L171.954 31.9507L170.16 25.8788H169.947L168.19 31.821L165.965 39.1373ZM175.547 43.5861H164.684L162.802 49.4039C162.719 49.6579 162.595 49.8446 162.439 49.9587C162.284 50.0728 162.03 50.1298 161.687 50.1298H157.752C157.441 50.1298 157.244 50.0364 157.155 49.8498C157.067 49.6683 157.067 49.4609 157.155 49.2327L166.395 22.1559C166.536 21.7307 166.681 21.3885 166.821 21.1292C166.966 20.8752 167.142 20.6781 167.355 20.5329C167.572 20.3929 167.821 20.284 168.106 20.2114C168.392 20.1389 168.729 20.1025 169.133 20.1025H170.969C171.855 20.1025 172.483 20.2425 172.851 20.5121C173.224 20.7818 173.551 21.3314 173.836 22.1559L183.118 49.2327C183.206 49.4609 183.211 49.6683 183.138 49.8498C183.066 50.0364 182.874 50.1298 182.563 50.1298H178.627C178.311 50.1298 178.062 50.0935 177.875 50.0209C177.694 49.9535 177.543 49.7616 177.429 49.4453L175.547 43.5861Z" fill="#27519B"/>
<path d="M191.841 33.9196C190.897 33.3804 190.145 32.6596 189.575 31.7574C189.005 30.8604 188.574 29.813 188.289 28.6152L186.412 20.962C186.355 20.8168 186.345 20.6405 186.386 20.4279C186.433 20.2101 186.64 20.1064 187.008 20.1064H190.513C190.659 20.1064 190.819 20.1323 191.006 20.1894C191.193 20.2464 191.312 20.4175 191.369 20.7027L193.21 27.9308C193.469 28.8434 193.785 29.5693 194.169 30.1137C194.558 30.653 194.968 31.0678 195.413 31.353C195.854 31.6382 196.316 31.8145 196.803 31.887C197.285 31.9597 197.741 31.996 198.172 31.996H202.107V20.8738C202.05 20.5627 202.076 20.3708 202.19 20.2982C202.304 20.2257 202.507 20.1894 202.792 20.1894H206.468C206.727 20.1894 206.919 20.2257 207.049 20.2982C207.173 20.3708 207.241 20.5627 207.241 20.8738V31.996H211.13C211.56 31.996 212.016 31.9597 212.498 31.887C212.986 31.8145 213.447 31.6382 213.888 31.353C214.329 31.0678 214.744 30.653 215.127 30.1137C215.516 29.5693 215.838 28.8434 216.092 27.9308L217.974 20.7027C218.031 20.4175 218.15 20.2464 218.337 20.1894C218.524 20.1323 218.684 20.1064 218.83 20.1064H222.335C222.708 20.1064 222.915 20.2101 222.957 20.4279C222.998 20.6405 222.993 20.8168 222.936 20.962L221.054 28.6152C220.769 29.813 220.333 30.8604 219.747 31.7574C219.161 32.6596 218.415 33.3804 217.502 33.9196V34.1322C218.244 34.3915 218.856 34.6818 219.343 35.0085C219.825 35.3404 220.224 35.7241 220.541 36.1649C220.852 36.6055 221.101 37.093 221.287 37.6167C221.474 38.1455 221.65 38.7263 221.821 39.3537L224.476 49.2729C224.533 49.4181 224.539 49.5944 224.497 49.807C224.455 50.0247 224.248 50.1285 223.875 50.1285H220.069C219.924 50.1285 219.773 50.1025 219.597 50.0455C219.426 49.9885 219.301 49.8174 219.213 49.5321L216.688 40.1626C216.465 39.3952 216.206 38.7575 215.921 38.2596C215.636 37.7619 215.278 37.3782 214.853 37.1034C214.422 36.8337 213.924 36.6419 213.354 36.5278C212.784 36.4137 212.13 36.3567 211.389 36.3567H207.241V49.444C207.241 49.7603 207.173 49.9522 207.049 50.0247C206.919 50.0922 206.727 50.1285 206.468 50.1285H202.833C202.548 50.1285 202.346 50.0921 202.232 50.0247C202.118 49.9522 202.061 49.7603 202.061 49.444L202.107 36.3567H197.959C197.218 36.3567 196.559 36.4137 195.989 36.5278C195.419 36.6419 194.921 36.8337 194.49 37.1034C194.065 37.3782 193.692 37.7619 193.381 38.2596C193.07 38.7575 192.81 39.3952 192.608 40.1626L190.13 49.5321C190.047 49.8174 189.917 49.9885 189.746 50.0455C189.575 50.1025 189.419 50.1285 189.274 50.1285H185.468C185.095 50.1285 184.893 50.0247 184.846 49.807C184.805 49.5944 184.81 49.4181 184.867 49.2729L187.522 39.3537C187.693 38.7522 187.869 38.1871 188.056 37.6633C188.242 37.1345 188.491 36.6522 188.802 36.2063C189.119 35.7656 189.518 35.3715 190 35.0293C190.488 34.6871 191.099 34.3915 191.841 34.1322L191.841 33.9196Z" fill="#27519B"/>
<path d="M247.87 24.7689H238.547L237.52 33.2362C237.266 35.4607 237.033 37.2548 236.836 38.6236C236.638 39.9925 236.436 41.1073 236.239 41.9577C236.037 42.8132 235.83 43.4924 235.617 43.9903C235.404 44.4932 235.14 44.9962 234.824 45.5095H247.87V24.7689ZM231.319 50.1294L230.805 56.4191C230.774 56.7302 230.707 56.9376 230.593 57.0361C230.478 57.1347 230.307 57.1865 230.079 57.1865H227.253C227.056 57.1865 226.895 57.1346 226.787 57.0361C226.673 56.9376 226.6 56.7302 226.569 56.4191L225.973 47.6509C225.973 47.1636 226.066 46.7124 226.253 46.3028C226.434 45.888 226.854 45.6547 227.513 45.5977L229.053 45.4681C229.566 44.8977 229.986 44.3066 230.313 43.6947C230.639 43.0777 230.914 42.4191 231.127 41.7036C231.339 40.9932 231.516 40.1999 231.661 39.3288C231.801 38.4629 231.946 37.4829 232.086 36.3992L233.844 22.7985C233.984 21.9171 234.3 21.2585 234.782 20.8334C235.27 20.403 236.006 20.1904 237.007 20.1904H250.224C251.276 20.1904 252.012 20.4238 252.427 20.8956C252.837 21.3674 253.044 22.0882 253.044 23.0578V45.551L254.797 45.6391C255.481 45.6962 255.906 45.888 256.062 46.2147C256.218 46.5465 256.28 46.8939 256.254 47.2621L255.699 56.4191C255.668 56.7302 255.606 56.9376 255.507 57.0361C255.404 57.1347 255.243 57.1865 255.015 57.1865H252.147C251.919 57.1865 251.764 57.1346 251.675 57.0361C251.592 56.9376 251.535 56.7302 251.509 56.4191L251.25 50.1294H231.319Z" fill="#27519B"/>
<path d="M266.773 39.1373H274.986L272.761 31.9507L270.968 25.8788H270.755L268.997 31.821L266.773 39.1373ZM276.355 43.5861H265.492L263.61 49.4039C263.527 49.6579 263.402 49.8446 263.247 49.9587C263.091 50.0728 262.842 50.1298 262.495 50.1298H258.559C258.248 50.1298 258.051 50.0364 257.963 49.8498C257.875 49.6683 257.875 49.4609 257.963 49.2327L267.203 22.1559C267.343 21.7307 267.488 21.3885 267.628 21.1292C267.773 20.8752 267.95 20.6781 268.162 20.5329C268.38 20.3929 268.629 20.284 268.914 20.2114C269.199 20.1389 269.536 20.1025 269.941 20.1025H271.776C272.663 20.1025 273.29 20.2425 273.659 20.5121C274.032 20.7818 274.359 21.3314 274.644 22.1559L283.925 49.2327C284.013 49.4609 284.019 49.6683 283.946 49.8498C283.873 50.0364 283.682 50.1298 283.37 50.1298H279.435C279.119 50.1298 278.87 50.0935 278.683 50.0209C278.501 49.9535 278.351 49.7616 278.237 49.4453L276.355 43.5861Z" fill="#27519B"/>
<path d="M311.191 49.9801C311.062 50.0787 310.797 50.1305 310.398 50.1305H307.152C306.81 50.1305 306.556 50.0734 306.4 49.9593C306.245 49.8453 306.167 49.6016 306.167 49.2334V36.6595H292.867V49.2334C292.867 49.6328 292.794 49.8816 292.649 49.9801C292.509 50.0787 292.234 50.1305 291.835 50.1305H288.589C288.273 50.1305 288.029 50.0734 287.863 49.9593C287.687 49.8453 287.604 49.6016 287.604 49.2334V21.0885C287.604 20.7203 287.687 20.4766 287.863 20.3625C288.029 20.2484 288.273 20.1914 288.589 20.1914H291.835C292.234 20.1914 292.509 20.2433 292.649 20.3418C292.794 20.4403 292.867 20.6892 292.867 21.0885V32.1639H306.167V21.0885C306.167 20.7203 306.245 20.4766 306.4 20.3625C306.556 20.2484 306.81 20.1914 307.152 20.1914H310.398C310.797 20.1914 311.062 20.2433 311.191 20.3418C311.321 20.4403 311.383 20.6892 311.383 21.0885V49.2334C311.383 49.6328 311.321 49.8816 311.191 49.9801Z" fill="#27519B"/>
<path d="M336.575 27.6753L332.811 34.1776L324.385 48.2915C323.959 49.0019 323.571 49.4893 323.233 49.7434C322.886 50.0027 322.331 50.127 321.564 50.127H320.065C319.096 50.127 318.442 49.9093 318.1 49.4685C317.758 49.0226 317.587 48.39 317.587 47.5656V20.8724C317.587 20.5613 317.649 20.3591 317.779 20.2762C317.903 20.188 318.111 20.1465 318.396 20.1465H321.948C322.264 20.1465 322.476 20.188 322.591 20.2762C322.705 20.3591 322.762 20.5613 322.762 20.8724V42.5153H322.933L326.479 36.5264L335.123 22.0287C335.548 21.2872 335.932 20.7895 336.274 20.5302C336.616 20.2762 337.161 20.1465 337.902 20.1465H339.442C340.381 20.1465 341.029 20.3539 341.387 20.7688C341.745 21.1835 341.921 21.8472 341.921 22.7547V49.4011C341.921 49.7174 341.859 49.9144 341.729 50.0027C341.599 50.0856 341.392 50.127 341.112 50.127H337.56C337.244 50.127 337.031 50.0856 336.917 50.0027C336.803 49.9144 336.746 49.7174 336.746 49.4011V27.6753H336.575Z" fill="#27519B"/>
<path d="M112.96 85.0985C112.84 85.1867 112.669 85.2282 112.441 85.2282H110.657C110.429 85.2282 110.248 85.1867 110.118 85.0985C109.988 85.0104 109.921 84.8341 109.921 84.5697V62.7972C109.921 62.5328 109.988 62.3565 110.118 62.2683C110.248 62.1802 110.429 62.1387 110.657 62.1387H112.441C112.669 62.1387 112.84 62.1801 112.96 62.2683C113.073 62.3565 113.131 62.5328 113.131 62.7972V71.4616H125.404V62.7972C125.404 62.5328 125.466 62.3565 125.585 62.2683C125.699 62.1802 125.881 62.1387 126.119 62.1387H127.95C128.214 62.1387 128.39 62.1801 128.484 62.2683C128.572 62.3565 128.619 62.5328 128.619 62.7972V84.5697C128.619 84.8341 128.572 85.0104 128.484 85.0985C128.39 85.1867 128.214 85.2282 127.95 85.2282H126.119C125.881 85.2282 125.699 85.1867 125.585 85.0985C125.466 85.0104 125.404 84.8341 125.404 84.5697V74.2357H113.131V84.5697C113.131 84.8341 113.073 85.0104 112.96 85.0985Z" fill="#27519B"/>
<path d="M148.06 73.5315H142.382C141.853 73.5315 141.226 73.573 140.49 73.6612C139.759 73.7493 139.064 73.9619 138.405 74.3041C137.742 74.6412 137.187 75.1441 136.731 75.8079C136.274 76.4664 136.051 77.3737 136.051 78.5248C136.051 79.4063 136.217 80.1426 136.554 80.7337C136.891 81.3196 137.347 81.7915 137.918 82.1493C138.488 82.5019 139.142 82.7456 139.878 82.8752C140.609 83.01 141.371 83.0774 142.165 83.0774C142.429 83.0774 142.787 83.0618 143.243 83.0307C143.694 82.9996 144.202 82.9582 144.762 82.9011C145.317 82.8389 145.882 82.7456 146.453 82.6108C147.023 82.4811 147.562 82.3255 148.06 82.1493V73.5315ZM151.358 83.207C151.358 83.7359 151.15 84.0886 150.741 84.2648C149.424 84.8196 148.013 85.2033 146.52 85.4056C145.022 85.613 143.585 85.7167 142.206 85.7167C140.329 85.7167 138.794 85.5092 137.591 85.0945C136.383 84.6848 135.434 84.1508 134.729 83.487C134.024 82.8234 133.531 82.0611 133.256 81.19C132.976 80.3241 132.836 79.4219 132.836 78.4782C132.836 77.3893 133.028 76.3679 133.407 75.4138C133.791 74.4597 134.371 73.6249 135.149 72.9197C135.927 72.2145 136.902 71.6649 138.073 71.2656C139.245 70.8664 140.64 70.6693 142.253 70.6693H148.102V69.4975C148.102 68.7768 148.029 68.1027 147.879 67.4856C147.733 66.8634 147.453 66.3345 147.049 65.899C146.634 65.4686 146.064 65.1264 145.327 64.8827C144.596 64.6339 143.642 64.5094 142.47 64.5094C141.506 64.5094 140.438 64.6079 139.282 64.7998C138.125 64.9864 137.135 65.2146 136.311 65.479C136.108 65.5412 135.948 65.562 135.828 65.5464C135.709 65.5309 135.626 65.422 135.564 65.2146L135.123 63.6175C135.035 63.2909 135.154 63.068 135.476 62.9486C136.004 62.7413 136.575 62.5546 137.192 62.3887C137.809 62.228 138.447 62.0828 139.105 61.9635C139.764 61.8442 140.433 61.7664 141.107 61.7198C141.781 61.6731 142.413 61.6523 142.999 61.6523C145.841 61.6523 147.946 62.285 149.31 63.545C150.673 64.8049 151.358 66.6509 151.358 69.0879V83.207Z" fill="#27519B"/>
<path d="M170.316 85.1215C170.228 85.1941 170.067 85.2305 169.834 85.2305H167.894C167.661 85.2305 167.495 85.1941 167.391 85.1215C167.288 85.049 167.236 84.8934 167.236 84.6601V62.7061C167.236 62.4728 167.288 62.3225 167.391 62.2447C167.495 62.1721 167.661 62.1357 167.894 62.1357H169.834C170.067 62.1357 170.228 62.1721 170.316 62.2447C170.404 62.3172 170.446 62.4728 170.446 62.7061V71.552H175.024C175.491 71.552 175.942 71.5053 176.367 71.4172C176.787 71.3342 177.186 71.1735 177.554 70.9402C177.917 70.7068 178.249 70.3698 178.545 69.9291C178.835 69.4935 179.084 68.9387 179.291 68.2646L181.049 62.618C181.106 62.3847 181.189 62.2447 181.293 62.2031C181.391 62.1565 181.516 62.1357 181.666 62.1357H183.647C183.88 62.1357 184.02 62.2032 184.062 62.3328C184.108 62.4676 184.114 62.6076 184.088 62.7528L182.413 68.5446C182.148 69.4831 181.806 70.3231 181.381 71.0698C180.956 71.8165 180.344 72.3661 179.556 72.7135L179.509 72.8016C180.624 73.1283 181.423 73.6572 181.91 74.3883C182.392 75.1246 182.781 75.9749 183.071 76.9446L185.316 84.572C185.348 84.7171 185.348 84.8623 185.316 85.0127C185.291 85.1578 185.14 85.2305 184.876 85.2305H182.724C182.605 85.2305 182.485 85.2097 182.371 85.163C182.252 85.1215 182.164 84.9971 182.107 84.7897L179.95 77.4424C179.571 76.2135 178.965 75.3631 178.145 74.8913C177.326 74.4246 176.445 74.1913 175.506 74.1913H170.446V84.6601C170.446 84.8934 170.404 85.049 170.316 85.1215Z" fill="#27519B"/>
<path d="M204.451 78.28C204.451 77.0511 204.036 76.0608 203.196 75.3089C202.361 74.5623 201.106 74.1889 199.437 74.1889H191.825V82.6771H199.437C200.494 82.6771 201.35 82.5319 202.008 82.2415C202.672 81.9459 203.175 81.5778 203.528 81.1423C203.88 80.7016 204.119 80.2245 204.254 79.7111C204.383 79.1978 204.451 78.7208 204.451 78.28ZM191.825 71.5498H199.571C199.919 71.5498 200.323 71.4979 200.78 71.3994C201.231 71.2957 201.656 71.1142 202.055 70.8497C202.449 70.5905 202.781 70.2379 203.045 69.8023C203.305 69.3668 203.439 68.812 203.439 68.1431C203.439 67.2357 203.123 66.4735 202.496 65.8461C201.863 65.2239 200.992 64.9076 199.877 64.9076H191.825V71.5498ZM203.616 72.8252C204.409 73.0638 205.068 73.3749 205.597 73.769C206.12 74.1682 206.545 74.6245 206.872 75.1327C207.194 75.6512 207.422 76.2008 207.551 76.7867C207.686 77.3727 207.748 77.9431 207.748 78.503C207.748 79.4986 207.557 80.406 207.178 81.2252C206.794 82.0497 206.271 82.76 205.597 83.3615C204.922 83.963 204.119 84.4245 203.196 84.746C202.273 85.0674 201.257 85.2282 200.142 85.2282H190.373C189.201 85.2282 188.615 84.6889 188.615 83.6052V63.7668C188.615 62.6779 189.201 62.1387 190.373 62.1387H199.789C201.811 62.1387 203.476 62.6002 204.782 63.5231C206.084 64.446 206.737 65.8927 206.737 67.8527C206.737 68.8223 206.483 69.7556 205.97 70.6475C205.457 71.5445 204.684 72.1979 203.662 72.6075L203.616 72.8252Z" fill="#27519B"/>
<path d="M226.184 73.5315H220.506C219.977 73.5315 219.35 73.573 218.613 73.6612C217.882 73.7493 217.187 73.9619 216.529 74.3041C215.865 74.6412 215.31 75.1441 214.854 75.8079C214.398 76.4664 214.175 77.3737 214.175 78.5248C214.175 79.4063 214.341 80.1426 214.678 80.7337C215.015 81.3196 215.471 81.7915 216.041 82.1493C216.617 82.5019 217.265 82.7456 218.001 82.8752C218.732 83.01 219.495 83.0774 220.288 83.0774C220.553 83.0774 220.91 83.0618 221.367 83.0307C221.818 82.9996 222.326 82.9582 222.886 82.9011C223.441 82.8389 224.006 82.7456 224.576 82.6108C225.147 82.4811 225.686 82.3255 226.184 82.1493L226.184 73.5315ZM229.481 83.207C229.481 83.7359 229.274 84.0886 228.864 84.2648C227.547 84.8196 226.137 85.2033 224.644 85.4056C223.145 85.613 221.709 85.7167 220.33 85.7167C218.453 85.7167 216.918 85.5092 215.715 85.0945C214.512 84.6848 213.558 84.1508 212.853 83.487C212.147 82.8234 211.655 82.0611 211.38 81.19C211.1 80.3241 210.96 79.4219 210.96 78.4782C210.96 77.3893 211.152 76.3679 211.53 75.4138C211.914 74.4597 212.495 73.6249 213.273 72.9197C214.05 72.2145 215.025 71.6649 216.197 71.2656C217.369 70.8664 218.764 70.6693 220.376 70.6693H226.225V69.4975C226.225 68.7768 226.152 68.1027 226.007 67.4856C225.857 66.8634 225.577 66.3345 225.172 65.899C224.758 65.4686 224.187 65.1264 223.456 64.8827C222.72 64.6339 221.771 64.5094 220.594 64.5094C219.63 64.5094 218.561 64.6079 217.405 64.7998C216.249 64.9864 215.259 65.2146 214.439 65.479C214.232 65.5412 214.071 65.562 213.952 65.5464C213.833 65.5309 213.75 65.422 213.687 65.2146L213.252 63.6175C213.159 63.2909 213.278 63.068 213.599 62.9486C214.128 62.7413 214.698 62.5546 215.315 62.3887C215.933 62.228 216.57 62.0828 217.229 61.9635C217.887 61.8442 218.556 61.7664 219.23 61.7198C219.904 61.6731 220.537 61.6523 221.123 61.6523C223.964 61.6523 226.07 62.285 227.433 63.545C228.802 64.8049 229.481 66.6509 229.481 69.0879V83.207Z" fill="#27519B"/>
<path d="M250.55 73.6177C250.55 71.8859 250.374 70.4341 250.027 69.2622C249.674 68.0904 249.171 67.1467 248.528 66.426C247.885 65.7053 247.118 65.1919 246.242 64.886C245.36 64.5749 244.38 64.4245 243.296 64.4245C242.503 64.4245 241.57 64.5075 240.502 64.663C239.428 64.829 238.5 65.0675 237.707 65.389V82.0178C238.941 82.4326 240.004 82.6866 240.896 82.7904C241.793 82.894 242.576 82.9459 243.25 82.9459C244.307 82.9459 245.282 82.7748 246.174 82.4377C247.071 82.1007 247.838 81.5562 248.487 80.8096C249.13 80.0629 249.638 79.0933 250.001 77.9059C250.369 76.7185 250.55 75.2874 250.55 73.6177ZM253.895 73.6177C253.895 75.3185 253.693 76.9 253.278 78.3673C252.868 79.8348 252.241 81.1103 251.39 82.194C250.535 83.2829 249.472 84.1384 248.201 84.771C246.921 85.3984 245.433 85.7147 243.737 85.7147C242.882 85.7147 241.948 85.6577 240.916 85.5385C239.895 85.4191 238.822 85.2014 237.707 84.8799V93.6324C237.707 93.8658 237.67 94.0162 237.598 94.0732C237.525 94.1302 237.37 94.1613 237.136 94.1613H235.114C234.907 94.1613 234.751 94.1302 234.653 94.0732C234.549 94.0162 234.497 93.8658 234.497 93.6324V63.9422C234.497 63.5897 234.658 63.3564 234.979 63.2371C236.39 62.6201 237.862 62.2053 239.402 61.9823C240.942 61.7645 242.415 61.6504 243.82 61.6504C245.552 61.6504 247.056 61.946 248.331 62.5319C249.607 63.1178 250.654 63.9422 251.473 64.9949C252.298 66.0526 252.904 67.3126 253.304 68.78C253.698 70.2474 253.895 71.86 253.895 73.6177Z" fill="#27519B"/>
<path d="M266.409 85.0985C266.305 85.1867 266.134 85.2282 265.896 85.2282H264.065C263.801 85.2282 263.614 85.1867 263.511 85.0985C263.407 85.0104 263.355 84.8186 263.355 84.5282V64.9075H256.314C256.023 64.9075 255.832 64.8557 255.743 64.752C255.655 64.6535 255.614 64.4979 255.614 64.2906V62.8386C255.614 62.6053 255.655 62.429 255.743 62.3098C255.832 62.1957 256.023 62.1387 256.314 62.1387H274C274.291 62.1387 274.477 62.1957 274.55 62.3098C274.622 62.429 274.659 62.6053 274.659 62.8386V64.2906C274.659 64.4979 274.622 64.6535 274.55 64.752C274.477 64.8557 274.291 64.9075 274 64.9075H266.565V84.5282C266.565 84.8186 266.513 85.0104 266.409 85.0985Z" fill="#27519B"/>
<path d="M291.508 73.5315H285.83C285.301 73.5315 284.674 73.573 283.938 73.6612C283.206 73.7493 282.512 73.9619 281.853 74.3041C281.189 74.6412 280.635 75.1441 280.178 75.8079C279.722 76.4664 279.499 77.3737 279.499 78.5248C279.499 79.4063 279.665 80.1426 280.002 80.7337C280.339 81.3196 280.795 81.7915 281.366 82.1493C281.936 82.5019 282.589 82.7456 283.326 82.8752C284.057 83.01 284.819 83.0774 285.612 83.0774C285.877 83.0774 286.235 83.0618 286.691 83.0307C287.142 82.9996 287.65 82.9582 288.21 82.9011C288.765 82.8389 289.33 82.7456 289.9 82.6108C290.471 82.4811 291.01 82.3255 291.508 82.1493L291.508 73.5315ZM294.806 83.207C294.806 83.7359 294.598 84.0886 294.189 84.2648C292.872 84.8196 291.461 85.2033 289.968 85.4056C288.469 85.613 287.033 85.7167 285.654 85.7167C283.777 85.7167 282.242 85.5092 281.039 85.0945C279.831 84.6848 278.882 84.1508 278.177 83.487C277.472 82.8234 276.979 82.0611 276.704 81.19C276.424 80.3241 276.284 79.4219 276.284 78.4782C276.284 77.3893 276.476 76.3679 276.855 75.4138C277.238 74.4597 277.819 73.6249 278.597 72.9197C279.375 72.2145 280.349 71.6649 281.521 71.2656C282.693 70.8664 284.088 70.6693 285.7 70.6693H291.549V69.4975C291.549 68.7768 291.477 68.1027 291.332 67.4856C291.181 66.8634 290.901 66.3345 290.497 65.899C290.082 65.4686 289.512 65.1264 288.78 64.8827C288.044 64.6339 287.095 64.5094 285.918 64.5094C284.954 64.5094 283.886 64.6079 282.729 64.7998C281.573 64.9864 280.583 65.2146 279.764 65.479C279.556 65.5412 279.395 65.562 279.276 65.5464C279.157 65.5309 279.074 65.422 279.012 65.2146L278.576 63.6175C278.483 63.2909 278.602 63.068 278.923 62.9486C279.452 62.7413 280.023 62.5546 280.64 62.3887C281.257 62.228 281.895 62.0828 282.553 61.9635C283.212 61.8442 283.88 61.7664 284.555 61.7198C285.229 61.6731 285.861 61.6523 286.447 61.6523C289.289 61.6523 291.394 62.285 292.757 63.545C294.121 64.8049 294.806 66.6509 294.806 69.0879V83.207Z" fill="#27519B"/>
<path d="M303.121 64.1475C303.152 63.432 303.344 62.9186 303.696 62.6075C304.044 62.2913 304.521 62.1357 305.107 62.1357H316.618C317.385 62.1357 317.888 62.3068 318.142 62.649C318.391 62.9912 318.515 63.4942 318.515 64.1475V84.7015C318.515 84.94 318.463 85.0903 318.36 85.163C318.256 85.2355 318.069 85.2771 317.805 85.2771H316.016C315.778 85.2771 315.601 85.2355 315.482 85.163C315.363 85.0903 315.306 84.94 315.306 84.7015V64.9979H305.978L305.713 68.5601C305.48 71.4638 305.246 73.906 305.008 75.8815C304.775 77.8623 304.427 79.5112 303.955 80.8333C303.489 82.1503 302.835 83.1926 302.001 83.9548C301.161 84.7171 300.041 85.3341 298.635 85.8059C298.459 85.8629 298.288 85.8992 298.127 85.9148C297.967 85.9252 297.842 85.8162 297.754 85.5829L297.272 84.0896C297.21 83.8511 297.21 83.6852 297.272 83.5815C297.329 83.4778 297.474 83.3689 297.707 83.2496C298.615 82.8711 299.356 82.3889 299.932 81.7978C300.502 81.2118 300.969 80.4081 301.337 79.3815C301.705 78.3548 301.99 77.0222 302.198 75.3785C302.4 73.7349 302.592 71.6557 302.768 69.1305L303.121 64.1475Z" fill="#27519B"/>
<path d="M337.783 73.5315H332.105C331.576 73.5315 330.949 73.573 330.212 73.6612C329.481 73.7493 328.787 73.9619 328.128 74.3041C327.464 74.6412 326.91 75.1441 326.453 75.8079C325.997 76.4664 325.774 77.3737 325.774 78.5248C325.774 79.4063 325.94 80.1426 326.277 80.7337C326.614 81.3196 327.07 81.7915 327.641 82.1493C328.211 82.5019 328.864 82.7456 329.601 82.8752C330.332 83.01 331.094 83.0774 331.887 83.0774C332.152 83.0774 332.509 83.0618 332.966 83.0307C333.417 82.9996 333.925 82.9582 334.485 82.9011C335.04 82.8389 335.605 82.7456 336.175 82.6108C336.746 82.4811 337.285 82.3255 337.783 82.1493L337.783 73.5315ZM341.081 83.207C341.081 83.7359 340.873 84.0886 340.463 84.2648C339.146 84.8196 337.736 85.2033 336.243 85.4056C334.744 85.613 333.308 85.7167 331.929 85.7167C330.052 85.7167 328.517 85.5092 327.314 85.0945C326.106 84.6848 325.157 84.1508 324.452 83.487C323.747 82.8234 323.254 82.0611 322.979 81.19C322.699 80.3241 322.559 79.4219 322.559 78.4782C322.559 77.3893 322.751 76.3679 323.13 75.4138C323.513 74.4597 324.094 73.6249 324.872 72.9197C325.649 72.2145 326.624 71.6649 327.796 71.2656C328.968 70.8664 330.363 70.6693 331.975 70.6693H337.824V69.4975C337.824 68.7768 337.752 68.1027 337.606 67.4856C337.456 66.8634 337.176 66.3345 336.772 65.899C336.357 65.4686 335.786 65.1264 335.05 64.8827C334.319 64.6339 333.37 64.5094 332.193 64.5094C331.229 64.5094 330.161 64.6079 329.004 64.7998C327.848 64.9864 326.858 65.2146 326.033 65.479C325.831 65.5412 325.67 65.562 325.551 65.5464C325.432 65.5309 325.349 65.422 325.286 65.2146L324.846 63.6175C324.758 63.2909 324.877 63.068 325.198 62.9486C325.727 62.7413 326.298 62.5546 326.915 62.3887C327.532 62.228 328.169 62.0828 328.828 61.9635C329.486 61.8442 330.155 61.7664 330.829 61.7198C331.504 61.6731 332.136 61.6523 332.722 61.6523C335.563 61.6523 337.669 62.285 339.032 63.545C340.396 64.8049 341.081 66.6509 341.081 69.0879V83.207Z" fill="#27519B"/>
<path d="M69.0686 94.1604H62.9812C59.673 94.1604 56.9819 91.4693 56.9819 88.1611V53.8407C56.9819 52.7881 56.1264 51.9325 55.0789 51.9221L48.6908 51.8807C48.1101 51.8962 47.6901 52.0725 47.3271 52.4354C46.9591 52.7984 46.7621 53.2807 46.7621 53.794V88.1611C46.7621 91.4693 44.0709 94.1604 40.7628 94.1604H34.6753C31.3672 94.1604 28.6762 91.4693 28.6762 88.1611V40.0689C28.6762 39.0111 27.8154 38.1555 26.7577 38.1555H20.9762C19.9185 38.1555 19.0629 39.0111 19.0629 40.0689V64.6776C19.0629 67.9858 16.3718 70.6768 13.0636 70.6768H3.01485C1.88963 70.6768 0.977051 69.7643 0.977051 68.6339C0.977051 67.5087 1.88961 66.5961 3.01485 66.5961H13.0636C14.1162 66.5961 14.977 65.7354 14.977 64.6776V40.0689C14.977 36.7607 17.668 34.0697 20.9762 34.0697H26.7577C30.0659 34.0697 32.7569 36.7607 32.7569 40.0689V88.1611C32.7569 89.219 33.6177 90.0745 34.6753 90.0745H40.7628C41.8154 90.0745 42.676 89.219 42.676 88.1611V53.794C42.676 52.1814 43.3034 50.6725 44.4494 49.537C45.5901 48.4014 47.0679 47.7843 48.7168 47.7948L55.1101 47.8414C58.3922 47.8622 61.0678 50.5533 61.0678 53.8407V88.1611C61.0678 89.219 61.9234 90.0745 62.9812 90.0745H69.0686C70.1263 90.0745 70.9818 89.219 70.9818 88.1611V25.8615C70.9818 22.5534 73.6729 19.8623 76.981 19.8623H83.0684C86.3765 19.8623 89.0677 22.5534 89.0677 25.8615V53.0577C89.0677 54.1102 89.9283 54.971 90.9862 54.971H101.03C102.155 54.971 103.073 55.8836 103.073 57.014C103.073 58.1391 102.155 59.0569 101.03 59.0569H90.9862C87.678 59.0569 84.9869 56.3658 84.9869 53.0577V25.8615C84.9869 24.8089 84.1262 23.9482 83.0684 23.9482H76.981C75.9285 23.9482 75.0677 24.8089 75.0677 25.8615V88.1611C75.0677 91.4693 72.3766 94.1604 69.0686 94.1604Z" fill="#75ACD9"/>
<path d="M30.8859 21.9067C30.8859 25.7852 27.7384 28.9327 23.8599 28.9327C19.9815 28.9327 16.834 25.7852 16.834 21.9067C16.834 18.0282 19.9813 14.8809 23.8599 14.8809C27.7385 14.8809 30.8859 18.0283 30.8859 21.9067Z" fill="#75ACD9"/>
<path d="M59.0499 35.3755C59.0499 39.254 55.9024 42.4014 52.024 42.4014C48.1456 42.4014 44.998 39.254 44.998 35.3755C44.998 31.497 48.1454 28.3496 52.024 28.3496C55.9026 28.3496 59.0499 31.497 59.0499 35.3755Z" fill="#75ACD9"/>
<path d="M87.1295 7.85399C87.1295 11.7325 83.982 14.8799 80.1036 14.8799C76.2251 14.8799 73.0776 11.7325 73.0776 7.85399C73.0776 3.97549 76.225 0.828125 80.1036 0.828125C83.9822 0.828125 87.1295 3.97557 87.1295 7.85399Z" fill="#75ACD9"/>
</svg>
