<svg width="76" height="76" viewBox="0 0 76 76" fill="none" xmlns="http://www.w3.org/2000/svg">
<path d="M37.7943 68.3348C54.4409 68.3348 67.9365 54.8399 67.9365 38.1933C67.9365 21.5467 54.4409 8.05176 37.7943 8.05176C21.1477 8.05176 7.65332 21.5467 7.65332 38.1933C7.65332 54.8398 21.1477 68.3348 37.7943 68.3348Z" fill="url(#paint0_linear_350_2599)" stroke="#E9E8E8" stroke-width="0.335267" stroke-miterlimit="10"/>
<path d="M30.2415 31.5431L16.196 17.498C10.8802 22.9323 7.59961 30.3657 7.59961 38.5685C7.59961 46.1113 10.376 53.0012 14.9557 58.2881L29.9692 45.2948C28.4055 43.4907 27.4533 41.1426 27.4533 38.5685C27.4533 35.8485 28.5168 33.3824 30.2415 31.5431Z" fill="#B92029"/>
<path d="M45.0142 31.294L59.0545 17.2549C53.6 11.8003 46.0644 8.42676 37.7404 8.42676C29.5383 8.42676 22.1049 11.708 16.6699 17.0237L30.7157 31.0687C32.5543 29.3446 35.0203 28.2812 37.7404 28.2812C40.581 28.2812 43.1532 29.433 45.0142 31.294Z" fill="#FFD70D"/>
<path d="M59.5168 17.7412L45.4658 31.7915C47.0557 33.602 48.0275 35.9698 48.0275 38.5687C48.0275 41.1428 47.0754 43.4909 45.513 45.295L60.5265 58.2883C65.105 53.0014 67.8826 46.1115 67.8826 38.5687C67.8826 30.4864 64.695 23.1539 59.5168 17.7412Z" fill="#A9CA54"/>
<path style="mix-blend-mode:multiply" d="M37.7404 68.7099C54.387 68.7099 67.8826 55.2149 67.8826 38.5683C67.8826 21.9217 54.387 8.42676 37.7404 8.42676C21.0938 8.42676 7.59961 21.9217 7.59961 38.5683C7.59961 55.2149 21.0939 68.7099 37.7404 68.7099Z" fill="url(#paint1_radial_350_2599)"/>
<path d="M37.7943 75.694C17.1159 75.694 0.292969 58.8711 0.292969 38.1927C0.292969 17.5143 17.1159 0.691406 37.7943 0.691406C58.4727 0.691406 75.2956 17.5143 75.2956 38.1927C75.2956 58.8711 58.4727 75.694 37.7943 75.694ZM37.7943 8.56643C21.4583 8.56643 8.16797 21.8568 8.16797 38.1927C8.16797 54.5287 21.4583 67.819 37.7943 67.819C54.1302 67.819 67.4206 54.5287 67.4206 38.1927C67.4206 21.8568 54.1302 8.56643 37.7943 8.56643Z" fill="url(#paint2_linear_350_2599)"/>
<path d="M37.7946 0.859701C58.4131 0.859701 75.1279 17.5743 75.1279 38.1929C75.1279 58.8116 58.4131 75.5263 37.7946 75.5263C17.1761 75.5263 0.461263 58.8116 0.461263 38.1929C0.461263 17.5743 17.1761 0.859701 37.7946 0.859701ZM37.7946 67.9868C54.2503 67.9868 67.5882 54.647 67.5882 38.1929C67.5882 21.7388 54.2503 8.39917 37.7946 8.39917C21.3408 8.39917 8.00098 21.7389 8.00098 38.1929C8.00098 54.647 21.3408 67.9868 37.7946 67.9868ZM37.7946 0.524414C17.0238 0.524414 0.125977 17.4224 0.125977 38.1929C0.125977 58.9634 17.0238 75.8617 37.7946 75.8617C58.5654 75.8617 75.4632 58.9635 75.4632 38.1929C75.4632 17.4223 58.5654 0.524414 37.7946 0.524414ZM37.7946 67.6515C21.5511 67.6515 8.33626 54.4365 8.33626 38.193C8.33626 21.9494 21.5511 8.73448 37.7946 8.73448C54.0381 8.73448 67.2529 21.9495 67.2529 38.193C67.2529 54.4365 54.0381 67.6515 37.7946 67.6515Z" fill="#808181"/>
<path d="M57.7082 23.5615L36.0117 36.0966L39.4731 41.0397L58.672 24.9386L57.7082 23.5615Z" fill="url(#paint3_linear_350_2599)"/>
<path d="M41.085 43.3413C38.4475 45.1872 34.8146 44.5461 32.968 41.9099C31.1227 39.2736 31.7631 35.6407 34.3993 33.7942C37.0356 31.9489 40.6698 32.5893 42.5151 35.2255C44.3616 37.8618 43.7213 41.4954 41.085 43.3413Z" fill="url(#paint4_radial_350_2599)"/>
<defs>
<linearGradient id="paint0_linear_350_2599" x1="58.8481" y1="59.2467" x2="16.46" y2="16.8585" gradientUnits="userSpaceOnUse">
<stop stop-color="white"/>
<stop offset="0.32143" stop-color="#D7D7D1"/>
<stop offset="0.63095" stop-color="#FCFCFC"/>
<stop offset="0.63645" stop-color="#F8F8F8"/>
<stop offset="0.89048" stop-color="#474747"/>
<stop offset="1"/>
</linearGradient>
<radialGradient id="paint1_radial_350_2599" cx="0" cy="0" r="1" gradientUnits="userSpaceOnUse" gradientTransform="translate(37.7411 48.4026) rotate(-180) scale(49.1979 49.1979)">
<stop stop-color="#010101" stop-opacity="0"/>
<stop offset="0.85357" stop-opacity="0.51066"/>
<stop offset="1"/>
</radialGradient>
<linearGradient id="paint2_linear_350_2599" x1="11.6123" y1="12.0108" x2="64.326" y2="64.7244" gradientUnits="userSpaceOnUse">
<stop stop-color="#CDCCCC"/>
<stop offset="0.32143" stop-color="#454442"/>
<stop offset="0.49936" stop-color="#8C8B8B"/>
<stop offset="0.63095" stop-color="#BEBDBE"/>
<stop offset="0.85656" stop-color="#474647"/>
<stop offset="1"/>
</linearGradient>
<linearGradient id="paint3_linear_350_2599" x1="49.9328" y1="34.1467" x2="47.2805" y2="31.4178" gradientUnits="userSpaceOnUse">
<stop stop-color="#9A9999"/>
<stop offset="0.23562" stop-color="#676767"/>
<stop offset="0.47803" stop-color="#3B3A3A"/>
<stop offset="0.69509" stop-color="#1A1A1A"/>
<stop offset="0.87649" stop-color="#070707"/>
<stop offset="1"/>
</linearGradient>
<radialGradient id="paint4_radial_350_2599" cx="0" cy="0" r="1" gradientUnits="userSpaceOnUse" gradientTransform="translate(38.0865 40.6306) rotate(55.0006) scale(4.40253 4.40252)">
<stop stop-color="#9A9999"/>
<stop offset="0.23562" stop-color="#676767"/>
<stop offset="0.47803" stop-color="#3B3A3A"/>
<stop offset="0.69509" stop-color="#1A1A1A"/>
<stop offset="0.87649" stop-color="#070707"/>
<stop offset="1"/>
</radialGradient>
</defs>
</svg>
