<svg width="82" height="76" viewBox="0 0 82 76" fill="none" xmlns="http://www.w3.org/2000/svg">
<path d="M5.43164 39.6395H3.00228C1.34133 39.6395 -0.00683594 38.2914 -0.00683594 36.6321V29.0481C-0.00683594 27.3871 1.34133 26.0391 3.00228 26.0391H5.43164V39.6395Z" fill="#2E313A"/>
<mask id="mask0_350_2577" style="mask-type:luminance" maskUnits="userSpaceOnUse" x="-1" y="0" width="83" height="76">
<path d="M81.596 0.811523H-0.00683594V75.4782H81.596V0.811523Z" fill="white"/>
</mask>
<g mask="url(#mask0_350_2577)">
<path d="M27.2674 45.2848L9.0376 44.1747C7.04513 44.0353 5.50488 42.3828 5.50488 40.3835V25.2428C5.50488 23.5088 6.83947 22.067 8.57357 21.9481L27.2606 20.8057V45.2848H27.2674Z" fill="#E84C3E"/>
<path d="M57.1121 62.9284L30.4092 49.5743C28.483 48.6121 27.2607 46.6452 27.2607 44.4878V21.4894C27.2607 19.3914 28.4168 17.4653 30.2699 16.476L56.9727 2.1716C60.7638 0.139959 65.3455 2.8822 65.3455 7.18511V57.8418C65.3455 62.0732 60.8964 64.8222 57.1121 62.9284Z" fill="#ECF0F1"/>
</g>
<path d="M66.6331 26.0391H65.2715V39.6396H66.6331C69.6286 39.6396 72.0716 37.1898 72.0716 34.2011V31.4775C72.0716 28.4906 69.6286 26.0391 66.6331 26.0391Z" fill="#E84C3E"/>
<path d="M76.1581 42.3626C75.8793 42.3626 75.6072 42.2759 75.3607 42.1025C74.7572 41.6656 74.611 40.8155 75.0547 40.2035C75.8198 39.1342 77.6049 36.2662 77.5199 32.8729C77.4519 30.1902 76.6153 27.6928 75.0479 25.4605C74.6178 24.8502 74.7623 24.0003 75.3744 23.5685C75.9847 23.1366 76.8347 23.2828 77.2733 23.8949C79.1587 26.5776 80.1548 29.5714 80.2416 32.8066C80.3487 37.0159 78.1964 40.4959 77.2665 41.7914C76.9945 42.1637 76.5764 42.3626 76.1581 42.3626Z" fill="#D1D4D3"/>
<path d="M10.9434 44.296V49.1632H15.0218C15.7715 49.1632 16.3836 49.7668 16.3836 50.525C16.3836 51.2747 15.7715 51.8782 15.0218 51.8782H10.9434V54.6017H15.0218C15.7715 54.6017 16.3836 55.212 16.3836 55.9634C16.3836 56.7131 15.7715 57.3252 15.0218 57.3252H10.9434V60.0402H15.0218C15.7715 60.0402 16.3836 60.6522 16.3836 61.4019C16.3836 62.1517 15.7715 62.7637 15.0218 62.7637H10.9434V65.4788H15.0218C15.7715 65.4788 16.3836 66.0908 16.3836 66.8405C16.3836 67.5919 15.7715 68.2021 15.0218 68.2021H10.9434V69.0862C10.9434 71.7026 13.0889 73.8464 15.7052 73.8464C18.3216 73.8464 20.4671 71.7026 20.4671 69.0862V44.8927L10.9434 44.296Z" fill="#C03D2A"/>
<path d="M16.3836 66.8403C16.3836 66.0905 15.7783 65.4785 15.0218 65.4785H10.9434V68.2019H15.0218C15.7715 68.2019 16.3836 67.5917 16.3836 66.8403Z" fill="#E84C3E"/>
<path d="M16.3836 61.4018C16.3836 60.652 15.7783 60.04 15.0218 60.04H10.9434V62.7635H15.0218C15.7715 62.7635 16.3836 62.1515 16.3836 61.4018Z" fill="#E84C3E"/>
<path d="M16.3836 55.9632C16.3836 55.2067 15.7783 54.6016 15.0218 54.6016H10.9434V57.3183H15.0218C15.7715 57.3183 16.3836 56.713 16.3836 55.9632Z" fill="#E84C3E"/>
<mask id="mask1_350_2577" style="mask-type:luminance" maskUnits="userSpaceOnUse" x="-1" y="0" width="83" height="76">
<path d="M81.596 0.811523H-0.00683594V75.4782H81.596V0.811523Z" fill="white"/>
</mask>
<g mask="url(#mask1_350_2577)">
<path d="M16.3836 50.518C16.3836 49.7666 15.7783 49.1631 15.0218 49.1631H10.9434V51.878H15.0218C15.7715 51.878 16.3836 51.2745 16.3836 50.518Z" fill="#E84C3E"/>
<path d="M56.8996 2.1716L54.3955 3.51299V61.6074L57.0457 62.9284C60.8233 64.8222 65.2725 62.0732 65.2725 57.8418V7.18511C65.2725 2.88219 60.6907 0.139961 56.8996 2.1716Z" fill="#566280"/>
</g>
<path d="M42.0166 17.2731C41.6783 16.6016 40.8674 16.3228 40.1908 16.6628L34.1403 19.6498C32.3739 20.6001 31.2705 22.4328 31.2705 24.4389V27.4003C31.2705 28.1501 31.8826 28.7621 32.6323 28.7621C33.3837 28.7621 33.994 28.15 33.994 27.4003V24.4389C33.994 23.4358 34.5379 22.5195 35.3812 22.0741L41.3978 19.0989C42.0693 18.7674 42.3481 17.9497 42.0166 17.2731Z" fill="white"/>
<path d="M32.6323 30.1172C31.8826 30.1172 31.2705 30.7275 31.2705 31.4772V34.2008C31.2705 34.9505 31.8826 35.5625 32.6323 35.5625C33.3837 35.5625 33.994 34.9505 33.994 34.2008V31.4772C33.994 30.7275 33.3837 30.1172 32.6323 30.1172Z" fill="white"/>
</svg>
