<svg width="76" height="75" viewBox="0 0 76 75" fill="none" xmlns="http://www.w3.org/2000/svg">
<path d="M75.1274 37.4154C75.1274 58.0342 58.4124 74.7487 37.7938 74.7487C17.1752 74.7487 0.460938 58.0342 0.460938 37.4154C0.460938 16.7967 17.1752 0.0820312 37.7938 0.0820312C58.4123 0.0820312 75.1274 16.7967 75.1274 37.4154Z" fill="#74ACDA"/>
<path d="M51.5271 35.8551C51.5271 35.8551 53.2238 38.1837 54.7442 40.4404C55.9878 42.2865 56.9244 44.0865 58.2988 44.5035L58.3876 47.0986L67.0401 46.9521L66.9853 42.8006C66.9853 42.8006 63.2928 37.7208 63.7314 35.3043C64.1707 32.8874 65.305 30.4217 64.9236 30.0256C64.5426 29.6298 63.9776 28.3708 63.2027 28.061C62.4278 27.751 60.5785 27.4263 59.8056 28.0387C59.5863 28.2123 59.215 28.4396 58.769 28.7065C58.1719 29.0636 55.8906 28.3548 55.2117 28.819C54.6079 29.2317 55.4709 30.9687 54.8761 30.9675C54.2073 30.9664 53.7113 31.2295 53.4716 31.5116C52.8741 32.2145 53.3627 33.2323 53.0956 33.4761C52.9269 33.6304 52.073 33.7519 51.7452 34.2224C51.3466 34.7953 51.5271 35.8551 51.5271 35.8551Z" fill="#FABB66"/>
<path d="M63.6252 14.9986L63.5751 13.8779L54.7532 13.8846L49.538 19.7739C44.4582 22.8321 45.0702 37.7837 45.1579 39.4993L45.2288 40.88L46.5788 40.5847C53.9767 38.9676 59.2738 34.001 61.8977 26.2218C63.8453 20.449 63.635 15.2183 63.6252 14.9986ZM47.1005 37.8936C46.9591 31.8533 48.0581 23.1882 50.83 21.7361L51.0211 21.6362L55.8096 16.2285L61.2794 16.2242C61.1646 20.3021 59.5072 34.2432 47.1005 37.8936Z" fill="#FABA4B"/>
<path d="M24.0358 35.8551C24.0358 35.8551 22.339 38.1837 20.819 40.4404C19.575 42.2865 18.6385 44.0865 17.2642 44.5035L17.1748 47.0986L8.52246 46.9521L8.57764 42.8006C8.57764 42.8006 12.2704 37.7208 11.8311 35.3043C11.3917 32.8874 10.2574 30.4217 10.6392 30.0256C11.0201 29.6298 11.5853 28.3708 12.3602 28.061C13.1355 27.751 14.984 27.4263 15.7573 28.0387C15.9766 28.2123 16.3478 28.4396 16.7938 28.7065C17.3905 29.0636 19.6722 28.3548 20.3512 28.819C20.955 29.2317 20.0923 30.9687 20.6867 30.9675C21.3558 30.9664 21.8513 31.2295 22.0913 31.5116C22.6888 32.2145 22.1997 33.2323 22.4668 33.4761C22.636 33.6304 23.4904 33.7519 23.8177 34.2224C24.2163 34.7953 24.0358 35.8551 24.0358 35.8551Z" fill="#FABB66"/>
<path d="M25.0094 19.7739L19.7941 13.8846L10.9725 13.8779L10.9224 14.9986C10.9122 15.2183 10.7025 20.4494 12.6497 26.2218C15.274 34.0011 20.5713 38.9676 27.9688 40.5847L29.3193 40.88L29.3898 39.4993C29.4779 37.7837 30.0896 22.832 25.0094 19.7739ZM27.4473 37.8936C21.5621 36.176 17.112 32.0602 14.8934 25.5369C13.5821 21.6831 13.3133 18.0068 13.2663 16.2242L18.7381 16.2285L23.5269 21.6362L23.7179 21.7361C26.4898 23.1882 27.5891 31.8533 27.4473 37.8936Z" fill="#FABA4B"/>
<path d="M14.9005 25.5122C13.5899 21.6592 13.321 17.9842 13.274 16.201L12.3463 16.1973C12.3463 16.1973 12.2394 22.2156 14.8919 28.3479C17.4707 34.3089 23.8379 38.379 29.1757 39.5242L27.447 37.8935C21.5619 36.1759 17.1195 32.0354 14.9005 25.5122Z" fill="#F6A246"/>
<path d="M59.646 25.5122C60.957 21.6592 61.226 17.9842 61.2729 16.201L62.2005 16.1973C62.2005 16.1973 62.3078 22.2156 59.6549 28.3479C57.0761 34.3089 50.7085 38.379 45.3711 39.5242L47.0994 37.8935C52.9854 36.1759 57.4274 32.0354 59.646 25.5122Z" fill="#F6A246"/>
<path d="M13.5523 33.8649C13.0147 34.4507 12.13 34.513 11.5764 34.0045C11.0227 33.4957 11.0095 32.6095 11.5471 32.0239L15.967 27.2095C16.505 26.6235 17.3899 26.5612 17.9436 27.0691C18.4973 27.5783 18.5102 28.4646 17.9725 29.0506L13.5523 33.8649Z" fill="#F8AC51"/>
<path d="M17.7342 38.3204C17.1962 38.9448 16.2901 39.0456 15.7106 38.5461C15.1311 38.0463 15.0974 37.1355 15.6354 36.511L20.0439 31.5399C20.5823 30.9151 21.5041 30.6532 22.0836 31.1526C22.6631 31.6524 22.6972 32.5634 22.1588 33.1876L17.7342 38.3204Z" fill="#F8AC51"/>
<path d="M20.0896 40.2951C19.6095 40.8515 18.7587 40.9042 18.1886 40.4128C17.6184 39.9211 17.5451 39.0715 18.0248 38.5156L21.9679 33.9409C22.4479 33.3841 23.2988 33.3316 23.8689 33.8231C24.439 34.3147 24.5126 35.1644 24.033 35.7206L20.0896 40.2951Z" fill="#F8AC51"/>
<path d="M15.8002 35.7782C15.2543 36.4114 14.3294 36.5079 13.7327 35.994C13.1371 35.48 13.096 34.5504 13.6418 33.9175L18.148 28.9965C18.6935 28.3631 19.5988 27.984 20.1947 28.4977C20.7911 29.0116 20.8317 29.9414 20.2862 30.5744L15.8002 35.7782Z" fill="#F8AC51"/>
<path d="M62.0089 33.8649C62.5461 34.4507 63.4306 34.513 63.9843 34.0045C64.5383 33.4957 64.5517 32.6095 64.0141 32.0239L59.5937 27.2095C59.0556 26.6235 58.1711 26.5612 57.6174 27.0691C57.0637 27.5783 57.0505 28.4646 57.5881 29.0506L62.0089 33.8649Z" fill="#F8AC51"/>
<path d="M57.8276 38.3204C58.3656 38.9448 59.2717 39.0456 59.8512 38.5461C60.4307 38.0463 60.4644 37.1355 59.9264 36.511L55.5174 31.5399C54.979 30.9151 54.0577 30.6532 53.4782 31.1526C52.8986 31.6524 52.8649 32.5634 53.4033 33.1876L57.8276 38.3204Z" fill="#F8AC51"/>
<path d="M55.4721 40.2951C55.9518 40.8515 56.8026 40.9042 57.3727 40.4128C57.9432 39.9211 58.0164 39.0715 57.5367 38.5156L53.5934 33.9409C53.1137 33.3841 52.2628 33.3316 51.6927 33.8231C51.1221 34.3147 51.049 35.1644 51.5291 35.7206L55.4721 40.2951Z" fill="#F8AC51"/>
<path d="M59.7617 35.7782C60.3071 36.4114 61.2324 36.5079 61.8288 35.994C62.4251 35.48 62.4658 34.5504 61.9204 33.9175L57.4142 28.9965C56.868 28.3631 55.9632 27.984 55.3672 28.4977C54.7708 29.0116 54.7296 29.9414 55.2759 30.5744L59.7617 35.7782Z" fill="#F8AC51"/>
<path d="M42.659 56.2061C42.659 56.917 40.4753 57.4937 37.7814 57.4937C35.0875 57.4937 32.9033 56.917 32.9033 56.2061C32.9033 55.4953 35.0874 54.9189 37.7814 54.9189C40.4754 54.9189 42.659 55.4953 42.659 56.2061Z" fill="#FBBC54"/>
<path d="M51.134 13.9727C51.134 13.9727 45.2876 12.0088 37.2735 12.0088C29.2593 12.0088 23.4125 13.9727 23.4125 13.9727C22.7582 33.9174 29.6149 45.9337 37.2735 45.9568C44.9313 45.9337 51.7883 33.9174 51.134 13.9727Z" fill="#FABA4B"/>
<path d="M44.1398 26.247C43.7796 25.9538 43.4076 25.6504 43.2905 25.2906C43.168 24.9131 43.2925 24.436 43.4131 23.9745C43.5388 23.4958 43.6681 23.0005 43.4774 22.7383C43.2835 22.4719 42.7683 22.4423 42.2702 22.4139C41.7972 22.3869 41.3076 22.3591 40.9912 22.1285C40.6787 21.9016 40.503 21.4484 40.3338 21.0101C40.1521 20.5409 39.9643 20.0557 39.6444 19.9518C39.3538 19.8578 38.9203 20.1263 38.5068 20.3916C38.1008 20.6524 37.6806 20.9217 37.2746 20.9217C36.8686 20.9217 36.4479 20.6523 36.0415 20.3913C35.628 20.1262 35.1933 19.8578 34.9048 19.9518C34.5849 20.0556 34.3969 20.5409 34.2148 21.0098C34.0453 21.4478 33.8699 21.9012 33.5575 22.1285C33.2407 22.3591 32.7516 22.3869 32.2782 22.4139C31.7805 22.4423 31.2657 22.4719 31.0715 22.7383C30.8808 23.0001 31.0103 23.4956 31.1356 23.9745C31.2558 24.4356 31.3811 24.9131 31.2581 25.2904C31.1411 25.6504 30.7687 25.9538 30.4089 26.247C30.0149 26.5676 29.6074 26.8995 29.6074 27.2456C29.6074 27.5914 30.015 27.9234 30.4093 28.2442C30.7688 28.5372 31.1411 28.8407 31.2581 29.2003C31.3807 29.5782 31.2559 30.0547 31.1353 30.5166C31.0099 30.9955 30.8807 31.4908 31.071 31.7526C31.2652 32.0188 31.7805 32.0486 32.2782 32.0768C32.7516 32.104 33.2407 32.1322 33.5571 32.3624C33.87 32.5896 34.0453 33.0425 34.2148 33.4809C34.3965 33.9504 34.5849 34.4355 34.9045 34.5393C35.1946 34.6329 35.6276 34.3647 36.0415 34.0994C36.4479 33.8386 36.8682 33.5692 37.2746 33.5692C37.6806 33.5692 38.1008 33.8386 38.5068 34.0998C38.9203 34.3647 39.3549 34.6329 39.6439 34.5393C39.9638 34.4357 40.1517 33.9504 40.3338 33.4813C40.503 33.0432 40.6788 32.5897 40.9909 32.3624C41.3076 32.1322 41.7971 32.104 42.2705 32.0774C42.7682 32.0486 43.2835 32.019 43.4774 31.7526C43.6681 31.4908 43.5384 30.9955 43.4131 30.5166C43.2925 30.0553 43.168 29.5782 43.2905 29.201C43.4076 28.8407 43.7796 28.5372 44.1398 28.2438C44.5337 27.9234 44.9414 27.5914 44.9414 27.2456C44.9414 26.8995 44.5337 26.5676 44.1398 26.247Z" fill="#FDCB75"/>
<path d="M44.3514 25.9864C44.0291 25.7243 43.6959 25.4529 43.6094 25.1867C43.5177 24.9028 43.6293 24.4744 43.7381 24.0593C43.8826 23.5051 44.0326 22.9316 43.7487 22.5409C43.4609 22.1458 42.8654 22.1117 42.2891 22.0788C41.8642 22.0543 41.4252 22.0294 41.1883 21.8572C40.9561 21.6878 40.7987 21.282 40.6468 20.8888C40.4361 20.3465 40.2188 19.7858 39.7477 19.6327C39.6721 19.6083 39.5915 19.5957 39.5081 19.5957C39.126 19.5957 38.7187 19.8566 38.3255 20.1088C37.9598 20.3434 37.5813 20.5861 37.2743 20.5861C36.9665 20.5861 36.5882 20.3434 36.2225 20.1088C35.829 19.8564 35.4226 19.5957 35.04 19.5957C34.9566 19.5957 34.876 19.6083 34.8008 19.6327C34.3289 19.7855 34.112 20.3463 33.9017 20.8883C33.7494 21.2816 33.592 21.6878 33.3594 21.8572C33.1228 22.0294 32.6839 22.0543 32.2586 22.0788C31.683 22.1117 31.0872 22.1457 30.7998 22.5404C30.5159 22.9312 30.6655 23.5049 30.8104 24.0592C30.9184 24.4736 31.0307 24.9026 30.9383 25.1864C30.8518 25.4529 30.519 25.7243 30.1968 25.9864C29.7418 26.357 29.2715 26.7398 29.2715 27.2457C29.2715 27.7514 29.7418 28.1341 30.1968 28.5046C30.519 28.7671 30.8518 29.038 30.9383 29.3041C31.0307 29.588 30.9184 30.0166 30.8104 30.4314C30.6655 30.9858 30.5155 31.5593 30.7998 31.9503C31.0868 32.345 31.683 32.3794 32.2586 32.4124C32.6838 32.4366 33.1225 32.4615 33.3594 32.6342C33.592 32.803 33.7494 33.2094 33.9014 33.6027C34.1117 34.1444 34.3288 34.7054 34.8003 34.8585C34.8755 34.8828 34.9566 34.8954 35.04 34.8954C35.4222 34.8954 35.829 34.6343 36.2225 34.3822C36.5882 34.1478 36.9665 33.905 37.2743 33.905C37.5813 33.905 37.9598 34.1478 38.3255 34.3825C38.7187 34.6346 39.1256 34.8954 39.5081 34.8954C39.5915 34.8954 39.6718 34.8828 39.7474 34.8585C40.2188 34.7058 40.4361 34.1449 40.6463 33.6029C40.7986 33.2094 40.9557 32.8032 41.1883 32.6342C41.4252 32.4615 41.8641 32.4366 42.2894 32.4124C42.8654 32.3796 43.461 32.3454 43.7484 31.9503C44.0327 31.5597 43.8827 30.9863 43.7378 30.4318C43.6293 30.0171 43.5173 29.5884 43.6094 29.3045C43.6959 29.038 44.0291 28.7671 44.3514 28.5046C44.8064 28.1341 45.277 27.7514 45.277 27.2457C45.277 26.7398 44.8064 26.357 44.3514 25.9864ZM44.1395 28.2438C43.7793 28.5373 43.4072 28.8407 43.2902 29.2009C43.1676 29.5782 43.2921 30.0553 43.4128 30.5166C43.5381 30.9955 43.6677 31.4908 43.477 31.7526C43.2832 32.019 42.7679 32.0486 42.2702 32.0774C41.7968 32.104 41.3073 32.1322 40.9906 32.3624C40.6785 32.5897 40.5027 33.0432 40.3335 33.4814C40.1514 33.9504 39.9635 34.4357 39.6436 34.5393C39.3546 34.6329 38.92 34.3647 38.5065 34.0999C38.1005 33.8387 37.6803 33.5693 37.2743 33.5693C36.8678 33.5693 36.4476 33.8387 36.0412 34.0994C35.6273 34.3647 35.1943 34.6329 34.9041 34.5393C34.5846 34.4356 34.3962 33.9504 34.2145 33.481C34.045 33.0426 33.8696 32.5895 33.5568 32.3624C33.2404 32.1322 32.7512 32.104 32.2778 32.0767C31.7802 32.0486 31.265 32.0188 31.0708 31.7526C30.8805 31.4908 31.0096 30.9955 31.1349 30.5166C31.2555 30.0548 31.3803 29.5782 31.2578 29.2004C31.1407 28.8407 30.7685 28.5373 30.409 28.2442C30.0147 27.9235 29.6071 27.5914 29.6071 27.2457C29.6071 26.8995 30.0146 26.5677 30.4085 26.247C30.7684 25.9539 31.1407 25.6505 31.2578 25.2904C31.3807 24.9131 31.2555 24.4356 31.1353 23.9745C31.0099 23.4957 30.8805 23.0001 31.0711 22.7384C31.2654 22.4719 31.7802 22.4424 32.2778 22.414C32.7512 22.387 33.2404 22.3591 33.5571 22.1285C33.8696 21.9012 34.045 21.4478 34.2145 21.0098C34.3966 20.5409 34.5845 20.0556 34.9045 19.9518C35.193 19.8578 35.6277 20.1263 36.0412 20.3914C36.4476 20.6523 36.8682 20.9217 37.2743 20.9217C37.6803 20.9217 38.1005 20.6523 38.5065 20.3915C38.92 20.1262 39.3535 19.8578 39.644 19.9518C39.964 20.0558 40.1518 20.5409 40.3335 21.01C40.5027 21.4483 40.6786 21.9016 40.991 22.1285C41.3074 22.3591 41.7968 22.387 42.2699 22.414C42.7679 22.4424 43.2832 22.4719 43.477 22.7384C43.6677 23.0005 43.5385 23.4959 43.4128 23.9745C43.2921 24.436 43.1676 24.9131 43.2902 25.2906C43.4072 25.6505 43.7793 25.9539 44.1395 26.247C44.5334 26.5677 44.9411 26.8995 44.9411 27.2457C44.9411 27.5914 44.5334 27.9235 44.1395 28.2438Z" fill="#FED898"/>
<path d="M42.9814 27.2444C42.9814 30.3971 40.4261 32.9522 37.2736 32.9522C34.1211 32.9522 31.5654 30.3971 31.5654 27.2444C31.5654 24.0917 34.1211 21.5361 37.2736 21.5361C40.4261 21.5361 42.9814 24.0917 42.9814 27.2444Z" fill="#FEE5A5"/>
<path d="M39.105 23.14C40.1007 23.14 41.0361 23.3961 41.8506 23.8441C40.8102 22.446 39.15 21.5361 37.2736 21.5361C34.1211 21.5361 31.5654 24.0917 31.5654 27.2444C31.5654 29.4015 32.7624 31.2775 34.5272 32.2484C33.8208 31.2979 33.3966 30.1242 33.3966 28.8486C33.3966 25.6958 35.9525 23.14 39.105 23.14Z" fill="#FEEAB7"/>
<path d="M38.0329 29.7786C38.0427 29.9742 38.0732 30.1312 38.1245 30.2497C38.1758 30.3683 38.2526 30.4533 38.3551 30.5044C38.4573 30.5557 38.6049 30.5811 38.7972 30.5811H38.8932V31.0138H36.0485V30.5811C36.26 30.5811 36.4247 30.5557 36.5438 30.5044C36.6616 30.4533 36.7482 30.3683 36.8031 30.2497C36.8575 30.1312 36.8896 29.9742 36.8989 29.7786C36.9087 29.5835 36.9134 29.3382 36.9134 29.0436V25.7759C36.9134 25.4812 36.9087 25.2361 36.8989 25.0407C36.8895 24.8451 36.8591 24.6883 36.8078 24.5697C36.7565 24.4512 36.6793 24.3664 36.5771 24.3149C36.4745 24.2639 36.3273 24.2382 36.1351 24.2382H36.0391V23.8057H38.0184V29.0436C38.0184 29.3382 38.0235 29.5835 38.0329 29.7786Z" fill="#F18A56"/>
<path d="M46.7173 63.3029L45.5881 56.5774L37.2736 55.3232L28.9587 56.5774L27.8291 63.3029L27.8932 63.3096C27.8525 63.4122 27.8291 63.5159 27.8291 63.6217C27.8291 65.1227 32.0576 66.3395 37.2736 66.3395C42.4893 66.3395 46.7173 65.1227 46.7173 63.6217C46.7173 63.5159 46.6946 63.4122 46.6535 63.3096L46.7173 63.3029Z" fill="#A33C16"/>
<path d="M13.7026 33.5935C13.165 34.1795 12.2805 34.2413 11.7269 33.733C11.1732 33.2242 11.1598 32.3379 11.6974 31.7523L16.1173 26.938C16.6553 26.3521 17.5404 26.2896 18.094 26.7979C18.6477 27.3069 18.6607 28.1932 18.123 28.779L13.7026 33.5935Z" fill="#FCCD95"/>
<path d="M18.034 38.1979C17.496 38.8224 16.5895 38.9231 16.0104 38.4239C15.4309 37.9241 15.3973 37.0131 15.9349 36.3887L20.3595 31.2565C20.8976 30.6318 21.804 30.5307 22.3831 31.0303C22.9631 31.5302 22.9967 32.4412 22.4583 33.0653L18.034 38.1979Z" fill="#FCCD95"/>
<path d="M20.3051 40.1837C19.8254 40.7403 18.9747 40.793 18.4045 40.3013C17.8345 39.8098 17.7608 38.96 18.2405 38.4044L22.1835 33.8296C22.664 33.2728 23.5148 33.2203 24.0846 33.7119C24.6547 34.2035 24.7283 35.053 24.2486 35.6092L20.3051 40.1837Z" fill="#FCCD95"/>
<path d="M16.0445 35.8019C15.4986 36.4349 14.5734 36.5314 13.9774 36.0177C13.381 35.5038 13.3403 34.5742 13.8858 33.941L18.3719 28.7376C18.9174 28.1042 19.8426 28.0078 20.439 28.5213C21.035 29.0354 21.0761 29.9648 20.5303 30.598L16.0445 35.8019Z" fill="#FCCD95"/>
<path d="M14.042 34.7183C14.042 34.7183 14.2097 34.9902 14.4893 35.2713C14.49 35.2721 14.4908 35.2727 14.4915 35.2737C14.4927 35.2743 14.4935 35.2755 14.4943 35.2764C14.775 35.5564 15.0472 35.7238 15.0472 35.7238C15.3828 35.3878 15.893 34.8919 15.8945 34.5046C15.8949 34.332 15.8017 34.184 15.6912 34.0793C15.6908 34.0783 15.6898 34.0777 15.689 34.0765C15.6878 34.0759 15.6874 34.0747 15.6862 34.0737C15.5817 33.9631 15.4333 33.8707 15.2611 33.8711C14.8734 33.8723 14.3776 34.3823 14.042 34.7183Z" fill="#FEE1BF"/>
<path d="M11.666 32.2486C11.666 32.2486 11.8336 32.5204 12.1136 32.8015C12.1144 32.8021 12.1147 32.8027 12.1159 32.8036C12.1171 32.8044 12.1175 32.8056 12.1187 32.8066C12.3994 33.0863 12.6715 33.2537 12.6715 33.2537C13.0075 32.918 13.5169 32.4223 13.5189 32.0347C13.5189 31.8622 13.4261 31.7141 13.3153 31.6094C13.3145 31.6086 13.3136 31.6079 13.3128 31.6067C13.3124 31.6061 13.3117 31.6049 13.3109 31.6039C13.2063 31.4933 13.0576 31.4008 12.8849 31.4014C12.4977 31.4025 12.002 31.9125 11.666 32.2486Z" fill="#FEE1BF"/>
<path d="M16.3535 37.0685C16.3535 37.0685 16.5242 37.3454 16.8092 37.6318C16.8104 37.6328 16.8112 37.6334 16.812 37.6341C16.8132 37.6351 16.814 37.6363 16.8148 37.637C17.101 37.9223 17.3778 38.093 17.3778 38.093C17.7204 37.7504 18.2396 37.2451 18.2415 36.8506C18.2415 36.6746 18.1469 36.5239 18.0345 36.417C18.0337 36.4164 18.0329 36.4154 18.0321 36.4144C18.0313 36.4136 18.0305 36.4124 18.0298 36.4115C17.9229 36.2991 17.7717 36.2043 17.5959 36.2051C17.2012 36.2061 16.6957 36.7261 16.3535 37.0685Z" fill="#FEE1BF"/>
<path d="M18.5283 39.0468C18.5283 39.0468 18.699 39.3235 18.9837 39.6093C18.9845 39.6101 18.9852 39.6107 18.986 39.6117C18.9872 39.6124 18.988 39.6136 18.9888 39.6146C19.2746 39.8992 19.5514 40.0695 19.5514 40.0695C19.8928 39.7277 20.4117 39.2234 20.4132 38.8293C20.4136 38.6534 20.3193 38.5029 20.2069 38.3962C20.2061 38.3957 20.2053 38.3944 20.2041 38.3935C20.2033 38.3927 20.2026 38.3916 20.2018 38.391C20.0949 38.279 19.9441 38.184 19.7687 38.1846C19.3748 38.1857 18.8702 38.7049 18.5283 39.0468Z" fill="#FEE1BF"/>
<path d="M11.4934 31.9264C11.4934 31.9264 14.3553 30.1572 15.4584 29.1425C16.859 27.8542 17.3539 26.7634 16.3926 25.583C16.3926 25.583 9.45172 28.9738 9.26143 29.3195C9.07074 29.6649 7.82988 34.3579 7.70381 35.376C7.5777 36.3939 8.31663 41.6242 8.57702 42.8005C8.57702 42.8005 15.2359 38.665 11.4934 31.9264Z" fill="#FCCD95"/>
<path d="M16.3976 25.583C17.3585 26.7634 16.8636 27.8542 15.4634 29.1425C14.3603 30.1572 11.4984 31.9263 11.4984 31.9263C15.2409 38.6649 8.58203 42.8004 8.58203 42.8004C8.58203 42.8004 15.7199 38.7227 11.7796 31.9598C11.7796 31.9598 14.4899 30.8726 15.6353 29.863C17.0891 28.5814 17.7485 26.7336 16.3976 25.583Z" fill="#FABB66"/>
<path d="M16.3632 26.9912C16.3632 26.9912 16.317 26.722 16.1588 26.432C16.1584 26.4316 16.158 26.4305 16.1577 26.4299C16.1569 26.4289 16.1566 26.4277 16.1562 26.4272C15.9968 26.1378 15.7931 25.9551 15.7931 25.9551C15.2883 26.2327 14.5292 26.6409 14.346 27.0011C14.2649 27.1615 14.2922 27.309 14.3572 27.4164C14.3572 27.4172 14.3581 27.4186 14.3585 27.4194C14.3593 27.4203 14.3596 27.4211 14.36 27.4223C14.4168 27.5352 14.5268 27.6369 14.7054 27.6537C15.1071 27.6923 15.8585 27.2694 16.3632 26.9912Z" fill="#FEE1BF"/>
<path d="M18.1811 32.558C18.143 32.5956 18.0483 32.5627 17.9688 32.4838L17.0549 31.575C16.9754 31.4959 16.9416 31.4011 16.9792 31.3633C17.0172 31.3255 17.112 31.3584 17.1915 31.4378L18.1054 32.3461C18.1848 32.4252 18.2186 32.5198 18.1811 32.558Z" fill="#FEE1BF"/>
<path d="M17.8971 32.8431C17.8587 32.8807 17.7639 32.8478 17.6849 32.7691L16.7705 31.8605C16.691 31.7813 16.6573 31.6865 16.6953 31.6484C16.7333 31.6107 16.828 31.6436 16.9075 31.7229L17.8211 32.6315C17.901 32.7104 17.9347 32.8051 17.8971 32.8431Z" fill="#FEE1BF"/>
<path d="M20.0287 34.931C19.9911 34.9686 19.8959 34.9357 19.8165 34.8566L18.9029 33.948C18.823 33.8688 18.7893 33.7741 18.8269 33.7364C18.8649 33.6986 18.9597 33.7315 19.0396 33.8107L19.9535 34.7191C20.0326 34.798 20.0663 34.8928 20.0287 34.931Z" fill="#FEE1BF"/>
<path d="M19.7441 35.2161C19.7065 35.2538 19.6114 35.221 19.5324 35.1422L18.6185 34.2336C18.5385 34.1541 18.5052 34.0596 18.5428 34.0214C18.5803 33.9838 18.6754 34.0167 18.7553 34.0958L19.6689 35.0046C19.7484 35.0835 19.7821 35.1782 19.7441 35.2161Z" fill="#FEE1BF"/>
<path d="M16.0728 30.5558C16.0348 30.5936 15.9717 30.5924 15.9322 30.553L15.4734 30.0966C15.4334 30.0569 15.4321 29.9941 15.4693 29.9561C15.5073 29.9185 15.5705 29.9196 15.6104 29.9594L16.0689 30.4152C16.1089 30.455 16.1104 30.5178 16.0728 30.5558Z" fill="#FEE1BF"/>
<path d="M15.7884 30.841C15.7508 30.8787 15.6878 30.8776 15.6483 30.8384L15.1893 30.3822C15.1493 30.3425 15.1478 30.2795 15.1854 30.2413C15.2233 30.2037 15.286 30.2047 15.3263 30.2446L15.7845 30.7008C15.8248 30.7402 15.8264 30.8031 15.7884 30.841Z" fill="#FEE1BF"/>
<path d="M22.0936 37.403C22.0607 37.4361 21.9777 37.4069 21.9084 37.3382L21.1109 36.5453C21.0416 36.4762 21.0117 36.3932 21.0446 36.3603C21.0779 36.3274 21.161 36.3562 21.2304 36.4254L22.0279 37.2186C22.0968 37.2871 22.1265 37.3697 22.0936 37.403Z" fill="#FEE1BF"/>
<path d="M21.8456 37.6522C21.8123 37.6851 21.7293 37.6563 21.6604 37.5876L20.8625 36.7944C20.7936 36.7257 20.7637 36.6426 20.7966 36.6093C20.8295 36.5764 20.9125 36.6052 20.9818 36.6745L21.7795 37.4675C21.8488 37.536 21.8785 37.6193 21.8456 37.6522Z" fill="#FEE1BF"/>
<path d="M27.7677 14.4434C25.5761 14.8541 24.2565 15.2968 24.2565 15.2968C24.1394 18.8712 24.3305 22.1195 24.7659 25.0059L28.3053 23.7916C27.8785 21.0045 27.6796 17.8776 27.7677 14.4434Z" fill="#FCC770"/>
<path d="M28.8143 27.8574L25.9043 28.4181C27.1193 38.6987 31.3419 43.9971 35.1017 44.7384C35.9988 44.9151 38.5458 45.4432 39.5342 44.5304C39.4629 44.5347 29.2713 42.8819 28.8143 27.8574Z" fill="#FCC770"/>
<path d="M17.9227 49.5374L7.7041 48.9553V45.4385L18.196 45.8117L17.9227 49.5374Z" fill="white"/>
<path d="M61.8594 33.5935C62.3967 34.1795 63.2813 34.2413 63.835 33.733C64.3891 33.2242 64.4023 32.3379 63.8643 31.7523L59.4444 26.938C58.9064 26.3521 58.0217 26.2896 57.4677 26.7979C56.9144 27.3069 56.9011 28.1932 57.4387 28.779L61.8594 33.5935Z" fill="#FCCD95"/>
<path d="M57.5278 38.1979C58.0662 38.8224 58.9719 38.9231 59.5514 38.4239C60.1309 37.9241 60.1646 37.0131 59.6266 36.3887L55.2023 31.2565C54.6638 30.6318 53.7582 30.5307 53.1783 31.0303C52.5988 31.5302 52.5651 32.4412 53.1035 33.0653L57.5278 38.1979Z" fill="#FCCD95"/>
<path d="M55.2583 40.1837C55.7379 40.7403 56.5885 40.793 57.159 40.3013C57.7291 39.8098 57.8022 38.96 57.3226 38.4044L53.3795 33.8296C52.8995 33.2728 52.0486 33.2203 51.4785 33.7119C50.9084 34.2035 50.8352 35.053 51.3149 35.6092L55.2583 40.1837Z" fill="#FCCD95"/>
<path d="M59.5186 35.8019C60.0641 36.4349 60.9893 36.5314 61.5857 36.0177C62.1816 35.5038 62.2227 34.5742 61.6765 33.941L57.1911 28.7376C56.6453 28.1042 55.7197 28.0078 55.1237 28.5213C54.5278 29.0354 54.4866 29.9648 55.0321 30.598L59.5186 35.8019Z" fill="#FCCD95"/>
<path d="M61.5208 34.7173C61.5208 34.7173 61.3532 34.9892 61.0732 35.2703C61.0724 35.2711 61.0716 35.2717 61.0708 35.2727C61.0696 35.2733 61.069 35.2745 61.0682 35.2755C60.7875 35.5555 60.5153 35.7228 60.5153 35.7228C60.1793 35.3869 59.6695 34.8909 59.668 34.5037C59.6676 34.331 59.7603 34.183 59.8711 34.0783C59.8719 34.0773 59.8728 34.0767 59.8735 34.0755C59.8743 34.0749 59.875 34.0738 59.8758 34.0728C59.9807 33.9621 60.1287 33.8698 60.3014 33.8701C60.6891 33.8713 61.1849 34.3813 61.5208 34.7173Z" fill="#FEE1BF"/>
<path d="M63.8968 32.2476C63.8968 32.2476 63.7292 32.5194 63.4492 32.8005C63.4484 32.8011 63.4477 32.8017 63.4469 32.8027C63.4462 32.8035 63.4453 32.8046 63.4445 32.8056C63.1633 33.0854 62.8916 33.2528 62.8916 33.2528C62.5552 32.917 62.0455 32.4213 62.0439 32.0337C62.0439 31.8612 62.1366 31.7131 62.2471 31.6084C62.2478 31.6076 62.2487 31.6069 62.2495 31.6057C62.2503 31.6051 62.2511 31.6039 62.2523 31.6029C62.3572 31.4923 62.5052 31.3998 62.6779 31.4004C63.0652 31.4016 63.5612 31.9115 63.8968 32.2476Z" fill="#FEE1BF"/>
<path d="M59.2105 37.0676C59.2105 37.0676 59.0393 37.3444 58.7542 37.6309C58.7539 37.6318 58.7526 37.6324 58.7523 37.6331C58.7511 37.6341 58.7504 37.6353 58.7492 37.6361C58.463 37.9214 58.186 38.092 58.186 38.092C57.8435 37.7494 57.3239 37.2441 57.3223 36.8496C57.3219 36.6736 57.4171 36.5229 57.5295 36.416C57.5298 36.4154 57.531 36.4144 57.5317 36.4134C57.5325 36.4127 57.5333 36.4115 57.5345 36.4105C57.641 36.2981 57.7921 36.2033 57.9679 36.2041C58.363 36.2051 58.8682 36.7251 59.2105 37.0676Z" fill="#FEE1BF"/>
<path d="M57.0343 39.0458C57.0343 39.0458 56.8645 39.3225 56.5794 39.6083C56.5786 39.6091 56.5778 39.6097 56.577 39.6107C56.5758 39.6114 56.5751 39.6126 56.5744 39.6136C56.2885 39.8982 56.012 40.0685 56.012 40.0685C55.6698 39.7267 55.151 39.2224 55.1494 38.8283C55.149 38.6525 55.2441 38.502 55.3561 38.3953C55.3569 38.3947 55.3581 38.3935 55.3589 38.3925C55.3597 38.3917 55.3604 38.3906 55.3612 38.39C55.4673 38.278 55.6184 38.183 55.7943 38.1836C56.1882 38.1848 56.6929 38.704 57.0343 39.0458Z" fill="#FEE1BF"/>
<path d="M64.0684 31.9264C64.0684 31.9264 61.2069 30.1572 60.1039 29.1425C58.7037 27.8542 58.2083 26.7634 59.1696 25.583C59.1696 25.583 66.1105 28.9738 66.3011 29.3195C66.491 29.6649 67.7322 34.3579 67.8579 35.376C67.9844 36.3939 67.2456 41.6242 66.9852 42.8005C66.9852 42.8005 60.3259 38.665 64.0684 31.9264Z" fill="#FCCD95"/>
<path d="M59.1658 25.583C58.2041 26.7634 58.6995 27.8542 60.0998 29.1425C61.2028 30.1572 64.0648 31.9263 64.0648 31.9263C60.3222 38.6649 66.9811 42.8004 66.9811 42.8004C66.9811 42.8004 59.6769 38.7348 63.6172 31.9719C63.6172 31.9719 61.0732 30.8726 59.9279 29.863C58.474 28.5814 57.8146 26.7336 59.1658 25.583Z" fill="#FABB66"/>
<path d="M59.1992 26.9912C59.1992 26.9912 59.2454 26.722 59.4036 26.432C59.404 26.4316 59.4045 26.4305 59.4053 26.4299C59.4056 26.4289 59.4057 26.4277 59.4061 26.4272C59.5662 26.1378 59.7694 25.9551 59.7694 25.9551C60.2741 26.2327 61.0334 26.6409 61.2166 27.0011C61.2973 27.1615 61.2706 27.309 61.2052 27.4164C61.2052 27.4172 61.2045 27.4186 61.2041 27.4194C61.2037 27.4203 61.2029 27.4211 61.2025 27.4223C61.1457 27.5352 61.0362 27.6369 60.8573 27.6537C60.4559 27.6923 59.704 27.2694 59.1992 26.9912Z" fill="#FEE1BF"/>
<path d="M57.3806 32.558C57.4182 32.5956 57.5134 32.5627 57.5929 32.4838L58.5063 31.575C58.5861 31.4959 58.6194 31.4011 58.5823 31.3633C58.5443 31.3255 58.4496 31.3584 58.3697 31.4378L57.4558 32.3461C57.3767 32.4252 57.343 32.5198 57.3806 32.558Z" fill="#FEE1BF"/>
<path d="M57.665 32.8431C57.7026 32.8807 57.7978 32.8478 57.877 32.7691L58.7909 31.8605C58.8703 31.7813 58.9039 31.6865 58.8664 31.6484C58.8288 31.6107 58.7337 31.6436 58.6538 31.7229L57.7402 32.6315C57.6607 32.7104 57.627 32.8051 57.665 32.8431Z" fill="#FEE1BF"/>
<path d="M55.533 34.931C55.5705 34.9686 55.6657 34.9357 55.7452 34.8566L56.6591 33.948C56.7386 33.8688 56.7723 33.7741 56.7343 33.7364C56.6967 33.6986 56.6015 33.7315 56.5221 33.8107L55.6082 34.7191C55.5291 34.798 55.4954 34.8928 55.533 34.931Z" fill="#FEE1BF"/>
<path d="M55.8169 35.2161C55.8549 35.2538 55.9498 35.221 56.0297 35.1422L56.9431 34.2336C57.0226 34.1541 57.0563 34.0596 57.0188 34.0214C56.9812 33.9838 56.886 34.0167 56.8065 34.0958L55.8926 35.0046C55.8131 35.0835 55.7797 35.1782 55.8169 35.2161Z" fill="#FEE1BF"/>
<path d="M59.4897 30.5558C59.5277 30.5936 59.5909 30.5924 59.6308 30.553L60.0896 30.0966C60.1292 30.0569 60.1308 29.9941 60.0932 29.9561C60.0556 29.9185 59.9925 29.9196 59.9526 29.9594L59.4938 30.4152C59.4542 30.455 59.4525 30.5178 59.4897 30.5558Z" fill="#FEE1BF"/>
<path d="M59.7739 30.841C59.8119 30.8787 59.8746 30.8776 59.9149 30.8384L60.3734 30.3822C60.4133 30.3425 60.4149 30.2795 60.377 30.2413C60.3397 30.2037 60.2764 30.2047 60.2368 30.2446L59.7778 30.7008C59.7383 30.7402 59.7367 30.8031 59.7739 30.841Z" fill="#FEE1BF"/>
<path d="M53.4686 37.403C53.5015 37.4361 53.5841 37.4069 53.6539 37.3382L54.4511 36.5453C54.5208 36.4762 54.5497 36.3932 54.5168 36.3603C54.4839 36.3274 54.4009 36.3562 54.3316 36.4254L53.5341 37.2186C53.4648 37.2871 53.4357 37.3697 53.4686 37.403Z" fill="#FEE1BF"/>
<path d="M53.7166 37.6522C53.7499 37.6851 53.8325 37.6563 53.9018 37.5876L54.6995 36.7944C54.7692 36.7257 54.7986 36.6426 54.7653 36.6093C54.7324 36.5764 54.6493 36.6052 54.58 36.6745L53.7824 37.4675C53.713 37.536 53.6837 37.6193 53.7166 37.6522Z" fill="#FEE1BF"/>
<path d="M57.4531 48.9553H67.8581V45.4385L57.4531 46.0121V48.9553Z" fill="white"/>
<path d="M46.7179 63.2718L45.5887 56.5461L41 55.5078L41.5055 66.0199C44.5961 65.5734 46.7179 64.6536 46.7179 63.5903C46.7179 63.4848 46.6952 63.3806 46.6541 63.2784L46.7179 63.2718Z" fill="#7C2E10"/>
<path opacity="0.4" d="M31.7257 56.0483L30.6055 65.5381C31.434 65.7597 32.4004 65.9385 33.4639 66.0636L34.6992 55.5996L31.7257 56.0483Z" fill="#B66235"/>
<path d="M45.5884 56.6856C45.5884 57.4729 41.8658 58.1108 37.2739 58.1108C32.6817 58.1108 28.959 57.4729 28.959 56.6856C28.959 55.898 32.6817 55.2598 37.2739 55.2598C41.8658 55.2598 45.5884 55.898 45.5884 56.6856Z" fill="#7C2E10"/>
<path d="M43.5438 56.1692L42.7939 52.9903L37.2741 52.3975L31.7534 52.9903L31.0482 56.1725C31.0208 56.2207 31.0039 56.2697 31.0039 56.3196C31.0039 57.0289 33.8111 57.6039 37.2741 57.6039C40.7363 57.6039 43.5438 57.0289 43.5438 56.3196C43.5438 56.2697 43.5265 56.2207 43.4998 56.1725L43.5438 56.1692Z" fill="#F1851C"/>
<path d="M42.7944 52.9906C42.7944 53.6153 40.3229 54.1212 37.2746 54.1212C34.2255 54.1212 31.7539 53.6153 31.7539 52.9906C31.7539 52.366 34.2255 51.8594 37.2746 51.8594C40.3229 51.8594 42.7944 52.366 42.7944 52.9906Z" fill="#FABA4B"/>
<path d="M39.848 41.6191H34.6989C34.6989 41.6191 36.7985 48.6201 33.4561 53.0095C33.4561 53.0095 34.98 53.5299 37.2988 53.5299C40.292 53.5299 41.2948 52.9815 41.2948 52.9815C37.9524 48.5921 39.848 41.6191 39.848 41.6191Z" fill="#FABA4B"/>
<path d="M33.0552 53.7197L32.2012 57.0749C32.7114 57.2478 32.9129 57.2841 33.9357 57.4075L34.6268 53.9831L33.0552 53.7197Z" fill="#F59E48"/>
<path d="M5.97656 47.9072V56.9543C9.37691 62.4722 14.1725 67.0384 19.8721 70.1603L20.6696 49.1196L5.97656 47.9072Z" fill="#4A6C90"/>
<path d="M55.1484 48.9556L55.439 70.2954C61.4287 67.0738 66.4356 62.2642 69.9006 56.4303L70.2593 48.2715L55.1484 48.9556Z" fill="#383737"/>
</svg>
