<svg width="57" height="57" viewBox="0 0 57 57" fill="none" xmlns="http://www.w3.org/2000/svg">
<path d="M28.5872 0.200195C13.1233 0.200195 0.587524 12.736 0.587524 28.1995C0.587524 43.6631 13.1233 56.2002 28.5872 56.2002C44.0511 56.2002 56.5875 43.6637 56.5875 28.1995C56.5875 12.7353 44.0511 0.200195 28.5872 0.200195ZM46.8769 21.7985L29.6536 38.9437C29.5514 39.0876 29.4462 39.2295 29.319 39.3571L26.667 42.0088C25.3867 43.2894 23.192 43.2894 21.9117 42.0088L10.2975 30.3031C9.01754 29.0231 9.01754 26.8284 10.2975 25.5478L12.9498 22.8955C14.2295 21.6162 16.4251 21.6162 17.7047 22.8955L24.2744 29.5172L39.47 14.3909C40.7503 13.111 42.9446 13.111 44.2255 14.3909L46.8769 17.0433C48.1575 18.3232 48.1575 20.5185 46.8769 21.7985Z" fill="white"/>
</svg>
