<svg width="92" height="89" viewBox="0 0 92 89" fill="none" xmlns="http://www.w3.org/2000/svg">
<path d="M28.9233 77.8251C29.217 77.1456 29.3799 76.397 29.3799 75.6116C29.3799 72.5326 26.8755 70.0271 23.7965 70.0271H23.4127C22.4533 68.249 21.9667 66.4073 21.9667 64.5394C21.9667 62.6718 22.4523 60.8298 23.4127 59.0519H23.7965C26.8755 59.0519 29.3799 56.5465 29.3799 53.4675C29.3799 50.4893 27.0375 48.0488 24.0994 47.891L25.9471 36.3583C26.1431 35.132 25.7803 33.9038 24.9247 32.9003C23.8824 31.6772 22.1845 30.9176 20.4936 30.9176H18.1749V27.3579C18.1749 26.3407 17.3507 25.5161 16.3332 25.5161C15.3157 25.5161 14.4914 26.3407 14.4914 27.3579V30.9176H12.1727C10.4809 30.9176 8.78287 31.6782 7.73956 32.9003C6.88507 33.9037 6.5223 35.132 6.7193 36.3583L8.5672 47.891C5.62788 48.0488 3.28542 50.4893 3.28542 53.4675C3.28542 56.5465 5.79084 59.0519 8.86985 59.0519H8.90391C9.86432 60.8298 10.3499 62.6718 10.3499 64.5394C10.3499 66.4073 9.86432 68.249 8.90391 70.0271H8.86985C5.79084 70.0271 3.28542 72.5326 3.28542 75.6116C3.28542 76.397 3.44842 77.1456 3.74314 77.8241C1.56648 78.5878 0.00250244 80.6623 0.00250244 83.0969C0.00250244 86.1759 2.50792 88.6803 5.58693 88.6803H27.0784C30.1574 88.6803 32.6629 86.1759 32.6629 83.0959C32.6629 80.6623 31.0989 78.5877 28.9233 77.8251ZM12.1727 34.6025H20.4936C22.3093 34.5554 22.3185 35.7207 22.3093 35.7757L20.3685 47.883H12.2968L10.3571 35.7757C10.3481 35.7207 10.5717 34.6025 12.1727 34.6025ZM8.86985 55.3673C7.82245 55.3673 6.97003 54.5149 6.97003 53.4675C6.97003 52.4201 7.82245 51.5676 8.86985 51.5676H23.7965C24.8439 51.5676 25.6963 52.4201 25.6963 53.4675C25.6963 54.5149 24.8439 55.3673 23.7965 55.3673H8.86985ZM19.3503 70.0271H12.9664C13.6758 68.2462 14.0337 66.4104 14.0337 64.5394C14.0337 62.6687 13.6758 60.8328 12.9664 59.0519H19.3503C18.6408 60.8328 18.2829 62.6687 18.2829 64.5394C18.2829 66.4104 18.6408 68.2462 19.3503 70.0271ZM8.86985 73.7117H23.7965C24.8439 73.7117 25.6963 74.5642 25.6963 75.6116C25.6963 76.6597 24.8439 77.5122 23.7965 77.5122H8.86985C7.82245 77.5122 6.97003 76.6597 6.97003 75.6116C6.97003 74.5642 7.82245 73.7117 8.86985 73.7117ZM27.0784 84.9965H5.58693C4.53851 84.9965 3.6861 84.1441 3.6861 83.0959C3.6861 82.0485 4.53851 81.196 5.58693 81.196H27.0784C28.1269 81.196 28.9793 82.0485 28.9793 83.0969C28.9793 84.144 28.1269 84.9965 27.0784 84.9965ZM35.2993 32.6066C36.0187 33.3263 36.0187 34.4924 35.2993 35.2121L30.8681 39.6432C30.5082 40.003 30.0367 40.1828 29.5659 40.1828C29.0942 40.1828 28.6224 40.003 28.2627 39.6432C27.543 38.9236 27.543 37.7575 28.2627 37.0378L32.6938 32.6067C33.4135 31.8873 34.5796 31.8872 35.2993 32.6066ZM71.6961 42.2477L81.3371 32.6077C82.0568 31.888 83.2229 31.888 83.9426 32.6077C84.661 33.3271 84.661 34.4924 83.9426 35.2121L74.3016 44.8529C73.9419 45.2126 73.4701 45.3927 72.9983 45.3927C72.5268 45.3927 72.0561 45.2126 71.6961 44.8529C70.9767 44.1334 70.9767 42.9671 71.6961 42.2477ZM70.4251 37.9803C69.7065 37.2606 69.7065 36.0945 70.4251 35.3748L74.3095 31.4915C75.0292 30.7718 76.1943 30.7718 76.915 31.4915C77.6344 32.2109 77.6344 33.3772 76.915 34.0956L73.0303 37.9803C72.6706 38.34 72.1999 38.5199 71.7281 38.5199C71.2566 38.5199 70.7848 38.34 70.4251 37.9803ZM90.1147 0.0791016H16.3332C15.3157 0.0791016 14.4914 0.903655 14.4914 1.92112V19.8027C14.4914 20.8202 15.3157 21.6455 16.3332 21.6455C17.3507 21.6455 18.1749 20.8202 18.1749 19.8027V3.76292H39.0849V24.6726H26.8735C25.8563 24.6726 25.0307 25.4982 25.0307 26.5154C25.0307 27.5329 25.8563 28.3574 26.8735 28.3574H39.0849V49.2671H34.4599C33.4424 49.2671 32.6178 50.0917 32.6178 51.1089C32.6178 52.1264 33.4424 52.9509 34.4599 52.9509H39.0849V73.8606H34.191C33.1735 73.8606 32.3492 74.6852 32.3492 75.7024C32.3492 76.7199 33.1735 77.5452 34.191 77.5452H90.1147C91.1319 77.5452 91.9565 76.7199 91.9565 75.7024V1.92114C91.9565 0.903676 91.1319 0.0791016 90.1147 0.0791016ZM63.6794 73.8606H42.7695V52.9509H63.6794V73.8606ZM63.6794 49.2671H42.7695V28.3574H63.6794V49.2671ZM63.6794 24.6726H42.7695V3.7629H63.6794V24.6726ZM88.2727 73.8606H67.363V52.9509H88.2727V73.8606ZM88.2727 49.2671H67.363V28.3574H88.2727V49.2671ZM88.2727 24.6726H67.363V3.7629H88.2727V24.6726ZM60.6173 64.6985C61.3367 65.4179 61.3367 66.5843 60.6173 67.3037L56.7326 71.1874C56.3729 71.5471 55.9022 71.7269 55.4304 71.7269C54.9589 71.7269 54.4882 71.5471 54.1282 71.1874C53.4088 70.4677 53.4088 69.3015 54.1282 68.5829L58.0129 64.6985C58.7326 63.9788 59.8986 63.9788 60.6173 64.6985ZM60.6173 15.0477C61.3367 15.7674 61.3367 16.9335 60.6173 17.6532L56.7326 21.5365C56.3729 21.8965 55.9022 22.0764 55.4304 22.0764C54.9589 22.0764 54.4882 21.8965 54.1282 21.5365C53.4088 20.8181 53.4088 19.6518 54.1282 18.9324L58.0129 15.0477C58.7326 14.3283 59.8986 14.3283 60.6173 15.0477ZM85.2126 39.4792C85.9323 40.1989 85.9323 41.365 85.2126 42.0847L81.3292 45.9691C80.9695 46.3291 80.4977 46.5089 80.026 46.5089C79.5552 46.5089 79.0835 46.3291 78.7237 45.9691C78.0043 45.2497 78.0043 44.0833 78.7237 43.3639L82.6074 39.4792C83.3268 38.7608 84.4932 38.7608 85.2126 39.4792ZM47.1008 17.8161L56.7416 8.17511C57.4613 7.45543 58.6274 7.45543 59.3471 8.17511C60.0657 8.89452 60.0657 10.0609 59.3471 10.7806L49.706 20.4203C49.3463 20.78 48.8746 20.9601 48.4031 20.9601C47.9313 20.9601 47.4606 20.78 47.1008 20.4203C46.3812 19.7019 46.3812 18.5345 47.1008 17.8161ZM47.1008 67.4667L56.7416 57.8257C57.4613 57.1063 58.6274 57.1063 59.3471 57.8257C60.0657 58.5454 60.0657 59.7114 59.3471 60.4311L49.706 70.0711C49.3463 70.4308 48.8746 70.6107 48.4031 70.6107C47.9313 70.6107 47.4606 70.4318 47.1008 70.0711C46.3812 69.3524 46.3812 68.1861 47.1008 67.4667ZM45.8296 13.5477C45.1099 12.828 45.1099 11.6619 45.8296 10.9433L49.7142 7.05888C50.4336 6.3392 51.6 6.3392 52.3194 7.05888C53.0391 7.77829 53.0391 8.94465 52.3194 9.66406L48.435 13.5477C48.0751 13.9074 47.6043 14.0873 47.1328 14.0873C46.661 14.0873 46.1893 13.9074 45.8296 13.5477ZM36.5695 39.4792C37.2889 40.1989 37.2889 41.365 36.5695 42.0847L32.6858 45.9691C32.3261 46.3291 31.8544 46.5089 31.3836 46.5089C30.9119 46.5089 30.4404 46.3291 30.0804 45.9691C29.361 45.2497 29.361 44.0833 30.0804 43.3639L33.9651 39.4792C34.6845 38.7608 35.8498 38.7608 36.5695 39.4792ZM45.8296 63.1983C45.1099 62.4789 45.1099 61.3125 45.8296 60.5941L49.7142 56.7095C50.4336 55.9898 51.6 55.9898 52.3194 56.7095C53.0391 57.4289 53.0391 58.5952 52.3194 59.3149L48.435 63.1983C48.0751 63.558 47.6035 63.7381 47.1328 63.7381C46.661 63.7381 46.1893 63.558 45.8296 63.1983Z" fill="#25509A"/>
</svg>
