<svg width="59" height="58" viewBox="0 0 59 58" fill="none" xmlns="http://www.w3.org/2000/svg">
<path d="M18.7801 50.2415C18.9665 49.8103 19.0699 49.3353 19.0699 48.8369C19.0699 46.8831 17.4807 45.2933 15.5269 45.2933H15.2834C14.6746 44.165 14.3658 42.9963 14.3658 41.811C14.3658 40.6259 14.6739 39.457 15.2834 38.3288H15.5269C17.4807 38.3288 19.0699 36.739 19.0699 34.7852C19.0699 32.8953 17.5835 31.3468 15.7191 31.2466L16.8916 23.9284C17.0159 23.1503 16.7857 22.3709 16.2428 21.7342C15.5815 20.958 14.504 20.476 13.431 20.476H11.9597V18.2172C11.9597 17.5717 11.4366 17.0485 10.791 17.0485C10.1453 17.0485 9.62227 17.5717 9.62227 18.2172V20.476H8.15096C7.07737 20.476 5.99989 20.9587 5.33785 21.7342C4.79562 22.3709 4.56543 23.1503 4.69043 23.9284L5.86304 31.2466C3.99786 31.3468 2.51143 32.8953 2.51143 34.7852C2.51143 36.739 4.10125 38.3288 6.05505 38.3288H6.07666C6.6861 39.457 6.99422 40.6259 6.99422 41.811C6.99422 42.9962 6.6861 44.165 6.07666 45.2933H6.05505C4.10124 45.2933 2.51143 46.8831 2.51143 48.8369C2.51143 49.3353 2.61483 49.8103 2.80184 50.2409C1.42061 50.7255 0.428223 52.0419 0.428223 53.5868C0.428223 55.5406 2.01808 57.1298 3.97188 57.1298H17.6094C19.5632 57.1298 21.1531 55.5406 21.1531 53.5861C21.1531 52.0419 20.1607 50.7254 18.7801 50.2415ZM8.15096 22.8143H13.431C14.5832 22.7844 14.589 23.5239 14.5832 23.5588L13.3516 31.2415H8.2297L6.99878 23.5588C6.9931 23.5239 7.135 22.8143 8.15096 22.8143ZM6.05509 35.9908C5.39045 35.9908 4.84949 35.4498 4.84949 34.7852C4.84949 34.1206 5.39045 33.5796 6.05509 33.5796H15.5269C16.1915 33.5796 16.7325 34.1206 16.7325 34.7852C16.7325 35.4498 16.1915 35.9908 15.5269 35.9908H6.05509ZM12.7055 45.2933H8.65454C9.10473 44.1632 9.33183 42.9982 9.33183 41.811C9.33183 40.6239 9.10471 39.4589 8.65454 38.3288H12.7055C12.2553 39.4589 12.0282 40.6239 12.0282 41.811C12.0282 42.9982 12.2553 44.1632 12.7055 45.2933ZM6.05509 47.6313H15.5269C16.1915 47.6313 16.7325 48.1723 16.7325 48.8369C16.7325 49.502 16.1915 50.043 15.5269 50.043H6.05509C5.39045 50.043 4.84949 49.502 4.84949 48.8369C4.84949 48.1723 5.39045 47.6313 6.05509 47.6313ZM17.6095 54.7922H3.97188C3.3066 54.7922 2.76567 54.2513 2.76567 53.5861C2.76567 52.9215 3.30659 52.3806 3.97188 52.3806H17.6095C18.2747 52.3806 18.8156 52.9215 18.8156 53.5868C18.8156 54.2513 18.2747 54.7922 17.6095 54.7922ZM22.826 21.5478C23.2826 22.0045 23.2826 22.7445 22.826 23.2012L20.0142 26.013C19.7858 26.2412 19.4866 26.3553 19.1879 26.3553C18.8885 26.3553 18.5892 26.2412 18.3609 26.013C17.9043 25.5563 17.9043 24.8163 18.3609 24.3597L21.1727 21.5478C21.6294 21.0913 22.3694 21.0913 22.826 21.5478ZM45.9219 27.6656L52.0397 21.5485C52.4964 21.0918 53.2364 21.0918 53.693 21.5485C54.1489 22.005 54.1489 22.7445 53.693 23.2011L47.5752 29.3188C47.347 29.547 47.0476 29.6613 46.7482 29.6613C46.449 29.6613 46.1503 29.547 45.9219 29.3188C45.4654 28.8623 45.4654 28.1221 45.9219 27.6656ZM45.1154 24.9577C44.6594 24.501 44.6594 23.7611 45.1154 23.3044L47.5803 20.8402C48.0369 20.3835 48.7763 20.3835 49.2336 20.8402C49.6901 21.2967 49.6901 22.0368 49.2336 22.4927L46.7686 24.9577C46.5403 25.186 46.2416 25.3001 45.9422 25.3001C45.643 25.3001 45.3437 25.186 45.1154 24.9577ZM57.6096 0.907227H10.791C10.1453 0.907227 9.62223 1.43045 9.62223 2.07609V13.423C9.62223 14.0686 10.1453 14.5923 10.791 14.5923C11.4366 14.5923 11.9597 14.0686 11.9597 13.423V3.24481H25.2282V16.5132H17.4794C16.8339 16.5132 16.31 17.0371 16.31 17.6826C16.31 18.3282 16.8339 18.8514 17.4794 18.8514H25.2282V32.1198H22.2934C21.6477 32.1198 21.1245 32.6431 21.1245 33.2886C21.1245 33.9342 21.6477 34.4574 22.2934 34.4574H25.2282V47.7258H22.1228C21.4771 47.7258 20.954 48.2491 20.954 48.8945C20.954 49.5402 21.4771 50.0639 22.1228 50.0639H57.6096C58.2551 50.0639 58.7783 49.5402 58.7783 48.8945V2.07611C58.7783 1.43047 58.2551 0.907227 57.6096 0.907227ZM40.8349 47.7258H27.5663V34.4574H40.8349V47.7258ZM40.8349 32.1198H27.5663V18.8514H40.8349V32.1198ZM40.8349 16.5132H27.5663V3.24481H40.8349V16.5132ZM56.4407 47.7258H43.1723V34.4574H56.4407V47.7258ZM56.4407 32.1198H43.1723V18.8514H56.4407V32.1198ZM56.4407 16.5132H43.1723V3.24481H56.4407V16.5132ZM38.8918 41.912C39.3483 42.3685 39.3483 43.1086 38.8918 43.5651L36.4268 46.0295C36.1985 46.2578 35.8998 46.3719 35.6004 46.3719C35.3012 46.3719 35.0025 46.2578 34.7741 46.0295C34.3176 45.5728 34.3176 44.8329 34.7741 44.3768L37.2391 41.912C37.6958 41.4553 38.4357 41.4553 38.8918 41.912ZM38.8918 10.4057C39.3483 10.8623 39.3483 11.6023 38.8918 12.059L36.4268 14.5232C36.1985 14.7516 35.8998 14.8657 35.6004 14.8657C35.3012 14.8657 35.0025 14.7516 34.7741 14.5232C34.3176 14.0673 34.3176 13.3272 34.7741 12.8707L37.2391 10.4057C37.6958 9.94914 38.4357 9.94914 38.8918 10.4057ZM54.4989 25.9089C54.9556 26.3655 54.9556 27.1055 54.4989 27.5622L52.0347 30.0271C51.8064 30.2555 51.5071 30.3696 51.2077 30.3696C50.909 30.3696 50.6096 30.2555 50.3813 30.0271C49.9248 29.5705 49.9248 28.8304 50.3813 28.3739L52.8457 25.9089C53.3022 25.453 54.0424 25.453 54.4989 25.9089ZM30.3148 12.1624L36.4324 6.04461C36.8891 5.58793 37.6291 5.58793 38.0857 6.04461C38.5418 6.50112 38.5418 7.24125 38.0857 7.69792L31.968 13.8149C31.7397 14.0431 31.4404 14.1574 31.1412 14.1574C30.8418 14.1574 30.5431 14.0431 30.3148 13.8149C29.8582 13.359 29.8582 12.6182 30.3148 12.1624ZM30.3148 43.6685L36.4324 37.5507C36.8891 37.0942 37.6291 37.0942 38.0857 37.5507C38.5418 38.0074 38.5418 38.7474 38.0857 39.204L31.968 45.3212C31.7397 45.5494 31.4404 45.6636 31.1412 45.6636C30.8418 45.6636 30.5431 45.5501 30.3148 45.3212C29.8582 44.8652 29.8582 44.125 30.3148 43.6685ZM29.5081 9.45384C29.0515 8.99716 29.0515 8.2572 29.5081 7.80117L31.9731 5.33629C32.4296 4.87961 33.1698 4.87961 33.6263 5.33629C34.083 5.7928 34.083 6.53293 33.6263 6.98944L31.1614 9.45383C30.933 9.68208 30.6343 9.79621 30.3351 9.79621C30.0357 9.79621 29.7364 9.6821 29.5081 9.45384ZM23.6321 25.9089C24.0886 26.3655 24.0886 27.1055 23.6321 27.5622L21.1677 30.0271C20.9394 30.2555 20.6401 30.3696 20.3413 30.3696C20.042 30.3696 19.7428 30.2555 19.5144 30.0271C19.0578 29.5705 19.0578 28.8304 19.5144 28.3739L21.9794 25.9089C22.4359 25.453 23.1754 25.453 23.6321 25.9089ZM29.5081 40.96C29.0515 40.5034 29.0515 39.7633 29.5081 39.3075L31.9731 36.8424C32.4296 36.3858 33.1698 36.3858 33.6263 36.8424C34.083 37.2989 34.083 38.0391 33.6263 38.4957L31.1614 40.96C30.933 41.1882 30.6338 41.3025 30.3351 41.3025C30.0357 41.3025 29.7364 41.1882 29.5081 40.96Z" fill="white"/>
</svg>
