<svg width="33" height="33" viewBox="0 0 33 33" fill="none" xmlns="http://www.w3.org/2000/svg">
<path d="M32.6702 16.9657C32.6702 25.8022 25.5065 32.9658 16.67 32.9658C7.83354 32.9658 0.670166 25.8022 0.670166 16.9657C0.670166 8.12923 7.83354 0.96582 16.67 0.96582C25.5065 0.96582 32.6702 8.12923 32.6702 16.9657Z" fill="white"/>
<path d="M27.1213 10.5904L25.6062 9.07477C24.8743 8.34357 23.6204 8.34357 22.8887 9.07477L14.2056 17.7183L10.4514 13.9346C9.72021 13.2034 8.46557 13.2034 7.73437 13.9346L6.21875 15.4503C5.48731 16.1822 5.48731 17.4361 6.21875 18.1675L12.8555 24.8565C13.5872 25.5882 14.8411 25.5882 15.5727 24.8565L17.0881 23.3414C17.1609 23.2684 17.2209 23.1871 17.2793 23.105L27.1213 13.3077C27.853 12.5762 27.853 11.3218 27.1213 10.5904Z" fill="#7FBB48"/>
</svg>
