<svg width="28" height="36" viewBox="0 0 28 36" fill="none" xmlns="http://www.w3.org/2000/svg">
<path d="M25.2353 8.22074H25.2324L2.38349 8.20113C1.37443 8.20113 0.556953 7.38527 0.560006 6.37541C0.560006 5.36741 1.37749 4.5498 2.38642 4.5498L25.2353 4.56942C26.2436 4.56942 27.064 5.38689 27.064 6.39502C27.0609 7.40475 26.2405 8.22074 25.2353 8.22074Z" fill="white"/>
<path d="M16.328 3.29993H16.322L11.2952 3.2819C10.6213 3.27883 10.0767 2.73204 10.0796 2.05884C10.0827 1.38577 10.5581 0.852327 11.3027 0.844727L16.3311 0.862712C17.0027 0.864312 17.5481 1.41286 17.5452 2.08606C17.5421 2.75606 16.9997 3.29993 16.328 3.29993Z" fill="white"/>
<path d="M25.2353 9.95508H2.57581L2.72083 12.502C2.72083 12.5729 2.70503 12.6419 2.71106 12.7135L3.70048 32.7526C3.77551 34.2689 5.07906 35.5117 6.6012 35.5117H21.2085C22.7291 35.5117 24.0333 34.2689 24.11 32.7526L25.1001 12.7135C25.1031 12.6419 25.0896 12.5742 25.0865 12.5033L25.2353 9.95508ZM7.86178 32.7786C7.84827 32.7786 7.83264 32.7799 7.8175 32.7799C7.15262 32.7799 6.60332 32.2552 6.57857 31.5872L5.93258 14.224C5.90947 13.5417 6.44039 12.9661 7.12626 12.9408C7.78511 12.9284 8.38538 13.4486 8.41256 14.1335L9.05644 31.4948C9.082 32.1758 8.54847 32.7526 7.86178 32.7786ZM15.0179 31.5417C15.0179 32.2148 14.4716 32.7591 13.7978 32.7591C13.1237 32.7572 12.5807 32.2116 12.5807 31.5391L12.6025 14.1771C12.6025 13.5052 13.1456 12.9603 13.8196 12.9603H13.8224C14.4947 12.9616 15.0395 13.5072 15.0395 14.1803L15.0179 31.5417ZM21.0221 31.5898C20.998 32.2552 20.4498 32.7799 19.7871 32.7799C19.7675 32.7799 19.7555 32.7786 19.736 32.7786C19.0524 32.75 18.5188 32.1732 18.5444 31.4922L19.2324 14.1309C19.2568 13.4486 19.8245 12.9108 20.5218 12.9408C21.2024 12.9694 21.736 13.5443 21.7073 14.2266L21.0221 31.5898Z" fill="white"/>
</svg>
