<svg width="29" height="36" viewBox="0 0 29 36" fill="none" xmlns="http://www.w3.org/2000/svg">
<path d="M0.0876465 0.657227H16.8558L26.4645 10.2659V15.7297H23.45V12.7152H14.4065V3.67171H3.10213V29.2949H11.5804L9.13114 32.3094H0.0876465V0.657227ZM26.4645 30.6137L23.45 26.2804V23.2659L26.4645 19.4978V30.6137ZM16.1021 32.3094L18.3517 29.5551L20.0587 32.3094H16.1021ZM16.6674 4.61373V10.4543H22.5079L16.6674 4.61373ZM10.0732 16.4833H15.5369L18.9564 21.3231L22.6964 16.4833H27.5949L21.1942 24.5498L28.7253 35.3238H23.0732L18.3422 28.1796L14.4065 33.063H9.50797L16.1043 24.953L10.0732 16.4833Z" fill="white"/>
</svg>
