<svg width="244" height="67" viewBox="0 0 244 67" fill="none" xmlns="http://www.w3.org/2000/svg">
<path d="M81.6888 34.7349C81.6888 35.0201 81.6406 35.1978 81.5516 35.2683C81.459 35.3423 81.2702 35.3756 80.985 35.3756H78.6628C78.4405 35.3756 78.2665 35.3349 78.1444 35.2534C78.0221 35.172 77.9629 34.9979 77.9629 34.7349V19.4609C77.9629 18.7461 78.0481 18.0609 78.2222 17.3979C78.3962 16.735 78.6962 16.1498 79.1221 15.6424C79.5517 15.1313 80.1109 14.7239 80.8035 14.4202C81.4962 14.1128 82.3627 13.9609 83.3997 13.9609H91.7998C92.085 13.9609 92.2628 14.0165 92.3369 14.1276C92.4072 14.2387 92.4404 14.4202 92.4404 14.6646V16.5572C92.4404 16.8202 92.4034 17.0054 92.3219 17.1053C92.2368 17.2091 92.0664 17.2609 91.7998 17.2609H83.7961C83.022 17.2609 82.4775 17.4276 82.1628 17.7646C81.848 18.1016 81.6888 18.5943 81.6888 19.2461V34.7349Z" fill="#27519B"/>
<path d="M106.894 20.7131C106.894 20.365 106.835 19.9909 106.724 19.5835C106.612 19.1761 106.42 18.802 106.146 18.4686C105.868 18.1317 105.486 17.8502 104.998 17.6279C104.509 17.402 103.886 17.2909 103.135 17.2909H98.6124V24.0723H103.198C104.479 24.0723 105.416 23.7575 106.005 23.1242C106.597 22.4946 106.894 21.6909 106.894 20.7131ZM98.5828 34.7352C98.5828 35.0204 98.5383 35.1981 98.4457 35.2686C98.3531 35.3426 98.1643 35.3759 97.8792 35.3759H95.5903C95.3643 35.3759 95.1903 35.3352 95.0717 35.2537C94.9458 35.1723 94.8865 34.9982 94.8865 34.7352V15.6724C94.8865 15.102 95.0087 14.6686 95.2532 14.3724C95.4977 14.0798 95.9457 13.9316 96.5976 13.9316H103.868C104.887 13.9316 105.82 14.0872 106.664 14.4057C107.509 14.7205 108.231 15.1687 108.831 15.7464C109.431 16.3279 109.901 17.0205 110.238 17.8242C110.575 18.6316 110.742 19.5094 110.742 20.4686C110.742 21.0168 110.653 21.6761 110.483 22.439C110.309 23.2019 109.964 23.9427 109.446 24.6538C108.924 25.3686 108.197 25.9723 107.26 26.4723C106.323 26.9723 105.09 27.2204 103.564 27.2204H98.5829L98.5828 34.7352Z" fill="#27519B"/>
<path d="M118.317 27.5249H124.184L122.595 22.3916L121.313 18.0546H121.162L119.906 22.299L118.317 27.5249ZM125.162 30.7026H117.402L116.058 34.8582C115.999 35.0397 115.91 35.173 115.799 35.2545C115.687 35.336 115.506 35.3767 115.262 35.3767H112.45C112.228 35.3767 112.087 35.31 112.025 35.1767C111.962 35.0471 111.962 34.899 112.025 34.736L118.625 15.3953C118.725 15.0916 118.828 14.8472 118.928 14.662C119.032 14.4806 119.158 14.3398 119.31 14.2361C119.465 14.1361 119.643 14.0583 119.847 14.0065C120.05 13.9546 120.291 13.9287 120.58 13.9287H121.891C122.525 13.9287 122.973 14.0287 123.236 14.2213C123.502 14.4139 123.736 14.8065 123.939 15.3953L130.569 34.736C130.632 34.899 130.636 35.0471 130.584 35.1767C130.532 35.31 130.395 35.3767 130.173 35.3767H127.362C127.136 35.3767 126.958 35.3508 126.824 35.299C126.695 35.2508 126.587 35.1138 126.506 34.8878L125.162 30.7026Z" fill="#27519B"/>
<path d="M136.8 23.7982C136.126 23.413 135.589 22.8982 135.181 22.2538C134.774 21.613 134.467 20.8649 134.263 20.0094L132.922 14.5427C132.881 14.439 132.874 14.3131 132.904 14.1613C132.937 14.0057 133.085 13.9316 133.348 13.9316H135.852C135.955 13.9316 136.07 13.9501 136.204 13.9909C136.337 14.0316 136.422 14.1539 136.463 14.3575L137.778 19.5205C137.963 20.1723 138.189 20.6909 138.463 21.0797C138.741 21.4649 139.033 21.7612 139.352 21.9649C139.667 22.1686 139.996 22.2945 140.344 22.3464C140.689 22.3982 141.015 22.4242 141.322 22.4242H144.133V14.4798C144.093 14.2575 144.111 14.1205 144.192 14.0686C144.274 14.0168 144.418 13.9909 144.622 13.9909H147.248C147.433 13.9909 147.57 14.0168 147.663 14.0686C147.752 14.1205 147.8 14.2575 147.8 14.4798V22.4242H150.578C150.885 22.4242 151.211 22.3982 151.555 22.3464C151.904 22.2945 152.233 22.1686 152.548 21.9649C152.863 21.7612 153.159 21.4649 153.433 21.0797C153.711 20.6909 153.941 20.1723 154.122 19.5205L155.466 14.3575C155.507 14.1539 155.592 14.0316 155.726 13.9909C155.859 13.9501 155.974 13.9316 156.078 13.9316H158.581C158.848 13.9316 158.996 14.0057 159.026 14.1613C159.055 14.3131 159.052 14.439 159.011 14.5427L157.666 20.0094C157.463 20.8649 157.152 21.613 156.733 22.2538C156.315 22.8982 155.781 23.4131 155.129 23.7982V23.95C155.659 24.1352 156.096 24.3426 156.444 24.576C156.789 24.813 157.074 25.0871 157.3 25.4019C157.522 25.7167 157.7 26.0649 157.833 26.439C157.966 26.8167 158.092 27.2315 158.215 27.6797L160.111 34.7648C160.152 34.8686 160.155 34.9945 160.126 35.1463C160.096 35.3018 159.948 35.3759 159.681 35.3759H156.963C156.859 35.3759 156.752 35.3574 156.626 35.3166C156.503 35.276 156.415 35.1537 156.352 34.95L154.548 28.2575C154.389 27.7093 154.203 27.2538 154 26.8982C153.796 26.5427 153.541 26.2686 153.237 26.0723C152.929 25.8797 152.574 25.7427 152.166 25.6612C151.759 25.5797 151.292 25.5389 150.763 25.5389H147.8V34.887C147.8 35.113 147.752 35.25 147.663 35.3018C147.57 35.35 147.433 35.3759 147.248 35.3759H144.652C144.448 35.3759 144.303 35.35 144.222 35.3018C144.141 35.25 144.1 35.113 144.1 34.887L144.133 25.5389H141.17C140.641 25.5389 140.17 25.5797 139.763 25.6612C139.355 25.7427 139 25.8797 138.692 26.0723C138.389 26.2686 138.122 26.5427 137.9 26.8982C137.678 27.2538 137.493 27.7093 137.348 28.2575L135.578 34.95C135.518 35.1537 135.426 35.276 135.304 35.3166C135.181 35.3574 135.07 35.3759 134.967 35.3759H132.248C131.981 35.3759 131.837 35.3018 131.804 35.1463C131.774 34.9945 131.778 34.8686 131.818 34.7648L133.715 27.6797C133.837 27.2501 133.963 26.8464 134.096 26.4723C134.23 26.0945 134.407 25.7501 134.629 25.4316C134.855 25.1167 135.141 24.8353 135.485 24.5908C135.833 24.3464 136.27 24.1352 136.8 23.9501V23.7982Z" fill="#27519B"/>
<path d="M176.82 17.2615H170.161L169.428 23.3096C169.246 24.8985 169.08 26.18 168.939 27.1578C168.798 28.1356 168.654 28.9318 168.513 29.5393C168.368 30.1503 168.22 30.6355 168.069 30.9911C167.917 31.3503 167.728 31.7096 167.502 32.0763H176.82V17.2615ZM164.998 35.3762L164.631 39.8688C164.609 40.091 164.561 40.2392 164.48 40.3095C164.398 40.3799 164.276 40.4169 164.113 40.4169H162.094C161.954 40.4169 161.839 40.3799 161.761 40.3095C161.68 40.2392 161.628 40.091 161.606 39.8688L161.18 33.6059C161.18 33.2577 161.246 32.9355 161.38 32.6429C161.509 32.3466 161.809 32.18 162.28 32.1392L163.38 32.0466C163.746 31.6392 164.046 31.217 164.28 30.78C164.513 30.3393 164.709 29.8688 164.861 29.3577C165.013 28.8504 165.139 28.2837 165.243 27.6615C165.343 27.0429 165.446 26.343 165.546 25.5689L166.802 15.8541C166.902 15.2245 167.128 14.7541 167.472 14.4504C167.82 14.1431 168.346 13.9912 169.061 13.9912H178.502C179.254 13.9912 179.78 14.1579 180.076 14.4949C180.368 14.8319 180.516 15.3467 180.516 16.0393V32.1059L181.768 32.1688C182.257 32.2096 182.561 32.3466 182.672 32.58C182.783 32.817 182.828 33.0651 182.809 33.3281L182.413 39.8688C182.391 40.091 182.346 40.2392 182.276 40.3095C182.202 40.3799 182.087 40.4169 181.924 40.4169H179.876C179.713 40.4169 179.602 40.3799 179.539 40.3095C179.479 40.2392 179.439 40.091 179.42 39.8688L179.235 35.3762H164.998Z" fill="#27519B"/>
<path d="M190.323 27.5249H196.189L194.6 22.3916L193.319 18.0546H193.167L191.912 22.299L190.323 27.5249ZM197.167 30.7026H189.408L188.063 34.8582C188.004 35.0397 187.915 35.173 187.804 35.2545C187.693 35.336 187.515 35.3767 187.267 35.3767H184.456C184.234 35.3767 184.093 35.31 184.03 35.1767C183.967 35.0471 183.967 34.899 184.03 34.736L190.63 15.3953C190.73 15.0916 190.834 14.8472 190.934 14.662C191.037 14.4806 191.163 14.3398 191.315 14.2361C191.471 14.1361 191.649 14.0583 191.852 14.0065C192.056 13.9546 192.297 13.9287 192.586 13.9287H193.897C194.53 13.9287 194.978 14.0287 195.241 14.2213C195.508 14.4139 195.741 14.8065 195.945 15.3953L202.575 34.736C202.638 34.899 202.641 35.0471 202.589 35.1767C202.537 35.31 202.4 35.3767 202.178 35.3767H199.367C199.141 35.3767 198.963 35.3508 198.83 35.299C198.7 35.2508 198.593 35.1138 198.511 34.8878L197.167 30.7026Z" fill="#27519B"/>
<path d="M222.05 35.2698C221.958 35.3402 221.769 35.3772 221.484 35.3772H219.165C218.921 35.3772 218.739 35.3365 218.628 35.255C218.517 35.1736 218.461 34.9994 218.461 34.7365V25.7551H208.961V34.7365C208.961 35.0217 208.91 35.1995 208.806 35.2698C208.706 35.3402 208.51 35.3772 208.224 35.3772H205.906C205.68 35.3772 205.506 35.3365 205.387 35.255C205.261 35.1736 205.202 34.9994 205.202 34.7365V14.6329C205.202 14.37 205.261 14.1959 205.387 14.1144C205.506 14.0329 205.68 13.9922 205.906 13.9922H208.224C208.51 13.9922 208.706 14.0292 208.806 14.0996C208.91 14.17 208.961 14.3478 208.961 14.6329V22.544H218.461V14.6329C218.461 14.37 218.517 14.1959 218.628 14.1144C218.739 14.0329 218.921 13.9922 219.165 13.9922H221.484C221.769 13.9922 221.958 14.0292 222.05 14.0996C222.143 14.17 222.187 14.3478 222.187 14.6329V34.7365C222.187 35.0217 222.143 35.1995 222.05 35.2698Z" fill="#27519B"/>
<path d="M240.182 19.3377L237.493 23.9821L231.474 34.0636C231.17 34.5709 230.893 34.9191 230.652 35.1006C230.404 35.2858 230.007 35.3746 229.459 35.3746H228.389C227.696 35.3746 227.23 35.2191 226.985 34.9043C226.741 34.5858 226.619 34.1339 226.619 33.5451V14.4785C226.619 14.2563 226.663 14.1118 226.756 14.0526C226.845 13.9896 226.993 13.96 227.196 13.96H229.733C229.959 13.96 230.111 13.9896 230.193 14.0526C230.274 14.1118 230.315 14.2563 230.315 14.4785V29.9377H230.437L232.97 25.6599L239.145 15.3044C239.448 14.7748 239.722 14.4193 239.967 14.2341C240.211 14.0526 240.6 13.96 241.13 13.96H242.23C242.9 13.96 243.363 14.1081 243.618 14.4045C243.874 14.7007 244 15.1748 244 15.8229V34.8561C244 35.0821 243.956 35.2228 243.863 35.2858C243.77 35.345 243.622 35.3746 243.422 35.3746H240.885C240.659 35.3746 240.507 35.345 240.426 35.2858C240.344 35.2228 240.304 35.0821 240.304 34.8561V19.3377L240.182 19.3377Z" fill="#27519B"/>
<path d="M80.4558 60.355C80.3706 60.418 80.2482 60.4476 80.0854 60.4476H78.8114C78.6485 60.4476 78.5188 60.418 78.4262 60.355C78.3335 60.292 78.2854 60.1661 78.2854 59.9772V44.4255C78.2854 44.2366 78.3335 44.1107 78.4262 44.0477C78.5188 43.9847 78.6485 43.9551 78.8114 43.9551H80.0854C80.2482 43.9551 80.3706 43.9847 80.4558 44.0477C80.5372 44.1107 80.578 44.2366 80.578 44.4255V50.6143H89.3446V44.4255C89.3446 44.2366 89.389 44.1107 89.4742 44.0477C89.5556 43.9847 89.6853 43.9551 89.8557 43.9551H91.1632C91.352 43.9551 91.478 43.9847 91.5447 44.0477C91.6076 44.1107 91.6409 44.2366 91.6409 44.4255V59.9772C91.6409 60.1661 91.6076 60.292 91.5447 60.355C91.478 60.418 91.352 60.4476 91.1632 60.4476H89.8557C89.6853 60.4476 89.5556 60.418 89.4742 60.355C89.389 60.292 89.3446 60.1661 89.3446 59.9772V52.5958H80.578V59.9772C80.578 60.1661 80.5372 60.292 80.4558 60.355Z" fill="#27519B"/>
<path d="M105.528 52.0926H101.472C101.095 52.0926 100.646 52.1222 100.12 52.1852C99.5981 52.2482 99.1019 52.4 98.6315 52.6444C98.1575 52.8852 97.7612 53.2444 97.4352 53.7185C97.1092 54.1889 96.95 54.837 96.95 55.6592C96.95 56.2889 97.0686 56.8148 97.3094 57.237C97.5502 57.6555 97.8761 57.9925 98.2835 58.2481C98.6909 58.5 99.1575 58.674 99.6834 58.7666C100.206 58.8629 100.75 58.911 101.317 58.911C101.506 58.911 101.761 58.8999 102.087 58.8777C102.409 58.8555 102.772 58.8259 103.172 58.7851C103.569 58.7406 103.972 58.674 104.38 58.5777C104.787 58.4851 105.172 58.374 105.528 58.2481V52.0926ZM107.883 59.0036C107.883 59.3814 107.735 59.6333 107.443 59.7592C106.502 60.1555 105.495 60.4296 104.428 60.574C103.358 60.7222 102.332 60.7963 101.346 60.7963C100.006 60.7963 98.9093 60.6481 98.05 60.3518C97.1871 60.0592 96.5093 59.6777 96.0057 59.2036C95.5019 58.7296 95.1501 58.1852 94.9538 57.5629C94.7538 56.9444 94.6538 56.3 94.6538 55.6259C94.6538 54.8481 94.7908 54.1185 95.0612 53.437C95.3353 52.7555 95.7501 52.1593 96.3057 51.6555C96.8612 51.1518 97.5575 50.7592 98.3945 50.4741C99.2315 50.1889 100.228 50.0481 101.38 50.0481H105.557V49.2111C105.557 48.6963 105.505 48.2148 105.398 47.7741C105.294 47.3296 105.094 46.9519 104.806 46.6407C104.509 46.3334 104.102 46.0889 103.576 45.9148C103.054 45.7371 102.372 45.6482 101.535 45.6482C100.846 45.6482 100.083 45.7186 99.2575 45.8556C98.4316 45.9889 97.7241 46.1519 97.1353 46.3408C96.9908 46.3852 96.8761 46.4 96.7909 46.3889C96.7057 46.3778 96.6463 46.3 96.6019 46.1519L96.2871 45.0111C96.2241 44.7778 96.3093 44.6186 96.5389 44.5333C96.9166 44.3852 97.3241 44.2519 97.7648 44.1333C98.2056 44.0186 98.6612 43.9149 99.1317 43.8296C99.602 43.7445 100.08 43.6889 100.561 43.6556C101.043 43.6222 101.494 43.6074 101.913 43.6074C103.943 43.6074 105.446 44.0593 106.42 44.9593C107.394 45.8593 107.883 47.1778 107.883 48.9185V59.0036Z" fill="#27519B"/>
<path d="M121.425 60.3706C121.362 60.4224 121.247 60.4484 121.08 60.4484H119.695C119.529 60.4484 119.41 60.4224 119.336 60.3706C119.262 60.3187 119.225 60.2076 119.225 60.041V44.3595C119.225 44.1929 119.262 44.0855 119.336 44.03C119.41 43.9781 119.529 43.9521 119.695 43.9521H121.08C121.247 43.9521 121.362 43.9781 121.425 44.03C121.488 44.0818 121.517 44.1929 121.517 44.3595V50.6781H124.788C125.121 50.6781 125.443 50.6447 125.747 50.5818C126.047 50.5225 126.332 50.4077 126.595 50.241C126.854 50.0743 127.091 49.8336 127.302 49.5188C127.51 49.2077 127.688 48.8114 127.836 48.3299L129.091 44.2966C129.132 44.13 129.192 44.03 129.266 44.0003C129.336 43.967 129.425 43.9522 129.532 43.9522H130.947C131.114 43.9522 131.214 44.0003 131.243 44.0929C131.277 44.1892 131.28 44.2892 131.262 44.3929L130.066 48.5299C129.877 49.2003 129.632 49.8003 129.328 50.3336C129.025 50.8669 128.588 51.2595 128.025 51.5077L127.991 51.5706C128.788 51.804 129.358 52.1817 129.706 52.704C130.051 53.2299 130.328 53.8373 130.536 54.5299L132.14 59.978C132.162 60.0817 132.162 60.1854 132.14 60.2928C132.121 60.3965 132.014 60.4484 131.825 60.4484H130.288C130.203 60.4484 130.117 60.4336 130.036 60.4002C129.951 60.3706 129.888 60.2817 129.847 60.1336L128.306 54.8855C128.036 54.0077 127.603 53.4003 127.017 53.0632C126.432 52.7299 125.803 52.5633 125.132 52.5633H121.517V60.041C121.517 60.2076 121.488 60.3187 121.425 60.3706Z" fill="#27519B"/>
<path d="M145.807 55.4836C145.807 54.6058 145.511 53.8985 144.911 53.3614C144.314 52.8281 143.418 52.5614 142.226 52.5614H136.789V58.6244H142.226C142.981 58.6244 143.592 58.5207 144.062 58.3133C144.537 58.1021 144.896 57.8392 145.148 57.5281C145.4 57.2133 145.57 56.8725 145.666 56.5058C145.759 56.1392 145.807 55.7984 145.807 55.4836ZM136.789 50.6763H142.322C142.57 50.6763 142.859 50.6392 143.185 50.5689C143.507 50.4948 143.811 50.3652 144.096 50.1763C144.377 49.9911 144.615 49.7393 144.803 49.4282C144.989 49.117 145.085 48.7208 145.085 48.2429C145.085 47.5949 144.859 47.0504 144.411 46.6022C143.959 46.1578 143.337 45.9319 142.54 45.9319H136.789V50.6763ZM145.211 51.5874C145.777 51.7577 146.248 51.98 146.625 52.2615C147 52.5466 147.303 52.8725 147.537 53.2355C147.766 53.6059 147.929 53.9985 148.022 54.417C148.118 54.8355 148.163 55.2429 148.163 55.6429C148.163 56.354 148.026 57.0022 147.755 57.5874C147.481 58.1762 147.107 58.6836 146.625 59.1133C146.144 59.5429 145.57 59.8725 144.911 60.1022C144.251 60.3318 143.526 60.4466 142.729 60.4466H135.751C134.914 60.4466 134.496 60.0614 134.496 59.2873V45.117C134.496 44.3393 134.914 43.9541 135.751 43.9541H142.477C143.922 43.9541 145.111 44.2837 146.044 44.943C146.974 45.6022 147.44 46.6356 147.44 48.0355C147.44 48.7282 147.259 49.3948 146.892 50.0318C146.526 50.6726 145.974 51.1393 145.244 51.4318L145.211 51.5874Z" fill="#27519B"/>
<path d="M161.331 52.0926H157.275C156.897 52.0926 156.449 52.1222 155.923 52.1852C155.401 52.2482 154.905 52.4 154.434 52.6444C153.96 52.8852 153.564 53.2444 153.238 53.7185C152.912 54.1889 152.753 54.837 152.753 55.6592C152.753 56.2889 152.871 56.8148 153.112 57.237C153.353 57.6555 153.679 57.9925 154.086 58.2481C154.497 58.5 154.96 58.674 155.486 58.7666C156.008 58.8629 156.553 58.911 157.119 58.911C157.308 58.911 157.564 58.8999 157.89 58.8777C158.212 58.8555 158.575 58.8259 158.975 58.7851C159.371 58.7406 159.775 58.674 160.182 58.5777C160.59 58.4851 160.975 58.374 161.331 58.2481V52.0926ZM163.686 59.0036C163.686 59.3814 163.538 59.6333 163.245 59.7592C162.305 60.1555 161.297 60.4296 160.23 60.574C159.16 60.7222 158.134 60.7963 157.149 60.7963C155.808 60.7963 154.712 60.6481 153.853 60.3518C152.993 60.0592 152.312 59.6777 151.808 59.2036C151.305 58.7296 150.953 58.1852 150.757 57.5629C150.557 56.9444 150.457 56.3 150.457 55.6259C150.457 54.8481 150.594 54.1185 150.864 53.437C151.138 52.7555 151.553 52.1593 152.108 51.6555C152.664 51.1518 153.36 50.7592 154.197 50.4741C155.034 50.1889 156.031 50.0481 157.182 50.0481H161.36V49.2111C161.36 48.6963 161.308 48.2148 161.205 47.7741C161.097 47.3296 160.897 46.9519 160.608 46.6407C160.312 46.3334 159.905 46.0889 159.382 45.9148C158.856 45.7371 158.179 45.6482 157.338 45.6482C156.649 45.6482 155.886 45.7186 155.06 45.8556C154.234 45.9889 153.527 46.1519 152.942 46.3408C152.794 46.3852 152.679 46.4 152.593 46.3889C152.508 46.3778 152.449 46.3 152.405 46.1519L152.094 45.0111C152.027 44.7778 152.112 44.6186 152.342 44.5333C152.719 44.3852 153.127 44.2519 153.568 44.1333C154.008 44.0186 154.464 43.9149 154.934 43.8296C155.405 43.7445 155.882 43.6889 156.364 43.6556C156.845 43.6222 157.297 43.6074 157.716 43.6074C159.745 43.6074 161.249 44.0593 162.223 44.9593C163.201 45.8593 163.686 47.1778 163.686 48.9185V59.0036Z" fill="#27519B"/>
<path d="M178.735 52.1536C178.735 50.9165 178.609 49.8795 178.361 49.0425C178.109 48.2055 177.75 47.5314 177.291 47.0166C176.832 46.5018 176.283 46.1351 175.658 45.9166C175.028 45.6944 174.328 45.587 173.554 45.587C172.987 45.587 172.321 45.6462 171.558 45.7573C170.791 45.8759 170.128 46.0462 169.561 46.2759V58.1536C170.443 58.4499 171.202 58.6313 171.839 58.7054C172.48 58.7794 173.039 58.8165 173.521 58.8165C174.276 58.8165 174.972 58.6943 175.609 58.4535C176.25 58.2128 176.798 57.8239 177.261 57.2906C177.72 56.7573 178.083 56.0647 178.343 55.2166C178.606 54.3684 178.735 53.3462 178.735 52.1536ZM181.124 52.1536C181.124 53.3684 180.98 54.498 180.683 55.5461C180.391 56.5943 179.943 57.5054 179.335 58.2795C178.724 59.0573 177.965 59.6684 177.057 60.1202C176.143 60.5683 175.08 60.7943 173.869 60.7943C173.258 60.7943 172.591 60.7535 171.854 60.6684C171.124 60.5831 170.357 60.4276 169.561 60.198V66.4498C169.561 66.6165 169.535 66.7239 169.484 66.7646C169.432 66.8054 169.321 66.8276 169.154 66.8276H167.709C167.561 66.8276 167.45 66.8054 167.38 66.7646C167.306 66.7239 167.269 66.6165 167.269 66.4498V45.2425C167.269 44.9907 167.383 44.824 167.613 44.7388C168.621 44.2981 169.672 44.0018 170.772 43.8425C171.872 43.687 172.924 43.6055 173.928 43.6055C175.165 43.6055 176.239 43.8166 177.15 44.2351C178.061 44.6536 178.809 45.2425 179.395 45.9944C179.983 46.7499 180.417 47.6499 180.702 48.698C180.983 49.7462 181.124 50.8981 181.124 52.1536Z" fill="#27519B"/>
<path d="M190.063 60.3549C189.989 60.418 189.867 60.4476 189.696 60.4476H188.389C188.2 60.4476 188.067 60.418 187.993 60.3549C187.919 60.292 187.882 60.155 187.882 59.9476V45.9328H182.852C182.644 45.9328 182.508 45.8958 182.445 45.8217C182.382 45.7514 182.352 45.6402 182.352 45.4921V44.455C182.352 44.2884 182.382 44.1625 182.445 44.0773C182.508 43.9958 182.644 43.9551 182.852 43.9551H195.485C195.693 43.9551 195.826 43.9958 195.878 44.0773C195.93 44.1625 195.956 44.2884 195.956 44.455V45.4921C195.956 45.6402 195.93 45.7514 195.878 45.8217C195.826 45.8958 195.693 45.9328 195.485 45.9328H190.174V59.9476C190.174 60.155 190.137 60.292 190.063 60.3549Z" fill="#27519B"/>
<path d="M207.991 52.0926H203.935C203.557 52.0926 203.109 52.1222 202.583 52.1852C202.061 52.2482 201.565 52.4 201.094 52.6444C200.62 52.8852 200.224 53.2444 199.898 53.7185C199.572 54.1889 199.413 54.837 199.413 55.6592C199.413 56.2889 199.532 56.8148 199.772 57.237C200.013 57.6555 200.339 57.9925 200.746 58.2481C201.154 58.5 201.62 58.674 202.146 58.7666C202.669 58.8629 203.213 58.911 203.78 58.911C203.968 58.911 204.224 58.8999 204.55 58.8777C204.872 58.8555 205.235 58.8259 205.635 58.7851C206.032 58.7406 206.435 58.674 206.843 58.5777C207.25 58.4851 207.635 58.374 207.991 58.2481V52.0926ZM210.346 59.0036C210.346 59.3814 210.198 59.6333 209.905 59.7592C208.965 60.1555 207.957 60.4296 206.891 60.574C205.82 60.7222 204.794 60.7963 203.809 60.7963C202.469 60.7963 201.372 60.6481 200.513 60.3518C199.65 60.0592 198.972 59.6777 198.469 59.2036C197.965 58.7296 197.613 58.1852 197.417 57.5629C197.217 56.9444 197.117 56.3 197.117 55.6259C197.117 54.8481 197.254 54.1185 197.524 53.437C197.798 52.7555 198.213 52.1593 198.769 51.6555C199.324 51.1518 200.02 50.7592 200.857 50.4741C201.694 50.1889 202.691 50.0481 203.843 50.0481H208.02V49.2111C208.02 48.6963 207.968 48.2148 207.865 47.7741C207.757 47.3296 207.557 46.9519 207.268 46.6407C206.972 46.3334 206.565 46.0889 206.043 45.9148C205.517 45.7371 204.839 45.6482 203.998 45.6482C203.309 45.6482 202.546 45.7186 201.72 45.8556C200.894 45.9889 200.187 46.1519 199.602 46.3408C199.454 46.3852 199.339 46.4 199.254 46.3889C199.169 46.3778 199.109 46.3 199.065 46.1519L198.754 45.0111C198.687 44.7778 198.772 44.6186 199.002 44.5333C199.38 44.3852 199.787 44.2519 200.228 44.1333C200.669 44.0186 201.124 43.9149 201.595 43.8296C202.065 43.7445 202.543 43.6889 203.024 43.6556C203.506 43.6222 203.957 43.6074 204.376 43.6074C206.405 43.6074 207.909 44.0593 208.883 44.9593C209.857 45.8593 210.346 47.1778 210.346 48.9185V59.0036Z" fill="#27519B"/>
<path d="M216.285 45.3891C216.308 44.8781 216.445 44.5113 216.697 44.2891C216.945 44.0633 217.285 43.9521 217.704 43.9521H225.926C226.474 43.9521 226.834 44.0743 227.015 44.3188C227.193 44.5632 227.282 44.9225 227.282 45.3891V60.0705C227.282 60.2409 227.245 60.3483 227.171 60.4002C227.096 60.452 226.963 60.4817 226.774 60.4817H225.496C225.326 60.4817 225.2 60.452 225.115 60.4002C225.03 60.3483 224.989 60.2409 224.989 60.0705V45.9965H218.326L218.137 48.541C217.97 50.6151 217.804 52.3595 217.633 53.7705C217.467 55.1854 217.219 56.3632 216.882 57.3076C216.548 58.2483 216.082 58.9928 215.485 59.5372C214.885 60.0817 214.085 60.5224 213.082 60.8594C212.956 60.9002 212.834 60.9261 212.719 60.9372C212.604 60.9446 212.515 60.8668 212.452 60.7001L212.108 59.6335C212.063 59.4631 212.063 59.3446 212.108 59.2705C212.148 59.1965 212.252 59.1187 212.419 59.0335C213.067 58.7631 213.597 58.4187 214.008 57.9965C214.415 57.5779 214.748 57.0039 215.011 56.2705C215.274 55.5372 215.478 54.5854 215.626 53.4113C215.771 52.2373 215.908 50.7521 216.033 48.9484L216.285 45.3891Z" fill="#27519B"/>
<path d="M241.044 52.0926H236.989C236.611 52.0926 236.163 52.1222 235.637 52.1852C235.115 52.2482 234.618 52.4 234.148 52.6444C233.674 52.8852 233.278 53.2444 232.952 53.7185C232.626 54.1889 232.466 54.837 232.466 55.6592C232.466 56.2889 232.585 56.8148 232.826 57.237C233.067 57.6555 233.392 57.9925 233.8 58.2481C234.207 58.5 234.674 58.674 235.2 58.7666C235.722 58.8629 236.266 58.911 236.833 58.911C237.022 58.911 237.277 58.8999 237.603 58.8777C237.926 58.8555 238.289 58.8259 238.689 58.7851C239.085 58.7406 239.489 58.674 239.896 58.5777C240.303 58.4851 240.689 58.374 241.044 58.2481V52.0926ZM243.4 59.0036C243.4 59.3814 243.252 59.6333 242.959 59.7592C242.018 60.1555 241.011 60.4296 239.944 60.574C238.874 60.7222 237.848 60.7963 236.863 60.7963C235.522 60.7963 234.426 60.6481 233.566 60.3518C232.703 60.0592 232.026 59.6777 231.522 59.2036C231.018 58.7296 230.666 58.1852 230.47 57.5629C230.27 56.9444 230.17 56.3 230.17 55.6259C230.17 54.8481 230.307 54.1185 230.578 53.437C230.852 52.7555 231.267 52.1593 231.822 51.6555C232.378 51.1518 233.074 50.7592 233.911 50.4741C234.748 50.1889 235.744 50.0481 236.896 50.0481H241.074V49.2111C241.074 48.6963 241.022 48.2148 240.918 47.7741C240.811 47.3296 240.611 46.9519 240.322 46.6407C240.026 46.3334 239.618 46.0889 239.092 45.9148C238.57 45.7371 237.892 45.6482 237.052 45.6482C236.363 45.6482 235.6 45.7186 234.774 45.8556C233.948 45.9889 233.24 46.1519 232.652 46.3408C232.507 46.3852 232.392 46.4 232.307 46.3889C232.222 46.3778 232.163 46.3 232.118 46.1519L231.803 45.0111C231.741 44.7778 231.826 44.6186 232.055 44.5333C232.433 44.3852 232.84 44.2519 233.281 44.1333C233.722 44.0186 234.177 43.9149 234.648 43.8296C235.118 43.7445 235.596 43.6889 236.078 43.6556C236.559 43.6222 237.011 43.6074 237.429 43.6074C239.459 43.6074 240.963 44.0593 241.937 44.9593C242.911 45.8593 243.4 47.1778 243.4 48.9185V59.0036Z" fill="#27519B"/>
<path d="M49.1052 66.8269H44.7571C42.3941 66.8269 40.4719 64.9047 40.4719 62.5417V38.0271C40.4719 37.2752 39.861 36.6641 39.1127 36.6567L34.5497 36.6271C34.1349 36.6382 33.8349 36.7641 33.5756 37.0234C33.3127 37.2826 33.1721 37.6271 33.1721 37.9938V62.5417C33.1721 64.9047 31.2498 66.8269 28.8868 66.8269H24.5387C22.1757 66.8269 20.2537 64.9047 20.2537 62.5417V28.1901C20.2537 27.4346 19.6387 26.8234 18.8832 26.8234H14.7535C13.998 26.8234 13.387 27.4346 13.387 28.1901V45.7678C13.387 48.1307 11.4648 50.0529 9.10181 50.0529H1.92407C1.12034 50.0529 0.468506 49.4011 0.468506 48.5937C0.468506 47.79 1.12033 47.1381 1.92407 47.1381H9.10181C9.85366 47.1381 10.4685 46.5233 10.4685 45.7678V28.1901C10.4685 25.8271 12.3906 23.9049 14.7535 23.9049H18.8832C21.2462 23.9049 23.1684 25.8271 23.1684 28.1901V62.5417C23.1684 63.2973 23.7832 63.9084 24.5387 63.9084H28.8868C29.6387 63.9084 30.2535 63.2973 30.2535 62.5417V37.9937C30.2535 36.8419 30.7016 35.7641 31.5201 34.953C32.3349 34.1419 33.3905 33.7011 34.5683 33.7086L39.1348 33.7419C41.4793 33.7567 43.3904 35.6789 43.3904 38.0271V62.5417C43.3904 63.2973 44.0015 63.9084 44.7571 63.9084H49.1052C49.8607 63.9084 50.4719 63.2973 50.4719 62.5417V18.042C50.4719 15.679 52.394 13.7568 54.7569 13.7568H59.1052C61.4682 13.7568 63.3904 15.679 63.3904 18.042V37.4678C63.3904 38.2196 64.0051 38.8344 64.7607 38.8344H71.9346C72.7384 38.8344 73.394 39.4863 73.394 40.2937C73.394 41.0974 72.7384 41.753 71.9346 41.753H64.7607C62.3977 41.753 60.4755 39.8308 60.4755 37.4678V18.042C60.4755 17.2901 59.8608 16.6753 59.1052 16.6753H54.7569C54.0052 16.6753 53.3904 17.2901 53.3904 18.042V62.5417C53.3904 64.9047 51.4681 66.8269 49.1052 66.8269Z" fill="#75ACD9"/>
<path d="M21.8318 15.2167C21.8318 17.9871 19.5835 20.2352 16.8132 20.2352C14.0429 20.2352 11.7947 17.9871 11.7947 15.2167C11.7947 12.4464 14.0428 10.1982 16.8132 10.1982C19.5836 10.1982 21.8318 12.4464 21.8318 15.2167Z" fill="#75ACD9"/>
<path d="M41.949 24.8378C41.949 27.6082 39.7007 29.8563 36.9304 29.8563C34.1601 29.8563 31.9119 27.6082 31.9119 24.8378C31.9119 22.0674 34.16 19.8193 36.9304 19.8193C39.7008 19.8193 41.949 22.0675 41.949 24.8378Z" fill="#75ACD9"/>
<path d="M62.0059 5.1796C62.0059 7.94996 59.7576 10.1981 56.9873 10.1981C54.217 10.1981 51.9688 7.94996 51.9688 5.1796C51.9688 2.40924 54.2169 0.161133 56.9873 0.161133C59.7577 0.161133 62.0059 2.40931 62.0059 5.1796Z" fill="#75ACD9"/>
</svg>
