<svg width="36" height="36" viewBox="0 0 36 36" fill="none" xmlns="http://www.w3.org/2000/svg">
<path d="M11.8534 31.6007C11.3969 32.0635 10.6413 32.0635 10.1847 31.6007L4.67187 26.0911C4.21214 25.6313 4.21214 24.8821 4.67187 24.4191L22.2951 6.80377C22.7532 6.34419 23.5041 6.34419 23.9655 6.80377L29.4688 12.3135C29.9316 12.7763 29.9316 13.5288 29.4688 13.9853L11.8534 31.6007ZM33.7948 2.48105C30.6494 -0.664267 27.5483 1.76002 27.5483 1.76002C27.0319 2.15673 26.2448 2.85565 25.7915 3.30267C25.338 3.75612 25.3476 4.50234 25.8041 4.96193L31.3137 10.4717C31.7735 10.9345 32.5197 10.9408 32.9746 10.4875C33.4264 10.034 34.1221 9.24386 34.5204 8.73061C34.5204 8.73061 36.9464 5.63251 33.7948 2.48105ZM5.33618 34.5287C5.96905 34.3745 6.10914 33.8677 5.64795 33.4111L2.81584 30.5901C2.35786 30.1336 1.85088 30.2753 1.69661 30.9017L0.780355 34.5918C0.623022 35.2246 1.0102 35.6118 1.64307 35.4543L5.33618 34.5287Z" fill="white"/>
</svg>
