<svg width="57" height="57" viewBox="0 0 57 57" fill="none" xmlns="http://www.w3.org/2000/svg">
<path d="M28.5989 16.9609C31.1898 16.9609 32.7496 18.3445 32.7496 20.6754C32.7496 24.9063 25.1915 26.0788 25.1915 31.2187C25.1915 32.5953 26.0987 34.1079 27.9516 34.1079C30.8008 34.1079 30.4606 31.9951 31.4952 30.4824C32.8788 28.4515 39.3132 26.2899 39.3132 20.6754C39.3132 14.5881 33.8749 12.0391 28.3407 12.0391C23.0787 12.0391 18.2406 15.7954 18.2406 20.0281C18.2406 21.7589 19.5352 22.6644 21.0478 22.6644C25.2334 22.6644 23.0717 16.9609 28.5989 16.9609Z" fill="white"/>
<path d="M31.6661 40.4586C31.6661 38.5097 30.0714 36.915 28.1295 36.915C26.1859 36.915 24.5844 38.5167 24.5844 40.4586C24.5844 42.4021 26.1859 43.9968 28.1295 43.9968C30.0714 43.9968 31.6661 42.4021 31.6661 40.4586Z" fill="white"/>
<path d="M56.7743 28.0219C56.7743 12.5778 44.2124 0.0175781 28.7769 0.0175781C13.3327 0.0175781 0.772583 12.5778 0.772583 28.0219C0.772583 43.4574 13.3327 56.0176 28.7769 56.0176C44.2124 56.0176 56.7743 43.4574 56.7743 28.0219ZM3.56759 28.0219C3.56759 14.1184 14.8733 2.81087 28.7769 2.81087C42.6735 2.81087 53.9863 14.1184 53.9863 28.0219C53.9863 41.9238 42.6735 53.2313 28.7769 53.2313C14.8733 53.2313 3.56759 41.9238 3.56759 28.0219Z" fill="white"/>
</svg>
