<svg width="89" height="89" viewBox="0 0 89 89" fill="none" xmlns="http://www.w3.org/2000/svg">
<path d="M44.3074 26.8984C48.3788 26.8984 50.8299 29.0726 50.8299 32.7355C50.8299 39.384 38.9528 41.2264 38.9528 49.3035C38.9528 51.4667 40.3785 53.8436 43.2902 53.8436C47.7674 53.8436 47.2327 50.5234 48.8585 48.1464C51.0328 44.955 61.144 41.5582 61.144 32.7355C61.144 23.1697 52.5983 19.1641 43.9017 19.1641C35.6327 19.1641 28.0299 25.067 28.0299 31.7182C28.0299 34.4381 30.0642 35.8609 32.4412 35.8609C39.0186 35.8609 35.6217 26.8984 44.3074 26.8984Z" fill="#25509A"/>
<path d="M49.1272 63.8232C49.1272 60.7608 46.6214 58.2549 43.5699 58.2549C40.5156 58.2549 37.9988 60.7717 37.9988 63.8232C37.9988 66.8774 40.5156 69.3834 43.5699 69.3834C46.6214 69.3834 49.1272 66.8774 49.1272 63.8232Z" fill="#25509A"/>
<path d="M88.583 44.2803C88.583 20.0109 68.8428 0.273438 44.587 0.273438C20.3176 0.273438 0.5802 20.0109 0.5802 44.2803C0.5802 68.536 20.3176 88.2734 44.587 88.2734C68.8428 88.2734 88.583 68.536 88.583 44.2803ZM4.97245 44.2803C4.97245 22.4318 22.7385 4.6629 44.587 4.6629C66.4246 4.6629 84.2018 22.4318 84.2018 44.2803C84.2018 66.1261 66.4246 83.895 44.587 83.895C22.7385 83.895 4.97245 66.1261 4.97245 44.2803Z" fill="#25509A"/>
</svg>
