<svg width="78" height="77" viewBox="0 0 78 77" fill="none" xmlns="http://www.w3.org/2000/svg">
<path d="M77.2629 38.4437C77.2629 41.932 76.7943 45.3123 75.861 48.5792C74.9256 51.844 73.6207 54.9042 71.9443 57.7554C70.268 60.6069 68.2603 63.2056 65.9269 65.5593C63.5916 67.9092 60.9981 69.9224 58.1449 71.5989C55.2899 73.2734 52.2372 74.5802 48.9868 75.5118C45.7364 76.447 42.3618 76.9137 38.8698 76.9137C35.3741 76.9137 32.0047 76.447 28.7524 75.5118C25.5022 74.5802 22.4496 73.268 19.5944 71.5733C16.7413 69.8785 14.1406 67.8581 11.7869 65.5082C9.43516 63.1545 7.42011 60.5557 5.74186 57.7043C4.06737 54.8528 2.76063 51.8002 1.82715 48.5535C0.890108 45.3031 0.425293 41.932 0.425293 38.4437C0.425293 34.9169 0.890108 31.5293 1.82715 28.2808C2.76063 25.0304 4.06737 21.9814 5.74186 19.13C7.4201 16.2767 9.43515 13.689 11.7869 11.3518C14.1406 9.01836 16.7413 7.01253 19.5944 5.33785C22.4496 3.66148 25.5022 2.36575 28.7524 1.44875C32.0047 0.533626 35.3741 0.0761719 38.8698 0.0761719C42.3618 0.0761719 45.7364 0.542826 48.9868 1.47443C52.2372 2.4096 55.2899 3.71264 58.1449 5.39089C60.9981 7.06371 63.5916 9.08059 65.9269 11.4305C68.2603 13.7804 70.268 16.3719 71.9443 19.2068C73.6207 22.0418 74.9256 25.0817 75.861 28.3319C76.7943 31.5805 77.2629 34.9499 77.2629 38.4437ZM73.7324 38.4949C73.7324 35.314 73.3188 32.2486 72.4897 29.2928C71.659 26.3353 70.4819 23.5644 68.9611 20.9692C67.4384 18.3777 65.6139 16.0278 63.4853 13.9195C61.3605 11.8111 59.0088 9.99569 56.432 8.47469C53.8551 6.95388 51.0879 5.77901 48.1304 4.94992C45.1729 4.12083 42.1018 3.70535 38.9209 3.70535C35.74 3.70535 32.6691 4.12083 29.7116 4.94992C26.7539 5.77901 23.9795 6.95388 21.3843 8.47469C18.7928 9.9957 16.4283 11.8184 14.3016 13.9451C12.1749 16.07 10.3521 18.4199 8.82943 20.9949C7.30673 23.5718 6.12437 26.3353 5.27523 29.2928C4.42964 32.2486 4.00521 35.314 4.00521 38.4949C4.00521 41.6739 4.42964 44.7412 5.27523 47.697C6.12437 50.6545 7.30673 53.4254 8.82943 56.0187C10.3521 58.6121 12.1859 60.9712 14.3289 63.096C16.4721 65.2225 18.8421 67.0436 21.4373 68.5663C24.0307 70.0852 26.8053 71.2713 29.7646 72.1167C32.7203 72.9604 35.773 73.387 38.9209 73.387C43.694 73.387 48.1925 72.4627 52.4092 70.6143C56.6294 68.7621 60.3227 66.2585 63.4852 63.096C66.6515 59.9335 69.1516 56.2346 70.9853 52.0014C72.8173 47.7666 73.7324 43.2643 73.7324 38.4949ZM44.4717 55.6032H32.6434L45.0959 42.955H18.1157V34.1903H45.0959L32.6434 21.4872H44.4717L60.7109 38.4949V38.6523L44.4717 55.6032Z" fill="#74ACDA"/>
</svg>
