<svg width="48" height="48" viewBox="0 0 48 48" fill="none" xmlns="http://www.w3.org/2000/svg">
<path d="M40.6419 0.246094H37.5181V11.1073C37.5181 12.6285 36.2901 13.8547 34.7707 13.8547H13.0548C11.537 13.8547 10.304 12.6285 10.304 11.1073V0.246094H7.1818C3.48644 0.246094 0.490723 3.24507 0.490723 6.94214V40.4054C0.490723 44.1025 3.48644 47.0982 7.1818 47.0982H40.6419C44.3407 47.0982 47.3379 44.1025 47.3379 40.4054V6.94214C47.3379 3.24507 44.3407 0.246094 40.6419 0.246094ZM39.3906 37.0716C39.3906 40.2023 36.8515 42.7446 33.7176 42.748L14.1061 42.7447C10.9739 42.7447 8.43473 40.2023 8.43473 37.0716V26.3303C8.43473 23.2031 10.9739 20.6573 14.1061 20.6573H33.7176C36.8515 20.6573 39.3906 23.2031 39.3906 26.3303V37.0716ZM37.3813 26.3303V37.0716C37.3779 39.0976 35.7419 40.732 33.7176 40.7371H14.1061C12.0834 40.732 10.444 39.0976 10.4408 37.0716V26.3303C10.444 24.3095 12.0834 22.6749 14.1061 22.6716H33.7176C35.7419 22.6749 37.3779 24.3095 37.3813 26.3303ZM34.5457 11.2723C34.5457 11.9621 33.9858 12.5167 33.2961 12.5167H28.4328C27.7446 12.5167 27.1849 11.9621 27.1849 11.2723V2.45703C27.1849 1.76386 27.7445 1.20402 28.4328 1.20402H33.2961C33.9858 1.20402 34.5457 1.76384 34.5457 2.45703V11.2723Z" fill="white"/>
</svg>
