<svg width="56" height="57" viewBox="0 0 56 57" fill="none" xmlns="http://www.w3.org/2000/svg">
<path d="M45.3278 0.544922H3.89605C2.02758 0.544922 0.506073 2.06644 0.506073 3.9349V53.1554C0.506073 55.0234 2.02759 56.5449 3.89605 56.5449H52.4292C54.2972 56.5449 55.8191 55.0234 55.8191 53.1554V10.1981L45.3278 0.544922ZM46.1443 5.16462L50.7439 9.39612H46.1443V5.16462ZM52.9707 53.1554H52.9672C52.9672 53.4541 52.7279 53.6968 52.4253 53.6968H3.89605C3.59817 53.6968 3.35454 53.4541 3.35454 53.1554V3.9349C3.35454 3.63615 3.59817 3.39342 3.89605 3.39342H43.2996V10.8195C43.2996 11.605 43.9353 12.2481 44.7203 12.2481H52.9706L52.9707 53.1554Z" fill="white"/>
<path d="M37.561 25.9657C37.561 25.3787 38.0369 24.8994 38.6273 24.8994H48.3508C48.9413 24.8994 49.417 25.3787 49.417 25.9657C49.417 26.5562 48.9413 27.0319 48.3508 27.0319H38.6273C38.0369 27.0319 37.561 26.5562 37.561 25.9657Z" fill="white"/>
<path d="M37.561 33.1395C37.561 32.5526 38.0369 32.0732 38.6273 32.0732H48.3508C48.9413 32.0732 49.417 32.5526 49.417 33.1395C49.417 33.73 48.9413 34.2057 48.3508 34.2057H38.6273C38.0369 34.2057 37.561 33.73 37.561 33.1395Z" fill="white"/>
<path d="M37.561 18.7918C37.561 18.2049 38.0369 17.7256 38.6273 17.7256H48.3508C48.9413 17.7256 49.417 18.2049 49.417 18.7918C49.417 19.3823 48.9413 19.8581 48.3508 19.8581H38.6273C38.0369 19.8581 37.561 19.3823 37.561 18.7918Z" fill="white"/>
<path d="M49.417 47.4862C49.417 48.0767 48.9413 48.556 48.3508 48.556H7.97531C7.38838 48.556 6.90817 48.0766 6.90817 47.4862C6.90817 46.8993 7.38838 46.4199 7.97531 46.4199H48.3508C48.9413 46.4199 49.417 46.8993 49.417 47.4862Z" fill="white"/>
<path d="M24.0566 34.2638H18.2366C18.2213 33.4269 18.2137 32.9172 18.2137 32.7346C18.2137 30.8478 18.5256 29.2958 19.1495 28.0785C19.7733 26.8612 21.0211 25.4918 22.8926 23.9701C24.7642 22.4485 25.8826 21.4519 26.2478 20.9802C26.8108 20.2346 27.0923 19.4129 27.0923 18.5152C27.0923 17.2675 26.594 16.1986 25.5973 15.3084C24.6007 14.4183 23.2578 13.9732 21.5688 13.9732C19.9407 13.9732 18.5789 14.4373 17.4833 15.3655C16.3877 16.2937 15.6346 17.7087 15.2238 19.6108L9.33511 18.8804C9.50249 16.1567 10.6628 13.8439 12.8158 11.9419C14.9689 10.0399 17.7952 9.08887 21.2949 9.08887C24.9772 9.08887 27.9063 10.0513 30.0822 11.9761C32.2581 13.9009 33.346 16.1415 33.346 18.6978C33.346 20.1129 32.9466 21.4519 32.1478 22.7148C31.3489 23.9778 29.6409 25.6972 27.0238 27.8731C25.6695 28.9991 24.8288 29.9044 24.5017 30.5891C24.1746 31.2739 24.0262 32.4987 24.0566 34.2638ZM18.2366 42.8913V36.4777H24.6501V42.8913H18.2366Z" fill="white"/>
</svg>
