<svg width="24" height="27" viewBox="0 0 24 27" fill="none" xmlns="http://www.w3.org/2000/svg">
<path d="M23.2353 0.955078H0.575806L0.720825 3.50195C0.720825 3.57291 0.705033 3.64193 0.71106 3.71354L1.70048 23.7526C1.77551 25.2689 3.07906 26.5117 4.6012 26.5117H19.2085C20.7291 26.5117 22.0333 25.2689 22.11 23.7526L23.1001 3.71354C23.1031 3.64193 23.0896 3.57421 23.0865 3.50326L23.2353 0.955078ZM5.86178 23.7786C5.84827 23.7786 5.83264 23.7799 5.8175 23.7799C5.15262 23.7799 4.60332 23.2552 4.57857 22.5872L3.93258 5.22396C3.90947 4.54166 4.44039 3.96614 5.12626 3.94076C5.78511 3.92838 6.38538 4.44857 6.41256 5.13346L7.05644 22.4948C7.082 23.1758 6.54847 23.7526 5.86178 23.7786ZM13.0179 22.5417C13.0179 23.2148 12.4716 23.7591 11.7978 23.7591C11.1237 23.7572 10.5807 23.2116 10.5807 22.5391L10.6025 5.17708C10.6025 4.5052 11.1456 3.96029 11.8196 3.96029H11.8224C12.4947 3.96159 13.0395 4.50716 13.0395 5.18034L13.0179 22.5417ZM19.0221 22.5898C18.998 23.2552 18.4498 23.7799 17.7871 23.7799C17.7675 23.7799 17.7555 23.7786 17.736 23.7786C17.0524 23.75 16.5188 23.1732 16.5444 22.4922L17.2324 5.13086C17.2568 4.44857 17.8245 3.91081 18.5218 3.94076C19.2024 3.96939 19.736 4.54427 19.7073 5.22656L19.0221 22.5898Z" fill="white"/>
</svg>
