<svg width="1630" height="1185" viewBox="0 0 1630 1185" fill="none" xmlns="http://www.w3.org/2000/svg">
<g opacity="0.3">
<path d="M328.112 984.873C316.962 978.434 310.789 969.879 310.737 960.76C310.686 951.664 316.763 943.086 327.841 936.646C350.705 923.355 388.064 923.355 411.077 936.646C434.091 949.936 434.212 971.582 411.349 984.873C388.465 998.176 351.126 998.164 328.112 984.873ZM207.21 822.19C196.344 815.915 196.287 805.715 207.062 799.451C217.858 793.176 235.462 793.176 246.328 799.451C257.173 805.715 257.231 815.915 246.435 822.19C235.661 828.453 218.056 828.453 207.21 822.19ZM413.132 761.2C402.287 754.937 402.249 744.725 413.025 738.461C423.82 732.186 441.424 732.186 452.27 738.449C463.136 744.724 463.193 754.925 452.398 761.2C441.623 767.463 423.998 767.475 413.132 761.2ZM716.763 936.55C705.897 930.275 705.86 920.064 716.635 913.8C727.43 907.525 745.034 907.525 755.9 913.8C766.746 920.063 766.803 930.263 756.008 936.538C745.233 942.802 727.608 942.814 716.763 936.55ZM238.199 490.147C227.333 483.872 227.275 473.672 238.071 467.397C248.866 461.122 266.47 461.121 277.336 467.397C288.182 473.66 288.239 483.86 277.444 490.135C266.648 496.41 249.044 496.41 238.199 490.147ZM1172.21 987.032C1161.36 980.768 1161.31 970.569 1172.08 964.305C1182.88 958.03 1200.48 958.029 1211.33 964.293C1222.19 970.568 1222.25 980.768 1211.45 987.043C1200.68 993.307 1183.08 993.307 1172.21 987.032ZM1027.1 890.296C1016.23 884.021 1016.17 873.821 1026.95 867.558C1037.74 861.283 1055.35 861.282 1066.21 867.558C1077.06 873.821 1077.12 884.021 1066.32 890.296C1055.55 896.56 1037.94 896.56 1027.1 890.296ZM316.436 376.759C293.422 363.468 293.28 341.834 316.164 328.532C339.028 315.241 376.387 315.241 399.4 328.531C422.434 341.834 422.536 363.468 399.672 376.758C376.788 390.061 339.47 390.061 316.436 376.759ZM1367.63 941.342C1344.6 928.04 1344.47 906.417 1367.36 893.115C1390.22 879.824 1427.56 879.812 1450.59 893.115C1473.61 906.405 1473.73 928.051 1450.87 941.342C1427.98 954.644 1390.64 954.633 1367.63 941.342ZM596.702 281.749C585.836 275.474 585.779 265.274 596.554 259.01C607.349 252.735 624.954 252.735 635.82 259.01C646.665 265.274 646.722 275.473 635.927 281.749C625.152 288.012 607.547 288.012 596.702 281.749ZM1530.69 778.645C1519.85 772.382 1519.79 762.182 1530.56 755.919C1541.36 749.644 1558.96 749.643 1569.81 755.907C1580.68 762.182 1580.73 772.382 1569.94 778.657C1559.16 784.921 1541.56 784.921 1530.69 778.645ZM1285.74 552.541C1274.87 546.266 1274.83 536.054 1285.61 529.791C1296.4 523.516 1314.01 523.515 1324.87 529.791C1335.72 536.054 1335.78 546.254 1324.98 552.53C1314.21 558.793 1296.58 558.805 1285.74 552.541ZM1106.46 378.918C1095.62 372.654 1095.56 362.454 1106.33 356.191C1117.13 349.915 1134.73 349.915 1145.58 356.179C1156.44 362.454 1156.5 372.654 1145.71 378.929C1134.93 385.193 1117.33 385.193 1106.46 378.918ZM1452.24 468.766C1441.38 462.491 1441.32 452.291 1452.12 446.016C1462.89 439.752 1480.52 439.74 1491.38 446.016C1502.23 452.279 1502.28 462.502 1491.51 468.766C1480.71 475.041 1463.09 475.029 1452.24 468.766ZM1328.74 355.391C1305.73 342.1 1305.6 320.454 1328.47 307.163C1351.35 293.861 1388.69 293.873 1411.7 307.163C1434.74 320.465 1434.86 342.087 1411.97 355.39C1389.11 368.681 1351.77 368.693 1328.74 355.391ZM1434.16 294.107C1398.68 273.613 1341.12 273.614 1305.86 294.108C1273.27 313.051 1271.01 342.969 1298.87 363.581L1048.38 509.191L969.591 463.691L1100.08 387.836C1117.24 395.216 1141.56 394.428 1157 385.45C1173.98 375.579 1173.91 359.515 1156.82 349.644C1139.73 339.773 1112 339.785 1095.02 349.656C1079.6 358.623 1078.32 372.712 1091.07 382.607L960.557 458.474L941.308 447.357C907.286 427.709 851.795 427.709 817.994 447.358L751.869 485.796L588.496 391.446L616.393 295.673C627.588 295.673 638.749 293.217 647.24 288.282C664.221 278.41 664.131 262.358 647.039 252.487C629.947 242.616 602.241 242.616 585.26 252.488C568.279 262.359 568.37 278.411 585.462 288.282C590.752 291.337 597.072 293.441 603.791 294.604L574.82 393.949L742.893 491.013L678.305 528.559L429.654 384.961C457.284 364.349 454.682 334.43 421.86 315.475C386.374 294.981 328.814 294.982 293.558 315.476C258.302 335.97 258.49 369.32 293.977 389.814C326.798 408.768 378.443 410.178 413.926 394.103L662.577 537.702L592.47 578.455L408.118 471.99L300.39 473.448C298.68 468.83 294.742 464.446 288.556 460.874C271.464 451.003 243.759 451.003 226.778 460.875C209.797 470.745 209.887 486.798 226.979 496.669C244.072 506.54 271.776 506.54 288.757 496.668C296.358 492.25 300.505 486.61 301.263 480.816L403.009 479.441L583.494 583.673L521.371 619.785C487.571 639.433 487.752 671.585 521.774 691.232L523.116 692.008L458.588 729.518C441.45 722.173 417.156 722.949 401.711 731.927C384.73 741.799 384.821 757.85 401.913 767.722C419.005 777.593 446.71 777.593 463.691 767.722C479.156 758.732 480.415 744.654 467.643 734.748L532.171 697.238L596.043 734.124L435.774 827.289L270.426 810.814C270.389 804.328 266.073 797.853 257.547 792.929C240.455 783.058 212.73 783.047 195.749 792.918C178.768 802.789 178.878 818.853 195.97 828.724C213.042 838.583 240.767 838.595 257.748 828.723C263.004 825.668 266.635 822.002 268.6 818.124L440.179 835.221L605.097 739.354L670.109 776.898L425.116 919.313C389.472 903.226 337.822 904.648 305.235 923.591C288.153 933.521 278.796 946.718 278.875 960.772C278.954 974.803 288.459 988 305.653 997.929C341.14 1018.42 398.699 1018.42 433.955 997.929C466.543 978.985 468.828 949.055 440.947 928.455L685.939 786.041L820.337 863.657C822.494 864.903 824.752 866.066 827.09 867.159L762.218 904.869C745.079 897.524 720.786 898.3 705.341 907.279C688.36 917.15 688.45 933.202 705.542 943.073C722.634 952.944 750.34 952.944 767.321 943.073C782.785 934.083 784.045 919.981 771.252 910.087L837.741 871.437C871.209 882.824 915.145 880.227 943.649 863.657L977.328 844.079L1011.53 863.833C998.872 873.74 1000.29 887.841 1015.86 896.831C1032.93 906.69 1060.65 906.702 1077.63 896.83C1094.62 886.959 1094.5 870.895 1077.43 861.036C1061.89 852.058 1037.59 851.259 1020.55 858.615L986.324 838.85L1042.44 806.229L1190.13 891.518L1188.09 950.474C1178.11 950.945 1168.37 953.353 1160.77 957.772C1143.79 967.643 1143.9 983.707 1160.97 993.566C1178.06 1003.44 1205.79 1003.45 1222.77 993.578C1239.75 983.707 1239.64 967.643 1222.54 957.772C1216.36 954.2 1208.78 951.932 1200.81 950.956L1202.99 888.545L1051.42 801.011L1121.53 760.258L1337.4 884.926C1309.75 905.525 1312.37 935.456 1345.17 954.399C1380.66 974.893 1438.22 974.892 1473.47 954.398C1508.73 933.904 1508.54 900.554 1473.05 880.06C1440.25 861.117 1388.59 859.696 1353.12 875.783L1137.25 751.115L1201.84 713.57L1337.11 791.691L1508.5 774.593C1510.51 778.471 1514.16 782.125 1519.45 785.18C1536.54 795.051 1564.27 795.063 1581.25 785.192C1598.23 775.32 1598.12 759.257 1581.03 749.386C1563.96 739.526 1536.23 739.515 1519.25 749.386C1510.76 754.322 1506.56 760.797 1506.59 767.283L1341.41 783.771L1210.82 708.352L1240.27 691.23C1274.07 671.582 1273.89 639.431 1239.87 619.783L1209.35 602.156L1279.37 561.45C1296.51 568.818 1320.85 568.042 1336.29 559.064C1353.27 549.193 1353.18 533.141 1336.09 523.27C1319 513.399 1291.29 513.399 1274.31 523.27C1258.87 532.248 1257.59 546.314 1270.34 556.232L1200.31 596.939L1143.81 564.305L1326.58 458.062L1428.32 459.448C1429.16 465.23 1433.37 470.87 1441.02 475.289C1458.11 485.16 1485.82 485.16 1502.8 475.288C1519.78 465.417 1519.69 449.365 1502.6 439.494C1485.51 429.623 1457.8 429.623 1440.82 439.494C1434.68 443.067 1430.79 447.45 1429.13 452.068L1321.38 450.612L1134.77 559.088L1064.21 518.335L1314.7 372.725C1350.36 388.8 1401.99 387.39 1434.58 368.447C1469.84 347.951 1469.65 314.601 1434.16 294.107Z" fill="#75ACD9"/>
<path d="M568.039 1030.57C557.173 1024.3 557.115 1014.1 567.89 1007.83C578.686 1001.56 596.29 1001.56 607.156 1007.83C618.001 1014.1 618.059 1024.3 607.263 1030.57C596.489 1036.84 578.884 1036.84 568.039 1030.57ZM768.12 830.566L759.086 825.349L575.395 932.074L578.24 994.485C570.295 995.472 562.743 997.74 556.597 1001.31C539.616 1011.18 539.707 1027.24 556.799 1037.11C573.891 1046.98 601.596 1046.98 618.577 1037.11C635.558 1027.24 635.468 1011.18 618.376 1001.31C610.725 996.894 600.976 994.474 590.995 994.004L588.27 935.059L768.12 830.566Z" fill="#75ACD9"/>
</g>
<g opacity="0.1">
<path d="M914.258 665.754L935.275 653.616C936.964 652.641 939.717 652.641 941.393 653.616L1005.48 690.868C1007.15 691.843 1007.14 693.438 1005.46 694.413L984.44 706.55C982.752 707.525 979.999 707.525 978.322 706.55L914.238 669.298C912.562 668.323 912.571 666.728 914.258 665.754Z" fill="black"/>
</g>
<path d="M964.482 690.511L978.949 683.318L971.318 679.115L962.946 679.947L959.539 686.462L964.482 690.511Z" fill="#486AB2"/>
<path d="M820.589 232.598L832.375 226.671L837.746 233.048L824.183 235.095L820.589 232.598Z" fill="#486AB2"/>
<path d="M988.897 338.994L987.975 665.323C987.927 682.555 975.611 689.565 960.625 680.909L903.461 647.9L850.748 617.459C835.762 608.803 823.533 587.621 823.581 570.389L824.511 244.052C824.558 226.82 836.858 219.81 851.853 228.466L961.73 291.924C969.096 296.176 975.794 303.465 980.697 311.811C985.774 320.45 988.921 330.234 988.897 338.994Z" fill="#486AB2"/>
<path d="M988.897 338.994L987.975 665.323C987.928 682.555 975.611 689.565 960.625 680.91L903.461 647.901L957.518 323.184L980.697 311.811C985.774 320.451 988.921 330.235 988.897 338.994Z" fill="#486AB2"/>
<path d="M965.639 343.22L820.264 259.264C818.258 258.105 816.626 259.035 816.619 261.347L815.734 573.635C815.728 575.941 817.349 578.75 819.355 579.908L964.73 663.864C966.736 665.023 968.368 664.092 968.375 661.787L969.26 349.499C969.266 347.187 967.645 344.378 965.639 343.22Z" fill="#D6D7D6"/>
<path d="M906.18 638.747L877.281 622.057C873.86 620.081 871.052 621.687 871.041 625.62C871.03 629.552 873.819 634.384 877.24 636.359L906.139 653.049C909.56 655.025 912.373 653.428 912.384 649.496C912.395 645.564 909.601 640.723 906.18 638.747Z" fill="#575757"/>
<path d="M904.318 289.767L872.588 271.442C871.173 270.625 870.014 271.292 870.01 272.912C870.005 274.538 871.156 276.539 872.571 277.356L904.301 295.681C905.711 296.495 906.875 295.831 906.879 294.205C906.884 292.585 905.727 290.581 904.318 289.767Z" fill="#575757"/>
<path d="M913.124 294.514C911.541 293.6 910.252 294.335 910.247 296.148C910.242 297.968 911.523 300.187 913.106 301.101C914.689 302.016 915.973 301.278 915.978 299.458C915.983 297.645 914.708 295.429 913.124 294.514Z" fill="#575757"/>
<path d="M947.988 298.8L838.112 235.345C823.121 226.687 810.815 233.702 810.767 250.932L810.65 292.189L810.506 343.413L810.497 346.384L810.485 350.647L810.241 436.99L810.096 488.214L810.084 492.096L810.074 495.7L809.843 577.266C809.795 594.499 822.018 615.678 837.01 624.335L946.887 687.79C961.879 696.448 974.183 689.435 974.231 672.203L974.646 525.579L974.862 449.797L975.156 345.869C975.205 328.639 962.981 307.458 947.988 298.8ZM913.123 294.515C914.707 295.429 915.987 297.648 915.982 299.467C915.977 301.288 914.689 302.022 913.106 301.107C911.522 300.194 910.241 297.973 910.246 296.155C910.251 294.336 911.541 293.6 913.123 294.515ZM872.594 271.452L904.318 289.773C905.732 290.589 906.884 292.584 906.879 294.211C906.874 295.836 905.716 296.498 904.301 295.68L872.577 277.358C871.162 276.542 870.004 274.544 870.009 272.918C870.014 271.292 871.179 270.633 872.594 271.452ZM906.145 653.057L877.246 636.367C873.819 634.388 871.031 629.551 871.041 625.619C871.053 621.686 873.86 620.086 877.285 622.065L906.185 638.755C909.607 640.731 912.395 645.562 912.384 649.495C912.372 653.427 909.565 655.033 906.145 653.057ZM969.13 396.803L968.989 446.408L968.785 518.575L968.379 661.795C968.372 664.1 966.734 665.027 964.728 663.869L819.359 579.917C817.348 578.754 815.728 575.946 815.733 573.64L815.955 495.479L816.11 440.38L816.365 350.425L816.522 295.581L816.618 261.354C816.625 259.042 818.257 258.112 820.269 259.273L965.637 343.225C967.643 344.384 969.271 347.195 969.264 349.507L969.13 396.803Z" fill="#3458A8"/>
<path d="M906.185 638.755L877.286 622.065C873.86 620.086 871.052 621.686 871.041 625.618C871.03 629.55 873.819 634.388 877.246 636.367L906.145 653.057C909.566 655.033 912.373 653.427 912.384 649.494C912.395 645.562 909.606 640.73 906.185 638.755Z" fill="#223A6E"/>
<path d="M904.317 289.772L872.593 271.451C871.178 270.634 870.014 271.291 870.009 272.917C870.005 274.544 871.161 276.542 872.577 277.359L904.301 295.68C905.716 296.497 906.875 295.836 906.879 294.21C906.884 292.584 905.733 290.589 904.317 289.772Z" fill="#223A6E"/>
<path d="M913.124 294.514C911.54 293.6 910.251 294.335 910.246 296.154C910.241 297.974 911.522 300.193 913.105 301.108C914.688 302.022 915.977 301.287 915.983 299.468C915.988 297.647 914.707 295.429 913.124 294.514Z" fill="#223A6E"/>
<g opacity="0.1">
<path d="M931.394 361.922L816.522 295.581L810.65 292.189L810.505 343.413L811.845 344.187L810.497 346.385L807.821 350.748L810.485 350.648L816.366 350.426L822.262 350.203L931.248 413.146C932.862 414.076 934.184 413.323 934.19 411.468L934.315 366.984C934.322 365.131 933.006 362.854 931.394 361.922Z" fill="black"/>
<path d="M931.395 506.96L816.111 440.381L810.24 436.991L810.096 488.215L811.845 489.226L810.084 492.097L807.821 495.785L810.073 495.701L815.956 495.48L822.262 495.243L931.248 558.183C932.862 559.115 934.184 558.36 934.19 556.507L934.315 512.022C934.322 510.169 933.006 507.892 931.395 506.96Z" fill="black"/>
<path d="M974.861 449.798L974.646 525.58L968.786 518.576L964.427 513.369L855.921 450.706C854.044 449.621 852.512 446.966 852.518 444.808L852.692 383.176C852.699 381.018 854.241 380.14 856.118 381.223L968.989 446.408L974.861 449.798Z" fill="black"/>
</g>
<path d="M836.264 353.143L836.274 349.462L893.62 382.58L893.61 386.261L836.264 353.143ZM836.284 346.182L836.294 342.502L922.236 392.135L922.226 395.814L836.284 346.182ZM836.303 339.222L836.314 335.542L922.256 385.174L922.245 388.855L836.303 339.222ZM836.323 332.262L836.333 328.582L922.276 378.214L922.265 381.895L836.323 332.262ZM836.343 325.302L836.353 321.622L922.295 371.255L922.285 374.935L836.343 325.302ZM814.397 340.799C810.932 338.798 807.753 335.56 805.268 331.786C802.021 326.856 799.955 321.008 799.97 315.803C799.996 306.615 806.497 302.909 814.492 307.526C822.486 312.143 828.946 323.335 828.92 332.522C828.905 337.727 826.812 341.173 823.547 342.342C821.049 343.238 817.864 342.801 814.397 340.799ZM927.529 363.817L797.189 288.544C795.576 287.613 794.253 288.366 794.247 290.22L794.121 334.704C794.116 336.557 795.431 338.835 797.044 339.767L807.98 346.082L818.396 352.098L927.384 415.04C928.996 415.971 930.319 415.217 930.325 413.363L930.451 368.879C930.456 367.026 929.142 364.748 927.529 363.817Z" fill="#77C046"/>
<path d="M922.296 371.254L836.353 321.621L836.343 325.302L922.285 374.935L922.296 371.254Z" fill="#67A543"/>
<path d="M922.276 378.215L836.333 328.582L836.323 332.262L922.265 381.895L922.276 378.215Z" fill="#67A543"/>
<path d="M922.256 385.175L836.314 335.542L836.303 339.222L922.245 388.855L922.256 385.175Z" fill="#67A543"/>
<path d="M922.236 392.136L836.294 342.503L836.284 346.182L922.226 395.815L922.236 392.136Z" fill="#67A543"/>
<path d="M893.62 382.581L836.274 349.463L836.264 353.143L893.61 386.261L893.62 382.581Z" fill="#67A543"/>
<path d="M812.428 327.066C810.469 325.021 809.092 322.013 809.099 319.431C809.108 316.034 811.512 314.665 814.466 316.372C817.421 318.079 819.809 322.215 819.8 325.611C819.793 328.193 818.402 329.603 816.438 329.382C819.724 332.274 822.396 337.207 823.547 342.342C821.049 343.238 817.864 342.8 814.397 340.799C810.932 338.798 807.753 335.56 805.268 331.786C806.445 327.996 809.136 326.159 812.428 327.066ZM814.491 307.525C806.497 302.908 799.996 306.615 799.969 315.802C799.955 321.007 802.021 326.855 805.268 331.785C807.753 335.559 810.932 338.798 814.397 340.799C817.863 342.8 821.049 343.238 823.547 342.341C826.812 341.172 828.905 337.727 828.92 332.521C828.946 323.334 822.486 312.142 814.491 307.525Z" fill="#DCDBDB"/>
<path d="M818.396 352.098L807.979 346.082L803.956 352.643L818.396 352.098Z" fill="#77C046"/>
<path d="M812.428 327.066C812.427 327.066 812.427 327.066 812.428 327.066C809.135 326.16 806.445 327.996 805.268 331.786C807.753 335.56 810.932 338.798 814.397 340.799C817.864 342.801 821.049 343.238 823.547 342.342C822.396 337.207 819.724 332.273 816.438 329.382C815.818 329.312 815.141 329.08 814.432 328.67C813.722 328.261 813.046 327.712 812.428 327.066Z" fill="white"/>
<path d="M814.466 316.373C811.512 314.666 809.108 316.036 809.098 319.432C809.091 322.013 810.469 325.022 812.428 327.067C813.046 327.712 813.722 328.262 814.432 328.671C815.141 329.081 815.818 329.313 816.438 329.383C818.402 329.604 819.792 328.194 819.8 325.611C819.809 322.215 817.421 318.079 814.466 316.373Z" fill="white"/>
<path d="M836.288 489.832L836.298 486.151L860.461 500.106L860.451 503.786L836.288 489.832ZM836.307 482.871L836.318 479.191L922.26 528.824L922.249 532.504L836.307 482.871ZM836.327 475.911L836.337 472.231L922.28 521.864L922.269 525.543L836.327 475.911ZM814.397 485.838C810.932 483.836 807.753 480.598 805.268 476.823C802.021 471.893 799.955 466.045 799.97 460.84C799.996 451.652 806.497 447.946 814.492 452.563C822.486 457.18 828.946 468.371 828.92 477.559C828.905 482.764 826.812 486.21 823.547 487.379C821.049 488.275 817.864 487.839 814.397 485.838ZM927.529 508.854L797.189 433.581C795.576 432.65 794.253 433.404 794.247 435.257L794.121 479.741C794.116 481.594 795.431 483.874 797.044 484.805L807.98 491.12L818.396 497.136L927.384 560.078C928.996 561.009 930.319 560.254 930.325 558.4L930.451 513.916C930.456 512.064 929.142 509.785 927.529 508.854Z" fill="#77C046"/>
<path d="M922.28 521.864L836.337 472.231L836.327 475.911L922.27 525.544L922.28 521.864Z" fill="#67A543"/>
<path d="M922.26 528.824L836.318 479.191L836.307 482.872L922.249 532.505L922.26 528.824Z" fill="#67A543"/>
<path d="M860.461 500.106L836.298 486.151L836.288 489.832L860.451 503.787L860.461 500.106Z" fill="#67A543"/>
<path d="M812.428 472.105C810.469 470.06 809.091 467.051 809.099 464.47C809.108 461.073 811.512 459.703 814.466 461.41C817.421 463.116 819.809 467.253 819.8 470.65C819.793 473.231 818.402 474.642 816.438 474.421C819.724 477.312 822.396 482.245 823.547 487.379C821.049 488.275 817.864 487.839 814.397 485.837C810.932 483.836 807.753 480.597 805.268 476.823C806.445 473.034 809.136 471.198 812.427 472.105L812.428 472.105ZM814.491 452.563C806.497 447.947 799.996 451.653 799.969 460.84C799.955 466.046 802.021 471.893 805.268 476.823C807.753 480.597 810.932 483.836 814.397 485.838C817.863 487.84 821.049 488.276 823.547 487.38C826.812 486.21 828.905 482.765 828.92 477.56C828.946 468.372 822.486 457.18 814.491 452.563Z" fill="#DCDBDB"/>
<path d="M818.396 497.136L807.979 491.12L803.956 497.68L818.396 497.136Z" fill="#77C046"/>
<path d="M812.428 472.104C809.136 471.198 806.445 473.034 805.268 476.823C807.753 480.597 810.932 483.836 814.397 485.837C817.864 487.839 821.049 488.275 823.547 487.379C822.396 482.245 819.724 477.312 816.438 474.421C815.818 474.351 815.14 474.118 814.432 473.709C813.723 473.3 813.046 472.75 812.428 472.104Z" fill="white"/>
<path d="M814.466 461.41C811.512 459.703 809.108 461.073 809.098 464.47C809.091 467.051 810.469 470.06 812.428 472.105C813.046 472.751 813.723 473.3 814.431 473.71C815.14 474.119 815.817 474.351 816.437 474.421C818.401 474.642 819.792 473.231 819.799 470.65C819.809 467.253 817.421 463.116 814.466 461.41Z" fill="white"/>
<path d="M856.841 439.991L856.852 436.311L914.198 469.43L914.187 473.109L856.841 439.991ZM856.842 433.02L856.853 429.339L942.794 478.972L942.784 482.652L856.842 433.02ZM856.862 426.059L856.872 422.379L942.814 472.011L942.804 475.692L856.862 426.059ZM856.881 419.1L856.892 415.419L942.833 465.052L942.823 468.732L856.881 419.1ZM856.901 412.139L856.912 408.46L942.853 458.092L942.843 461.771L856.901 412.139ZM964.639 499.033C961.172 497.031 957.995 493.794 955.51 490.02C952.262 485.088 950.196 479.242 950.211 474.037C950.237 464.849 956.74 461.144 964.733 465.76C972.727 470.377 979.186 481.568 979.16 490.756C979.146 495.961 977.053 499.406 973.789 500.577C971.29 501.473 968.104 501.035 964.639 499.033ZM856.922 404.873L856.932 401.193L942.873 450.825L942.863 454.505L856.922 404.873ZM981.628 457.834L852.254 383.119C850.376 382.035 848.835 382.913 848.828 385.072L848.654 446.703C848.648 448.862 850.179 451.516 852.057 452.6L960.563 515.264L970.978 521.279L981.431 527.316C983.309 528.401 984.851 527.521 984.857 525.363L985.032 463.731C985.039 461.572 983.506 458.919 981.628 457.834Z" fill="#54A5DB"/>
<path d="M942.853 458.092L856.912 408.46L856.901 412.139L942.843 461.772L942.853 458.092Z" fill="#478EBE"/>
<path d="M942.874 450.825L856.932 401.192L856.922 404.873L942.863 454.505L942.874 450.825Z" fill="#478EBE"/>
<path d="M942.833 465.051L856.892 415.419L856.881 419.099L942.823 468.732L942.833 465.051Z" fill="#478EBE"/>
<path d="M942.814 472.011L856.872 422.379L856.862 426.059L942.803 475.692L942.814 472.011Z" fill="#478EBE"/>
<path d="M942.794 478.972L856.852 429.339L856.842 433.02L942.783 482.652L942.794 478.972Z" fill="#478EBE"/>
<path d="M914.198 469.429L856.852 436.312L856.841 439.991L914.187 473.109L914.198 469.429Z" fill="#478EBE"/>
<path d="M962.67 485.302C960.711 483.257 959.333 480.248 959.34 477.666C959.35 474.27 961.753 472.9 964.708 474.606C967.663 476.312 970.05 480.45 970.041 483.846C970.034 486.428 968.643 487.838 966.679 487.617C966.679 487.617 966.68 487.617 966.68 487.618C969.966 490.51 972.637 495.443 973.79 500.577C971.29 501.473 968.104 501.035 964.639 499.034C961.172 497.032 957.995 493.795 955.51 490.02C956.686 486.23 959.378 484.394 962.67 485.302ZM964.733 465.76C956.739 461.144 950.237 464.85 950.211 474.037C950.196 479.243 952.262 485.089 955.51 490.02C957.995 493.795 961.172 497.032 964.639 499.034C968.104 501.035 971.29 501.473 973.79 500.577C977.053 499.406 979.145 495.961 979.161 490.756C979.186 481.568 972.727 470.377 964.733 465.76Z" fill="#DCDBDB"/>
<path d="M970.978 521.279L960.562 515.264L974.952 532.457L970.978 521.279Z" fill="#54A5DB"/>
<path d="M966.679 487.617C966.059 487.547 965.382 487.315 964.673 486.905C963.964 486.496 963.288 485.947 962.67 485.301C959.378 484.394 956.686 486.23 955.51 490.02C957.995 493.794 961.172 497.031 964.639 499.033C968.105 501.035 971.291 501.472 973.79 500.577C972.637 495.442 969.966 490.51 966.679 487.617Z" fill="white"/>
<path d="M964.708 474.606C961.753 472.9 959.35 474.27 959.34 477.666C959.333 480.248 960.711 483.257 962.67 485.302C963.288 485.947 963.964 486.496 964.673 486.906C965.382 487.316 966.059 487.548 966.68 487.617C968.644 487.838 970.034 486.428 970.041 483.846C970.051 480.45 967.663 476.313 964.708 474.606Z" fill="white"/>
<g opacity="0.1">
<path d="M857.313 678.278C833.589 666.524 795.25 666.525 771.68 678.278C748.11 690.032 748.234 709.088 771.958 720.841C795.683 732.595 834.023 732.595 857.593 720.841C881.163 709.087 881.038 690.031 857.313 678.278Z" fill="black"/>
</g>
<path d="M788.845 673.617C787.41 673.894 786.668 678.147 787.579 679.073C788.904 680.419 789.536 677.974 789.709 677.243C789.913 676.387 790.576 673.283 788.845 673.617Z" fill="#7890B8"/>
<path d="M839.393 674.973C837.666 675.885 837.239 680.392 839.054 682.11C840.868 683.828 842.328 680.243 842.143 677.764C841.972 675.487 841.119 674.061 839.393 674.973Z" fill="#7890B8"/>
<path d="M802.598 599.24C802.598 599.24 803.197 606.202 800.417 609.463C800.417 609.463 793.116 609.629 792.056 605.58C790.996 601.532 793.567 594.311 793.567 594.311L802.598 599.24Z" fill="#6F84A9"/>
<path d="M849.061 603.142C849.061 603.142 850.545 609.282 848.758 612.261C846.971 615.24 839.972 614.204 839.307 613.489C838.642 612.775 837.22 605.35 838.95 603.693C840.68 602.036 847.746 602.594 849.061 603.142Z" fill="#6F84A9"/>
<path d="M808.394 521.676C799.794 533.018 786.351 579.264 787.108 595.666C788.271 602.86 801.345 602.4 804.368 602.236C806.348 601.979 822.745 573.182 824.31 538.072C824.634 530.815 808.394 521.676 808.394 521.676Z" fill="#EFF0F2"/>
<path d="M855.664 502.753C856.651 508.004 855.175 524.829 853.929 526.975C852.682 529.121 836.554 538.846 828.505 539.129C820.457 539.412 808.387 523.127 807.811 520.302C807.235 517.478 807.003 499.25 809.118 496.736C811.231 494.222 855.664 502.753 855.664 502.753Z" fill="#7890B8"/>
<path d="M789.321 606.251C792.861 607.078 799.945 607.083 800.976 609.696C802.007 612.308 807.483 626.166 808.216 636.053C809.113 648.171 803.599 667.265 803.211 670.368C802.824 673.47 802.697 678.37 800 679.331C797.302 680.291 791.779 678.873 789.764 677.456C787.749 676.04 788.474 640.542 787.446 631.749C787.145 629.176 784.002 616.329 784.35 613.46C784.698 610.59 789.321 606.251 789.321 606.251Z" fill="#EFF0F2"/>
<path d="M792.624 590.317C792.271 589.705 791.63 589.965 790.937 590.107C787.211 590.876 786.118 595.302 784.431 598.666C782.129 603.259 783.585 613.294 785.227 615.369C786.87 617.444 791.6 613.93 793.411 612.016C795.141 610.188 797.506 598.77 792.624 590.317Z" fill="#7890B8"/>
<path d="M829.637 539.034C827.231 548.696 825.579 588.492 832.98 604.24C839.573 610.25 848.615 605.87 850.494 604.481C852.373 603.093 860.456 580.755 859.476 564.402C858.497 548.049 856.128 531.572 853.929 526.974C851.73 522.377 831.275 532.453 829.637 539.034Z" fill="#EFF0F2"/>
<path d="M837.68 611.935C840.377 611.748 847.137 611.586 848.758 612.261C850.38 612.936 855.972 623.76 857.161 632.913C858.818 645.669 854.188 664.483 854.425 668.572C854.663 672.661 853.505 677.39 851.434 678.117C849.363 678.843 842.049 679.289 840.951 677.295C839.853 675.301 837.06 646.359 837.315 637.628C837.57 628.897 834.55 617.387 834.969 614.738C835.388 612.091 837.68 611.935 837.68 611.935Z" fill="#EFF0F2"/>
<path d="M836.707 596.995C833.501 595.66 831.784 603.128 831.364 606.502C830.943 609.875 833.666 622.912 836.336 624.968C839.006 627.025 842.914 617.476 843.444 613.63C843.975 609.784 841.554 599.013 836.707 596.995Z" fill="#7890B8"/>
<path d="M805.964 443.83C796.056 452.551 788.373 468.809 787.401 493.504C790.316 503.501 794.287 504.705 796.355 504.187C798.424 503.669 804.421 498.159 807.527 480.97C810.634 463.78 805.964 443.83 805.964 443.83Z" fill="#E5E6E8"/>
<path d="M805.964 443.83C808.86 438.532 815.364 437.949 822.748 436.875C830.131 435.801 830.583 427.387 830.538 424.164L845.047 416.928C843.442 422.741 843.017 434.523 846.565 437.48C850.967 441.148 861.539 442.223 864.966 447.132C867.341 450.536 868.505 489.447 862.949 497.762C857.392 506.077 854.505 508.512 849.525 508.93C844.545 509.348 818.564 508.394 807.243 498.754C803.805 495.187 803.352 482.885 804.45 477.249C805.549 471.612 805.964 443.83 805.964 443.83Z" fill="#6F84A9"/>
<path d="M823.067 436.823C827.456 436.492 827.361 443.982 833.894 444.659C840.427 445.336 844.156 438.608 850.826 439.85C855.698 440.757 864.998 442.813 865.78 449.894C866.561 456.974 861.478 491.812 856.942 495.606C852.407 499.4 831.177 493.461 830.376 493.107C829.576 492.754 828.786 486.676 827.349 486.176C825.911 485.676 825.375 491.24 823.33 490.475C821.286 489.711 807.102 486.704 803.093 480.859C800.026 473.132 803.071 447.836 805.964 443.83C808.857 439.824 811.564 436.705 823.067 436.823Z" fill="#EFF0F2"/>
<path d="M864.966 447.132C860.296 445.188 854.194 458.539 856.262 470.059C860.382 482.432 867.49 495.723 869.489 498.783C871.488 501.842 880.39 503.432 881.191 497.262C881.991 491.092 877.837 464.394 872.999 456.21C868.16 448.027 866.899 447.937 864.966 447.132Z" fill="#E5E6E8"/>
<path d="M869.489 498.782C869.489 498.782 869.236 500.36 869.26 500.986C869.284 501.612 871.203 504.053 875.412 504.307C879.621 504.561 881.332 503.824 881.626 502.47C881.919 501.115 882.271 498.094 879.857 498.007C877.443 497.92 869.489 498.782 869.489 498.782Z" fill="#6F84A9"/>
<path d="M870.543 498.229C867.533 497.647 850.034 504.233 840.426 515.835C838.195 519.853 839.138 524.134 842.527 525.234C848.806 526.209 872.505 513.459 879.573 504.108C876.129 500.349 870.543 498.229 870.543 498.229Z" fill="#EFF0F2"/>
<path d="M787.401 493.504C789.73 493.338 796.374 500.807 797.443 502.575C798.511 504.344 796.195 506.476 795.578 507.014C794.961 507.552 785.378 498.955 784.726 498.048C784.075 497.14 786.1 493.597 787.401 493.504Z" fill="#6F84A9"/>
<path d="M785.153 498.412C774.633 507.152 769.724 528.976 769.758 531.398C769.793 533.82 774.339 536.496 776.593 535.176C789.188 524.393 794.987 509.173 795.343 505.207C790.754 497.474 785.153 498.412 785.153 498.412Z" fill="#EFF0F2"/>
<path d="M873.128 494.21C877.268 491.044 883.151 498.266 880.708 502.36C878.266 506.455 872.65 505.67 871.512 502.112C870.374 498.553 870.796 495.994 873.128 494.21Z" fill="#7890B8"/>
<path d="M787.529 490.917C786.506 491.073 783.026 494.797 783.083 498.681C783.14 502.565 787.236 496.94 788.125 495.508C789.014 494.075 788.997 490.693 787.529 490.917Z" fill="#7890B8"/>
<path d="M797.925 501.444C796.896 501.611 794.012 505.672 793.761 507.708C793.511 509.743 795.294 508.939 796.004 508.675C796.713 508.411 798.786 504.994 799.127 504.092C799.467 503.189 799.718 501.154 797.925 501.444Z" fill="#7890B8"/>
<path d="M841.226 514.901C842.297 515.536 844.12 518.394 844.761 519.814C845.401 521.235 845.782 523.673 845.489 524.954C845.489 524.954 844.159 525.278 843.587 525.28C843.014 525.281 839.956 516.794 839.956 516.794C839.956 516.794 840.854 515.336 841.226 514.901Z" fill="#6F84A9"/>
<path d="M825.636 522.903C823.71 522.603 820.85 521.486 820.134 521.535C819.419 521.583 819.131 523.158 821.362 524.052C823.18 524.78 825.585 525.289 826.546 524.824C828.345 523.952 825.636 522.903 825.636 522.903Z" fill="#EFF0F2"/>
<path d="M826.821 526.665C825.873 526.745 822.905 526.487 821.835 525.891C820.765 525.295 819.417 527.134 820.862 528.091C822.306 529.049 826.161 529.374 827.643 528.866C827.777 527.673 826.821 526.665 826.821 526.665Z" fill="#EFF0F2"/>
<path d="M828.681 530.003C827.924 530.149 824.521 529.924 823.56 529.598C822.6 529.272 821.095 530.986 823.044 531.946C824.994 532.906 828.409 532.728 829.481 531.681C830.553 530.633 828.681 530.003 828.681 530.003Z" fill="#EFF0F2"/>
<path d="M831.085 532.631C830.066 533.521 826.866 534.487 826.987 535.34C827.107 536.193 828.549 535.987 829.001 535.881C830.169 535.605 832.172 534.582 832.299 534.254C832.425 533.927 831.085 532.631 831.085 532.631Z" fill="#EFF0F2"/>
<path d="M838.899 516.896C839.076 515.789 835.366 514.278 833.299 514.692C831.232 515.106 827.63 515.949 827.598 517.012C827.567 518.075 828.148 518.633 829.598 518.324C831.048 518.015 833.164 518.143 834.458 518.411C835.752 518.679 838.163 519.92 838.899 516.896Z" fill="#EFF0F2"/>
<path d="M832.083 523.222C832.083 523.222 830.054 525.648 826.171 525.129C825.186 524.558 825.549 522.934 826.115 522.726C826.682 522.517 830.078 521.158 830.846 521.166C831.615 521.174 832.298 522.438 832.083 523.222Z" fill="#EFF0F2"/>
<path d="M831.686 523.762C830.612 524.067 827.175 526.012 826.821 526.665C826.467 527.319 827.141 528.839 827.643 528.866C828.144 528.893 831.715 527.308 832.603 526.189C833.49 525.071 831.686 523.762 831.686 523.762Z" fill="#EFF0F2"/>
<path d="M832.602 526.189C831.309 526.691 828.572 529.719 828.586 530.277C828.6 530.836 828.93 531.645 829.481 531.681C830.032 531.716 833.835 529.628 834.079 528.577C834.322 527.527 833.083 526.003 832.602 526.189Z" fill="#EFF0F2"/>
<path d="M835.695 530.614C835.549 531.553 833.679 533.829 832.299 534.253C831.455 534.154 831.151 533.124 831.085 532.63C831.018 532.136 833.173 530.084 833.706 529.877C834.239 529.671 835.695 530.614 835.695 530.614Z" fill="#EFF0F2"/>
<path d="M840.824 516.717C840.824 516.717 835.434 514.649 830.477 520.558C829.833 523.007 832.57 529.143 834.614 530.691C836.658 532.239 842.644 527.632 844.046 525.389C845.449 523.147 841.675 516.934 840.824 516.717Z" fill="#EFF0F2"/>
<path d="M770.058 529.219C772.151 529.4 776.699 530.897 778.897 533.086C778.897 533.086 778.747 533.643 777.878 534.087C777.008 534.531 769.803 530.789 769.803 530.789L770.058 529.219Z" fill="#6F84A9"/>
<path d="M777.877 534.087C778.598 536.983 774.99 542.397 773.865 542.543C772.74 542.689 766.916 540.547 764.8 537.846C762.683 535.145 767.824 530.968 768.806 530.459C769.789 529.95 777.399 532.165 777.877 534.087Z" fill="#EFF0F2"/>
<path d="M768.358 530.744C764.81 531.111 762.346 533.282 760.87 534.694C759.395 536.107 758.205 538.836 758.129 539.133C758.053 539.429 759.458 540.562 760.266 540.171C761.073 539.78 762.441 538.42 762.632 538.128C762.823 537.836 768.155 536.658 769.343 534.299C770.531 531.94 768.358 530.744 768.358 530.744Z" fill="#EFF0F2"/>
<path d="M764.8 537.846C763.443 539.529 762.167 542.817 762.167 543.256C762.167 543.695 763.4 545.022 764.209 544.545C765.019 544.068 766.899 540.592 767.078 539.326C767.257 538.06 764.8 537.846 764.8 537.846Z" fill="#EFF0F2"/>
<path d="M762.167 543.256C761.224 543.978 760.98 549.634 761.132 550.358C761.283 551.083 762.994 552.084 763.553 550.501C764.111 548.919 764.307 545.299 764.209 544.545C764.112 543.791 762.167 543.256 762.167 543.256Z" fill="#EFF0F2"/>
<path d="M766.979 539.758C766.554 540.355 765.521 544.953 765.609 545.628C765.697 546.303 767.372 546.801 768.02 546.316C768.668 545.831 769.485 540.89 769.419 540.383C769.353 539.877 766.979 539.758 766.979 539.758Z" fill="#EFF0F2"/>
<path d="M769.391 540.893C768.889 541.101 768.69 545.788 768.948 546.447C769.205 547.106 771.178 547.422 771.566 547.172C771.955 546.921 771.786 541.879 771.733 541.685C771.679 541.492 770.457 540.452 769.391 540.893Z" fill="#EFF0F2"/>
<path d="M771.961 541.983C771.961 541.983 772.185 546.69 772.461 547.284C772.737 547.878 774.326 547.557 774.715 547.248C775.104 546.94 775.12 542.217 774.736 541.466C774.353 540.715 771.961 541.983 771.961 541.983Z" fill="#EFF0F2"/>
<path d="M765.671 545.808C765.432 546.252 764.803 551.148 764.988 551.696C765.174 552.244 766.827 552.859 767.517 551.568C768.208 550.276 768.053 546.169 767.894 545.932C767.734 545.695 765.671 545.808 765.671 545.808Z" fill="#EFF0F2"/>
<path d="M768.947 546.447C768.739 547.239 768.473 551.093 768.729 551.775C768.984 552.457 770.464 552.837 770.92 551.948C771.377 551.059 771.668 547.674 771.566 547.172C771.465 546.67 769.043 546.085 768.947 546.447Z" fill="#EFF0F2"/>
<path d="M772.461 547.284C772.365 548.098 772.537 551.76 773.66 551.678C775.285 551.559 774.963 548.275 774.715 547.249C774.467 546.223 772.461 547.284 772.461 547.284Z" fill="#EFF0F2"/>
<path d="M833.495 385.722C843.064 385.394 848.163 394.116 849.04 400.869C850.043 408.597 846.488 420.108 836.941 422.632C825.584 425.633 832.477 406.951 832.196 401.265C831.915 395.579 833.495 385.722 833.495 385.722Z" fill="#7890B8"/>
<path d="M847.535 410.049C848.95 406.648 848.506 403.228 846.543 402.411C844.58 401.593 841.841 403.688 840.425 407.089C839.01 410.49 839.454 413.91 841.417 414.727C843.38 415.545 846.119 413.45 847.535 410.049Z" fill="#EFF0F2"/>
<path d="M843.322 397.072C841.077 404.46 838.024 407.374 838.608 411.876C839.193 416.378 843.349 420.187 840.979 424.844C838.609 429.501 833.451 433.834 828.696 434.222C825.039 434.522 820.37 429.126 817.592 424.333C816.76 422.894 816.095 421.511 815.681 420.349C814.372 417.315 814.5 414.78 813.816 413.038C813.389 411.949 812.525 410.305 811.807 408.231C811.807 408.227 811.804 408.224 811.803 408.22C811.375 406.98 810.999 405.585 810.801 404.063C809.922 397.292 815.65 384.874 826.901 383.412C838.154 381.95 845.566 389.685 843.322 397.072Z" fill="#EFF0F2"/>
<path d="M828.886 415.699C828.987 416.48 827.454 417.036 825.461 416.94C823.468 416.845 821.77 416.135 821.669 415.353C821.568 414.573 823.101 414.017 825.094 414.112C827.087 414.207 828.784 414.919 828.886 415.699Z" fill="#59BFE6"/>
<path opacity="0.27" d="M817.274 414.993C817.292 418.652 817.371 420.76 817.435 422.926C817.453 423.578 817.526 423.999 817.592 424.333C816.76 422.894 816.095 421.511 815.681 420.35C814.372 417.315 814.5 414.781 813.816 413.038C813.389 411.949 812.525 410.306 811.807 408.231C812.535 410.076 817.257 411.339 817.274 414.993Z" fill="#C1C8D6"/>
<path d="M814.252 414.694C815.425 414.952 816.072 414.644 816.242 414.096C816.476 413.344 814.779 412.117 813.008 411.198C813.008 411.198 813.079 413.44 814.252 414.694Z" fill="#59BFE6"/>
<path d="M857.566 690.991C855.185 696.374 849.899 696.156 847.527 698.822C845.154 701.485 840.069 707.7 834.499 709.425C828.93 711.152 822.873 710.397 821.401 708.481C821.401 708.481 821.13 707.483 821.027 705.943C820.848 703.225 821.198 698.821 824.505 695.226C829.686 689.592 832.121 689.22 833.525 687.474C834.583 686.159 837.231 683.71 838.551 680.71C838.981 679.73 839.267 678.689 839.312 677.611C839.492 673.237 852.523 677.279 852.523 677.279C852.273 678.685 852.766 679.97 853.527 681.309C854.725 683.416 856.59 685.656 857.288 688.728C857.451 689.437 857.551 690.188 857.566 690.991Z" fill="#EFF0F2"/>
<path d="M857.566 690.99C855.185 696.374 849.899 696.155 847.526 698.822C845.154 701.485 840.069 707.7 834.499 709.424C828.93 711.152 822.873 710.397 821.4 708.481C821.4 708.481 821.13 707.482 821.027 705.943C826.425 709.114 833.623 706.824 837.794 704.922C841.964 703.021 845.223 698.169 847.498 696.514C849.766 694.864 853.547 694.457 857.288 688.729C857.451 689.436 857.551 690.187 857.566 690.99Z" fill="#6F84A9"/>
<path d="M853.528 681.309C848.041 684.092 841.319 682.192 838.552 680.71C838.982 679.73 839.268 678.689 839.313 677.611C839.493 673.237 852.523 677.279 852.523 677.279C852.273 678.685 852.766 679.97 853.528 681.309Z" fill="#6F84A9"/>
<path d="M851.495 676.165C849.873 677.022 849.472 681.255 851.177 682.869C852.882 684.483 854.253 681.115 854.078 678.787C853.918 676.648 853.117 675.309 851.495 676.165Z" fill="#7890B8"/>
<path d="M806.512 689.569C802.021 696.143 797.044 694.865 794.618 696.784C792.196 698.703 791.369 705.094 783.052 706.926C774.739 708.754 768.996 707.36 767.404 704.147C767.404 704.147 767.277 702.893 767.425 701.122C767.649 698.452 769.293 695.032 772.181 692.524C776.986 688.35 781.993 686.018 783.777 684.93C785.126 684.109 787.154 680.929 788.192 677.977C788.527 677.029 788.76 676.103 788.833 675.288C789.145 671.934 802.69 674.13 802.69 674.13C802.24 675.234 802.404 676.4 802.859 677.63C803.677 679.854 805.444 682.293 806.28 684.973C806.736 686.431 806.913 687.964 806.512 689.569Z" fill="#EFF0F2"/>
<path d="M806.512 689.57C802.021 696.143 797.044 694.865 794.618 696.785C792.196 698.703 791.369 705.095 783.052 706.927C774.739 708.755 768.996 707.361 767.404 704.148C767.404 704.148 767.277 702.893 767.425 701.123C770.034 702.366 776.838 705.168 783.444 703.347C790.049 701.526 792.052 695.941 794.109 694.496C796.168 693.055 802.237 693.777 806.277 684.974C806.277 684.974 806.277 684.974 806.28 684.974C806.736 686.432 806.913 687.965 806.512 689.57Z" fill="#6F84A9"/>
<path d="M802.86 677.631C800.679 679.509 792.334 680.824 788.192 677.977C788.528 677.029 788.76 676.103 788.834 675.288C789.145 671.934 802.691 674.13 802.691 674.13C802.241 675.234 802.405 676.4 802.86 677.631Z" fill="#6F84A9"/>
<path d="M802.52 672.816C800.885 673.457 800.937 678.645 802.216 679.54C804.075 680.841 804.289 677.814 804.334 676.912C804.387 675.856 804.493 672.044 802.52 672.816Z" fill="#7890B8"/>
<path d="M1320.29 215.273C1323.57 217.686 1324.05 221.125 1324.05 221.125C1324.05 221.125 1339.72 216.736 1344.52 211.307C1349.33 205.87 1361.08 181.732 1362.93 177.87C1364.77 174.001 1362.11 170.554 1362.11 170.554C1360.29 169.826 1356.33 168.467 1354.45 172.122C1352.56 175.776 1341.6 200.018 1339.82 202.112C1338.05 204.199 1320.29 215.273 1320.29 215.273Z" fill="#009599"/>
<path d="M1306.71 222.068C1306.81 223.004 1311.09 227.013 1313.18 226.527C1315.28 226.035 1322.48 223.22 1324.05 221.125C1324.05 221.125 1323.57 217.686 1320.29 215.273C1320.29 215.273 1311.3 211.203 1310.47 212.451C1309.63 213.706 1314.44 216.632 1314.44 216.632C1314.44 216.632 1306.6 221.125 1306.71 222.068Z" fill="#FBC3B1"/>
<path d="M1351.76 320.326C1353.21 321.158 1355.04 322.052 1356.89 322.545C1359.41 323.211 1361.19 322.136 1362.18 321.22C1362.16 321.096 1362.16 320.971 1362.14 320.846C1361.7 315.368 1366.54 299.586 1367.3 295.384C1368.06 291.182 1364 286.73 1365.65 279.088C1367.3 271.447 1367.3 250.956 1367.3 250.956C1367.3 250.956 1371.25 274.886 1371.76 280.108C1372.26 285.329 1381.43 325.43 1380.15 329.756C1379.95 330.436 1379.64 331.074 1379.25 331.663C1385.43 334.34 1389.45 332.454 1391.44 330.907C1391.36 330.54 1391.29 330.152 1391.23 329.756C1390.46 324.667 1392.38 300.605 1392.88 294.746C1393.39 288.894 1388.05 281.252 1387.21 277.813C1386.37 274.38 1386.77 258.085 1388.05 250.568C1389.32 243.058 1386.08 236.665 1386.08 236.665L1353.56 230.327C1351.84 235.743 1352.29 278.069 1352.33 282.271C1352.37 286.473 1352.29 314.738 1352.33 318.17C1352.33 319.009 1352.15 319.709 1351.76 320.326Z" fill="#5A1F0C"/>
<path d="M1367.68 346.566C1376.33 348.979 1381.94 343.632 1384.1 341.726C1386.27 339.812 1388.56 342.232 1391.48 339.812C1394.19 337.586 1392.34 335.249 1391.44 330.908C1389.45 332.455 1385.43 334.341 1379.25 331.664C1377.19 334.86 1373.03 336.761 1373.03 336.761C1368.96 340.45 1359.03 344.146 1367.68 346.566Z" fill="#AD892E"/>
<path d="M1335.23 333.196C1340.83 334.722 1346.93 330.52 1349.74 330.27C1352.54 330.013 1357.88 331.539 1360.56 329.882C1363.16 328.273 1362.62 326.407 1362.18 321.221C1361.19 322.136 1359.41 323.211 1356.89 322.545C1355.04 322.053 1353.21 321.158 1351.76 320.326C1350.58 322.261 1347.58 323.433 1343.25 325.555C1337.52 328.356 1329.63 331.664 1335.23 333.196Z" fill="#AD892E"/>
<path d="M1385.48 232.753L1386.04 236.701C1386.04 236.701 1375.87 240.971 1362.69 236.201C1362.69 236.201 1357.37 234.179 1353.52 230.362L1353.91 226.525L1385.48 232.753Z" fill="#2A130E"/>
<path d="M1362.11 232.492C1362.11 232.492 1362.03 235.872 1361.09 235.837C1360.16 235.803 1357.2 234.053 1357.09 233.608C1356.98 233.164 1356.71 229.882 1357.27 229.882C1357.82 229.882 1361.69 232.002 1362.11 232.492Z" fill="#EAEAEA"/>
<path d="M1328.37 229.294C1328.78 230.105 1335.81 227.193 1335.81 227.193C1335.81 227.193 1339.77 231.478 1342.35 230.75C1344.94 230.022 1349.06 226.707 1349.06 226.707C1349.2 223.074 1346.07 220.973 1346.07 220.973C1346.07 220.973 1337.99 220.244 1334.92 222.748C1331.85 225.258 1327.97 228.49 1328.37 229.294Z" fill="#FBC3B1"/>
<path d="M1374.31 167.607C1371.63 166.444 1358.51 168.631 1357.98 169.417C1357.45 170.203 1352.5 175.216 1352.32 181.763C1352.14 188.31 1352.73 191.495 1352.91 200.342C1353.09 209.189 1351.97 224.407 1352.56 225.94C1353.15 227.474 1365.23 237.382 1376.97 235.436C1388.7 233.49 1387.29 233.666 1387.17 231.425C1387.05 229.184 1386.22 208.54 1387.58 204.883C1388.94 201.227 1394.13 186.54 1391.53 182.235C1388.94 177.929 1383.98 171.795 1374.31 167.607Z" fill="#01777A"/>
<path d="M1346.08 220.974C1346.08 220.974 1349.2 223.075 1349.06 226.708C1349.06 226.708 1368.17 221.618 1373 217.895C1377.84 214.178 1388.47 199.464 1392.25 192.835C1396.02 186.206 1391.92 183.127 1391.92 183.127C1388.91 181.352 1385.6 182.246 1383.58 185.318C1381.55 188.39 1370 205.851 1367.33 208.52C1364.67 211.189 1346.08 220.974 1346.08 220.974Z" fill="#009599"/>
<path d="M1368.99 146.72C1363.57 148.384 1361.37 149.205 1360.37 153.678C1359.38 158.151 1361.04 169.417 1364.68 169.417C1368.32 169.417 1374.12 167.594 1375.28 158.813C1376.44 150.033 1372.33 145.692 1368.99 146.72Z" fill="#FBC3B1"/>
<path d="M1377.78 162.406L1377.94 169.205C1377.94 169.205 1375.55 173.904 1370.29 173.553C1370.29 173.553 1367.49 172.957 1367.17 169.8L1366.72 162.611L1366.02 153.247L1378.99 154.72L1377.78 162.406Z" fill="#FBC3B1"/>
<path d="M1374.2 157.994C1374.2 157.994 1370.66 156.523 1370.16 152.387C1370.16 152.387 1359.18 151.238 1358.99 148.113C1358.81 144.988 1369.79 139.427 1374.66 140.668C1379.53 141.908 1383.71 147.148 1381.41 156.568C1381.41 156.568 1380.68 159.923 1377.78 162.405C1377.78 162.405 1375.76 161.488 1374.2 157.994Z" fill="#A95D26"/>
<path d="M1376.99 156.005C1376.71 154.788 1374.8 155.748 1373 158.312L1373.57 160.448C1373.57 160.448 1377.9 159.907 1376.99 156.005Z" fill="#FBC3B1"/>
<path opacity="0.1" d="M1411.42 924.694C1430.22 924.694 1445.46 919.253 1445.46 912.54C1445.46 905.828 1430.22 900.387 1411.42 900.387C1392.61 900.387 1377.37 905.828 1377.37 912.54C1377.37 919.253 1392.61 924.694 1411.42 924.694Z" fill="black"/>
<path d="M1410.38 711.43C1406.07 712.339 1401.82 712.443 1401.54 718.522C1401.27 724.601 1402.1 737.496 1408.08 734.364C1414.07 731.233 1419.22 727.437 1419.5 720.539C1419.78 713.641 1414.75 710.509 1410.38 711.43Z" fill="#FBC3B1"/>
<path d="M1410.01 742.759L1406.35 730.387L1417.51 727.014L1420.26 742.759H1410.01Z" fill="#FBC3B1"/>
<path d="M1422.18 738.394C1423.92 737.016 1429.88 742.941 1431.71 746.614C1433.55 750.287 1440.54 761.129 1439.75 769.436C1438.97 777.743 1423.49 782.378 1423.49 782.378L1419.12 774.421L1422.18 738.394Z" fill="#C667A8"/>
<path d="M1395.74 912.33C1399.16 910.578 1403 907.434 1404.05 905.1L1405.45 912.094H1408.02L1409.76 901.949C1409.76 901.949 1412.91 898.57 1409.76 892.518V892.511C1409.76 892.511 1408.02 879.215 1410.11 871.522C1412.21 863.828 1415.24 854.618 1411.86 847.388L1412.56 836.544L1400.68 842.492C1400.79 842.846 1401.23 849.819 1401.34 850.518C1401.46 851.217 1401.96 888.66 1401.25 891.922C1400.89 893.619 1398.99 897.767 1396.91 901.506C1394.99 904.969 1392.93 908.092 1391.81 908.597C1389.48 909.643 1392.32 914.075 1395.74 912.33Z" fill="#FBC3B1"/>
<path d="M1411.16 906.617C1416.14 905.426 1421.19 897.372 1421.19 897.372L1422.28 906.617H1424.07L1426.06 894.492C1428.35 889.519 1425.76 885.939 1425.76 885.939C1425.27 881.168 1425.76 860.892 1426.56 854.728C1427.35 848.565 1423.68 842.894 1423.68 842.894V833.85L1412.84 832.756C1412.84 832.756 1413.24 843.296 1413.83 847.367C1414.42 851.446 1418.27 888.058 1418.27 888.058C1417.4 891.659 1414.12 895.911 1411.17 899.193C1408.74 901.894 1406.54 903.937 1406.09 904.429C1405.09 905.523 1406.18 907.808 1411.16 906.617Z" fill="#FBC3B1"/>
<path d="M1411.16 906.616C1416.14 905.425 1421.19 897.371 1421.19 897.371C1421.19 897.371 1422.12 895.439 1426.06 894.49C1428.35 889.518 1425.76 885.938 1425.76 885.938C1425.76 885.938 1423.48 885.481 1422.17 887.247C1420.86 889.02 1416.68 898.264 1413.37 898.894C1412.69 899.026 1411.93 899.123 1411.17 899.192C1408.74 901.893 1406.53 903.936 1406.08 904.427C1405.09 905.523 1406.18 907.807 1411.16 906.616Z" fill="#2C53A5"/>
<path d="M1421.19 897.373L1422.28 906.617H1424.07L1426.06 894.492C1422.12 895.44 1421.19 897.373 1421.19 897.373Z" fill="#234180"/>
<path d="M1395.74 912.33C1399.16 910.578 1403 907.434 1404.05 905.1L1405.45 912.094H1408.02L1409.76 901.949C1409.76 901.949 1412.91 898.57 1409.76 892.518C1408.24 892.836 1405.95 893.529 1405.03 895.294C1403.83 897.6 1401.73 902.15 1398.85 902.15C1398.17 902.15 1397.51 901.894 1396.91 901.506C1394.99 904.968 1392.93 908.092 1391.81 908.597C1389.48 909.643 1392.32 914.075 1395.74 912.33Z" fill="#2C53A5"/>
<path d="M1404.05 905.1L1405.45 912.094H1408.02L1409.76 901.949C1409.76 901.949 1406.16 902.323 1404.05 905.1Z" fill="#234180"/>
<path d="M1429.66 780.584C1429.66 780.584 1433.52 788.871 1431.16 795.773C1428.81 802.675 1423.24 824.727 1424.59 836.511C1424.59 836.511 1416.56 844.928 1400.47 844.255C1400.47 844.255 1389.17 808.955 1401.5 789.822L1429.66 780.584Z" fill="#173760"/>
<path d="M1414.58 737.867C1410.57 739.396 1398.74 746.766 1396.96 749.224C1395.18 751.682 1398.4 761.768 1399.58 767.108C1400.77 772.447 1402.05 787.619 1401.5 789.822C1400.94 792.026 1413.48 793.806 1421.19 788.212C1428.9 782.618 1429.66 780.584 1429.66 780.584C1429.66 780.584 1430.51 767.023 1429.07 753.208C1427.63 739.392 1425.26 733.799 1414.58 737.867Z" fill="#B1519F"/>
<path d="M1394.48 758.944C1395.08 762.005 1399.37 777.129 1398.32 783.25C1397.97 785.258 1397.04 788.361 1395.93 791.726C1399.98 793.714 1402.84 794.302 1404.65 794.413C1405.95 791.283 1406.92 787.772 1407.06 784.04C1407.5 772.496 1405.31 759.29 1403.39 754.831C1401.47 750.378 1399.14 748.633 1396.63 749.942C1394.36 751.125 1393.86 755.883 1394.48 758.944Z" fill="#C667A8"/>
<path d="M1394.51 821.461C1397.45 821.552 1398.05 819.363 1397.45 815.34C1396.84 811.323 1395.96 810.707 1397.09 807.826C1397.87 805.873 1401.95 800.964 1404.65 794.413C1402.84 794.302 1399.98 793.713 1395.93 791.726C1393.66 798.63 1390.65 806.614 1390.54 808.435C1390.36 811.143 1391.58 821.378 1394.51 821.461Z" fill="#FBC3B1"/>
<path d="M1400.5 714.639C1400.23 716.755 1401.58 721.296 1403.69 723.913C1405.79 726.53 1408.41 736.146 1406.53 739.958C1406.53 739.958 1410.51 735.178 1411.25 729.204C1411.25 729.204 1410.34 741.835 1415.58 741.835C1420.81 741.835 1425.47 739.73 1424.45 734.04C1423.43 728.351 1420.07 726.587 1420.07 726.587C1420.07 726.587 1427.12 721.808 1422.52 712.192C1417.91 702.577 1401.47 707.015 1400.5 714.639Z" fill="#52260F"/>
<path opacity="0.1" d="M1444.03 649.792C1462.86 649.792 1478.12 644.344 1478.12 637.622C1478.12 630.901 1462.86 625.452 1444.03 625.452C1425.2 625.452 1409.94 630.901 1409.94 637.622C1409.94 644.344 1425.2 649.792 1444.03 649.792Z" fill="black"/>
<path d="M1425.75 633.102C1431.2 633.705 1431.65 630.072 1435.9 630.828C1440.13 631.591 1442.55 631.133 1443.76 629.31C1444.34 628.435 1443.89 625.614 1443.2 622.444C1442.45 618.977 1441.43 615.108 1441.19 612.965C1440.73 608.881 1441.95 600.095 1441.8 595.859C1441.64 591.622 1438.92 584.202 1438.92 584.202L1439.98 563.316C1439.98 563.316 1442.7 582.233 1443.45 586.532C1444.2 590.831 1450.88 623.11 1451.94 627.804C1452.03 628.206 1452.08 628.608 1452.09 629.004C1452.19 633.165 1448 636.701 1444.83 641.125C1441.35 645.972 1445.58 647.636 1445.58 647.636C1453.3 648.995 1455.12 643.698 1456.26 641.728C1457.4 639.766 1461.48 638.247 1463.74 636.132C1466.02 634.01 1464.65 630.98 1463.74 626.438C1463.7 626.223 1463.66 625.987 1463.62 625.724C1462.75 620.329 1461.95 604.533 1462.38 599.339C1462.83 593.889 1458.13 584.202 1458.13 584.202C1458.13 584.202 1459.05 582.836 1459.89 564.821C1460.72 546.806 1456.26 530.497 1456.26 530.497C1433.19 538.103 1424.35 527.425 1424.35 527.425C1424.35 527.425 1423.63 527.126 1421.21 538.207C1418.79 549.288 1428.48 585.561 1428.48 585.561C1429.69 592.676 1432.87 622.507 1432.87 622.507C1432.84 622.742 1432.76 622.978 1432.64 623.214C1430.86 626.563 1420.06 629.545 1418.79 630.682C1417.43 631.889 1420.31 632.499 1425.75 633.102Z" fill="#17134B"/>
<path d="M1425.75 633.102C1431.2 633.705 1431.65 630.072 1435.9 630.828C1440.13 631.591 1442.55 631.133 1443.76 629.309C1444.34 628.435 1443.89 625.614 1443.2 622.444C1440.96 623.228 1437.27 624.012 1432.64 623.214C1430.86 626.563 1420.06 629.545 1418.79 630.682C1417.43 631.889 1420.31 632.499 1425.75 633.102Z" fill="#812A19"/>
<path d="M1445.58 647.636C1453.3 648.995 1455.12 643.697 1456.26 641.728C1457.4 639.765 1461.48 638.247 1463.74 636.132C1466.02 634.01 1464.65 630.98 1463.74 626.438C1463.7 626.223 1463.66 625.987 1463.62 625.724C1462.43 627.728 1460.32 629.926 1456.78 630.05C1454.88 630.12 1453.33 629.676 1452.09 629.004C1452.19 633.164 1448 636.701 1444.82 641.125C1441.34 645.972 1445.58 647.636 1445.58 647.636Z" fill="#812A19"/>
<path d="M1409.22 507.726C1412.67 509.729 1415.58 510.597 1417.6 510.971C1421.23 503.801 1427.99 490.085 1429.1 485.183C1430.63 478.429 1429.82 473.887 1422.95 472.972C1422.95 472.972 1419.32 475.912 1417.37 480.939C1415.83 484.919 1411.11 501.131 1409.22 507.726Z" fill="#F89B4C"/>
<path d="M1377.46 538.208C1377.87 539.131 1383.2 543.936 1388.4 541.079C1393.6 538.215 1411.79 523.397 1415.29 515.471C1415.29 515.471 1416.22 513.696 1417.6 510.971C1415.58 510.596 1412.67 509.73 1409.22 507.726C1408.72 509.466 1408.41 510.534 1408.41 510.534C1408.41 510.534 1403.47 513.779 1401 517.163C1398.53 520.54 1395.54 527.169 1392.29 527.953C1389.05 528.729 1382.81 526.392 1382.03 527.953C1381.25 529.506 1386.45 531.198 1386.45 531.198C1386.45 531.198 1377.04 537.286 1377.46 538.208Z" fill="#FBC3B1"/>
<path d="M1442.62 468.385C1437.67 466.767 1423.87 471.565 1422.95 472.971C1422.02 474.377 1419.4 481.513 1420.33 490.139C1421.25 498.765 1423.46 505.389 1423.2 513.398C1422.95 521.408 1422.12 529.264 1422.12 529.264C1422.12 529.264 1426.56 537.202 1440.44 536.383C1451.99 535.701 1456.26 530.496 1456.26 530.496C1456.26 530.496 1455.8 508.469 1458.06 497.071C1460.31 485.672 1462.39 482.607 1458.8 479.373C1455.2 476.138 1450.42 470.935 1442.62 468.385Z" fill="#F7933D"/>
<path d="M1449.35 494.335C1450.5 500.486 1457.61 511.823 1458.41 515.152C1462.65 513.668 1467.08 513.238 1470.49 513.189C1469.79 501.054 1462.11 481.153 1460.11 480.952C1456.21 480.564 1448.15 487.928 1449.35 494.335Z" fill="#F89B4C"/>
<path d="M1450.54 540.83C1450.54 540.83 1451.06 544.928 1456.44 546.044C1456.44 546.044 1470.97 525.955 1470.54 513.911C1470.53 513.675 1470.52 513.432 1470.5 513.189C1467.08 513.238 1462.65 513.668 1458.41 515.152C1458.45 515.29 1458.47 515.422 1458.49 515.533L1450.54 540.83Z" fill="#FBC3B1"/>
<path d="M1448.36 444.194C1446.99 441.346 1441.3 441.397 1438.21 442.378C1435.11 443.36 1431.83 443.605 1429.57 443.115C1427.31 442.624 1425.15 445.59 1426.62 448.731C1428.09 451.872 1429.77 453.569 1432.56 452.882C1435.36 452.195 1437.32 465.3 1441.1 465.3C1444.88 465.3 1450.32 463.337 1450.32 456.367C1450.33 449.397 1449.05 445.618 1448.36 444.194Z" fill="#3A3A3A"/>
<path d="M1438.14 447.846C1432.54 447.846 1429.91 449.467 1429.34 453.697C1428.76 457.928 1428.99 469.933 1432.77 472.906C1432.77 472.906 1443.17 474.278 1445 464.445C1446.82 454.612 1446.14 448.308 1437.57 447.687L1438.14 447.846Z" fill="#FBC3B1"/>
<path d="M1444.02 460.088C1444.02 460.088 1442.57 460.238 1442.33 457.321C1442.08 454.404 1440.86 452.882 1437.03 453.422C1433.2 453.962 1430.55 453.667 1428.64 451.753C1426.72 449.839 1428.15 445.913 1433.99 445.667C1439.82 445.422 1445.61 446.354 1446.99 451.557C1448.36 456.76 1448.33 459.002 1446.46 460.089C1444.58 461.177 1444.02 460.088 1444.02 460.088Z" fill="#3A3A3A"/>
<path d="M1445.29 462.739L1446.76 470.115C1446.76 470.115 1445.74 476.533 1439.17 476.533C1439.17 476.533 1435.57 476.019 1435.57 473.504L1434.5 466.521L1445.29 462.739Z" fill="#FBC3B1"/>
<path d="M1444.02 460.088C1444.02 460.088 1446.8 455.886 1448.46 457.839C1450.11 459.792 1446.68 463.107 1444.26 462.811L1444.02 460.088Z" fill="#FBC3B1"/>
<path opacity="0.1" d="M417.281 646.616C436.083 646.616 451.326 641.175 451.326 634.462C451.326 627.75 436.083 622.309 417.281 622.309C398.478 622.309 383.235 627.75 383.235 634.462C383.235 641.175 398.478 646.616 417.281 646.616Z" fill="black"/>
<path d="M428.158 629.351C427.964 631.248 426.904 631.436 423.687 630.476C420.464 629.524 402.097 624.684 401.78 619.57C401.456 614.463 405.299 612.948 405.299 612.948C405.299 612.948 408.357 617.623 413.887 617.716C414.688 619.31 428.346 627.447 428.158 629.351Z" fill="#073C5C"/>
<path d="M441.102 541.582C440.468 554.356 437.439 570.11 436.321 575.541C435.586 579.133 425.649 595.738 419.253 607.019C419.246 607.019 419.246 607.019 419.246 607.019C416.167 606.644 412.063 605.699 408.494 603.399C411.984 593.156 417.385 577.85 419.729 574.113C423.342 568.365 427.012 566.929 427.012 566.929L420.767 520.548L437.252 513.833C437.252 513.833 441.744 528.807 441.102 541.582Z" fill="#063F61"/>
<path d="M413.888 617.717C408.357 617.623 405.299 612.948 405.299 612.948C405.299 612.948 406.619 608.902 408.494 603.398C412.063 605.699 416.167 606.644 419.246 607.019C415.972 612.79 413.613 617.175 413.888 617.717Z" fill="#FBC3B1"/>
<path d="M426.031 640.041C430.242 645.804 423.687 648.61 423.687 648.61C417.443 649.389 415.597 644.246 414.349 642.067C413.101 639.882 409.517 637.235 408.27 635.208C407.022 633.181 407.65 630.375 409.517 626.639C409.517 626.639 412.467 632.402 418.408 630.159C419.599 633.967 422.483 635.172 426.031 640.041Z" fill="#073C5C"/>
<path d="M407.65 544.813C404.066 528.136 408.688 518.319 408.688 518.319L428.944 519.214C429.838 524.631 430.415 537.384 430.415 537.384C430.415 537.384 427.278 571.307 426.658 579.876C426.211 586 421.639 604.747 419.281 617.125C417.392 617.29 414.226 617.356 410.671 616.584C410.974 607.668 410.606 595.918 410.318 593.286C409.871 589.232 414.349 576.45 414.349 576.45C414.349 576.45 411.234 561.49 407.65 544.813Z" fill="#004E78"/>
<path d="M417.933 627.728C418.026 628.651 418.192 629.452 418.409 630.159C412.467 632.402 409.517 626.639 409.517 626.639C410.173 625.334 410.52 621.366 410.671 616.584C414.226 617.356 417.392 617.291 419.281 617.125C418.337 622.095 417.753 626.033 417.933 627.728Z" fill="#FBC3B1"/>
<path d="M448.32 501.303C446.049 503.316 444.693 505.789 443.921 507.672C440.561 505.696 437.641 503.763 436.79 502.573C434.461 499.334 429.081 483.213 427.928 478.509C426.781 473.814 430.415 470.77 430.415 470.77C433.625 470.142 436.134 471.917 437.18 475.581C438.225 479.245 439.812 491.832 442.826 495.597C443.85 496.874 445.919 499.024 448.32 501.303Z" fill="#CC2468"/>
<path d="M473.574 515.859C473.054 517.013 470.228 521.197 467.091 520.461C463.954 519.732 458.827 516.695 456.844 514.604C456.844 514.604 449.726 511.076 443.921 507.672C444.693 505.789 446.049 503.315 448.32 501.303C452.986 505.731 458.921 510.665 460.918 510.738C463.954 510.839 469.5 508.011 469.809 509.374C470.126 510.738 466.362 512.62 466.362 512.62C466.362 512.62 474.1 514.712 473.574 515.859Z" fill="#FBC3B1"/>
<path d="M409.078 446.393C408.009 447.084 404.742 447.461 405.496 454.25C406.25 461.039 410.021 459.89 410.021 459.89C410.021 459.89 406.376 467.2 416.305 469.022L427.931 455.884L423.281 450.735L417.499 446.895L412.911 446.769L409.078 446.393Z" fill="#F99F1B"/>
<path d="M417.763 442.367C422.546 441.437 429.587 443.563 430.251 451.137C430.915 458.712 429.454 462.964 427.727 463.363C425.999 463.762 416.833 464.559 413.511 452.865C410.19 441.17 417.763 442.367 417.763 442.367Z" fill="#FBC3B1"/>
<path d="M426 459.11C426 459.11 423.874 465.489 424.538 471.336C424.538 471.336 416.966 473.806 413.645 469.819L416.302 452.854L426 459.11Z" fill="#FBC3B1"/>
<path d="M407.57 447.902C407.444 444.822 407.884 437.215 416.808 438.912C416.808 438.912 418.056 435.078 423.685 436.901C429.313 438.723 432.144 444.192 430.415 447.147C428.685 450.102 422.883 447.147 421.542 446.078C421.542 446.078 421.235 451.487 417.373 452.176C417.373 452.176 418.127 458.336 413.917 458.65L413.645 465.062L409.078 452.854L407.57 447.902Z" fill="#F99F1B"/>
<path d="M437.179 497.271C436.256 501.62 437.251 513.832 437.251 513.832C437.251 513.832 425.108 526.498 408.688 518.318C408.688 518.318 412.51 503.604 410.138 499.514C407.766 495.424 403.208 490.476 401.694 486.912C400.179 483.349 398.261 479.713 400.641 477.737C402.011 476.59 405.941 473.568 409.993 471.007C412.236 474.815 418.351 483.457 426.658 481.401C434.273 479.511 429.406 471.115 426.067 466.542C429.254 466.585 432.153 466.874 432.629 467.379C433.552 468.367 442.393 478.992 441.996 482.887C441.6 486.775 438.11 492.914 437.179 497.271Z" fill="#B01E5A"/>
<path d="M426.658 481.402C418.351 483.458 412.236 474.817 409.994 471.009C412.943 469.147 415.957 467.525 418.099 467.049C419.837 466.667 423.082 466.5 426.067 466.544C429.406 471.117 434.273 479.513 426.658 481.402Z" fill="#FBC3B1"/>
<path d="M404.117 495.215C400.396 501.44 397.114 505.675 397.98 507.233C398.348 507.903 400.035 511.524 402.177 515.643C398.643 516.501 396.264 518.47 394.822 520.122C391.389 515.845 388.598 511.639 388.468 509.137C388.122 502.479 396.199 485.839 398.189 481.085C400.179 476.332 402.126 478.525 404.117 479.996C406.186 481.532 407.83 488.99 404.117 495.215Z" fill="#CC2468"/>
<path d="M419.065 536.806C417.947 537.664 410.6 538.011 408.003 534.555C408.003 534.555 400.525 527.241 394.822 520.122C396.264 518.47 398.643 516.501 402.177 515.643C405.011 521.103 408.638 527.422 411.047 528.85C411.047 528.85 418.467 528.158 419.066 530.062C419.671 531.959 420.19 535.941 419.065 536.806Z" fill="#FBC3B1"/>
<path opacity="0.1" d="M225.683 913.822C244.511 913.822 259.775 908.373 259.775 901.652C259.775 894.93 244.511 889.481 225.683 889.481C206.855 889.481 191.592 894.93 191.592 901.652C191.592 908.373 206.855 913.822 225.683 913.822Z" fill="black"/>
<path d="M193.03 773.438C191.254 776.37 194.424 792.774 194.705 794.189C192.351 795.266 189.601 795.786 187.449 796.031C187.124 793.857 184.17 774.052 184.091 770.759C184.011 767.27 196.164 748.325 197.536 746.555C198.908 744.779 201.125 744.779 202.685 746.555C204.454 748.563 206.548 753.077 205.667 755.41C204.778 757.743 194.879 770.383 193.03 773.438Z" fill="#4F88C7"/>
<path d="M198.099 802.908C196.973 803.471 195.037 800.091 195.037 800.091C195.037 800.091 195.037 807.415 193.391 808.303C191.737 809.184 188.199 808.787 186.343 807.74C184.495 806.692 187.477 796.226 187.477 796.226C187.477 796.226 187.47 796.162 187.448 796.031C189.6 795.786 192.351 795.266 194.705 794.189C194.712 794.254 194.72 794.291 194.72 794.291C196.727 796.544 199.226 802.344 198.099 802.908Z" fill="#FBC3B1"/>
<path d="M218.138 711.616C221.956 713.023 228.252 711.951 224.702 728.902C224.702 728.902 223.161 736.137 221.487 736.405C219.812 736.673 215.526 735.467 213.047 731.917C210.57 728.366 218.138 711.616 218.138 711.616Z" fill="#FBC3B1"/>
<path d="M215.885 742.835C215.885 742.835 216.955 735.98 219.697 734.566L208.475 730.41L207.061 740.436L215.885 742.835Z" fill="#FBC3B1"/>
<path d="M210.468 739.635C214.627 740.316 223.02 743.341 226.65 746.593C230.279 749.846 232.548 756.426 231.111 763.309C229.674 770.192 228.691 777.302 230.204 781.916C231.716 786.53 233.228 792.505 233.228 792.505C233.228 792.505 213.87 799.463 202.906 789.933C202.906 789.933 204.948 779.344 202.906 772.007C200.865 764.671 195.798 754.762 198.143 746.442C200.487 738.122 210.468 739.635 210.468 739.635Z" fill="#3C77BC"/>
<path d="M261.578 782.64C259.946 786.981 258.032 788.57 258.032 788.57C258.032 788.57 240.637 780.784 236.63 777.302C232.622 773.821 224.838 760.206 222.947 757.411C221.054 754.609 222.181 749.986 223.473 748.866C226.102 746.584 226.759 745.897 230.297 750.939C233.835 755.973 238.825 767.696 242.984 770.57C247.143 773.445 261.281 782.597 261.281 782.597C261.281 782.597 261.39 782.611 261.578 782.64Z" fill="#4F88C7"/>
<path d="M268.77 794.319C268.084 796.132 262.942 798.934 262.567 797.721C262.192 796.515 263.78 794.623 263.78 794.623C263.78 794.623 258.935 791.748 258.032 788.57C258.032 788.57 259.946 786.981 261.578 782.64C262.849 782.871 267.846 783.853 268.77 785.695C269.824 787.818 269.448 792.506 268.77 794.319Z" fill="#FBC3B1"/>
<path d="M243.164 881.983C239.72 883.825 236.673 884.345 234.492 884.41C234.218 880.373 234.088 876.053 233.229 873.944C231.568 869.864 227.091 865.609 224.961 860.459C222.831 855.316 225.748 844.136 225.748 844.136C225.748 844.136 212.187 825.334 205.096 812.557C197.998 799.78 202.909 789.936 202.909 789.936L222.838 791.705C222.838 791.705 234.716 836.689 235.424 840.705C236.132 844.721 240.746 876.602 243.049 881.752C243.085 881.831 243.121 881.911 243.164 881.983Z" fill="#66481C"/>
<path d="M259.549 887.782C258.126 890.975 250.147 889.913 247.663 892.116C245.179 894.319 238.796 895.59 236.312 892.99C235.604 892.253 235.185 890.729 234.911 888.83C242.01 889.501 244.991 886.316 246.06 884.597C249.18 885.81 253.447 884.662 255.469 884.409C258.306 884.055 260.964 884.59 259.549 887.782Z" fill="#4C3718"/>
<path d="M246.06 884.597C244.991 886.316 242.009 889.501 234.911 888.83C234.716 887.494 234.593 885.969 234.492 884.41C236.673 884.345 239.72 883.824 243.164 881.982C243.829 883.326 244.861 884.135 246.06 884.597Z" fill="#FBC3B1"/>
<path d="M209.284 911.28C209.436 912.97 201.638 915.122 198.381 912.818C195.124 910.507 183.896 897.029 185.737 893.764C187.586 890.499 190.2 890.037 190.2 890.037C192.157 895.274 196.822 898.004 199.738 899.246C200.648 903.363 202.244 907.329 203.587 908.203C206.201 909.893 209.125 909.582 209.284 911.28Z" fill="#4C3718"/>
<path d="M222.823 846.324C209.588 871.871 202.049 886.339 199.738 889.726C199.594 889.943 199.471 890.195 199.377 890.492C196.142 887.617 192.972 885.703 192.972 885.703C192.972 885.703 196.972 863.103 203.284 854.017C209.588 844.938 212.548 843.247 212.548 843.247C212.548 843.247 206.822 809.228 208.822 799.997C210.822 790.759 212.548 790.918 212.548 790.918L233.228 792.507C233.228 792.507 236.059 820.77 222.823 846.324Z" fill="#805A24"/>
<path d="M199.738 899.246C196.822 898.003 192.156 895.273 190.2 890.037L192.973 885.703C192.973 885.703 196.143 887.617 199.378 890.492C198.699 892.42 198.995 895.88 199.738 899.246Z" fill="#FBC3B1"/>
<path d="M226.708 718.718C225.084 723.796 221.09 723.03 221.199 726.482C221.307 729.935 218.058 734.515 212.165 735.273C212.165 735.273 207.703 759.787 212.158 770.751C211.725 770.369 193.832 754.095 205.06 731.387L205.262 728.714C205.262 728.714 201.002 718.97 205.06 712.268C209.125 705.565 216.433 708.411 216.433 708.411C223.74 711.249 228.333 713.64 226.708 718.718Z" fill="#87574E"/>
<path d="M213.754 733.33L212.165 735.273C209.811 731.684 205.06 731.387 205.06 731.387L205.262 728.715C212.187 729.798 213.754 733.33 213.754 733.33Z" fill="#50332E"/>
<path opacity="0.1" d="M936.724 1037.24C955.552 1037.24 970.816 1031.79 970.816 1025.07C970.816 1018.35 955.552 1012.9 936.724 1012.9C917.896 1012.9 902.633 1018.35 902.633 1025.07C902.633 1031.79 917.896 1037.24 936.724 1037.24Z" fill="black"/>
<path d="M910.424 1006.15C912.532 1009.2 916.431 1011.01 919.363 1011.99C919.363 1011.98 919.37 1011.97 919.37 1011.96C921.377 1005.24 924.995 1002.8 928.345 996.28C931.602 989.931 929.659 981.82 929.565 981.408C929.63 981.582 930.692 982.889 944.686 962.398C959.373 940.888 955.098 923.069 955.098 923.069L919.536 930.458C919.536 930.458 916.748 970.913 915.319 975.818C913.904 980.643 914.229 1004.94 910.424 1006.15Z" fill="#004A73"/>
<path d="M902.206 1014.4C905.773 1015.25 907.557 1022.25 914.243 1023C920.923 1023.75 917.37 1018.7 919.363 1011.99C916.431 1011.01 912.532 1009.2 910.424 1006.15C910.359 1006.17 910.294 1006.18 910.229 1006.19C906.221 1006.63 896.184 998.389 892.393 1003.03C888.603 1007.66 898.639 1013.55 902.206 1014.4Z" fill="#03263A"/>
<path d="M919.536 930.459C919.536 930.459 930.172 972.055 932.093 979.336C934.013 986.609 951.452 1013.1 958.377 1020.52L968.19 1015.57C968.19 1015.57 960.774 995.255 955.972 990.452C951.17 985.649 948.65 985.659 947.097 981.679C945.545 977.699 951.127 945.425 947.098 935.948L944.758 930.178L919.536 930.459Z" fill="#005888"/>
<path d="M951.308 1036.44C956.247 1034.52 973.541 1028.62 972.992 1022.85C972.443 1017.08 968.19 1015.57 968.19 1015.57L958.377 1020.52C958.377 1020.52 952.5 1029.03 947.099 1032.18C941.697 1035.34 946.369 1038.37 951.308 1036.44Z" fill="#03263A"/>
<path d="M947.798 877.191C949.509 880.506 956.932 899.011 958.42 902.557C959.907 906.097 961.272 931.348 961.164 933.861C961.157 934.02 961.128 934.179 961.084 934.338C964.976 933.76 969.157 935.573 969.157 935.573C969.157 935.573 969.157 902.557 968.356 898.556C967.554 894.555 958.999 872.438 957.519 868.321C956.032 864.211 952.789 864.225 949.98 865.468C945.865 867.273 946.087 873.875 947.798 877.191Z" fill="#D164A6"/>
<path d="M958.991 943.344C959.677 945.172 964.355 949.513 967.67 946.197C970.985 942.882 969.157 935.573 969.157 935.573C969.157 935.573 964.976 933.76 961.084 934.337C961.07 934.402 961.056 934.467 961.027 934.532C960.268 936.692 956.571 938.267 956.362 940.029C956.139 941.972 958.991 943.344 958.991 943.344Z" fill="#FBC3B1"/>
<path d="M961.027 934.533C961.055 934.468 961.07 934.403 961.084 934.338C957.193 934.908 961.027 934.533 961.027 934.533Z" fill="#FBC3B1"/>
<path d="M928.315 834.305C922.503 834.637 919.537 834.305 919.631 844.232C919.682 849.585 920.66 859.272 923.151 859.77C925.642 860.268 932.812 861.821 935.205 858.719C937.599 855.617 937.433 843.972 936.27 840.16C935.108 836.348 928.315 834.305 928.315 834.305Z" fill="#FBC3B1"/>
<path d="M940.334 854.372L941.7 864.58C941.7 864.58 934.943 868.378 928.315 865.371V854.372H940.334Z" fill="#FBC3B1"/>
<path d="M938.431 857.491C934.951 858.513 927.981 854.605 925.538 846.253C923.096 837.901 919.684 839.89 919.143 838.468C918.601 837.046 917.722 832.341 921.443 832.206C925.166 832.07 927.907 831.935 928.786 831.19C929.666 830.446 933.928 828.178 937.093 829.363C940.257 830.547 944.623 834.135 944.183 838.536C944.183 838.536 946.823 840.566 946.146 844.256C945.469 847.946 943.012 849.367 942.356 851.94C941.7 854.512 942.119 856.408 938.431 857.491Z" fill="#6B461B"/>
<path d="M927.567 852.451C927.567 852.451 932.469 849.195 930.523 845.64C928.577 842.084 925.397 849.42 925.397 849.42L927.567 852.451Z" fill="#FBC3B1"/>
<path d="M935.778 862.238C927.537 863.375 914.607 871.76 914.181 874.176C913.755 876.592 914.607 907.149 916.312 914.114C918.017 921.078 919.537 930.458 919.537 930.458C919.537 930.458 943.877 937.138 955.101 923.068C955.101 923.068 952.544 908.145 953.68 902.176C954.817 896.206 960.785 870.481 955.101 864.797C949.418 859.111 935.778 862.238 935.778 862.238Z" fill="#C0529F"/>
<path d="M885.642 946.377C890.906 948.205 888.472 943.951 888.472 942.13C888.472 940.31 891.816 936.764 891.916 933.528C891.916 933.528 910.532 919.559 914.07 913.492C917.608 907.418 924.078 889.303 925.4 883.034C926.714 876.757 920.951 873.55 920.951 873.55C916.092 871.729 914.171 871.794 911.542 879.689C908.907 887.583 907.997 901.35 903.65 907.721C899.866 913.268 890.429 922.023 886.833 926.804C886.291 927.526 885.88 928.155 885.641 928.668C883.822 932.618 880.377 944.557 885.642 946.377Z" fill="#D164A6"/>
<path d="M885.642 946.378C890.906 948.205 888.472 943.951 888.472 942.131C888.472 940.311 891.816 936.764 891.916 933.529C891.916 933.529 886.104 932.799 886.833 926.805C886.291 927.527 885.88 928.156 885.641 928.668C883.822 932.619 880.377 944.558 885.642 946.378Z" fill="#FBC3B1"/>
<path opacity="0.1" d="M705.23 406.436C724.058 406.436 739.321 400.987 739.321 394.266C739.321 387.544 724.058 382.096 705.23 382.096C686.402 382.096 671.138 387.544 671.138 394.266C671.138 400.987 686.402 406.436 705.23 406.436Z" fill="black"/>
<path d="M728.556 339.82C728.036 345.345 723.205 377.27 725.278 381.755C725.487 382.21 725.819 382.68 726.238 383.171C720.101 384.24 716.332 383.662 714.129 382.853C714.28 382.326 714.432 381.784 714.584 381.235C715.79 376.75 711.132 358.628 710.092 351.904C709.06 345.172 713.826 340.687 713.826 340.687C711.566 333.572 715.299 311.189 715.436 310.336C715.125 311.232 705.24 339.885 703.883 344.132C702.504 348.451 690.084 374.164 686.452 379.336C684.986 381.43 684.928 383.323 685.426 384.956C679.137 385.107 676.451 380.911 675.382 378.253C675.556 377.993 675.743 377.726 675.939 377.444C679.39 372.438 681.116 359.668 681.802 352.763C682.495 345.858 689.738 338.44 689.738 338.44C689.738 338.44 690.944 317.386 692.41 305.996C693.868 294.605 697.11 292.785 697.11 292.785L730.874 286.92C735.604 297.704 729.076 334.301 728.556 339.82Z" fill="#8A221B"/>
<path d="M691.881 404.875C682.466 407.468 680.942 395.211 678.617 392.279C676.292 389.346 674.039 389 672.833 386.414C671.692 383.972 672.4 382.6 675.382 378.252C676.451 380.91 679.137 385.106 685.426 384.955C686.141 387.36 688.048 389.188 688.358 390.213C688.878 391.94 701.298 402.29 691.881 404.875Z" fill="#4E4019"/>
<path d="M741.322 392.972C735.112 397.285 728.903 393.319 725.798 391.766C722.693 390.214 721.653 392.279 716.685 390.9C712.331 389.686 713.067 386.617 714.129 382.854C716.331 383.662 720.1 384.24 726.238 383.171C730.022 387.526 741.322 392.972 741.322 392.972Z" fill="#4E4019"/>
<path d="M743.98 265.728C740.016 267.584 737.922 270.675 736.839 273.037C734.42 271.369 732.456 269.83 731.676 268.79C728.924 265.114 728.506 245.829 727.798 239.949C727.091 234.077 727.639 227.092 731.676 227.829C736.571 228.717 738.47 239.4 738.47 243.077C738.47 246.746 739.048 259.487 741.987 263.163C742.572 263.886 743.236 264.774 743.98 265.728Z" fill="#4D67B0"/>
<path d="M772.256 286.421C771.888 288.075 763.815 293.217 760.689 289.729C757.57 286.24 751.973 282.383 751.973 282.383C751.973 282.383 742.955 277.284 736.839 273.037C737.922 270.675 740.015 267.584 743.98 265.728C747.02 269.614 751.389 274.713 756.689 275.601C763.303 276.699 768.401 274.85 768.957 276.872C769.506 278.887 762.891 279.812 762.891 279.812C762.891 279.812 772.625 284.767 772.256 286.421Z" fill="#FBC3B1"/>
<path d="M712.613 222.378C717.712 221.332 730.375 224.751 733.409 227.675C736.442 230.6 736.442 247.484 734.07 254.105C731.699 260.726 733.684 283.017 731.919 285.776C730.154 288.535 713.44 300.342 697.112 292.783C697.112 292.783 690.217 289.693 692.258 281.472C694.299 273.251 694.961 236.172 697.057 232.641C699.153 229.11 706.159 223.702 712.613 222.378Z" fill="#3D57A6"/>
<path d="M704.908 245.084C702.699 248.761 691.413 263.893 691.882 267.887C692.056 269.353 693.406 272.466 695.175 275.861C691.196 276.554 688.3 278.779 686.452 280.707C682.423 275.853 678.87 271.007 678.632 268.949C678.105 264.427 690.236 242.094 692.821 238.88C695.406 235.666 697.341 230.046 701.436 232.257C706.829 235.16 707.11 241.4 704.908 245.084Z" fill="#4D67B0"/>
<path d="M706.8 303.431C704.171 301.321 700.489 295.319 698.077 293.384C696.763 292.322 691.268 286.515 686.452 280.708C688.3 278.779 691.196 276.555 695.174 275.861C698.229 281.712 702.547 288.393 704.273 288.92C707.009 289.758 712.345 287.764 713.198 289.339C714.05 290.921 707.955 292.813 707.955 292.813C707.955 292.813 716.36 297.327 716.678 299.429C716.996 301.539 709.428 305.533 706.8 303.431Z" fill="#FBC3B1"/>
<path d="M714.217 198.06C720.887 197.708 726.535 198.427 727.062 203.694C727.589 208.962 729.664 221.762 723.169 223.519C716.675 225.274 709.72 219.186 709.544 209.177C709.368 199.169 714.217 198.06 714.217 198.06Z" fill="#FBC3B1"/>
<path d="M709.064 212.961C709.064 212.961 713.594 209.177 713.594 204.327C713.594 204.327 727.66 207.205 729.525 196.173C729.525 196.173 725.262 196.706 719.827 194.681C714.392 192.655 706.933 192.869 706.88 198.412C706.88 198.412 702.564 199.638 702.564 205.18C702.564 210.724 705.761 215.147 708.638 217.012L709.064 212.961Z" fill="#553631"/>
<path d="M708.157 212.613V224.9C708.157 224.9 711.569 231.509 719.401 228.95C719.401 228.95 721.359 227.716 721.479 225.753C721.599 223.789 721.479 215.946 721.479 215.946L708.157 212.613Z" fill="#FBC3B1"/>
<path d="M711.409 212.216C711.409 212.216 709.118 208.219 706.134 209.977C703.15 211.736 705.867 216.693 711.409 215.52V212.216Z" fill="#FBC3B1"/>
<path opacity="0.1" d="M358.794 363.813C377.622 363.813 392.885 358.364 392.885 351.643C392.885 344.921 377.622 339.473 358.794 339.473C339.966 339.473 324.702 344.921 324.702 351.643C324.702 358.364 339.966 363.813 358.794 363.813Z" fill="black"/>
<path d="M377.237 293.561C377.237 293.561 374.45 323.579 375.547 335.533C371.258 335.923 368.211 335.005 366.391 334.153C366.983 328.397 367.532 319.441 366.124 313.265C363.9 303.485 363.459 296.674 365.38 292.376L366.275 261.26C366.275 261.26 360.939 289.704 359.163 296.378C357.74 301.73 350.029 326.164 346.729 337.981C345.92 340.885 345.379 343.023 345.256 343.933C344.649 348.527 348.794 367.342 340.793 367.342C332.8 367.342 332.504 349.415 335.017 343.637C337.277 338.451 337.631 340.538 338.641 335.786C338.757 335.244 338.879 334.608 339.017 333.857C340.353 326.598 339.76 307.335 342.872 299.78C345.977 292.224 347.313 291.928 347.754 288.519C348.202 285.117 341.169 245.854 348.83 237.555C348.83 237.555 366.449 243.456 380.341 234.146C380.342 234.146 382.414 275.779 377.237 293.561Z" fill="#253C80"/>
<path d="M391.007 350.456C390.863 352.377 387.159 354.754 380.494 352.97C373.829 351.193 364.492 346.751 364.348 344.382C364.196 342.005 365.684 339.788 365.684 339.788C365.684 339.788 372.868 347.95 381.555 348.008C382.984 348.015 384.075 347.632 384.898 346.968C388.191 348.549 391.079 349.517 391.007 350.456Z" fill="#FBC3B1"/>
<path d="M391.007 350.456C390.863 352.377 387.159 354.754 380.494 352.97C373.829 351.193 364.492 346.751 364.348 344.382C364.196 342.005 365.684 339.788 365.684 339.788C365.684 339.788 372.868 347.95 381.555 348.008C382.984 348.015 384.075 347.632 384.898 346.968C388.191 348.549 391.079 349.517 391.007 350.456Z" fill="#FBC3B1"/>
<path d="M384.898 346.967C384.075 347.631 382.985 348.014 381.555 348.007C372.868 347.949 365.684 339.787 365.684 339.787C365.684 339.787 366.045 337.512 366.391 334.153C368.211 335.006 371.258 335.923 375.547 335.533C375.699 337.1 375.908 338.357 376.197 339.195C377.497 342.929 381.418 345.291 384.898 346.967Z" fill="#FBC3B1"/>
<path d="M391.007 350.456C390.863 352.377 387.159 354.754 380.494 352.97C373.829 351.193 364.492 346.751 364.348 344.382C364.196 342.005 365.684 339.788 365.684 339.788C365.684 339.788 372.868 347.95 381.555 348.008C382.984 348.015 384.075 347.632 384.898 346.968C388.191 348.549 391.079 349.517 391.007 350.456Z" fill="#24356D"/>
<path d="M345.545 351.091C346.043 358.184 346.375 367.343 340.794 367.343C332.8 367.343 332.504 349.416 335.017 343.637C335.616 342.25 336.086 341.384 336.469 340.77C337.516 339.08 337.898 339.267 338.642 335.786C340.05 336.942 342.585 338.249 346.729 337.982C345.921 340.885 345.379 343.023 345.256 343.933C345.076 345.32 345.321 348.014 345.545 351.091Z" fill="#FBC3B1"/>
<path d="M340.794 367.342C332.8 367.342 332.504 349.415 335.017 343.637C335.616 342.25 336.086 341.384 336.469 340.77C335.53 346.728 334.122 360.307 340.714 360.192C340.714 360.192 344.158 360.791 345.545 351.091C346.043 358.184 346.375 367.342 340.794 367.342Z" fill="#24356D"/>
<path d="M403.34 230.274C403.34 230.274 401.614 231.524 400.885 236.948C400.741 236.869 400.668 236.818 400.668 236.818C400.668 236.818 383.945 230.361 381.937 226.403C379.93 222.438 370.464 199.578 369.171 196.674C367.878 193.763 370.456 188.838 370.456 188.838C372.001 187.949 373.532 187.379 375.8 189.726C378.06 192.066 386.132 218.241 388.154 220.502C390.169 222.762 403.34 230.274 403.34 230.274Z" fill="#434342"/>
<path d="M412.301 240.054C407.009 240.415 401.961 237.598 400.885 236.948C401.614 231.524 403.34 230.274 403.34 230.274C403.34 230.274 413.189 227.775 414.561 228.584C415.933 229.386 411.738 232.456 411.738 232.456C411.738 232.456 419.168 231.812 419.247 232.456C419.327 233.106 418.28 239.649 412.301 240.054Z" fill="#FBC3B1"/>
<path d="M380.754 260.033C380.754 260.033 374.493 245.933 376.5 235.973C376.5 235.973 375.273 239.332 366.326 239.223C366.326 239.223 367.741 227.132 367.207 223.759C366.665 220.386 363.965 207.97 358.441 202.033C354.939 198.277 351.921 192.13 350.181 188.136C351.321 187.363 352.593 186.67 354.022 186.077C355.979 185.262 358.145 184.871 360.282 184.77C366.095 184.51 371.749 186.417 372.811 187.97C374.269 190.101 379.302 200.949 379.411 212.253C379.526 223.557 381.873 242.466 383.772 244.706C385.678 246.945 380.754 260.033 380.754 260.033Z" fill="#4470B7"/>
<path d="M366.326 239.224C366.326 239.224 361.734 258.689 356.701 263.168C351.668 267.646 345.256 267.422 345.256 267.422C345.256 267.422 341.379 251.192 345.855 236.646C350.325 222.099 346.801 216.617 343.696 214.269C343.696 214.269 337.797 203.753 340.822 199.051C343.227 195.302 345.704 191.142 350.181 188.137C351.921 192.131 354.939 198.278 358.441 202.033C363.965 207.971 366.665 220.386 367.207 223.76C367.742 227.133 366.326 239.224 366.326 239.224Z" fill="#2D2D2D"/>
<path d="M380.753 260.033C380.753 260.033 373.91 246.734 375.917 236.773C375.917 236.773 376.43 234.501 375.207 230.447C373.119 223.52 371.662 212.954 370.456 203.824C369.568 197.121 363.466 188.75 360.282 184.77C366.095 184.51 371.749 186.417 372.81 187.97C374.269 190.101 379.302 200.949 379.41 212.253C379.526 223.557 381.873 242.466 383.772 244.706C385.678 246.945 380.753 260.033 380.753 260.033Z" fill="#2D2D2D"/>
<path d="M347.704 208.425C345.429 213.857 337.97 224.518 338.613 227.501C339.075 229.675 342.989 243.99 344.996 252.853C342.483 252.174 340.021 253.121 338.822 253.705C338.764 253.453 338.692 253.25 338.613 253.084C337.862 251.596 326.677 231.113 327.846 225.096C329.016 219.086 335.963 207.356 338.295 202.669C339.66 199.931 342.223 198.898 344.122 198.515C345.747 198.183 347.451 198.978 348.166 200.473C349.033 202.265 349.228 204.8 347.704 208.425Z" fill="#434342"/>
<path d="M346.173 259.592C345.964 262.784 345.646 266.944 341.804 267.37C337.97 267.797 336.475 265.557 337.862 262.784C339.096 260.321 339.32 255.735 338.822 253.705C340.021 253.12 342.483 252.174 344.996 252.853C345.747 256.168 346.231 258.718 346.173 259.592Z" fill="#FBC3B1"/>
<path d="M369.605 163.5C370.566 165.902 371.142 171.57 368.933 177.622C366.724 183.674 365.764 186.076 365.764 186.076C365.764 186.076 349.533 184.539 351.262 171.57C352.99 158.601 369.605 163.5 369.605 163.5Z" fill="#FBC3B1"/>
<path d="M362.887 182.883C362.887 182.883 360.779 187.789 360.795 191.104C360.795 191.104 353.247 194.346 351.125 187.528L351.563 176.604L362.887 182.883Z" fill="#FBC3B1"/>
<path d="M366.991 164.894C366.991 164.894 368.312 168.049 370.458 168.327C370.458 168.327 373.438 157.34 359.777 154.714L366.991 164.894Z" fill="#683215"/>
<path d="M367.498 162.575C368.149 164.217 368.075 166.072 367.236 167.626C366.528 168.937 365.382 170.533 363.555 171.995C359.508 175.233 353.995 182.62 354.854 188.591C354.854 188.591 341.298 177.206 346.407 164.507C351.516 151.807 359.692 154.185 362.888 155.804C364.93 156.838 366.576 160.248 367.498 162.575Z" fill="#52260F"/>
<path opacity="0.1" d="M557.02 917.238C574.946 917.238 589.477 912.05 589.477 905.651C589.477 899.252 574.946 894.064 557.02 894.064C539.095 894.064 524.564 899.252 524.564 905.651C524.564 912.05 539.095 917.238 557.02 917.238Z" fill="black"/>
<path d="M539.01 896.816C539.01 896.816 537.425 903.906 538.042 905.227C538.658 906.548 542.224 908.882 546.23 908.53C550.236 908.178 555.563 904.567 558.381 904.435C561.199 904.303 567.626 899.678 563.84 897.345C560.054 895.011 552.173 897.521 547.727 895.539L539.01 896.816Z" fill="#663017"/>
<path d="M536.507 797.532C536.507 797.532 534.262 802.92 533.963 812.649C533.663 822.378 539.349 847.672 539.349 847.672C539.349 847.672 535.747 855.156 536.651 859.496C537.554 863.837 540.397 884.342 539.948 888.682C539.5 893.023 538.602 897.214 538.602 897.214C538.602 897.214 547.212 900.497 551.975 896.315L561.047 842.284L558.203 799.178L536.507 797.532Z" fill="#712C19"/>
<path d="M553.767 898.808C553.767 898.808 551.551 905.074 552.048 907.098C552.545 909.123 554.912 911.454 558.235 911.606C561.558 911.759 563.697 909.581 565.415 909.62C567.134 909.658 579.776 912.752 582.144 902.705C582.144 902.705 582.335 900.489 579.547 900.03C576.759 899.572 566.447 900.03 564.843 898.426L553.767 898.808Z" fill="#663017"/>
<path d="M574.632 802.026C574.632 802.026 578.082 809.053 573.153 855.895C573.153 855.895 572.783 876.481 566.991 899.779C566.991 899.779 558.858 904.093 553.435 898.916C553.435 898.916 555.284 885.48 554.914 882.768C554.545 880.056 550.231 862.921 556.886 856.265C556.886 856.265 551.833 834.2 550.724 831.118C549.615 828.037 543.065 817.176 544.984 805.903L574.632 802.026Z" fill="#852F1B"/>
<path d="M577.314 750.756C577.314 750.756 582.489 749.488 584.938 744.966L578.778 740.407L574.015 745.581L577.314 750.756Z" fill="#FBC3B1"/>
<path d="M563.845 750.187L573.086 745.161C573.086 745.161 576.989 746.365 577.314 750.756L569.915 758.401C569.915 758.401 567.857 752.139 563.845 750.187Z" fill="#F69365"/>
<path d="M577.738 742.752L605.01 759.766C605.553 760.105 606.27 759.874 606.514 759.283L616.172 735.815C616.37 735.334 616.18 734.781 615.729 734.523L587.081 718.143C586.524 717.824 585.814 718.084 585.595 718.688L577.313 741.521C577.147 741.981 577.324 742.494 577.738 742.752Z" fill="#383838"/>
<path d="M586.724 719.932L578.799 741.532C578.709 741.777 578.803 742.053 579.025 742.191L604.548 758.144C604.839 758.326 605.225 758.202 605.355 757.885L614.439 735.746C614.544 735.49 614.444 735.195 614.204 735.057L587.521 719.644C587.224 719.472 586.842 719.61 586.724 719.932Z" fill="#CBEBF8"/>
<path d="M573.086 745.161L574.522 739.306C574.522 739.306 576.432 736.939 577.801 736.773C579.171 736.608 583.239 736.483 583.156 737.188C583.073 737.894 581.223 738.932 578.122 739.596C578.122 739.596 579.503 743.582 578.964 745.451C578.424 747.319 577.315 750.756 577.315 750.756C577.315 750.756 575.428 746.449 573.086 745.161Z" fill="#FBC3B1"/>
<path d="M558.788 711.33C562.171 712.168 565.385 714.629 565.542 718.086C565.699 721.542 565.149 735.683 563.029 736.076C560.908 736.468 553.605 731.99 551.013 727.356C548.421 722.72 550.228 709.208 558.788 711.33Z" fill="#FBC3B1"/>
<path d="M543.262 729.232L544.068 741.482C544.068 741.482 547.899 744.91 558.482 744.053C558.482 744.053 558.518 740.272 559.104 738.357C559.691 736.441 561.959 732.47 561.959 732.47C561.959 732.47 548.756 727.518 543.262 729.232Z" fill="#FBC3B1"/>
<path d="M548.929 740.295C548.929 740.295 540.475 735.056 536.285 735.58C532.095 736.104 527.307 746.88 528.504 754.888C529.701 762.896 535.088 773.972 534.938 777.938C534.788 781.905 533.442 797.246 534.788 798.593C536.135 799.941 540.774 806.526 554.166 808.173C567.558 809.819 574.516 805.554 575.489 802.71C576.461 799.866 574.965 793.056 574.067 791.035C573.169 789.015 570.701 778.238 572.122 769.257C573.543 760.277 573.801 751.674 562.786 745.161L548.929 740.295Z" fill="#F58551"/>
<path d="M540.58 716.3C540.58 716.3 540.03 711.627 545.032 709.593C550.033 707.559 560.31 705.855 565.202 711.105C565.202 711.105 567.181 713.387 560.365 716.3C560.365 716.3 559.925 718.004 561.629 720.423C563.333 722.842 560.038 724.469 559.431 726.196C558.824 727.922 556.848 736.531 554.045 736.531C551.242 736.531 543.218 735.376 542.668 734.387C542.118 733.397 533.82 720.533 540.58 716.3Z" fill="#784E46"/>
<path d="M561.189 724.876C561.189 724.876 560.805 721.633 558.221 722.568C555.638 723.502 557.672 727.9 560.09 728.67L561.189 724.876Z" fill="#FBC3B1"/>
<path d="M541.318 739.014L543.176 736.311C543.176 736.311 544.998 741.025 563.318 741.404C563.318 741.404 564.077 741.898 563.773 742.657C563.47 743.416 562.787 745.161 562.787 745.161C562.787 745.161 561.108 744.688 560.122 744.764C559.135 744.84 545.567 746.109 541.318 739.014Z" fill="#F5AA87"/>
<path d="M597.649 759.852C597.649 759.852 596.919 754.869 597.649 752.715C598.379 750.56 599.836 749.99 600.406 748.406C600.976 746.822 601.799 739.724 603.32 739.788C604.84 739.851 603.891 747.201 604.587 748.089C605.284 748.976 609.719 752.968 609.529 754.363C609.338 755.757 608.705 759.196 607.628 759.852C606.551 760.509 603.429 764.692 603.429 764.692C603.429 764.692 600.404 761.54 597.649 759.852Z" fill="#FBC3B1"/>
<path d="M564.386 756.374C568.157 752.237 571.643 753.349 573.231 755.618C574.819 757.886 585.931 776.338 585.931 776.338C585.931 776.338 592.509 763.86 597.649 759.852C597.649 759.852 603.244 761.516 603.773 764.162C604.302 766.809 592.357 790.629 589.333 790.554C586.309 790.478 584.269 791.84 579.052 787.151C573.836 782.462 566.027 769.834 563.846 765.524C561.664 761.214 563.662 757.168 564.386 756.374Z" fill="#F69365"/>
</svg>
