<svg width="997" height="273" viewBox="0 0 997 273" fill="none" xmlns="http://www.w3.org/2000/svg">
<g clip-path="url(#clip0_425_11208)">
<path d="M332.513 141.58C332.513 142.756 332.32 143.469 331.954 143.758C331.569 144.067 330.798 144.202 329.641 144.202H320.139C319.234 144.202 318.52 144.028 318.019 143.701C317.518 143.373 317.268 142.66 317.268 141.58V79.0434C317.268 76.1132 317.615 73.3179 318.328 70.5998C319.041 67.8816 320.274 65.4912 322.009 63.4092C323.763 61.3079 326.056 59.6501 328.89 58.397C331.723 57.144 335.269 56.5078 339.51 56.5078H373.894C375.07 56.5078 375.783 56.7391 376.092 57.1825C376.381 57.6452 376.516 58.3777 376.516 59.3802V67.1298C376.516 68.2093 376.361 68.9612 376.034 69.366C375.687 69.7901 374.993 70.0022 373.894 70.0022H341.129C337.968 70.0022 335.732 70.6769 334.441 72.0649C333.149 73.4529 332.494 75.4577 332.494 78.1373V141.561L332.513 141.58Z" fill="#27519B"/>
<path d="M435.706 84.1519C435.706 82.7253 435.455 81.2024 435.012 79.5252C434.549 77.8481 433.759 76.3251 432.641 74.9564C431.504 73.5684 429.943 72.4311 427.938 71.5057C425.934 70.5804 423.39 70.1177 420.306 70.1177H401.784V97.8775H420.556C425.799 97.8775 429.634 96.5859 432.044 94.0027C434.472 91.4195 435.686 88.1423 435.686 84.1326M401.668 141.541C401.668 142.717 401.494 143.431 401.109 143.72C400.723 144.028 399.952 144.163 398.796 144.163H389.429C388.504 144.163 387.791 143.99 387.309 143.662C386.788 143.334 386.557 142.621 386.557 141.541V63.4862C386.557 61.1536 387.058 59.3801 388.06 58.1656C389.063 56.9704 390.894 56.3535 393.573 56.3535H423.332C427.495 56.3535 431.33 56.9897 434.78 58.3006C438.23 59.5922 441.199 61.4235 443.646 63.7947C446.094 66.1851 448.022 69.0189 449.409 72.2961C450.797 75.6119 451.472 79.1975 451.472 83.1301C451.472 85.3663 451.105 88.0652 450.412 91.2075C449.698 94.3304 448.291 97.357 446.171 100.268C444.032 103.198 441.064 105.666 437.228 107.709C433.393 109.753 428.343 110.774 422.098 110.774H401.706V141.541H401.668Z" fill="#27519B"/>
<path d="M482.464 112.046H506.479L499.965 91.0337L494.722 73.279H494.106L488.96 90.6675L482.445 112.066L482.464 112.046ZM510.488 125.059H478.725L473.213 142.081C472.962 142.833 472.615 143.373 472.153 143.7C471.69 144.028 470.958 144.201 469.955 144.201H458.449C457.543 144.201 456.965 143.932 456.714 143.392C456.464 142.852 456.464 142.254 456.714 141.58L483.736 62.3872C484.141 61.1341 484.565 60.151 484.989 59.3799C485.413 58.628 485.934 58.069 486.55 57.6449C487.186 57.2401 487.919 56.9123 488.747 56.7003C489.576 56.4882 490.559 56.3726 491.754 56.3726H497.112C499.714 56.3726 501.545 56.7774 502.625 57.5678C503.723 58.3582 504.668 59.9582 505.496 62.3679L532.634 141.56C532.885 142.235 532.904 142.833 532.692 143.373C532.48 143.912 531.921 144.182 531.015 144.182H519.509C518.583 144.182 517.851 144.066 517.311 143.854C516.772 143.662 516.348 143.103 516.001 142.177L510.488 125.039V125.059Z" fill="#27519B"/>
<path d="M558.133 96.798C555.377 95.2172 553.18 93.116 551.503 90.4749C549.826 87.8532 548.574 84.788 547.745 81.2795L542.252 58.8982C542.078 58.4741 542.059 57.9536 542.175 57.3367C542.31 56.7005 542.926 56.3921 543.986 56.3921H554.24C554.664 56.3921 555.127 56.4692 555.686 56.6427C556.245 56.8162 556.572 57.3174 556.746 58.1464L562.123 79.2939C562.875 81.9542 563.8 84.094 564.937 85.6748C566.074 87.2556 567.269 88.4701 568.58 89.299C569.871 90.1279 571.22 90.6484 572.647 90.8605C574.054 91.0725 575.384 91.1882 576.656 91.1882H588.162V58.6669C587.989 57.7608 588.066 57.2017 588.413 56.9897C588.74 56.7776 589.338 56.662 590.167 56.662H600.921C601.673 56.662 602.232 56.7776 602.618 56.9897C602.984 57.2017 603.177 57.7608 603.177 58.6669V91.1882H614.548C615.801 91.1882 617.15 91.0725 618.557 90.8605C619.983 90.6484 621.333 90.1279 622.624 89.299C623.915 88.4701 625.129 87.2556 626.247 85.6748C627.385 84.0748 628.329 81.9542 629.061 79.2939L634.574 58.1464C634.747 57.3174 635.094 56.8162 635.634 56.6427C636.173 56.4692 636.655 56.3921 637.079 56.3921H647.333C648.432 56.3921 649.029 56.7005 649.145 57.3367C649.26 57.9536 649.26 58.4741 649.087 58.8982L643.575 81.2795C642.746 84.788 641.474 87.8532 639.758 90.4749C638.043 93.116 635.865 95.2172 633.186 96.798V97.4149C635.364 98.1667 637.137 99.0149 638.563 99.9788C639.97 100.943 641.146 102.08 642.071 103.352C642.977 104.644 643.71 106.071 644.249 107.593C644.789 109.136 645.309 110.832 645.81 112.683L653.578 141.696C653.751 142.12 653.751 142.64 653.636 143.257C653.52 143.893 652.903 144.202 651.824 144.202H640.703C640.279 144.202 639.835 144.125 639.315 143.951C638.814 143.778 638.448 143.276 638.197 142.447L630.815 115.035C630.16 112.798 629.408 110.928 628.579 109.463C627.751 107.998 626.691 106.88 625.457 106.09C624.204 105.299 622.739 104.74 621.082 104.413C619.405 104.085 617.497 103.911 615.338 103.911H603.215V142.197C603.215 143.122 603.022 143.681 602.656 143.893C602.271 144.086 601.712 144.202 600.96 144.202H590.34C589.511 144.202 588.914 144.086 588.586 143.893C588.259 143.681 588.085 143.122 588.085 142.197L588.22 103.911H576.097C573.919 103.911 572.011 104.085 570.334 104.413C568.657 104.74 567.211 105.299 565.959 106.09C564.706 106.899 563.626 108.018 562.721 109.463C561.815 110.928 561.044 112.779 560.466 115.035L553.219 142.447C552.968 143.276 552.602 143.778 552.101 143.951C551.6 144.125 551.137 144.202 550.713 144.202H539.592C538.493 144.202 537.915 143.893 537.78 143.257C537.665 142.64 537.684 142.12 537.838 141.696L545.605 112.683C546.106 110.929 546.627 109.271 547.167 107.748C547.706 106.205 548.439 104.798 549.344 103.487C550.27 102.196 551.445 101.039 552.852 100.037C554.279 99.0342 556.071 98.1667 558.23 97.4149V96.798H558.133Z" fill="#27519B"/>
<path d="M721.981 70.0215H694.728L691.721 94.7932C690.969 101.29 690.294 106.553 689.716 110.543C689.138 114.553 688.541 117.811 687.982 120.298C687.384 122.804 686.787 124.789 686.17 126.235C685.553 127.7 684.782 129.185 683.857 130.688H722V70.0215H721.981ZM673.584 144.202L672.081 162.593C671.984 163.499 671.792 164.116 671.464 164.405C671.136 164.694 670.635 164.848 669.961 164.848H661.692C661.114 164.848 660.651 164.694 660.324 164.405C659.996 164.116 659.784 163.518 659.688 162.593L657.953 136.953C657.953 135.527 658.223 134.216 658.762 133.001C659.302 131.787 660.516 131.112 662.444 130.939L666.954 130.553C668.457 128.876 669.691 127.16 670.635 125.368C671.599 123.555 672.389 121.628 673.006 119.546C673.623 117.464 674.143 115.15 674.567 112.606C674.972 110.08 675.396 107.208 675.82 104.047L680.966 64.2575C681.371 61.6743 682.296 59.7465 683.703 58.5127C685.129 57.2597 687.288 56.6235 690.198 56.6235H728.842C731.926 56.6235 734.065 57.2983 735.28 58.6862C736.475 60.0742 737.091 62.1755 737.091 65.0093V130.804L742.218 131.054C744.223 131.228 745.456 131.787 745.919 132.732C746.382 133.695 746.555 134.717 746.478 135.797L744.859 162.573C744.762 163.479 744.589 164.096 744.3 164.385C743.992 164.675 743.529 164.829 742.854 164.829H734.47C733.796 164.829 733.352 164.675 733.083 164.385C732.832 164.096 732.678 163.499 732.601 162.573L731.849 144.183H673.565L673.584 144.202Z" fill="#27519B"/>
<path d="M777.258 112.046H801.274L794.759 91.0337L789.517 73.279H788.9L783.754 90.6675L777.239 112.066L777.258 112.046ZM805.283 125.059H773.519L768.007 142.081C767.756 142.833 767.409 143.373 766.947 143.7C766.484 144.028 765.771 144.201 764.75 144.201H753.243C752.337 144.201 751.759 143.932 751.508 143.392C751.258 142.852 751.258 142.254 751.508 141.58L778.53 62.3872C778.935 61.1341 779.359 60.151 779.783 59.3799C780.207 58.628 780.728 58.069 781.344 57.6449C781.981 57.2401 782.713 56.9123 783.542 56.7003C784.37 56.4882 785.353 56.3726 786.548 56.3726H791.907C794.509 56.3726 796.34 56.7774 797.419 57.5678C798.518 58.3582 799.462 59.9582 800.291 62.3679L827.428 141.56C827.679 142.235 827.698 142.833 827.486 143.373C827.274 143.912 826.715 144.182 825.809 144.182H814.303C813.378 144.182 812.645 144.066 812.106 143.854C811.566 143.662 811.142 143.103 810.795 142.177L805.283 125.039V125.059Z" fill="#27519B"/>
<path d="M907.145 143.758C906.76 144.047 905.989 144.202 904.832 144.202H895.35C894.347 144.202 893.615 144.028 893.152 143.7C892.69 143.373 892.478 142.659 892.478 141.58V104.798H853.583V141.58C853.583 142.756 853.371 143.469 852.947 143.758C852.542 144.047 851.733 144.202 850.576 144.202H841.094C840.168 144.202 839.455 144.028 838.973 143.7C838.453 143.373 838.222 142.659 838.222 141.58V59.2643C838.222 58.1848 838.472 57.4715 838.973 57.1438C839.455 56.8161 840.168 56.6426 841.094 56.6426H850.576C851.752 56.6426 852.542 56.7968 852.947 57.086C853.371 57.3751 853.583 58.1077 853.583 59.2643V91.6508H892.478V59.2643C892.478 58.1848 892.709 57.4715 893.152 57.1438C893.596 56.8161 894.347 56.6426 895.35 56.6426H904.832C906.008 56.6426 906.779 56.7968 907.145 57.086C907.531 57.3751 907.704 58.1077 907.704 59.2643V141.58C907.704 142.756 907.531 143.469 907.145 143.758Z" fill="#27519B"/>
<path d="M981.369 78.5229L970.364 97.5499L945.731 138.823C944.479 140.905 943.342 142.332 942.359 143.064C941.337 143.816 939.718 144.182 937.482 144.182H933.107C930.274 144.182 928.366 143.546 927.363 142.255C926.361 140.944 925.86 139.093 925.86 136.683V58.6284C925.86 57.7223 926.034 57.1247 926.419 56.8934C926.785 56.6428 927.383 56.5078 928.231 56.5078H938.619C939.545 56.5078 940.161 56.6235 940.508 56.8934C940.836 57.144 941.009 57.7223 941.009 58.6284V121.936H941.51L951.88 104.413L977.148 62.0019C978.401 59.8236 979.519 58.3777 980.521 57.6259C981.523 56.8741 983.123 56.5078 985.282 56.5078H989.792C992.528 56.5078 994.437 57.1054 995.477 58.3199C996.518 59.5344 997.039 61.4814 997.039 64.1225V142.062C997.039 142.987 996.865 143.566 996.48 143.816C996.094 144.067 995.497 144.182 994.668 144.182H984.279C983.354 144.182 982.737 144.067 982.39 143.816C982.063 143.566 981.889 142.987 981.889 142.062V78.5229H981.388H981.369Z" fill="#27519B"/>
<path d="M327.463 246.489C327.116 246.739 326.615 246.874 325.941 246.874H320.718C320.043 246.874 319.523 246.759 319.137 246.489C318.752 246.238 318.559 245.718 318.559 244.946V181.272C318.559 180.501 318.752 179.981 319.137 179.73C319.523 179.48 320.043 179.345 320.718 179.345H325.941C326.615 179.345 327.116 179.46 327.463 179.73C327.791 179.981 327.965 180.501 327.965 181.272V206.623H363.852V181.272C363.852 180.501 364.026 179.981 364.392 179.73C364.72 179.48 365.259 179.345 365.953 179.345H371.311C372.082 179.345 372.603 179.46 372.873 179.73C373.123 179.981 373.258 180.501 373.258 181.272V244.946C373.258 245.718 373.123 246.238 372.873 246.489C372.603 246.739 372.082 246.874 371.311 246.874H365.953C365.259 246.874 364.72 246.759 364.392 246.489C364.045 246.238 363.852 245.718 363.852 244.946V214.719H327.965V244.946C327.965 245.718 327.791 246.238 327.463 246.489Z" fill="#27519B"/>
<path d="M430.116 212.656H413.521C411.979 212.656 410.148 212.772 407.99 213.042C405.85 213.292 403.827 213.929 401.899 214.931C399.953 215.914 398.334 217.379 397.004 219.326C395.674 221.254 395.018 223.914 395.018 227.269C395.018 229.852 395.5 231.992 396.483 233.727C397.466 235.442 398.796 236.811 400.473 237.871C402.15 238.912 404.058 239.606 406.197 239.992C408.337 240.377 410.572 240.59 412.885 240.59C413.656 240.59 414.697 240.551 416.046 240.455C417.357 240.358 418.86 240.243 420.499 240.069C422.118 239.896 423.775 239.606 425.433 239.221C427.109 238.835 428.671 238.392 430.135 237.871V212.676L430.116 212.656ZM439.753 240.956C439.753 242.498 439.156 243.539 437.941 244.04C434.087 245.66 429.962 246.778 425.606 247.375C421.231 247.973 417.029 248.281 412.982 248.281C407.489 248.281 402.998 247.684 399.49 246.469C395.963 245.274 393.187 243.713 391.125 241.765C389.063 239.818 387.617 237.601 386.827 235.038C386.018 232.512 385.594 229.871 385.594 227.114C385.594 223.934 386.152 220.946 387.27 218.15C388.388 215.355 390.084 212.926 392.359 210.863C394.633 208.801 397.485 207.201 400.916 206.025C404.347 204.849 408.414 204.29 413.136 204.29H430.232V200.858C430.232 198.757 430.02 196.771 429.577 194.979C429.153 193.167 428.324 191.605 427.148 190.333C425.934 189.08 424.276 188.077 422.118 187.364C419.978 186.631 417.183 186.265 413.772 186.265C410.958 186.265 407.836 186.554 404.443 187.113C401.07 187.653 398.16 188.328 395.751 189.099C395.153 189.272 394.691 189.35 394.344 189.292C393.997 189.253 393.746 188.925 393.573 188.328L392.282 183.663C392.031 182.699 392.378 182.063 393.303 181.716C394.845 181.118 396.522 180.559 398.314 180.077C400.126 179.614 401.976 179.19 403.904 178.824C405.831 178.477 407.778 178.246 409.763 178.111C411.748 177.976 413.579 177.918 415.295 177.918C423.602 177.918 429.769 179.769 433.74 183.451C437.71 187.133 439.734 192.53 439.734 199.663V240.956H439.753Z" fill="#27519B"/>
<path d="M495.185 246.547C494.934 246.759 494.453 246.875 493.778 246.875H488.111C487.437 246.875 486.936 246.759 486.647 246.547C486.338 246.335 486.184 245.872 486.184 245.198V180.984C486.184 180.309 486.338 179.866 486.647 179.634C486.955 179.422 487.437 179.307 488.111 179.307H493.778C494.453 179.307 494.934 179.422 495.185 179.634C495.436 179.846 495.57 180.309 495.57 180.984V206.854H508.966C510.334 206.854 511.645 206.719 512.898 206.469C514.131 206.218 515.288 205.756 516.367 205.081C517.427 204.406 518.391 203.404 519.258 202.131C520.106 200.859 520.839 199.24 521.436 197.254L526.582 180.733C526.756 180.058 526.987 179.634 527.295 179.519C527.584 179.384 527.951 179.326 528.394 179.326H534.195C534.87 179.326 535.294 179.519 535.41 179.904C535.545 180.29 535.564 180.714 535.487 181.138L530.591 198.083C529.82 200.82 528.818 203.288 527.565 205.466C526.312 207.645 524.539 209.264 522.226 210.267L522.091 210.517C525.349 211.481 527.681 213.023 529.107 215.163C530.514 217.322 531.651 219.809 532.499 222.643L539.072 244.947C539.168 245.371 539.168 245.795 539.072 246.239C538.995 246.663 538.551 246.875 537.78 246.875H531.497C531.15 246.875 530.803 246.817 530.476 246.682C530.129 246.566 529.878 246.2 529.705 245.583L523.402 224.089C522.303 220.503 520.53 218.016 518.121 216.628C515.731 215.259 513.148 214.585 510.411 214.585H495.609V245.198C495.609 245.872 495.493 246.335 495.224 246.547" fill="#27519B"/>
<path d="M595.004 226.536C595.004 222.95 593.79 220.04 591.342 217.842C588.895 215.664 585.232 214.565 580.356 214.565H558.095V239.394H580.356C583.44 239.394 585.946 238.97 587.873 238.122C589.82 237.254 591.285 236.175 592.325 234.903C593.366 233.611 594.06 232.223 594.445 230.719C594.831 229.216 595.024 227.828 595.024 226.536M558.095 206.854H580.742C581.763 206.854 582.939 206.699 584.269 206.41C585.579 206.102 586.832 205.581 588.008 204.81C589.164 204.058 590.128 203.017 590.899 201.745C591.651 200.473 592.055 198.853 592.055 196.887C592.055 194.227 591.13 192.01 589.299 190.159C587.449 188.347 584.905 187.422 581.648 187.422H558.095V206.854ZM592.576 210.594C594.889 211.288 596.816 212.194 598.377 213.35C599.9 214.526 601.153 215.856 602.116 217.341C603.061 218.864 603.716 220.464 604.102 222.179C604.487 223.895 604.68 225.553 604.68 227.192C604.68 230.102 604.121 232.763 603.003 235.153C601.885 237.563 600.343 239.645 598.377 241.399C596.411 243.153 594.06 244.503 591.362 245.447C588.663 246.392 585.695 246.855 582.438 246.855H553.874C550.443 246.855 548.728 245.274 548.728 242.112V184.087C548.728 180.906 550.443 179.325 553.874 179.325H581.416C587.333 179.325 592.19 180.675 596.026 183.374C599.823 186.072 601.75 190.313 601.75 196.039C601.75 198.873 600.999 201.61 599.514 204.213C598.011 206.834 595.756 208.743 592.769 209.938L592.634 210.574L592.576 210.594Z" fill="#27519B"/>
<path d="M658.57 212.656H641.975C640.433 212.656 638.602 212.772 636.443 213.042C634.304 213.292 632.28 213.929 630.353 214.931C628.406 215.914 626.787 217.379 625.457 219.326C624.127 221.254 623.472 223.914 623.472 227.269C623.472 229.852 623.954 231.992 624.937 233.727C625.92 235.442 627.249 236.811 628.926 237.871C630.603 238.912 632.511 239.606 634.651 239.992C636.79 240.377 639.026 240.59 641.339 240.59C642.11 240.59 643.15 240.551 644.5 240.455C645.81 240.358 647.314 240.243 648.952 240.069C650.571 239.896 652.228 239.606 653.886 239.221C655.563 238.835 657.124 238.392 658.589 237.871V212.676L658.57 212.656ZM668.207 240.956C668.207 242.498 667.609 243.539 666.395 244.04C662.54 245.66 658.415 246.778 654.059 247.375C649.684 247.973 645.483 248.281 641.435 248.281C635.942 248.281 631.451 247.684 627.943 246.469C624.416 245.274 621.641 243.713 619.578 241.765C617.516 239.818 616.071 237.601 615.28 235.038C614.471 232.512 614.047 229.871 614.047 227.114C614.047 223.934 614.606 220.946 615.724 218.15C616.842 215.355 618.538 212.926 620.812 210.863C623.086 208.801 625.939 207.201 629.37 206.025C632.8 204.849 636.867 204.29 641.589 204.29H658.685V200.858C658.685 198.757 658.473 196.771 658.049 194.979C657.606 193.167 656.796 191.605 655.601 190.333C654.387 189.08 652.73 188.077 650.59 187.364C648.431 186.631 645.656 186.265 642.225 186.265C639.411 186.265 636.289 186.554 632.897 187.113C629.524 187.653 626.613 188.328 624.223 189.099C623.626 189.272 623.144 189.35 622.797 189.292C622.45 189.253 622.2 188.925 622.026 188.328L620.754 183.663C620.484 182.699 620.831 182.063 621.776 181.716C623.318 181.118 624.994 180.559 626.787 180.077C628.599 179.614 630.449 179.19 632.376 178.824C634.304 178.477 636.25 178.246 638.236 178.111C640.221 177.976 642.052 177.918 643.767 177.918C652.074 177.918 658.242 179.769 662.212 183.451C666.221 187.133 668.207 192.53 668.207 199.663V240.956Z" fill="#27519B"/>
<path d="M729.825 212.907C729.825 207.837 729.305 203.596 728.303 200.164C727.262 196.733 725.797 193.976 723.927 191.875C722.039 189.773 719.803 188.27 717.239 187.364C714.657 186.458 711.804 186.014 708.624 186.014C706.311 186.014 703.574 186.265 700.452 186.708C697.31 187.19 694.593 187.884 692.28 188.829V237.466C695.884 238.681 699.006 239.413 701.608 239.722C704.229 240.03 706.523 240.184 708.489 240.184C711.573 240.184 714.425 239.683 717.047 238.7C719.668 237.717 721.923 236.117 723.812 233.938C725.701 231.76 727.185 228.926 728.245 225.437C729.324 221.967 729.845 217.784 729.845 212.887M739.616 212.887C739.616 217.861 739.019 222.488 737.805 226.787C736.61 231.085 734.779 234.806 732.292 237.987C729.787 241.168 726.684 243.674 722.964 245.524C719.225 247.356 714.869 248.281 709.915 248.281C707.41 248.281 704.692 248.108 701.666 247.761C698.679 247.414 695.537 246.777 692.28 245.833V271.433C692.28 272.108 692.164 272.552 691.952 272.725C691.74 272.899 691.277 272.976 690.603 272.976H684.686C684.088 272.976 683.626 272.879 683.337 272.725C683.028 272.552 682.874 272.127 682.874 271.433V184.588C682.874 183.566 683.337 182.872 684.281 182.525C688.406 180.713 692.704 179.498 697.214 178.862C701.724 178.226 706.022 177.898 710.127 177.898C715.196 177.898 719.591 178.766 723.311 180.482C727.05 182.197 730.095 184.607 732.504 187.691C734.914 190.776 736.687 194.477 737.862 198.757C739.019 203.056 739.597 207.759 739.597 212.907" fill="#27519B"/>
<path d="M776.198 246.488C775.89 246.739 775.389 246.874 774.695 246.874H769.337C768.566 246.874 768.026 246.758 767.718 246.488C767.409 246.238 767.255 245.679 767.255 244.811V187.422H746.671C745.823 187.422 745.264 187.268 744.994 186.959C744.743 186.67 744.608 186.207 744.608 185.61V181.369C744.608 180.694 744.724 180.173 744.994 179.826C745.244 179.499 745.803 179.325 746.671 179.325H798.383C799.231 179.325 799.77 179.499 799.982 179.826C800.194 180.173 800.31 180.694 800.31 181.369V185.61C800.31 186.207 800.214 186.67 799.982 186.959C799.77 187.268 799.231 187.422 798.383 187.422H776.642V244.811C776.642 245.66 776.487 246.219 776.179 246.488" fill="#27519B"/>
<path d="M849.593 212.656H832.998C831.456 212.656 829.625 212.772 827.467 213.042C825.327 213.292 823.304 213.929 821.376 214.931C819.43 215.914 817.811 217.379 816.481 219.326C815.151 221.254 814.495 223.914 814.495 227.269C814.495 229.852 814.977 231.992 815.96 233.727C816.943 235.442 818.273 236.811 819.95 237.871C821.627 238.912 823.535 239.606 825.674 239.992C827.814 240.377 830.049 240.59 832.362 240.59C833.133 240.59 834.174 240.551 835.523 240.455C836.834 240.358 838.337 240.243 839.976 240.069C841.595 239.896 843.252 239.606 844.91 239.221C846.586 238.835 848.148 238.392 849.612 237.871V212.676L849.593 212.656ZM859.23 240.956C859.23 242.498 858.633 243.539 857.418 244.04C853.564 245.66 849.439 246.778 845.083 247.375C840.708 247.973 836.506 248.281 832.459 248.281C826.966 248.281 822.475 247.684 818.967 246.469C815.44 245.274 812.664 243.713 810.602 241.765C808.54 239.818 807.094 237.601 806.304 235.038C805.495 232.512 805.071 229.871 805.071 227.114C805.071 223.934 805.629 220.946 806.747 218.15C807.865 215.355 809.561 212.926 811.836 210.863C814.11 208.801 816.963 207.201 820.393 206.025C823.824 204.849 827.891 204.29 832.613 204.29H849.709V200.858C849.709 198.757 849.497 196.771 849.073 194.979C848.63 193.167 847.82 191.605 846.625 190.333C845.411 189.08 843.753 188.077 841.614 187.364C839.455 186.631 836.68 186.265 833.249 186.265C830.435 186.265 827.313 186.554 823.92 187.113C820.547 187.653 817.637 188.328 815.247 189.099C814.65 189.272 814.168 189.35 813.821 189.292C813.474 189.253 813.223 188.925 813.05 188.328L811.778 183.663C811.508 182.699 811.855 182.063 812.799 181.716C814.341 181.118 816.018 180.559 817.811 180.077C819.622 179.614 821.473 179.19 823.4 178.824C825.327 178.477 827.274 178.246 829.259 178.111C831.244 177.976 833.075 177.918 834.791 177.918C843.098 177.918 849.266 179.769 853.236 183.451C857.226 187.133 859.23 192.53 859.23 199.663V240.956Z" fill="#27519B"/>
<path d="M883.554 185.206C883.65 183.104 884.209 181.62 885.231 180.695C886.252 179.769 887.64 179.307 889.355 179.307H923.008C925.243 179.307 926.727 179.808 927.46 180.81C928.192 181.813 928.558 183.278 928.558 185.186V245.294C928.558 245.988 928.404 246.431 928.096 246.643C927.787 246.855 927.248 246.971 926.477 246.971H921.254C920.56 246.971 920.039 246.855 919.692 246.643C919.346 246.431 919.172 245.988 919.172 245.294V187.673H891.899L891.129 198.083C890.454 206.584 889.76 213.717 889.066 219.5C888.392 225.303 887.37 230.122 885.982 233.978C884.614 237.834 882.706 240.879 880.258 243.116C877.81 245.352 874.534 247.145 870.409 248.533C869.889 248.706 869.388 248.802 868.925 248.86C868.462 248.899 868.096 248.571 867.826 247.896L866.419 243.52C866.246 242.826 866.246 242.344 866.419 242.036C866.593 241.728 867.017 241.419 867.691 241.072C870.351 239.973 872.51 238.547 874.187 236.831C875.864 235.115 877.213 232.764 878.292 229.756C879.371 226.749 880.2 222.855 880.817 218.055C881.414 213.255 881.973 207.163 882.494 199.779L883.535 185.206H883.554Z" fill="#27519B"/>
<path d="M984.915 212.656H968.32C966.779 212.656 964.948 212.772 962.789 213.042C960.649 213.292 958.626 213.929 956.698 214.931C954.752 215.914 953.133 217.379 951.803 219.326C950.473 221.254 949.817 223.914 949.817 227.269C949.817 229.852 950.299 231.992 951.282 233.727C952.265 235.442 953.595 236.811 955.272 237.871C956.949 238.912 958.857 239.606 960.996 239.992C963.136 240.377 965.372 240.59 967.684 240.59C968.455 240.59 969.496 240.551 970.845 240.455C972.156 240.358 973.659 240.243 975.298 240.069C976.917 239.896 978.574 239.606 980.232 239.221C981.909 238.835 983.47 238.392 984.935 237.871V212.676L984.915 212.656ZM994.552 240.956C994.552 242.498 993.955 243.539 992.74 244.04C988.886 245.66 984.761 246.778 980.405 247.375C976.03 247.973 971.828 248.281 967.781 248.281C962.288 248.281 957.797 247.684 954.289 246.469C950.762 245.274 947.986 243.713 945.924 241.765C943.862 239.818 942.416 237.601 941.626 235.038C940.817 232.512 940.393 229.871 940.393 227.114C940.393 223.934 940.952 220.946 942.069 218.15C943.187 215.355 944.883 212.926 947.158 210.863C949.432 208.801 952.285 207.201 955.715 206.025C959.146 204.849 963.213 204.29 967.935 204.29H985.031V200.858C985.031 198.757 984.819 196.771 984.395 194.979C983.952 193.167 983.142 191.605 981.947 190.333C980.733 189.08 979.075 188.077 976.917 187.364C974.777 186.631 972.002 186.265 968.571 186.265C965.757 186.265 962.635 186.554 959.242 187.113C955.87 187.653 952.959 188.328 950.55 189.099C949.952 189.272 949.49 189.35 949.143 189.292C948.796 189.253 948.545 188.925 948.372 188.328L947.081 183.663C946.83 182.699 947.177 182.063 948.102 181.716C949.644 181.118 951.321 180.559 953.113 180.077C954.925 179.614 956.775 179.19 958.703 178.824C960.63 178.477 962.577 178.246 964.562 178.111C966.547 177.976 968.378 177.918 970.094 177.918C978.401 177.918 984.568 179.769 988.539 183.451C992.528 187.133 994.533 192.53 994.533 199.663V240.956H994.552Z" fill="#27519B"/>
<path d="M199.119 272.976H181.31C171.634 272.976 163.77 265.111 163.77 255.434V155.055C163.77 151.97 161.265 149.464 158.2 149.445L139.524 149.329C137.828 149.368 136.594 149.888 135.534 150.949C134.455 152.009 133.876 153.416 133.876 154.92V255.434C133.876 265.111 126.013 272.976 116.337 272.976H98.5281C88.8526 272.976 80.9889 265.111 80.9889 255.434V114.784C80.9889 111.7 78.464 109.193 75.3802 109.193H58.477C55.3932 109.193 52.8876 111.7 52.8876 114.784V186.767C52.8876 196.444 45.0238 204.309 35.3483 204.309H5.95563C2.6598 204.309 0 201.649 0 198.333C0 195.017 2.6598 192.376 5.95563 192.376H35.3483C38.4321 192.376 40.9377 189.851 40.9377 186.767V114.784C40.9377 105.107 48.8015 97.2413 58.477 97.2413H75.3802C85.0557 97.2413 92.9194 105.107 92.9194 114.784V255.453C92.9194 258.537 95.4443 261.043 98.5281 261.043H116.337C119.421 261.043 121.927 258.537 121.927 255.453V154.939C121.927 150.216 123.758 145.802 127.111 142.486C130.446 139.17 134.763 137.358 139.582 137.397L158.277 137.532C167.876 137.589 175.701 145.455 175.701 155.074V255.453C175.701 258.537 178.206 261.043 181.29 261.043H199.099C202.183 261.043 204.689 258.537 204.689 255.453V73.2214C204.689 63.544 212.552 55.6787 222.228 55.6787H240.037C249.713 55.6787 257.576 63.544 257.576 73.2214V152.761C257.576 155.845 260.101 158.351 263.185 158.351H292.558C295.854 158.351 298.533 161.012 298.533 164.327C298.533 167.643 295.854 170.303 292.558 170.303H263.185C253.51 170.303 245.646 162.438 245.646 152.761V73.2214C245.646 70.1369 243.121 67.6308 240.037 67.6308H222.228C219.144 67.6308 216.639 70.1562 216.639 73.2214V255.434C216.639 265.111 208.775 272.976 199.099 272.976" fill="#75ACD9"/>
<path d="M87.465 61.6549C87.465 72.9902 78.2521 82.2049 66.919 82.2049C55.586 82.2049 46.373 72.9902 46.373 61.6549C46.373 50.3197 55.586 41.105 66.919 41.105C78.2521 41.105 87.465 50.3197 87.465 61.6549Z" fill="#75ACD9"/>
<path d="M169.822 101.058C169.822 112.393 160.609 121.608 149.276 121.608C137.943 121.608 128.73 112.393 128.73 101.058C128.73 89.723 137.943 80.5083 149.276 80.5083C160.609 80.5083 169.822 89.723 169.822 101.058Z" fill="#75ACD9"/>
<path d="M251.929 20.5548C251.929 31.8901 242.716 41.1048 231.383 41.1048C220.05 41.1048 210.837 31.8901 210.837 20.5548C210.837 9.21959 220.05 0.00488281 231.383 0.00488281C242.716 0.00488281 251.929 9.21959 251.929 20.5548Z" fill="#75ACD9"/>
</g>
<defs>
<clipPath id="clip0_425_11208">
<rect width="997" height="273" fill="white"/>
</clipPath>
</defs>
</svg>
