<svg width="89" height="89" viewBox="0 0 89 89" fill="none" xmlns="http://www.w3.org/2000/svg">
<path d="M44.6121 0.273438C20.3117 0.273438 0.612549 19.9725 0.612549 44.2724C0.612549 68.5723 20.3117 88.2734 44.6121 88.2734C68.9124 88.2734 88.6125 68.5733 88.6125 44.2724C88.6125 19.9715 68.9124 0.273438 44.6121 0.273438ZM73.3531 34.2136L46.2878 61.156C46.1272 61.3821 45.962 61.6052 45.762 61.8057L41.5946 65.9726C39.5828 67.985 36.134 67.985 34.1222 65.9726L15.8712 47.5779C13.8598 45.5666 13.8598 42.1178 15.8712 40.1054L20.0391 35.9375C22.05 33.9272 25.5001 33.9272 27.511 35.9375L37.8349 46.3431L61.7136 22.5732C63.7255 20.5618 67.1737 20.5618 69.1866 22.5732L73.3531 26.7411C75.3655 28.7525 75.3655 32.2023 73.3531 34.2136Z" fill="#25509A"/>
</svg>
