<svg width="98" height="99" viewBox="0 0 98 99" fill="none" xmlns="http://www.w3.org/2000/svg">
<path d="M78.7894 2.07178H18.6696C9.0967 2.07178 1.3363 9.83218 1.3363 19.4051V79.5249C1.3363 89.0978 9.0967 96.8582 18.6696 96.8582H78.7894C88.3624 96.8582 96.1228 89.0978 96.1228 79.5249V19.4051C96.1228 9.83218 88.3624 2.07178 78.7894 2.07178Z" fill="url(#paint0_radial_349_1044)"/>
<path d="M78.7887 3.40544C87.6113 3.40544 94.7887 10.583 94.7887 19.4054V79.5244C94.7887 88.3468 87.6113 95.5244 78.7887 95.5244H18.6696C9.84701 95.5244 2.6696 88.3468 2.6696 79.5244V19.4054C2.6696 10.583 9.84701 3.40544 18.6696 3.40544H78.7887ZM78.7887 0.73877H18.6696C8.403 0.73877 0.00292969 9.13868 0.00292969 19.4054V79.5244C0.00292969 89.7912 8.403 98.1911 18.6696 98.1911H78.7887C89.0553 98.1911 97.4554 89.7912 97.4554 79.5244V19.4054C97.4554 9.13868 89.0553 0.73877 78.7887 0.73877Z" fill="#74ACDA"/>
<path d="M15.396 17.8857V35.4296H82.0627V17.8857H15.396ZM63.6416 28.4121H35.5715V23.1489H63.6416V28.4121Z" fill="white"/>
<path d="M15.396 40.6929V58.2367H82.0627V40.6929H15.396ZM63.6416 51.2192H35.5715V45.9561H63.6416V51.2192Z" fill="white"/>
<path d="M15.396 63.5V81.0438H82.0627V63.5H15.396ZM63.6416 74.0263H35.5715V68.7631H63.6416V74.0263Z" fill="white"/>
<defs>
<radialGradient id="paint0_radial_349_1044" cx="0" cy="0" r="1" gradientUnits="userSpaceOnUse" gradientTransform="translate(48.7295 49.465) scale(47.3932)">
<stop stop-color="#74ACDA"/>
<stop offset="0.17805" stop-color="#6CA3D4"/>
<stop offset="0.46287" stop-color="#588CC3"/>
<stop offset="0.8168" stop-color="#3866A9"/>
<stop offset="1" stop-color="#25509A"/>
</radialGradient>
</defs>
</svg>
