<svg width="55" height="54" viewBox="0 0 55 54" fill="none" xmlns="http://www.w3.org/2000/svg">
<path d="M35.5337 0.536621H19.5337C9.22442 0.536621 0.867065 8.89397 0.867065 19.2033V35.2033C0.867065 45.5126 9.22442 53.87 19.5337 53.87H35.5337C45.843 53.87 54.2004 45.5126 54.2004 35.2033V19.2033C54.2004 8.89397 45.843 0.536621 35.5337 0.536621Z" fill="#74ACDA"/>
<path d="M38.0473 24.4933L23.6054 10.0742C23.0742 9.51247 22.4092 9.23242 21.6127 9.23242C20.815 9.23242 20.1499 9.51382 19.6188 10.0742L17.9356 11.7361C17.3888 12.2819 17.1152 12.947 17.1152 13.7289C17.1152 14.4973 17.3888 15.1691 17.9356 15.7451L28.7003 26.4875L17.9342 37.2533C17.3887 37.7991 17.1152 38.4642 17.1152 39.2462C17.1152 40.0281 17.3888 40.6864 17.9342 41.2625L19.6188 42.9233C20.1645 43.4701 20.8296 43.7423 21.6113 43.7423C22.3946 43.7423 23.0596 43.4701 23.6054 42.9233L38.0473 28.5038C38.5941 27.9278 38.8676 27.2559 38.8676 26.4875C38.8676 25.7056 38.5941 25.0405 38.0473 24.4933Z" fill="white"/>
</svg>
