<svg width="98" height="99" viewBox="0 0 98 99" fill="none" xmlns="http://www.w3.org/2000/svg">
<path d="M78.7894 1.94141H18.6696C9.0967 1.94141 1.3363 9.7018 1.3363 19.2747V79.3932C1.3363 88.9662 9.0967 96.7266 18.6696 96.7266H78.7894C88.3624 96.7266 96.1228 88.9662 96.1228 79.3932V19.2747C96.1228 9.7018 88.3624 1.94141 78.7894 1.94141Z" fill="url(#paint0_radial_349_1033)"/>
<path d="M78.7887 3.27458C87.6113 3.27458 94.7887 10.4522 94.7887 19.2746V79.3936C94.7887 88.216 87.6113 95.3936 78.7887 95.3936H18.6696C9.84701 95.3936 2.6696 88.216 2.6696 79.3936V19.2746C2.6696 10.4522 9.84701 3.27458 18.6696 3.27458H78.7887ZM78.7887 0.60791H18.6696C8.403 0.60791 0.00292969 9.00782 0.00292969 19.2746V79.3936C0.00292969 89.6603 8.403 98.0602 18.6696 98.0602H78.7887C89.0553 98.0602 97.4554 89.6603 97.4554 79.3936V19.2746C97.4554 9.00782 89.0553 0.60791 78.7887 0.60791Z" fill="#74ACDA"/>
<path d="M36.9011 78.0767C36.9011 79.9536 35.518 81.4902 33.8288 81.4902H21.1298C19.4398 81.4902 18.0575 79.9536 18.0575 78.0767V62.6011C18.0575 60.7242 19.4398 59.1875 21.1298 59.1875H33.8288C35.518 59.1875 36.9011 60.7242 36.9011 62.6011V78.0767Z" fill="white"/>
<path d="M59.4817 78.0763C59.4817 79.9532 58.0987 81.4898 56.4095 81.4898H43.7106C42.0214 81.4898 40.6383 79.9532 40.6383 78.0763V54.4077C40.6383 52.5311 42.0214 50.9941 43.7106 50.9941H56.4095C58.0987 50.9941 59.4817 52.5311 59.4817 54.4077V78.0763Z" fill="white"/>
<path d="M82.0625 78.0767C82.0625 79.9536 80.6805 81.4902 78.9903 81.4902H66.2914C64.6022 81.4902 63.2191 79.9536 63.2191 78.0767V45.3053C63.2191 43.4286 64.6022 41.8916 66.2914 41.8916H78.9903C80.6805 41.8916 82.0625 43.4286 82.0625 45.3053V78.0767Z" fill="white"/>
<path d="M79.4055 17.2419L65.6054 20.9721C64.5104 21.2665 64.2664 22.2323 65.0634 23.1167L68.0076 26.3127C68.2546 26.6259 67.9615 27.0426 67.7296 27.2181C65.8755 28.6251 62.9322 30.6886 58.8648 33.0466C36.7211 45.8831 18.4676 45.0963 18.1926 45.0818C16.7274 44.9996 15.4745 46.2529 15.3995 47.8844C15.3235 49.5155 16.4525 50.9068 17.9205 50.9913C18.0285 50.9967 18.4677 51.0189 19.2058 51.0189C23.9381 51.0189 40.9392 50.1123 61.3279 38.2924C66.1523 35.4955 69.4965 33.0841 71.4487 31.5562C71.7249 31.3409 72.2058 30.9685 72.65 31.4709L75.8712 35.0489C76.6671 35.9345 77.5323 35.6622 77.7924 34.4444L80.9225 18.9207C81.1826 17.7029 80.4995 16.9474 79.4055 17.2419Z" fill="white"/>
<defs>
<radialGradient id="paint0_radial_349_1033" cx="0" cy="0" r="1" gradientUnits="userSpaceOnUse" gradientTransform="translate(48.7295 -808.334) scale(0.666667)">
<stop stop-color="#74ACDA"/>
<stop offset="0.17805" stop-color="#6CA3D4"/>
<stop offset="0.46287" stop-color="#588CC3"/>
<stop offset="0.8168" stop-color="#3866A9"/>
<stop offset="1" stop-color="#25509A"/>
</radialGradient>
</defs>
</svg>
