<svg width="98" height="98" viewBox="0 0 98 98" fill="none" xmlns="http://www.w3.org/2000/svg">
<path d="M78.7894 1.81006H18.6696C9.0967 1.81006 1.3363 9.57046 1.3363 19.1434V79.2632C1.3363 88.8361 9.0967 96.5965 18.6696 96.5965H78.7894C88.3624 96.5965 96.1228 88.8361 96.1228 79.2632V19.1434C96.1228 9.57046 88.3624 1.81006 78.7894 1.81006Z" fill="url(#paint0_radial_349_913)"/>
<path d="M78.7887 3.14372C87.6113 3.14372 94.7887 10.3213 94.7887 19.1437V79.2629C94.7887 88.0853 87.6113 95.2629 78.7887 95.2629H18.6696C9.84701 95.2629 2.6696 88.0853 2.6696 79.2629V19.1437C2.6696 10.3213 9.84701 3.14372 18.6696 3.14372H78.7887ZM78.7887 0.477051H18.6696C8.403 0.477051 0.00292969 8.87712 0.00292969 19.1437V79.2629C0.00292969 89.5295 8.403 97.9295 18.6696 97.9295H78.7887C89.0553 97.9295 97.4554 89.5295 97.4554 79.2629V19.1437C97.4554 8.87712 89.0553 0.477051 78.7887 0.477051Z" fill="#74ACDA"/>
<path d="M82.0625 66.3934C82.0625 58.7305 76.7244 52.3163 69.5628 50.6632C68.3902 50.3937 67.1722 50.2466 65.9189 50.2466C65.5673 50.2466 65.2216 50.2616 64.8759 50.2817C57.0503 50.7831 50.7435 56.8509 49.8763 64.5697C49.8099 65.1674 49.7721 65.7749 49.7721 66.3934C49.7721 67.5529 49.8964 68.6845 50.1308 69.7782C51.6868 77.0694 58.1623 82.5369 65.9189 82.5369C74.8351 82.5369 82.0625 75.3096 82.0625 66.3934ZM65.9189 77.0693C60.021 77.0693 55.2397 72.288 55.2397 66.3934C55.2397 60.4955 60.021 55.7141 65.9189 55.7141C71.8136 55.7141 76.5949 60.4955 76.5949 66.3934C76.5949 72.288 71.8136 77.0693 65.9189 77.0693Z" fill="white"/>
<path d="M68.0016 59.0986H64.3545V64.8285H58.6245V68.4757H68.0016V59.0986Z" fill="white"/>
<path d="M27.3739 15.8701C26.3693 15.8701 25.5536 16.6891 25.5536 17.6937V26.2869C25.5536 27.2915 26.3693 28.1106 27.3739 28.1106H28.9384C29.943 28.1106 30.7621 27.2915 30.7621 26.2869V17.6937C30.7621 16.6891 29.9429 15.8701 28.9384 15.8701H27.3739Z" fill="white"/>
<path d="M56.0203 15.8701C55.0157 15.8701 54.1998 16.6891 54.1998 17.6937V26.2869C54.1998 27.2915 55.0157 28.1106 56.0203 28.1106H57.5848C58.5893 28.1106 59.4083 27.2915 59.4083 26.2869V17.6937C59.4083 16.6891 58.5893 15.8701 57.5848 15.8701H56.0203Z" fill="white"/>
<path d="M19.5612 69.7783H45.3443C45.0897 68.514 44.955 67.2093 44.955 65.872C44.955 65.4345 44.9758 64.9995 45.0038 64.5698H23.2085C21.4819 64.5698 20.0827 63.1707 20.0827 61.4441V36.4449H64.876V46.106C65.2217 46.0884 65.5674 46.078 65.919 46.078C67.1625 46.078 68.3806 46.2003 69.5629 46.4217V26.0281C69.5629 23.7259 67.699 21.8594 65.3975 21.8594H62.0126V26.2872C62.0126 28.7286 60.0263 30.715 57.5848 30.715H56.0204C53.5815 30.715 51.5957 28.7286 51.5957 26.2872V21.8594H33.3663V26.2872C33.3663 28.7286 31.3798 30.715 28.9384 30.715H27.3739C24.9351 30.715 22.9494 28.7286 22.9494 26.2872V21.8594H19.5612C17.2624 21.8594 15.3959 23.7259 15.3959 26.0281V65.6095C15.3959 67.9117 17.2624 69.7783 19.5612 69.7783Z" fill="white"/>
<path d="M34.2126 44.2576C34.2126 46.5382 32.3617 48.3898 30.0778 48.3898C27.794 48.3898 25.9423 46.5382 25.9423 44.2576C25.9423 41.9737 27.7939 40.1221 30.0778 40.1221C32.3617 40.1221 34.2126 41.9737 34.2126 44.2576Z" fill="white"/>
<path d="M46.6133 44.2576C46.6133 46.5382 44.7616 48.3898 42.481 48.3898C40.1971 48.3898 38.3456 46.5382 38.3456 44.2576C38.3456 41.9737 40.1971 40.1221 42.481 40.1221C44.7616 40.1221 46.6133 41.9737 46.6133 44.2576Z" fill="white"/>
<path d="M59.0164 44.2576C59.0164 46.5382 57.1647 48.3898 54.8808 48.3898C52.5976 48.3898 50.7487 46.5382 50.7487 44.2576C50.7487 41.9737 52.5976 40.1221 54.8808 40.1221C57.1647 40.1221 59.0164 41.9737 59.0164 44.2576Z" fill="white"/>
<path d="M46.6133 56.7571C46.6133 59.041 44.7616 60.8919 42.481 60.8919C40.1971 60.8919 38.3456 59.041 38.3456 56.7571C38.3456 54.4732 40.1971 52.6216 42.481 52.6216C44.7616 52.6216 46.6133 54.4732 46.6133 56.7571Z" fill="white"/>
<path d="M34.2126 56.7571C34.2126 59.041 32.3617 60.8919 30.0778 60.8919C27.794 60.8919 25.9423 59.041 25.9423 56.7571C25.9423 54.4732 27.7939 52.6216 30.0778 52.6216C32.3617 52.6216 34.2126 54.4732 34.2126 56.7571Z" fill="white"/>
<defs>
<radialGradient id="paint0_radial_349_913" cx="0" cy="0" r="1" gradientUnits="userSpaceOnUse" gradientTransform="translate(48.7295 49.2033) scale(47.3932)">
<stop stop-color="#74ACDA"/>
<stop offset="0.17805" stop-color="#6CA3D4"/>
<stop offset="0.46287" stop-color="#588CC3"/>
<stop offset="0.8168" stop-color="#3866A9"/>
<stop offset="1" stop-color="#25509A"/>
</radialGradient>
</defs>
</svg>
