<svg width="98" height="99" viewBox="0 0 98 99" fill="none" xmlns="http://www.w3.org/2000/svg">
<path d="M79.3428 2H19.223C9.65005 2 1.88965 9.7604 1.88965 19.3333V79.4531C1.88965 89.0261 9.65005 96.7865 19.223 96.7865H79.3428C88.9157 96.7865 96.6761 89.0261 96.6761 79.4531V19.3333C96.6761 9.7604 88.9157 2 79.3428 2Z" fill="url(#paint0_radial_349_899)"/>
<path d="M79.3421 3.40544C88.1645 3.40544 95.3421 10.583 95.3421 19.4054V79.5244C95.3421 88.3468 88.1645 95.5244 79.3421 95.5244H19.2231C10.4006 95.5244 3.22306 88.3468 3.22306 79.5244V19.4054C3.22306 10.583 10.4006 3.40544 19.2231 3.40544H79.3421ZM79.3421 0.73877H19.2231C8.95646 0.73877 0.556396 9.13868 0.556396 19.4054V79.5244C0.556396 89.7912 8.95646 98.1911 19.2231 98.1911H79.3421C89.6089 98.1911 98.0088 89.7912 98.0088 79.5244V19.4054C98.0088 9.13868 89.6089 0.73877 79.3421 0.73877Z" fill="#74ACDA"/>
<path d="M20.1159 76.5078C20.1159 78.8078 21.9867 80.6745 24.2826 80.6745H45.1159V51.5078H20.1159V76.5078Z" fill="white"/>
<path d="M78.4493 34.8414H65.266C66.2118 34.1955 67.0243 33.5538 67.591 32.9788C70.9535 29.5996 70.9535 24.0997 67.591 20.7205C64.3243 17.4288 58.6326 17.4372 55.3701 20.7205C53.5618 22.533 48.7701 29.9122 49.4326 34.8414H49.1326C49.7909 29.9122 44.9993 22.533 43.1951 20.7205C39.9285 17.4372 34.2368 17.4372 30.9743 20.7205C27.616 24.0997 27.616 29.5996 30.9701 32.9788C31.541 33.5538 32.3534 34.1955 33.2993 34.8414H20.1159C17.8201 34.8414 15.9493 36.7122 15.9493 39.008V45.258C15.9493 46.408 16.8826 47.3414 18.0326 47.3414H45.1159V39.008H53.4493V47.3414H80.5326C81.6826 47.3414 82.616 46.408 82.616 45.258V39.008C82.616 36.7122 80.7493 34.8414 78.4493 34.8414ZM33.9284 30.0413C32.1826 28.283 32.1826 25.4163 33.9284 23.658C34.7743 22.808 35.8951 22.3414 37.0868 22.3414C38.2743 22.3414 39.3951 22.808 40.2409 23.658C43.0493 26.483 45.8409 33.6997 44.8701 34.7038C44.8701 34.7038 44.6951 34.8414 44.0993 34.8414C41.2201 34.8414 35.7243 31.8496 33.9284 30.0413ZM58.3243 23.658C60.0035 21.9622 62.941 21.9538 64.6368 23.658C66.3868 25.4163 66.3868 28.283 64.6368 30.0413C62.841 31.8496 57.3451 34.8414 54.4618 34.8414C53.8701 34.8414 53.6951 34.708 53.6951 34.7038C52.7243 33.6997 55.516 26.483 58.3243 23.658Z" fill="white"/>
<path d="M53.4493 80.6745H74.2826C76.5826 80.6745 78.4493 78.8078 78.4493 76.5078V51.5078H53.4493V80.6745Z" fill="white"/>
<defs>
<radialGradient id="paint0_radial_349_899" cx="0" cy="0" r="1" gradientUnits="userSpaceOnUse" gradientTransform="translate(-139.333 49.3932) scale(47.3932)">
<stop stop-color="#74ACDA"/>
<stop offset="0.17805" stop-color="#6CA3D4"/>
<stop offset="0.46287" stop-color="#588CC3"/>
<stop offset="0.8168" stop-color="#3866A9"/>
<stop offset="1" stop-color="#25509A"/>
</radialGradient>
</defs>
</svg>
