<svg width="98" height="99" viewBox="0 0 98 99" fill="none" xmlns="http://www.w3.org/2000/svg">
<path d="M79.1917 2H19.0719C9.49898 2 1.73859 9.7604 1.73859 19.3333V79.4531C1.73859 89.0261 9.49898 96.7865 19.0719 96.7865H79.1917C88.7646 96.7865 96.525 89.0261 96.525 79.4531V19.3333C96.525 9.7604 88.7646 2 79.1917 2Z" fill="url(#paint0_radial_349_951)"/>
<path d="M79.1914 3.40544C88.0138 3.40544 95.1914 10.583 95.1914 19.4054V79.5244C95.1914 88.3468 88.0138 95.5244 79.1914 95.5244H19.0722C10.2498 95.5244 3.07225 88.3468 3.07225 79.5244V19.4054C3.07225 10.583 10.2498 3.40544 19.0722 3.40544H79.1914ZM79.1914 0.73877H19.0722C8.80564 0.73877 0.405579 9.13868 0.405579 19.4054V79.5244C0.405579 89.7912 8.80564 98.1911 19.0722 98.1911H79.1914C89.458 98.1911 97.8581 89.7912 97.8581 79.5244V19.4054C97.8581 9.13868 89.458 0.73877 79.1914 0.73877Z" fill="#74ACDA"/>
<path d="M64.2031 24.4259C53.1444 13.3671 35.1435 13.3671 24.0847 24.4259C13.0348 35.4877 13.0348 53.4735 24.0847 64.5353C33.939 74.3777 49.2704 75.4323 60.3171 67.7411C60.5538 68.8407 61.0901 69.8954 61.9441 70.7493L72.2263 81.0435C74.5811 83.3835 78.3713 83.3835 80.7024 81.0435C83.0544 78.7035 83.0544 74.9103 80.7024 72.5704L70.4172 62.2761C69.5633 61.4223 68.5116 60.895 67.412 60.6612C75.1002 49.5995 74.0455 34.2683 64.2031 24.4259ZM60.6418 60.9867C51.5474 70.0777 36.7404 70.0777 27.646 60.9867C18.5518 51.8792 18.5518 37.0821 27.646 27.9744C36.7404 18.8835 51.5474 18.8835 60.6418 27.9744C69.7361 37.0821 69.7361 51.8792 60.6418 60.9867Z" fill="white"/>
<path d="M31.3359 37.5906C30.8032 37.5906 30.371 38.0229 30.371 38.5556V39.5205H27.4761C26.9435 39.5205 26.5112 39.9528 26.5112 40.4854V46.275C26.5112 46.8076 26.9435 47.2399 27.4761 47.2399H30.371V48.2049C30.371 48.7376 30.8032 49.1698 31.3359 49.1698H31.9206L35.7997 59.51C36.037 60.1295 36.5677 60.5791 37.22 60.7104C37.3493 60.7374 37.4786 60.7509 37.606 60.7509C38.1213 60.7509 38.6114 60.5464 38.9627 60.1797L41.2805 57.8812C41.8729 57.2887 42.0138 56.3643 41.6355 55.6484L38.3972 49.1698H40.9601C41.2921 49.1853 41.6201 49.2373 41.9501 49.2682V37.4922C41.6163 37.5231 41.2863 37.5752 40.9505 37.5907L31.3359 37.5906Z" fill="white"/>
<path d="M57.2308 30.3381C57.2115 30.3053 57.1942 30.2783 57.1691 30.2474C57.0629 30.1123 56.9298 30.0023 56.7657 29.9386C56.76 29.9367 56.7561 29.929 56.7503 29.9271C56.731 29.9213 56.7136 29.9309 56.6943 29.9251C56.6075 29.9 56.5206 29.8711 56.4241 29.8711C56.3585 29.8711 56.3006 29.8962 56.2369 29.9097C56.2003 29.9174 56.1655 29.9193 56.1289 29.9309C55.9629 29.9849 55.82 30.0775 55.7062 30.2049C55.6985 30.2126 55.687 30.2146 55.6792 30.2223C52.6706 33.8756 48.475 36.3187 43.88 37.2142V49.5479C48.475 50.4434 52.6706 52.8847 55.6792 56.5379C55.687 56.5476 55.7004 56.5515 55.7101 56.5631C55.7776 56.6383 55.8606 56.6981 55.9494 56.7483C55.9784 56.7657 56.0015 56.7908 56.0305 56.8043C56.1521 56.8564 56.2832 56.8892 56.4241 56.8892C56.5341 56.8892 56.6422 56.8699 56.7503 56.8333C56.7561 56.8313 56.76 56.8235 56.7657 56.8216C56.9298 56.7579 57.0629 56.6499 57.1691 56.5129C57.1922 56.482 57.2096 56.455 57.2308 56.4222C57.3235 56.2736 57.3891 56.1095 57.3891 55.9242V30.836C57.3891 30.6508 57.3235 30.4867 57.2308 30.3381Z" fill="white"/>
<defs>
<radialGradient id="paint0_radial_349_951" cx="0" cy="0" r="1" gradientUnits="userSpaceOnUse" gradientTransform="translate(49.1318 49.3932) scale(47.3932)">
<stop stop-color="#74ACDA"/>
<stop offset="0.17805" stop-color="#6CA3D4"/>
<stop offset="0.46287" stop-color="#588CC3"/>
<stop offset="0.8168" stop-color="#3866A9"/>
<stop offset="1" stop-color="#25509A"/>
</radialGradient>
</defs>
</svg>
