<svg width="98" height="99" viewBox="0 0 98 99" fill="none" xmlns="http://www.w3.org/2000/svg">
<path d="M79.1917 1.94141H19.0719C9.49898 1.94141 1.73859 9.7018 1.73859 19.2747V79.3932C1.73859 88.9662 9.49898 96.7266 19.0719 96.7266H79.1917C88.7646 96.7266 96.525 88.9662 96.525 79.3932V19.2747C96.525 9.7018 88.7646 1.94141 79.1917 1.94141Z" fill="url(#paint0_radial_349_941)"/>
<path d="M79.1914 3.27458C88.0138 3.27458 95.1914 10.4522 95.1914 19.2746V79.3936C95.1914 88.216 88.0138 95.3936 79.1914 95.3936H19.0722C10.2498 95.3936 3.07225 88.216 3.07225 79.3936V19.2746C3.07225 10.4522 10.2498 3.27458 19.0722 3.27458H79.1914ZM79.1914 0.60791H19.0722C8.80564 0.60791 0.405579 9.00782 0.405579 19.2746V79.3936C0.405579 89.6603 8.80564 98.0602 19.0722 98.0602H79.1914C89.458 98.0602 97.8581 89.6603 97.8581 79.3936V19.2746C97.8581 9.00782 89.458 0.60791 79.1914 0.60791Z" fill="#74ACDA"/>
<path d="M54.8634 54.2595C46.1251 54.2595 39.0159 47.1503 39.0159 38.412C39.0159 29.6737 46.1251 22.5645 54.8634 22.5645C63.6017 22.5645 70.711 29.6737 70.711 38.412C70.711 47.1504 63.6017 54.2595 54.8634 54.2595Z" fill="white"/>
<path d="M79.5152 82.6677H30.2117C29.2392 82.6677 28.4509 81.8794 28.4509 80.9069C28.4509 74.7831 30.8286 68.9965 35.146 64.6127C39.4847 60.2073 45.2366 57.7812 51.3417 57.7812H58.3851C64.4904 57.7812 70.2421 60.2073 74.5808 64.6127C78.8983 68.9965 81.276 74.7831 81.276 80.9069C81.276 81.8794 80.4876 82.6677 79.5152 82.6677Z" fill="white"/>
<path d="M42.9109 52.1514C42.7618 52.0366 42.6075 51.9283 42.4617 51.8091H41.2057C34.7466 51.8091 28.6612 54.3759 24.071 59.0365C19.503 63.6746 16.9876 69.7969 16.9876 76.2756C16.9876 77.3044 17.8218 78.1384 18.8504 78.1384H25.4319C25.9553 72.5225 28.3812 67.2871 32.4036 63.2028C36.9938 58.5422 43.0793 55.9753 49.5384 55.9753H50.0242C47.3589 55.2397 44.9402 53.919 42.9109 52.1514Z" fill="white"/>
<path d="M36.6278 38.4119C36.6278 28.3568 44.8082 20.1761 54.8635 20.1761C55.9295 20.1761 56.9685 20.2868 57.985 20.4632C55.1323 17.7068 51.2581 16.001 46.9875 16.001C38.2492 16.001 31.14 23.1103 31.14 31.8486C31.14 37.1499 33.7658 41.8395 37.7751 44.718C37.046 42.7492 36.6278 40.6311 36.6278 38.4119Z" fill="white"/>
<defs>
<radialGradient id="paint0_radial_349_941" cx="0" cy="0" r="1" gradientUnits="userSpaceOnUse" gradientTransform="translate(49.1318 -808.334) scale(0.666667)">
<stop stop-color="#74ACDA"/>
<stop offset="0.17805" stop-color="#6CA3D4"/>
<stop offset="0.46287" stop-color="#588CC3"/>
<stop offset="0.8168" stop-color="#3866A9"/>
<stop offset="1" stop-color="#25509A"/>
</radialGradient>
</defs>
</svg>
