<svg width="98" height="99" viewBox="0 0 98 99" fill="none" xmlns="http://www.w3.org/2000/svg">
<path d="M79.3428 2H19.223C9.65005 2 1.88965 9.7604 1.88965 19.3333V79.4518C1.88965 89.0248 9.65005 96.7852 19.223 96.7852H79.3428C88.9157 96.7852 96.6761 89.0248 96.6761 79.4518V19.3333C96.6761 9.7604 88.9157 2 79.3428 2Z" fill="url(#paint0_radial_349_767)"/>
<path d="M79.3421 3.5363C88.1645 3.5363 95.3421 10.7139 95.3421 19.5363V79.6554C95.3421 88.4779 88.1645 95.6554 79.3421 95.6554H19.2231C10.4006 95.6554 3.22306 88.4779 3.22306 79.6554V19.5363C3.22306 10.7139 10.4006 3.5363 19.2231 3.5363H79.3421ZM79.3421 0.869629H19.2231C8.95646 0.869629 0.556396 9.2697 0.556396 19.5363V79.6554C0.556396 89.922 8.95646 98.3221 19.2231 98.3221H79.3421C89.6089 98.3221 98.0088 89.922 98.0088 79.6554V19.5363C98.0088 9.2697 89.6089 0.869629 79.3421 0.869629Z" fill="#74ACDA"/>
<path d="M21.7464 16.2627H53.9928L72.4711 34.741V45.2482H66.674V39.4511H49.2826V22.0598H27.5435V71.3351H43.8478L39.1377 77.1323H21.7464L21.7464 16.2627ZM72.4711 73.8714L66.674 65.5381V59.741L72.4711 52.4946V73.8714ZM52.5435 77.1323L56.8696 71.8356L60.1522 77.1323H52.5435ZM53.6305 23.8714V35.1033H64.8623L53.6305 23.8714ZM40.9493 46.6975H51.4566L58.0325 56.0049L65.2247 46.6975H74.645L62.3358 62.21L76.8189 82.9294H65.9493L56.8512 69.1904L49.2827 78.5816H39.8623L52.5477 62.9854L40.9493 46.6975Z" fill="white"/>
<defs>
<radialGradient id="paint0_radial_349_767" cx="0" cy="0" r="1" gradientUnits="userSpaceOnUse" gradientTransform="translate(-139.333 49.3926) scale(0.666667)">
<stop stop-color="#74ACDA"/>
<stop offset="0.17805" stop-color="#6CA3D4"/>
<stop offset="0.46287" stop-color="#588CC3"/>
<stop offset="0.8168" stop-color="#3866A9"/>
<stop offset="1" stop-color="#25509A"/>
</radialGradient>
</defs>
</svg>
