<svg width="53" height="48" viewBox="0 0 53 48" fill="none" xmlns="http://www.w3.org/2000/svg">
<path d="M35.3411 47.8813H32.2348C30.5467 47.8813 29.1734 46.5082 29.1734 44.8201V27.3069C29.1734 26.7698 28.7369 26.3332 28.2024 26.3279L24.9426 26.3067C24.6463 26.3147 24.4321 26.4046 24.2468 26.5898C24.059 26.775 23.9584 27.0211 23.9584 27.283V44.8201C23.9584 46.5082 22.5851 47.8813 20.8971 47.8813H17.7908C16.1027 47.8813 14.7294 46.5082 14.7294 44.8201V20.2794C14.7294 19.7396 14.2903 19.303 13.7506 19.303H10.8002C10.2605 19.303 9.82397 19.7396 9.82397 20.2794V32.8368C9.82397 34.5249 8.45071 35.8981 6.76261 35.8981H1.63485C1.06066 35.8981 0.594971 35.4324 0.594971 34.8556C0.594971 34.2814 1.06066 33.8158 1.63485 33.8158H6.76261C7.29973 33.8158 7.73901 33.3766 7.73901 32.8368V20.2794C7.73901 18.5913 9.11212 17.218 10.8002 17.218H13.7506C15.4387 17.218 16.8118 18.5913 16.8118 20.2794V44.8201C16.8118 45.3599 17.2511 45.7965 17.7908 45.7965H20.8971C21.4342 45.7965 21.8735 45.3599 21.8735 44.8201V27.283C21.8735 26.4601 22.1935 25.6902 22.7782 25.1108C23.3603 24.5313 24.1144 24.2164 24.9558 24.2218L28.2183 24.2455C29.8932 24.2561 31.2584 25.6294 31.2584 27.3069V44.8201C31.2584 45.3599 31.695 45.7965 32.2348 45.7965H35.3411C35.8808 45.7965 36.3175 45.3599 36.3175 44.8201V13.0295C36.3175 11.3414 37.6906 9.96826 39.3787 9.96826H42.4849C44.173 9.96826 45.5463 11.3414 45.5463 13.0295V26.9073C45.5463 27.4444 45.9855 27.8836 46.5253 27.8836H51.6503C52.2245 27.8836 52.693 28.3494 52.693 28.9262C52.693 29.5003 52.2245 29.9687 51.6503 29.9687H46.5253C44.8372 29.9687 43.464 28.5954 43.464 26.9073V13.0295C43.464 12.4924 43.0247 12.0532 42.4849 12.0532H39.3787C38.8416 12.0532 38.4024 12.4924 38.4024 13.0295V44.8201C38.4024 46.5082 37.0291 47.8813 35.3411 47.8813Z" fill="#D7D8D9"/>
<path d="M15.8571 11.0109C15.8571 12.99 14.2509 14.5962 12.2718 14.5962C10.2927 14.5962 8.68652 12.99 8.68652 11.0109C8.68652 9.03177 10.2926 7.42578 12.2718 7.42578C14.251 7.42578 15.8571 9.03181 15.8571 11.0109Z" fill="#D7D8D9"/>
<path d="M30.2288 17.8845C30.2288 19.8637 28.6227 21.4697 26.6436 21.4697C24.6645 21.4697 23.0583 19.8637 23.0583 17.8845C23.0583 15.9054 24.6645 14.2993 26.6436 14.2993C28.6228 14.2993 30.2288 15.9054 30.2288 17.8845Z" fill="#D7D8D9"/>
<path d="M44.5574 3.84049C44.5574 5.81963 42.9513 7.42578 40.9722 7.42578C38.9932 7.42578 37.387 5.81963 37.387 3.84049C37.387 1.86136 38.9931 0.255371 40.9722 0.255371C42.9514 0.255371 44.5574 1.8614 44.5574 3.84049Z" fill="#D7D8D9"/>
</svg>
