<svg width="98" height="99" viewBox="0 0 98 99" fill="none" xmlns="http://www.w3.org/2000/svg">
<path d="M79.3428 2H19.223C9.65005 2 1.88965 9.7604 1.88965 19.3333V79.4518C1.88965 89.0248 9.65005 96.7852 19.223 96.7852H79.3428C88.9157 96.7852 96.6761 89.0248 96.6761 79.4518V19.3333C96.6761 9.7604 88.9157 2 79.3428 2Z" fill="url(#paint0_radial_349_744)"/>
<path d="M79.3421 3.27458C88.1645 3.27458 95.3421 10.4522 95.3421 19.2746V79.3936C95.3421 88.216 88.1645 95.3936 79.3421 95.3936H19.2231C10.4006 95.3936 3.22306 88.216 3.22306 79.3936V19.2746C3.22306 10.4522 10.4006 3.27458 19.2231 3.27458H79.3421ZM79.3421 0.60791H19.2231C8.95646 0.60791 0.556396 9.00782 0.556396 19.2746V79.3936C0.556396 89.6603 8.95646 98.0602 19.2231 98.0602H79.3421C89.6089 98.0602 98.0088 89.6603 98.0088 79.3936V19.2746C98.0088 9.00782 89.6089 0.60791 79.3421 0.60791Z" fill="#74ACDA"/>
<path d="M64.6236 57.1396C63.5818 58.8202 62.4476 60.5643 61.2135 62.3792C71.5581 63.9236 76.8538 67.2339 76.8538 68.8872C76.8538 71.0778 67.4747 76.2246 49.2827 76.2246C31.0924 76.2246 21.7132 71.0778 21.7132 68.8872C21.7132 67.2339 27.009 63.9236 37.3518 62.3792C36.1178 60.5643 34.9834 58.8202 33.9418 57.1396C23.7404 59.067 15.9493 63.0234 15.9493 68.8871C15.9493 77.4859 32.7221 81.9868 49.2827 81.9868C65.8433 81.9868 82.616 77.4859 82.616 68.8871C82.616 63.0234 74.8249 59.067 64.6236 57.1396Z" fill="white"/>
<path d="M49.2827 68.3407C50.7853 68.3407 52.19 67.6239 53.0757 66.4116C58.747 58.6713 68.7777 43.8966 68.7777 36.1762C68.7777 25.4087 60.052 16.6812 49.2827 16.6812C38.5151 16.6812 29.7875 25.4087 29.7875 36.1762C29.7875 43.8966 39.8182 58.6713 45.4896 66.4116C46.3771 67.6239 47.7872 68.3407 49.2827 68.3407ZM41.172 35.7933C41.172 31.3124 44.8018 27.6827 49.2827 27.6827C53.7635 27.6827 57.3932 31.3124 57.3932 35.7933C57.3932 40.2669 53.7635 43.8966 49.2827 43.8966C44.8018 43.8966 41.172 40.2669 41.172 35.7933Z" fill="white"/>
<defs>
<radialGradient id="paint0_radial_349_744" cx="0" cy="0" r="1" gradientUnits="userSpaceOnUse" gradientTransform="translate(49.2829 49.3926) scale(47.3929 47.3929)">
<stop stop-color="#74ACDA"/>
<stop offset="0.17805" stop-color="#6CA3D4"/>
<stop offset="0.46287" stop-color="#588CC3"/>
<stop offset="0.8168" stop-color="#3866A9"/>
<stop offset="1" stop-color="#25509A"/>
</radialGradient>
</defs>
</svg>
