<svg width="245" height="68" viewBox="0 0 245 68" fill="none" xmlns="http://www.w3.org/2000/svg">
<path d="M82.0914 35.3955C82.0914 35.6808 82.0433 35.8585 81.9543 35.9289C81.8617 36.0029 81.6729 36.0363 81.3877 36.0363H79.0655C78.8432 36.0363 78.6692 35.9955 78.547 35.9141C78.4247 35.8326 78.3655 35.6585 78.3655 35.3955V20.1216C78.3655 19.4068 78.4507 18.7215 78.6248 18.0586C78.7988 17.3957 79.0988 16.8105 79.5247 16.303C79.9543 15.7919 80.5136 15.3845 81.2062 15.0809C81.8988 14.7734 82.7654 14.6216 83.8024 14.6216H92.2024C92.4876 14.6216 92.6654 14.6771 92.7395 14.7882C92.8098 14.8993 92.8432 15.0809 92.8432 15.3253V17.2179C92.8432 17.4808 92.8061 17.666 92.7246 17.766C92.6395 17.8697 92.469 17.9216 92.2024 17.9216H84.1987C83.4247 17.9216 82.8802 18.0882 82.5655 18.4253C82.2507 18.7623 82.0914 19.2549 82.0914 19.9067V35.3955Z" fill="white"/>
<path d="M107.297 21.3737C107.297 21.0256 107.237 20.6515 107.126 20.2441C107.015 19.8367 106.822 19.4627 106.548 19.1293C106.271 18.7923 105.889 18.5108 105.4 18.2886C104.911 18.0626 104.289 17.9515 103.537 17.9515H99.0151V24.733H103.6C104.882 24.733 105.819 24.4182 106.408 23.7848C107 23.1552 107.297 22.3515 107.297 21.3737ZM98.9855 35.3958C98.9855 35.6811 98.941 35.8588 98.8484 35.9292C98.7558 36.0032 98.567 36.0366 98.2818 36.0366H95.9929C95.7669 36.0366 95.5929 35.9958 95.4743 35.9144C95.3484 35.8329 95.2892 35.6588 95.2892 35.3958V16.333C95.2892 15.7626 95.4114 15.3293 95.6558 15.033C95.9003 14.7404 96.3485 14.5923 97.0003 14.5923H104.271C105.289 14.5923 106.222 14.7478 107.067 15.0663C107.911 15.3812 108.634 15.8293 109.234 16.4071C109.834 16.9886 110.304 17.6812 110.641 18.4848C110.978 19.2923 111.145 20.17 111.145 21.1293C111.145 21.6774 111.056 22.3367 110.885 23.0996C110.711 23.8626 110.367 24.6034 109.848 25.3145C109.326 26.0292 108.6 26.6329 107.663 27.1329C106.726 27.6329 105.493 27.8811 103.967 27.8811H98.9855L98.9855 35.3958Z" fill="white"/>
<path d="M118.72 28.1856H124.586L122.997 23.0523L121.716 18.7153H121.564L120.309 22.9597L118.72 28.1856ZM125.564 31.3633H117.805L116.46 35.5189C116.401 35.7003 116.312 35.8336 116.201 35.9151C116.09 35.9966 115.909 36.0374 115.664 36.0374H112.853C112.631 36.0374 112.49 35.9707 112.427 35.8374C112.364 35.7077 112.364 35.5596 112.427 35.3966L119.027 16.056C119.127 15.7523 119.231 15.5079 119.331 15.3227C119.434 15.1412 119.56 15.0004 119.712 14.8967C119.868 14.7968 120.046 14.719 120.249 14.6671C120.453 14.6153 120.694 14.5894 120.983 14.5894H122.294C122.927 14.5894 123.375 14.6893 123.638 14.8819C123.905 15.0745 124.138 15.4671 124.342 16.056L130.972 35.3966C131.034 35.5596 131.038 35.7077 130.986 35.8374C130.934 35.9707 130.797 36.0374 130.575 36.0374H127.764C127.538 36.0374 127.36 36.0114 127.227 35.9596C127.097 35.9115 126.99 35.7744 126.909 35.5485L125.564 31.3633Z" fill="white"/>
<path d="M137.203 24.4588C136.529 24.0737 135.991 23.5588 135.584 22.9144C135.177 22.2737 134.869 21.5256 134.666 20.67L133.325 15.2034C133.284 15.0997 133.277 14.9738 133.306 14.8219C133.34 14.6663 133.488 14.5923 133.751 14.5923H136.254C136.358 14.5923 136.473 14.6108 136.606 14.6515C136.74 14.6923 136.825 14.8145 136.866 15.0182L138.18 20.1811C138.366 20.833 138.592 21.3515 138.865 21.7404C139.143 22.1256 139.436 22.4219 139.754 22.6255C140.069 22.8293 140.399 22.9552 140.747 23.007C141.091 23.0589 141.417 23.0848 141.725 23.0848H144.536V15.1404C144.495 14.9182 144.514 14.7812 144.595 14.7293C144.677 14.6774 144.821 14.6515 145.025 14.6515H147.651C147.836 14.6515 147.973 14.6774 148.065 14.7293C148.154 14.7812 148.202 14.9182 148.202 15.1404V23.0848H150.98C151.288 23.0848 151.614 23.0589 151.958 23.007C152.306 22.9552 152.636 22.8293 152.951 22.6255C153.265 22.4219 153.562 22.1256 153.836 21.7404C154.114 21.3515 154.343 20.833 154.525 20.1811L155.869 15.0182C155.91 14.8145 155.995 14.6923 156.128 14.6515C156.262 14.6108 156.376 14.5923 156.48 14.5923H158.984C159.251 14.5923 159.399 14.6663 159.428 14.8219C159.458 14.9738 159.454 15.0997 159.414 15.2034L158.069 20.67C157.865 21.5256 157.554 22.2737 157.136 22.9144C156.717 23.5589 156.184 24.0737 155.532 24.4588V24.6107C156.062 24.7959 156.499 25.0033 156.847 25.2366C157.191 25.4736 157.477 25.7477 157.702 26.0626C157.925 26.3774 158.102 26.7255 158.236 27.0996C158.369 27.4773 158.495 27.8922 158.617 28.3403L160.514 35.4255C160.554 35.5292 160.558 35.6551 160.528 35.807C160.499 35.9625 160.351 36.0366 160.084 36.0366H157.365C157.262 36.0366 157.154 36.018 157.028 35.9773C156.906 35.9366 156.817 35.8144 156.754 35.6106L154.951 28.9181C154.791 28.37 154.606 27.9144 154.402 27.5588C154.199 27.2033 153.943 26.9292 153.64 26.7329C153.332 26.5403 152.977 26.4033 152.569 26.3218C152.162 26.2403 151.695 26.1996 151.165 26.1996H148.202V35.5477C148.202 35.7736 148.154 35.9107 148.065 35.9625C147.973 36.0106 147.836 36.0366 147.651 36.0366H145.054C144.851 36.0366 144.706 36.0106 144.625 35.9625C144.543 35.9107 144.503 35.7736 144.503 35.5477L144.536 26.1996H141.573C141.043 26.1996 140.573 26.2403 140.166 26.3218C139.758 26.4033 139.403 26.5403 139.095 26.7329C138.791 26.9292 138.525 27.2033 138.303 27.5588C138.08 27.9144 137.895 28.37 137.751 28.9181L135.98 35.6106C135.921 35.8144 135.829 35.9366 135.706 35.9773C135.584 36.018 135.473 36.0366 135.369 36.0366H132.651C132.384 36.0366 132.24 35.9625 132.206 35.807C132.177 35.6551 132.18 35.5292 132.221 35.4255L134.117 28.3403C134.24 27.9107 134.366 27.507 134.499 27.1329C134.632 26.7552 134.81 26.4107 135.032 26.0922C135.258 25.7774 135.543 25.4959 135.888 25.2514C136.236 25.007 136.673 24.7959 137.203 24.6107V24.4588Z" fill="white"/>
<path d="M177.223 17.9227H170.564L169.83 23.9708C169.649 25.5596 169.482 26.8411 169.342 27.8189C169.201 28.7967 169.056 29.593 168.916 30.2004C168.771 30.8115 168.623 31.2966 168.471 31.6522C168.319 32.0115 168.131 32.3707 167.905 32.7374H177.223V17.9227ZM165.401 36.0373L165.034 40.53C165.012 40.7522 164.964 40.9003 164.882 40.9706C164.801 41.0411 164.679 41.0781 164.516 41.0781H162.497C162.356 41.0781 162.242 41.0411 162.164 40.9706C162.082 40.9003 162.031 40.7522 162.008 40.53L161.582 34.267C161.582 33.9189 161.649 33.5966 161.782 33.3041C161.912 33.0078 162.212 32.8411 162.682 32.8004L163.782 32.7078C164.149 32.3004 164.449 31.8782 164.682 31.4411C164.916 31.0004 165.112 30.53 165.264 30.0189C165.416 29.5115 165.542 28.9448 165.645 28.3226C165.745 27.7041 165.849 27.0041 165.949 26.23L167.205 16.5153C167.305 15.8857 167.53 15.4153 167.875 15.1116C168.223 14.8042 168.749 14.6523 169.464 14.6523H178.905C179.656 14.6523 180.182 14.819 180.479 15.156C180.771 15.493 180.919 16.0079 180.919 16.7004V32.767L182.171 32.83C182.66 32.8707 182.964 33.0078 183.075 33.2411C183.186 33.4781 183.23 33.7263 183.212 33.9892L182.816 40.53C182.793 40.7522 182.749 40.9003 182.679 40.9706C182.604 41.0411 182.49 41.0781 182.327 41.0781H180.279C180.116 41.0781 180.005 41.0411 179.942 40.9706C179.882 40.9003 179.842 40.7522 179.823 40.53L179.638 36.0373H165.401Z" fill="white"/>
<path d="M190.725 28.1856H196.592L195.003 23.0523L193.722 18.7153H193.57L192.314 22.9597L190.725 28.1856ZM197.57 31.3633H189.81L188.466 35.5189C188.407 35.7003 188.318 35.8336 188.207 35.9151C188.096 35.9966 187.918 36.0374 187.67 36.0374H184.859C184.636 36.0374 184.496 35.9707 184.433 35.8374C184.37 35.7077 184.37 35.5596 184.433 35.3966L191.033 16.056C191.133 15.7523 191.236 15.5079 191.336 15.3227C191.44 15.1412 191.566 15.0004 191.718 14.8967C191.873 14.7968 192.051 14.719 192.255 14.6671C192.459 14.6153 192.699 14.5894 192.988 14.5894H194.299C194.933 14.5894 195.381 14.6893 195.644 14.8819C195.91 15.0745 196.144 15.4671 196.347 16.056L202.977 35.3966C203.04 35.5596 203.044 35.7077 202.992 35.8374C202.94 35.9707 202.803 36.0374 202.581 36.0374H199.77C199.544 36.0374 199.366 36.0114 199.233 35.9596C199.103 35.9115 198.996 35.7744 198.914 35.5485L197.57 31.3633Z" fill="white"/>
<path d="M222.453 35.93C222.36 36.0004 222.171 36.0374 221.886 36.0374H219.568C219.323 36.0374 219.142 35.9967 219.031 35.9152C218.92 35.8337 218.864 35.6596 218.864 35.3967V26.4153H209.364V35.3967C209.364 35.6819 209.312 35.8596 209.208 35.93C209.108 36.0004 208.912 36.0374 208.627 36.0374H206.309C206.083 36.0374 205.909 35.9967 205.79 35.9152C205.664 35.8337 205.605 35.6596 205.605 35.3967V15.2931C205.605 15.0301 205.664 14.8561 205.79 14.7746C205.908 14.6931 206.083 14.6523 206.309 14.6523H208.627C208.912 14.6523 209.108 14.6894 209.208 14.7598C209.312 14.8301 209.364 15.0079 209.364 15.2931V23.2042H218.864V15.2931C218.864 15.0301 218.92 14.8561 219.031 14.7746C219.142 14.6931 219.323 14.6523 219.568 14.6523H221.886C222.171 14.6523 222.36 14.6894 222.453 14.7598C222.545 14.8301 222.59 15.0079 222.59 15.2931V35.3967C222.59 35.6819 222.545 35.8596 222.453 35.93Z" fill="white"/>
<path d="M240.584 19.9983L237.895 24.6428L231.877 34.7242C231.573 35.2316 231.295 35.5797 231.055 35.7612C230.806 35.9464 230.41 36.0353 229.862 36.0353H228.792C228.099 36.0353 227.632 35.8798 227.388 35.5649C227.143 35.2464 227.021 34.7946 227.021 34.2057V15.1391C227.021 14.9169 227.066 14.7725 227.158 14.7132C227.247 14.6503 227.395 14.6206 227.599 14.6206H230.136C230.362 14.6206 230.514 14.6503 230.595 14.7132C230.677 14.7725 230.718 14.9169 230.718 15.1391V30.5983H230.84L233.373 26.3205L239.547 15.9651C239.851 15.4354 240.125 15.0799 240.369 14.8947C240.614 14.7132 241.003 14.6206 241.532 14.6206H242.632C243.303 14.6206 243.766 14.7688 244.021 15.0651C244.277 15.3613 244.403 15.8354 244.403 16.4836V35.5168C244.403 35.7427 244.358 35.8834 244.266 35.9465C244.173 36.0057 244.025 36.0353 243.825 36.0353H241.288C241.062 36.0353 240.91 36.0057 240.829 35.9465C240.747 35.8834 240.706 35.7427 240.706 35.5168V19.9983L240.584 19.9983Z" fill="white"/>
<path d="M80.8584 61.0151C80.7732 61.0781 80.6509 61.1077 80.4881 61.1077H79.214C79.051 61.1077 78.9214 61.0781 78.8288 61.0151C78.7361 60.9522 78.688 60.8262 78.688 60.6374V45.0856C78.688 44.8967 78.7361 44.7708 78.8288 44.7078C78.9214 44.6448 79.051 44.6152 79.214 44.6152H80.4881C80.6509 44.6152 80.7732 44.6448 80.8584 44.7078C80.9398 44.7708 80.9806 44.8967 80.9806 45.0856V51.2745H89.7473V45.0856C89.7473 44.8967 89.7917 44.7708 89.8769 44.7078C89.9583 44.6448 90.0879 44.6152 90.2584 44.6152H91.5657C91.7546 44.6152 91.8805 44.6448 91.9472 44.7078C92.0102 44.7708 92.0435 44.8967 92.0435 45.0856V60.6374C92.0435 60.8262 92.0102 60.9522 91.9472 61.0151C91.8805 61.0781 91.7546 61.1077 91.5657 61.1077H90.2584C90.0879 61.1077 89.9583 61.0781 89.8769 61.0151C89.7917 60.9522 89.7473 60.8262 89.7473 60.6374V53.256H80.9806V60.6374C80.9806 60.8262 80.9398 60.9522 80.8584 61.0151Z" fill="white"/>
<path d="M105.931 52.7527H101.875C101.497 52.7527 101.049 52.7824 100.523 52.8453C100.001 52.9083 99.5047 53.0602 99.0343 53.3046C98.5603 53.5453 98.164 53.9046 97.838 54.3787C97.512 54.849 97.3528 55.4971 97.3528 56.3193C97.3528 56.949 97.4713 57.4749 97.7121 57.8972C97.9529 58.3156 98.2787 58.6527 98.6862 58.9082C99.0935 59.1601 99.5602 59.3342 100.086 59.4267C100.608 59.523 101.153 59.5712 101.719 59.5712C101.908 59.5712 102.164 59.5601 102.49 59.5378C102.812 59.5156 103.175 59.486 103.575 59.4453C103.971 59.4008 104.375 59.3342 104.782 59.2379C105.19 59.1452 105.575 59.0341 105.931 58.9082L105.931 52.7527ZM108.286 59.6638C108.286 60.0416 108.138 60.2935 107.845 60.4194C106.905 60.8157 105.897 61.0897 104.831 61.2342C103.76 61.3823 102.734 61.4564 101.749 61.4564C100.408 61.4564 99.3121 61.3082 98.4528 61.012C97.5899 60.7193 96.9121 60.3379 96.4084 59.8638C95.9047 59.3898 95.5528 58.8453 95.3565 58.2231C95.1565 57.6045 95.0565 56.9601 95.0565 56.2861C95.0565 55.5083 95.1936 54.7787 95.464 54.0972C95.7381 53.4157 96.1529 52.8194 96.7084 52.3157C97.2639 51.812 97.9602 51.4194 98.7973 51.1342C99.6342 50.849 100.631 50.7083 101.782 50.7083H105.96V49.8712C105.96 49.3565 105.908 48.875 105.801 48.4342C105.697 47.9898 105.497 47.612 105.208 47.3009C104.912 46.9935 104.505 46.749 103.979 46.575C103.456 46.3972 102.775 46.3083 101.938 46.3083C101.249 46.3083 100.486 46.3787 99.6602 46.5157C98.8343 46.6491 98.1269 46.8121 97.538 47.0009C97.3936 47.0453 97.2787 47.0602 97.1935 47.0491C97.1084 47.0379 97.0491 46.9602 97.0047 46.8121L96.6899 45.6713C96.6269 45.438 96.7121 45.2787 96.9417 45.1935C97.3194 45.0454 97.7269 44.9121 98.1676 44.7935C98.6084 44.6787 99.0639 44.575 99.5343 44.4898C100.005 44.4046 100.482 44.3491 100.964 44.3157C101.445 44.2824 101.897 44.2676 102.316 44.2676C104.345 44.2676 105.849 44.7195 106.823 45.6194C107.797 46.5194 108.286 47.838 108.286 49.5787V59.6638Z" fill="white"/>
<path d="M121.828 61.0312C121.764 61.0831 121.65 61.109 121.483 61.109H120.098C119.931 61.109 119.813 61.0831 119.739 61.0312C119.665 60.9794 119.627 60.8683 119.627 60.7016V45.0202C119.627 44.8535 119.665 44.7462 119.739 44.6906C119.813 44.6387 119.931 44.6128 120.098 44.6128H121.483C121.65 44.6128 121.764 44.6387 121.828 44.6906C121.89 44.7424 121.92 44.8535 121.92 45.0202V51.3387H125.19C125.524 51.3387 125.846 51.3054 126.15 51.2424C126.45 51.1831 126.735 51.0684 126.998 50.9017C127.257 50.735 127.494 50.4943 127.705 50.1795C127.913 49.8684 128.09 49.4721 128.239 48.9906L129.494 44.9573C129.535 44.7906 129.594 44.6906 129.668 44.6609C129.739 44.6277 129.827 44.6128 129.935 44.6128H131.35C131.516 44.6128 131.616 44.661 131.646 44.7536C131.679 44.8499 131.683 44.9499 131.664 45.0536L130.468 49.1906C130.279 49.8609 130.035 50.461 129.731 50.9943C129.427 51.5276 128.99 51.9202 128.427 52.1683L128.394 52.2313C129.19 52.4647 129.761 52.8424 130.109 53.3646C130.453 53.8905 130.731 54.4979 130.939 55.1905L132.542 60.6387C132.564 60.7424 132.564 60.8461 132.542 60.9535C132.524 61.0572 132.416 61.1091 132.227 61.1091H130.69C130.605 61.1091 130.52 61.0943 130.439 61.0609C130.353 61.0312 130.29 60.9424 130.25 60.7942L128.709 55.5461C128.438 54.6683 128.005 54.0609 127.42 53.7239C126.835 53.3906 126.205 53.2239 125.535 53.2239H121.92V60.7016C121.92 60.8683 121.89 60.9794 121.828 61.0312Z" fill="white"/>
<path d="M146.21 56.1443C146.21 55.2665 145.913 54.5591 145.313 54.0221C144.717 53.4887 143.821 53.2221 142.628 53.2221H137.191V59.285H142.628C143.384 59.285 143.995 59.1813 144.465 58.9739C144.939 58.7628 145.298 58.4998 145.55 58.1887C145.802 57.8739 145.973 57.5331 146.069 57.1665C146.161 56.7998 146.21 56.4591 146.21 56.1443ZM137.191 51.3369H142.724C142.973 51.3369 143.261 51.2999 143.587 51.2295C143.91 51.1554 144.213 51.0258 144.498 50.8369C144.78 50.6517 145.017 50.3999 145.206 50.0888C145.391 49.7777 145.487 49.3814 145.487 48.9036C145.487 48.2555 145.261 47.711 144.813 47.2629C144.361 46.8185 143.739 46.5925 142.943 46.5925H137.191V51.3369ZM145.613 52.248C146.18 52.4184 146.65 52.6406 147.028 52.9221C147.402 53.2073 147.706 53.5332 147.939 53.8962C148.169 54.2665 148.332 54.6591 148.424 55.0776C148.521 55.4962 148.565 55.9036 148.565 56.3035C148.565 57.0146 148.428 57.6628 148.158 58.248C147.884 58.8369 147.51 59.3443 147.028 59.7739C146.547 60.2035 145.973 60.5332 145.313 60.7628C144.654 60.9924 143.928 61.1073 143.132 61.1073H136.154C135.317 61.1073 134.899 60.7221 134.899 59.948V45.7777C134.899 44.9999 135.317 44.6147 136.154 44.6147H142.88C144.324 44.6147 145.513 44.9444 146.447 45.6036C147.376 46.2629 147.843 47.2962 147.843 48.6962C147.843 49.3888 147.661 50.0554 147.295 50.6925C146.928 51.3332 146.376 51.7999 145.647 52.0925L145.613 52.248Z" fill="white"/>
<path d="M161.733 52.7527H157.678C157.3 52.7527 156.852 52.7824 156.326 52.8453C155.803 52.9083 155.307 53.0602 154.837 53.3046C154.363 53.5453 153.967 53.9046 153.641 54.3787C153.315 54.849 153.155 55.4971 153.155 56.3193C153.155 56.949 153.274 57.4749 153.515 57.8972C153.755 58.3156 154.081 58.6527 154.489 58.9082C154.9 59.1601 155.363 59.3342 155.889 59.4267C156.411 59.523 156.955 59.5712 157.522 59.5712C157.711 59.5712 157.966 59.5601 158.292 59.5378C158.615 59.5156 158.978 59.486 159.378 59.4453C159.774 59.4008 160.178 59.3342 160.585 59.2379C160.992 59.1452 161.378 59.0341 161.733 58.9082L161.733 52.7527ZM164.089 59.6638C164.089 60.0416 163.941 60.2935 163.648 60.4194C162.707 60.8157 161.7 61.0897 160.633 61.2342C159.563 61.3823 158.537 61.4564 157.552 61.4564C156.211 61.4564 155.115 61.3082 154.255 61.012C153.396 60.7193 152.715 60.3379 152.211 59.8638C151.707 59.3898 151.355 58.8453 151.159 58.2231C150.959 57.6045 150.859 56.9601 150.859 56.2861C150.859 55.5083 150.996 54.7787 151.267 54.0972C151.541 53.4157 151.955 52.8194 152.511 52.3157C153.066 51.812 153.763 51.4194 154.6 51.1342C155.437 50.849 156.433 50.7083 157.585 50.7083H161.763V49.8712C161.763 49.3565 161.711 48.875 161.607 48.4342C161.5 47.9898 161.3 47.612 161.011 47.3009C160.715 46.9935 160.307 46.749 159.785 46.575C159.259 46.3972 158.581 46.3083 157.74 46.3083C157.052 46.3083 156.289 46.3787 155.463 46.5157C154.637 46.6491 153.929 46.8121 153.344 47.0009C153.196 47.0453 153.081 47.0602 152.996 47.0491C152.911 47.0379 152.852 46.9602 152.807 46.8121L152.496 45.6713C152.429 45.438 152.515 45.2787 152.744 45.1935C153.122 45.0454 153.529 44.9121 153.97 44.7935C154.411 44.6787 154.866 44.575 155.337 44.4898C155.807 44.4046 156.285 44.3491 156.766 44.3157C157.248 44.2824 157.7 44.2676 158.118 44.2676C160.148 44.2676 161.652 44.7195 162.626 45.6194C163.603 46.5194 164.089 47.838 164.089 49.5787V59.6638Z" fill="white"/>
<path d="M179.138 52.8142C179.138 51.5772 179.012 50.5402 178.764 49.7031C178.512 48.8661 178.153 48.1921 177.693 47.6772C177.234 47.1624 176.686 46.7957 176.06 46.5772C175.43 46.355 174.73 46.2476 173.956 46.2476C173.39 46.2476 172.723 46.3069 171.96 46.418C171.193 46.5365 170.53 46.7069 169.964 46.9365V58.8142C170.845 59.1105 171.605 59.292 172.242 59.3661C172.882 59.4401 173.442 59.4772 173.923 59.4772C174.679 59.4772 175.375 59.3549 176.012 59.1142C176.653 58.8734 177.201 58.4846 177.664 57.9512C178.123 57.4179 178.486 56.7253 178.745 55.8772C179.008 55.029 179.138 54.0068 179.138 52.8142ZM181.527 52.8142C181.527 54.029 181.382 55.1587 181.086 56.2068C180.793 57.2549 180.345 58.1661 179.738 58.9401C179.127 59.7179 178.367 60.329 177.46 60.7808C176.545 61.229 175.482 61.4549 174.271 61.4549C173.66 61.4549 172.993 61.4142 172.256 61.329C171.527 61.2438 170.76 61.0883 169.964 60.8587V67.1104C169.964 67.2772 169.938 67.3845 169.886 67.4253C169.834 67.466 169.723 67.4882 169.556 67.4882H168.112C167.964 67.4882 167.853 67.466 167.782 67.4253C167.708 67.3845 167.671 67.2772 167.671 67.1104V45.9031C167.671 45.6513 167.786 45.4847 168.016 45.3994C169.023 44.9588 170.075 44.6624 171.175 44.5032C172.275 44.3476 173.327 44.2661 174.33 44.2661C175.567 44.2661 176.642 44.4772 177.553 44.8958C178.464 45.3143 179.212 45.9032 179.797 46.655C180.386 47.4105 180.819 48.3106 181.104 49.3587C181.386 50.4068 181.527 51.5587 181.527 52.8142Z" fill="white"/>
<path d="M190.466 61.0151C190.392 61.0781 190.269 61.1077 190.099 61.1077H188.792C188.603 61.1077 188.469 61.0781 188.395 61.0151C188.321 60.9521 188.284 60.8152 188.284 60.6078V46.593H183.255C183.047 46.593 182.91 46.556 182.847 46.4819C182.784 46.4115 182.755 46.3004 182.755 46.1523V45.1152C182.755 44.9486 182.784 44.8226 182.847 44.7375C182.91 44.656 183.047 44.6152 183.255 44.6152H195.888C196.095 44.6152 196.229 44.656 196.28 44.7375C196.332 44.8226 196.358 44.9486 196.358 45.1152V46.1523C196.358 46.3004 196.332 46.4115 196.28 46.4819C196.229 46.556 196.095 46.593 195.888 46.593H190.577V60.6078C190.577 60.8152 190.54 60.9522 190.466 61.0151Z" fill="white"/>
<path d="M208.393 52.7527H204.338C203.96 52.7527 203.512 52.7824 202.986 52.8453C202.464 52.9083 201.967 53.0602 201.497 53.3046C201.023 53.5453 200.627 53.9046 200.301 54.3787C199.975 54.849 199.816 55.4971 199.816 56.3193C199.816 56.949 199.934 57.4749 200.175 57.8972C200.416 58.3156 200.741 58.6527 201.149 58.9082C201.556 59.1601 202.023 59.3342 202.549 59.4267C203.071 59.523 203.616 59.5712 204.182 59.5712C204.371 59.5712 204.627 59.5601 204.953 59.5378C205.275 59.5156 205.638 59.486 206.038 59.4453C206.434 59.4008 206.838 59.3342 207.245 59.2379C207.653 59.1452 208.038 59.0341 208.393 58.9082L208.393 52.7527ZM210.749 59.6638C210.749 60.0416 210.601 60.2935 210.308 60.4194C209.367 60.8157 208.36 61.0897 207.293 61.2342C206.223 61.3823 205.197 61.4564 204.212 61.4564C202.871 61.4564 201.775 61.3082 200.916 61.012C200.053 60.7193 199.375 60.3379 198.871 59.8638C198.367 59.3898 198.016 58.8453 197.819 58.2231C197.619 57.6045 197.519 56.9601 197.519 56.2861C197.519 55.5083 197.656 54.7787 197.927 54.0972C198.201 53.4157 198.616 52.8194 199.171 52.3157C199.727 51.812 200.423 51.4194 201.26 51.1342C202.097 50.849 203.093 50.7083 204.245 50.7083H208.423V49.8712C208.423 49.3565 208.371 48.875 208.267 48.4342C208.16 47.9898 207.96 47.612 207.671 47.3009C207.375 46.9935 206.967 46.749 206.445 46.575C205.919 46.3972 205.241 46.3083 204.401 46.3083C203.712 46.3083 202.949 46.3787 202.123 46.5157C201.297 46.6491 200.59 46.8121 200.005 47.0009C199.856 47.0453 199.742 47.0602 199.656 47.0491C199.571 47.0379 199.512 46.9602 199.467 46.8121L199.156 45.6713C199.09 45.438 199.175 45.2787 199.404 45.1935C199.782 45.0454 200.19 44.9121 200.63 44.7935C201.071 44.6787 201.527 44.575 201.997 44.4898C202.467 44.4046 202.945 44.3491 203.427 44.3157C203.908 44.2824 204.36 44.2676 204.778 44.2676C206.808 44.2676 208.312 44.7195 209.286 45.6194C210.26 46.5194 210.749 47.838 210.749 49.5787V59.6638Z" fill="white"/>
<path d="M216.688 46.0498C216.71 45.5387 216.847 45.172 217.099 44.9498C217.347 44.7239 217.688 44.6128 218.107 44.6128H226.329C226.877 44.6128 227.236 44.735 227.417 44.9795C227.595 45.2239 227.684 45.5831 227.684 46.0498V60.7312C227.684 60.9016 227.647 61.0089 227.573 61.0608C227.499 61.1126 227.366 61.1423 227.177 61.1423H225.899C225.729 61.1423 225.603 61.1126 225.517 61.0608C225.432 61.0089 225.392 60.9016 225.392 60.7312V46.6572H218.729L218.54 49.2017C218.373 51.2757 218.206 53.0201 218.036 54.4312C217.869 55.846 217.621 57.0238 217.284 57.9682C216.951 58.909 216.484 59.6534 215.888 60.1979C215.288 60.7423 214.488 61.1831 213.484 61.5201C213.358 61.5608 213.236 61.5867 213.121 61.5979C213.006 61.6053 212.918 61.5275 212.855 61.3608L212.51 60.2942C212.466 60.1238 212.466 60.0053 212.51 59.9312C212.551 59.8571 212.655 59.7793 212.821 59.6942C213.469 59.4238 213.999 59.0793 214.41 58.6571C214.818 58.2386 215.151 57.6645 215.414 56.9312C215.677 56.1979 215.881 55.246 216.029 54.0719C216.173 52.8979 216.31 51.4127 216.436 49.609L216.688 46.0498Z" fill="white"/>
<path d="M241.447 52.7527H237.391C237.014 52.7527 236.565 52.7824 236.039 52.8453C235.517 52.9083 235.021 53.0602 234.551 53.3046C234.076 53.5453 233.68 53.9046 233.354 54.3787C233.028 54.849 232.869 55.4971 232.869 56.3193C232.869 56.949 232.988 57.4749 233.228 57.8972C233.469 58.3156 233.795 58.6527 234.202 58.9082C234.61 59.1601 235.076 59.3342 235.602 59.4267C236.125 59.523 236.669 59.5712 237.236 59.5712C237.425 59.5712 237.68 59.5601 238.006 59.5378C238.328 59.5156 238.691 59.486 239.091 59.4453C239.488 59.4008 239.891 59.3342 240.299 59.2379C240.706 59.1452 241.091 59.0341 241.447 58.9082L241.447 52.7527ZM243.802 59.6638C243.802 60.0416 243.654 60.2935 243.362 60.4194C242.421 60.8157 241.413 61.0897 240.347 61.2342C239.276 61.3823 238.25 61.4564 237.265 61.4564C235.925 61.4564 234.828 61.3082 233.969 61.012C233.106 60.7193 232.428 60.3379 231.925 59.8638C231.421 59.3898 231.069 58.8453 230.873 58.2231C230.673 57.6045 230.573 56.9601 230.573 56.2861C230.573 55.5083 230.71 54.7787 230.98 54.0972C231.254 53.4157 231.669 52.8194 232.225 52.3157C232.78 51.812 233.476 51.4194 234.313 51.1342C235.15 50.849 236.147 50.7083 237.299 50.7083H241.476V49.8712C241.476 49.3565 241.425 48.875 241.321 48.4342C241.213 47.9898 241.013 47.612 240.725 47.3009C240.428 46.9935 240.021 46.749 239.495 46.575C238.973 46.3972 238.295 46.3083 237.454 46.3083C236.765 46.3083 236.002 46.3787 235.176 46.5157C234.351 46.6491 233.643 46.8121 233.054 47.0009C232.91 47.0453 232.795 47.0602 232.71 47.0491C232.625 47.0379 232.565 46.9602 232.521 46.8121L232.206 45.6713C232.143 45.438 232.228 45.2787 232.458 45.1935C232.836 45.0454 233.243 44.9121 233.684 44.7935C234.125 44.6787 234.58 44.575 235.051 44.4898C235.521 44.4046 235.999 44.3491 236.48 44.3157C236.962 44.2824 237.414 44.2676 237.832 44.2676C239.862 44.2676 241.365 44.7195 242.339 45.6194C243.313 46.5194 243.802 47.838 243.802 49.5787V59.6638Z" fill="white"/>
<path d="M49.5079 67.4875H45.1598C42.7968 67.4875 40.8746 65.5653 40.8746 63.2024V38.6877C40.8746 37.9359 40.2635 37.3247 39.5153 37.3173L34.9524 37.2877C34.5376 37.2989 34.2376 37.4248 33.9783 37.684C33.7154 37.9433 33.5747 38.2877 33.5747 38.6544V63.2024C33.5747 65.5653 31.6524 67.4875 29.2895 67.4875H24.9413C22.5784 67.4875 20.6562 65.5653 20.6562 63.2024V28.8507C20.6562 28.0952 20.0413 27.4841 19.2859 27.4841H15.1562C14.4007 27.4841 13.7896 28.0952 13.7896 28.8507V46.4284C13.7896 48.7914 11.8673 50.7136 9.50436 50.7136H2.32667C1.52293 50.7136 0.871094 50.0618 0.871094 49.2543C0.871094 48.4506 1.52292 47.7988 2.32667 47.7988H9.50436C10.2562 47.7988 10.8711 47.1839 10.8711 46.4284V28.8507C10.8711 26.4878 12.7932 24.5656 15.1562 24.5656H19.2859C21.6488 24.5656 23.571 26.4878 23.571 28.8507V63.2024C23.571 63.9579 24.1858 64.569 24.9413 64.569H29.2895C30.0413 64.569 30.6561 63.9579 30.6561 63.2024V38.6544C30.6561 37.5025 31.1042 36.4247 31.9228 35.6137C32.7376 34.8025 33.7932 34.3618 34.9709 34.3692L39.5375 34.4025C41.882 34.4174 43.793 36.3396 43.793 38.6877V63.2024C43.793 63.9579 44.4042 64.569 45.1598 64.569H49.5079C50.2634 64.569 50.8745 63.9579 50.8745 63.2024V18.7026C50.8745 16.3397 52.7967 14.4175 55.1596 14.4175H59.5078C61.8707 14.4175 63.793 16.3397 63.793 18.7026V38.1285C63.793 38.8803 64.4077 39.4951 65.1633 39.4951H72.3373C73.141 39.4951 73.7966 40.147 73.7966 40.9544C73.7966 41.7581 73.141 42.4136 72.3373 42.4136H65.1633C62.8004 42.4136 60.8781 40.4914 60.8781 38.1285V18.7026C60.8781 17.9508 60.2634 17.336 59.5078 17.336H55.1596C54.4079 17.336 53.793 17.9508 53.793 18.7026V63.2024C53.793 65.5653 51.8708 67.4875 49.5079 67.4875Z" fill="white"/>
<path d="M22.2345 15.8774C22.2345 18.6477 19.9862 20.8959 17.2159 20.8959C14.4456 20.8959 12.1974 18.6477 12.1974 15.8774C12.1974 13.107 14.4455 10.8589 17.2159 10.8589C19.9863 10.8589 22.2345 13.1071 22.2345 15.8774Z" fill="white"/>
<path d="M42.3516 25.4984C42.3516 28.2688 40.1034 30.517 37.3331 30.517C34.5628 30.517 32.3146 28.2688 32.3146 25.4984C32.3146 22.7281 34.5627 20.48 37.3331 20.48C40.1035 20.48 42.3516 22.7282 42.3516 25.4984Z" fill="white"/>
<path d="M62.4085 5.84025C62.4085 8.61061 60.1603 10.8588 57.39 10.8588C54.6197 10.8588 52.3715 8.61061 52.3715 5.84025C52.3715 3.06989 54.6196 0.821777 57.39 0.821777C60.1604 0.821777 62.4085 3.06995 62.4085 5.84025Z" fill="white"/>
</svg>
