<svg width="98" height="98" viewBox="0 0 98 98" fill="none" xmlns="http://www.w3.org/2000/svg">
<path d="M79.3428 1.81006H19.223C9.65005 1.81006 1.88965 9.57046 1.88965 19.1434V79.2632C1.88965 88.8361 9.65005 96.5965 19.223 96.5965H79.3428C88.9157 96.5965 96.6761 88.8361 96.6761 79.2632V19.1434C96.6761 9.57046 88.9157 1.81006 79.3428 1.81006Z" fill="url(#paint0_radial_349_754)"/>
<path d="M79.3421 3.14372C88.1645 3.14372 95.3421 10.3213 95.3421 19.1437V79.2629C95.3421 88.0853 88.1645 95.2629 79.3421 95.2629H19.2231C10.4006 95.2629 3.22306 88.0853 3.22306 79.2629V19.1437C3.22306 10.3213 10.4006 3.14372 19.2231 3.14372H79.3421ZM79.3421 0.477051H19.2231C8.95646 0.477051 0.556396 8.87712 0.556396 19.1437V79.2629C0.556396 89.5295 8.95646 97.9295 19.2231 97.9295H79.3421C89.6089 97.9295 98.0088 89.5295 98.0088 79.2629V19.1437C98.0088 8.87712 89.6089 0.477051 79.3421 0.477051Z" fill="#74ACDA"/>
<path d="M49.2827 51.0264C39.5901 51.0264 31.7045 43.1408 31.7045 33.4482C31.7045 23.7557 39.5901 15.8701 49.2827 15.8701C58.9752 15.8701 66.8608 23.7557 66.8608 33.4482C66.8608 43.1408 58.9752 51.0264 49.2827 51.0264Z" fill="white"/>
<path d="M76.6264 82.5369H21.9389C20.8603 82.5369 19.9858 81.6624 19.9858 80.5837C19.9858 73.7912 22.6232 67.3727 27.4121 62.5102C32.2246 57.6237 38.6045 54.9326 45.3764 54.9326H53.1889C59.9609 54.9326 66.3407 57.6237 71.1532 62.5102C75.9422 67.3727 78.5795 73.7912 78.5795 80.5837C78.5795 81.6624 77.705 82.5369 76.6264 82.5369Z" fill="white"/>
<defs>
<radialGradient id="paint0_radial_349_754" cx="0" cy="0" r="1" gradientUnits="userSpaceOnUse" gradientTransform="translate(-139.333 49.2033) scale(47.3932)">
<stop stop-color="#74ACDA"/>
<stop offset="0.17805" stop-color="#6CA3D4"/>
<stop offset="0.46287" stop-color="#588CC3"/>
<stop offset="0.8168" stop-color="#3866A9"/>
<stop offset="1" stop-color="#25509A"/>
</radialGradient>
</defs>
</svg>
