<svg width="98" height="98" viewBox="0 0 98 98" fill="none" xmlns="http://www.w3.org/2000/svg">
<path d="M79.1917 2H19.0719C9.49898 2 1.73859 9.7604 1.73859 19.3333V79.4531C1.73859 89.0261 9.49898 96.7865 19.0719 96.7865H79.1917C88.7646 96.7865 96.525 89.0261 96.525 79.4531V19.3333C96.525 9.7604 88.7646 2 79.1917 2Z" fill="url(#paint0_radial_349_929)"/>
<path d="M79.1914 3.14372C88.0138 3.14372 95.1914 10.3213 95.1914 19.1437V79.2629C95.1914 88.0853 88.0138 95.2629 79.1914 95.2629H19.0722C10.2498 95.2629 3.07225 88.0853 3.07225 79.2629V19.1437C3.07225 10.3213 10.2498 3.14372 19.0722 3.14372H79.1914ZM79.1914 0.477051H19.0722C8.80564 0.477051 0.405579 8.87712 0.405579 19.1437V79.2629C0.405579 89.5295 8.80564 97.9295 19.0722 97.9295H79.1914C89.458 97.9295 97.8581 89.5295 97.8581 79.2629V19.1437C97.8581 8.87712 89.458 0.477051 79.1914 0.477051Z" fill="#74ACDA"/>
<path d="M26.2151 32.5347C25.0651 32.5347 24.1317 33.4681 24.1317 34.6181V36.7014H17.8817C16.7317 36.7014 15.7984 37.6347 15.7984 38.7847V51.2847C15.7984 52.4347 16.7317 53.3681 17.8817 53.3681H24.1317V55.4514C24.1317 56.6014 25.0651 57.5347 26.2151 57.5347H27.4776L35.8526 79.8598C36.3651 81.1973 37.5109 82.1681 38.9193 82.4514C39.1984 82.5098 39.4776 82.5389 39.7526 82.5389C40.8651 82.5389 41.9234 82.0973 42.6818 81.3056L47.6859 76.3431C48.9651 75.0639 49.2693 73.068 48.4526 71.5222L41.4609 57.5347H46.9943C47.711 57.5681 48.4192 57.6806 49.1317 57.7472V32.3223C48.4109 32.3889 47.6985 32.5014 46.9735 32.5347H26.2151Z" fill="white"/>
<path d="M82.1234 16.8765C82.0818 16.8056 82.0442 16.7473 81.9901 16.6807C81.7609 16.389 81.4734 16.1515 81.1193 16.014C81.1068 16.0098 81.0984 15.9932 81.0859 15.989C81.0443 15.9765 81.0067 15.9973 80.9651 15.9848C80.7776 15.9306 80.5901 15.8682 80.3817 15.8682C80.2401 15.8682 80.1151 15.9223 79.9776 15.9515C79.8984 15.9682 79.8235 15.9723 79.7443 15.9973C79.386 16.114 79.0776 16.3139 78.8318 16.5889C78.8151 16.6056 78.7901 16.6098 78.7734 16.6265C72.2776 24.514 63.2192 29.789 53.2984 31.7223V58.3515C63.2192 60.2848 72.2776 65.5557 78.7734 73.4432C78.7901 73.464 78.8192 73.4723 78.8401 73.4973C78.9859 73.6598 79.1651 73.789 79.3568 73.8973C79.4193 73.9348 79.4692 73.989 79.5317 74.0182C79.7942 74.1307 80.0776 74.2015 80.3817 74.2015C80.6192 74.2015 80.8526 74.1598 81.0859 74.0807C81.0984 74.0765 81.1068 74.0598 81.1193 74.0557C81.4735 73.9182 81.7609 73.6848 81.9901 73.389C82.0401 73.3223 82.0776 73.264 82.1234 73.1932C82.3234 72.8724 82.4651 72.5182 82.4651 72.1182V17.9515C82.4651 17.5515 82.3234 17.1973 82.1234 16.8765Z" fill="white"/>
<defs>
<radialGradient id="paint0_radial_349_929" cx="0" cy="0" r="1" gradientUnits="userSpaceOnUse" gradientTransform="translate(49.1318 49.3932) scale(47.3932)">
<stop stop-color="#74ACDA"/>
<stop offset="0.17805" stop-color="#6CA3D4"/>
<stop offset="0.46287" stop-color="#588CC3"/>
<stop offset="0.8168" stop-color="#3866A9"/>
<stop offset="1" stop-color="#25509A"/>
</radialGradient>
</defs>
</svg>
