<svg width="78" height="77" viewBox="0 0 78 77" fill="none" xmlns="http://www.w3.org/2000/svg">
<path d="M0.425435 38.5461C0.425435 35.0578 0.893957 31.6776 1.82725 28.4107C2.76261 25.1458 4.06752 22.0856 5.7439 19.2344C7.42027 16.383 9.42798 13.7842 11.7614 11.4305C14.0967 9.08059 16.69 7.06745 19.5433 5.39089C22.3983 3.7164 25.451 2.4096 28.7014 1.47799C31.9518 0.542813 35.3265 0.0761719 38.8185 0.0761719C42.3142 0.0761719 45.6834 0.542813 48.9357 1.47799C52.186 2.40959 55.2387 3.72183 58.0938 5.41656C60.947 7.11129 63.5476 9.13175 65.9013 11.4817C68.2531 13.8353 70.2681 16.4341 71.9463 19.2855C73.6208 22.1369 74.9276 25.1897 75.8611 28.4363C76.7981 31.6867 77.2629 35.0578 77.2629 38.5461C77.2629 42.0729 76.7981 45.4605 75.8611 48.709C74.9276 51.9594 73.6208 55.0084 71.9463 57.8598C70.2681 60.7131 68.2531 63.3008 65.9013 65.638C63.5476 67.9714 60.947 69.9773 58.0938 71.652C55.2387 73.3283 52.186 74.6241 48.9358 75.5411C45.6835 76.4562 42.3142 76.9137 38.8185 76.9137C35.3265 76.9137 31.9518 76.447 28.7014 75.5154C25.451 74.5802 22.3983 73.2772 19.5433 71.599C16.69 69.9261 14.0967 67.9093 11.7614 65.5593C9.42797 63.2094 7.42025 60.6179 5.74388 57.783C4.0675 54.9481 2.76259 51.9081 1.82723 48.6579C0.893936 45.4094 0.425435 42.0399 0.425435 38.5461ZM3.95583 38.4949C3.95583 41.6758 4.36945 44.7412 5.19855 47.697C6.02933 50.6545 7.20624 53.4254 8.72707 56.0206C10.2498 58.6121 12.0744 60.962 14.203 63.0704C16.3278 65.1787 18.6794 66.9941 21.2563 68.5151C23.8331 70.0359 26.6004 71.2108 29.5579 72.0399C32.5154 72.869 35.5865 73.2845 38.7674 73.2845C41.9482 73.2845 45.0191 72.869 47.9766 72.0399C50.9343 71.2108 53.7087 70.0359 56.3039 68.5151C58.8954 66.9941 61.2599 65.1714 63.3867 63.0447C65.5134 60.9198 67.3361 58.5699 68.8588 55.9949C70.3815 53.418 71.5638 50.6545 72.413 47.697C73.2586 44.7412 73.683 41.6758 73.683 38.4949C73.683 35.3159 73.2586 32.2486 72.413 29.2927C71.5638 26.3353 70.3815 23.5644 68.8588 20.9711C67.3361 18.3777 65.5023 16.0186 63.3593 13.8938C61.2161 11.7673 58.8461 9.9462 56.2509 8.42351C53.6575 6.90456 50.8829 5.71845 47.9236 4.87305C44.9679 4.02935 41.9152 3.6028 38.7674 3.6028C33.9942 3.6028 29.4957 4.5271 25.279 6.3755C21.0588 8.22766 17.3655 10.7313 14.203 13.8938C11.0367 17.0563 8.53669 20.7552 6.7029 24.9884C4.87098 29.2232 3.95583 33.7256 3.95583 38.4949ZM33.2165 21.3866H45.0448L32.5924 34.0348H59.5725V42.7995H32.5924L45.0448 55.5026H33.2165L16.9774 38.4949V38.3375L33.2165 21.3866Z" fill="#74ACDA"/>
</svg>
