<svg width="29" height="36" viewBox="0 0 29 36" fill="none" xmlns="http://www.w3.org/2000/svg">
<path d="M0.321838 0.657227H17.0899L26.6986 10.2659V15.7297H23.6841V12.7152H14.6406V3.67171H3.33632V29.2949H11.8146L9.36529 32.3094H0.321838V0.657227ZM26.6986 30.6137L23.6841 26.2804V23.2659L26.6986 19.4978V30.6137ZM16.3363 32.3094L18.5859 29.5551L20.2928 32.3094H16.3363ZM16.9015 4.61373V10.4543H22.7421L16.9015 4.61373ZM10.3073 16.4833H15.7711L19.1906 21.3231L22.9305 16.4833H27.8291L21.4283 24.5498L28.9595 35.3238H23.3074L18.5763 28.1796L14.6407 33.063H9.74213L16.3385 24.953L10.3073 16.4833Z" fill="white"/>
</svg>
