<svg width="88" height="89" viewBox="0 0 88 89" fill="none" xmlns="http://www.w3.org/2000/svg">
<path d="M70.6092 0.379883H5.50195C2.56579 0.379883 0.174805 2.77084 0.174805 5.70699V83.0534C0.174805 85.9889 2.56581 88.3799 5.50195 88.3799H81.7682C84.7037 88.3799 87.0954 85.9889 87.0954 83.0534V15.5492L70.6092 0.379883ZM71.8919 7.6394L79.1201 14.2889H71.8919V7.6394ZM82.6191 83.0534H82.6138C82.6138 83.5229 82.2378 83.9044 81.7622 83.9044H5.50195C5.03386 83.9044 4.65104 83.5229 4.65104 83.0534V5.70699C4.65104 5.23754 5.03386 4.85608 5.50195 4.85608H67.4219V16.5257C67.4219 17.76 68.4208 18.7706 69.6545 18.7706H82.6191V83.0534Z" fill="#25509A"/>
<path d="M58.4041 40.3278C58.4041 39.4055 59.1516 38.6523 60.0795 38.6523H75.3593C76.2872 38.6523 77.0349 39.4055 77.0349 40.3278C77.0349 41.2557 76.2872 42.0034 75.3593 42.0034H60.0795C59.1516 42.0034 58.4041 41.2558 58.4041 40.3278Z" fill="#25509A"/>
<path d="M58.4041 51.6003C58.4041 50.678 59.1516 49.9248 60.0795 49.9248H75.3593C76.2872 49.9248 77.0349 50.678 77.0349 51.6003C77.0349 52.5282 76.2872 53.2759 75.3593 53.2759H60.0795C59.1516 53.2759 58.4041 52.5282 58.4041 51.6003Z" fill="#25509A"/>
<path d="M58.4041 29.0544C58.4041 28.1321 59.1516 27.3789 60.0795 27.3789H75.3593C76.2872 27.3789 77.0349 28.1321 77.0349 29.0544C77.0349 29.9823 76.2872 30.73 75.3593 30.73H60.0795C59.1516 30.73 58.4041 29.9823 58.4041 29.0544Z" fill="#25509A"/>
<path d="M77.035 74.1443C77.035 75.0722 76.2873 75.8254 75.3594 75.8254H11.9123C10.99 75.8254 10.2354 75.0722 10.2354 74.1443C10.2354 73.222 10.99 72.4688 11.9123 72.4688H75.3594C76.2873 72.4688 77.035 73.222 77.035 74.1443Z" fill="#25509A"/>
<path d="M37.1829 53.3663H28.0369C28.013 52.0512 28.0011 51.2501 28.0011 50.9632C28.0011 47.9983 28.4913 45.5593 29.4716 43.6465C30.452 41.7336 32.4126 39.5816 35.3536 37.1905C38.2947 34.7994 40.0521 33.2333 40.6259 32.492C41.5106 31.3204 41.9531 30.0292 41.9531 28.6185C41.9531 26.6578 41.17 24.978 39.6038 23.5792C38.0376 22.1805 35.9275 21.4811 33.2734 21.4811C30.7149 21.4811 28.5749 22.2103 26.8533 23.6689C25.1317 25.1275 23.9481 27.3512 23.3025 30.3401L14.049 29.1923C14.312 24.9123 16.1353 21.2778 19.5187 18.289C22.9021 15.3001 27.3436 13.8057 32.8431 13.8057C38.6295 13.8057 43.2322 15.318 46.6515 18.3428C50.0708 21.3675 51.7804 24.8884 51.7804 28.9054C51.7804 31.1291 51.1527 33.2333 49.8974 35.2179C48.6421 37.2025 45.9582 39.9044 41.8455 43.3237C39.7174 45.0931 38.3964 46.5158 37.8823 47.5918C37.3682 48.6678 37.1351 50.5926 37.1829 53.3663ZM28.0369 66.9238V56.8453H38.1154V66.9238H28.0369Z" fill="#25509A"/>
</svg>
